<?xml version="1.0" encoding="UTF-8"?>
<svg version="1.1" xmlns="http://www.w3.org/2000/svg" width="185" height="176">
<path d="M0 0 C0 0.66 0 1.32 0 2 C0.639375 2.268125 1.27875 2.53625 1.9375 2.8125 C4 4 4 4 5 7 C5.59039062 7.28101562 6.18078125 7.56203125 6.7890625 7.8515625 C16.74854806 13.02486419 23.00407625 29.54516094 26.25 39.4375 C32.49017308 61.20010362 31.17085882 84.33799756 20.14453125 104.37109375 C16.28928942 110.82135329 12.21745407 117.54282507 7 123 C6.34 123 5.68 123 5 123 C4.67902344 123.84304687 4.67902344 123.84304687 4.3515625 124.703125 C-2.65771316 136.61484202 -22.23342314 144.47911249 -35 148 C-36.0725 148.350625 -37.145 148.70125 -38.25 149.0625 C-65.10110343 155.77527586 -90.09847747 149.93033186 -114 137 C-114.99 136.34 -115.98 135.68 -117 135 C-117 134.34 -117 133.68 -117 133 C-117.804375 132.731875 -118.60875 132.46375 -119.4375 132.1875 C-120.7059375 131.5996875 -120.7059375 131.5996875 -122 131 C-122.33 130.01 -122.66 129.02 -123 128 C-123.556875 127.731875 -124.11375 127.46375 -124.6875 127.1875 C-128.03764163 125.467157 -130.62425507 122.91424712 -133 120 C-133 119.34 -133 118.68 -133 118 C-133.66 118 -134.32 118 -135 118 C-136.5283545 115.98868548 -137.90110169 114.0034419 -139.25 111.875 C-139.65041504 111.24408447 -140.05083008 110.61316895 -140.46337891 109.96313477 C-152.50973709 90.4814993 -156.76984705 67.60341466 -151.7668457 45.05493164 C-150.9718012 41.99004824 -150.02123199 38.99632302 -149 36 C-148.71125 35.08605469 -148.4225 34.17210937 -148.125 33.23046875 C-143.10773772 19.00742613 -131.82757457 6.127442 -120 -3 C-119.34 -3 -118.68 -3 -118 -3 C-118 -3.66 -118 -4.32 -118 -5 C-113.90600068 -7.36899961 -109.80184617 -9.71810888 -105.68261719 -12.04296875 C-104.39702164 -12.77418386 -103.12182507 -13.52371159 -101.8515625 -14.28125 C-70.47925356 -31.88381248 -26.04323163 -22.65855171 0 0 Z " fill="#F6F3F5" transform="translate(154,23)"/>
<path d="M0 0 C10.23717048 8.77246762 18.66163287 20.26005081 20.2890625 33.96923828 C21.41319502 49.64737408 17.55720339 64.31743649 7.3996582 76.57080078 C-0.44068139 85.45923888 -10.63881412 91.40907412 -21.9609375 94.86328125 C-22.60546875 95.06566406 -23.25 95.26804687 -23.9140625 95.4765625 C-39.46563414 99.71004589 -56.05714606 96.22811109 -70.04296875 88.75390625 C-83.65751268 79.93270242 -93.45761901 66.87521914 -96.9609375 50.86328125 C-98.05055188 33.16151317 -94.75364706 19.247024 -83.3984375 5.23828125 C-61.31130395 -18.62258004 -25.13467898 -18.13808628 0 0 Z " fill="#53AFF4" transform="translate(130.9609375,45.13671875)"/>
<path d="M0 0 C25.74 0 51.48 0 78 0 C78 8.25 78 16.5 78 25 C71.73 25 65.46 25 59 25 C60.0209375 27.413125 60.0209375 27.413125 61.0625 29.875 C62.22265625 32.6171875 62.22265625 32.6171875 63 35 C62.505 35.99 62.505 35.99 62 37 C61.01 35.35 60.02 33.7 59 32 C58.67 39.26 58.34 46.52 58 54 C62.95 54 67.9 54 73 54 C71 58 71 58 69.2578125 59.046875 C62.94459291 61.12815618 56.6206952 61.94317166 50 61 C47.140625 59.4765625 47.140625 59.4765625 45 58 C44.67 61.3 44.34 64.6 44 68 C45.36125 68.0928125 45.36125 68.0928125 46.75 68.1875 C50 69 50 69 52.4375 71.25 C54 74 54 74 53.9375 76.625 C52.50501187 80.25396992 50.81580715 81.54235209 47.4375 83.4375 C44.77701915 85.14293645 44.29444327 86.22619299 43 89 C42.01 89.33 41.02 89.66 40 90 C38.23378987 88.39435443 37.09462497 87.23292301 36.1875 85 C34.45622565 82.08416952 32.02304822 81.38556377 29 80 C27 78 27 78 26.625 75.625 C27.12247187 72.1426969 28.25981316 71.14771401 31 69 C33.75 67.75 33.75 67.75 36 67 C36 64.69 36 62.38 36 60 C32.51915709 58.80346025 30.53075139 59.0333384 27.25 60.4375 C22.78645623 62.25317882 18.77628748 62.81026306 14 62 C11.39561058 60.89409199 9.35701911 59.60477897 7 58 C7 57.01 7 56.02 7 55 C10.96 55 14.92 55 19 55 C18.85929562 51.89552247 18.71265848 48.79152225 18.5625 45.6875 C18.52318359 44.80642578 18.48386719 43.92535156 18.44335938 43.01757812 C18.40146484 42.17001953 18.35957031 41.32246094 18.31640625 40.44921875 C18.27974854 39.66893311 18.24309082 38.88864746 18.20532227 38.0847168 C18.05874737 35.80670899 18.05874737 35.80670899 17 33 C16.34 33.66 15.68 34.32 15 35 C15.66 31.7 16.32 28.4 17 25 C11.39 25 5.78 25 0 25 C0 16.75 0 8.5 0 0 Z " fill="#64674E" transform="translate(53,47)"/>
<path d="M0 0 C0 0.66 0 1.32 0 2 C0.639375 2.268125 1.27875 2.53625 1.9375 2.8125 C4 4 4 4 5 7 C5.59039062 7.28101562 6.18078125 7.56203125 6.7890625 7.8515625 C16.74854806 13.02486419 23.00407625 29.54516094 26.25 39.4375 C32.49017308 61.20010362 31.17085882 84.33799756 20.14453125 104.37109375 C16.28928942 110.82135329 12.21745407 117.54282507 7 123 C6.34 123 5.68 123 5 123 C4.67902344 123.84304687 4.67902344 123.84304687 4.3515625 124.703125 C-2.65771316 136.61484202 -22.23342314 144.47911249 -35 148 C-36.0725 148.350625 -37.145 148.70125 -38.25 149.0625 C-65.10110343 155.77527586 -90.09847747 149.93033186 -114 137 C-114.99 136.34 -115.98 135.68 -117 135 C-117 134.34 -117 133.68 -117 133 C-117.804375 132.731875 -118.60875 132.46375 -119.4375 132.1875 C-120.7059375 131.5996875 -120.7059375 131.5996875 -122 131 C-122.33 130.01 -122.66 129.02 -123 128 C-123.556875 127.731875 -124.11375 127.46375 -124.6875 127.1875 C-128.03764163 125.467157 -130.62425507 122.91424712 -133 120 C-133 119.34 -133 118.68 -133 118 C-133.66 118 -134.32 118 -135 118 C-136.5283545 115.98868548 -137.90110169 114.0034419 -139.25 111.875 C-139.65041504 111.24408447 -140.05083008 110.61316895 -140.46337891 109.96313477 C-152.50973709 90.4814993 -156.76984705 67.60341466 -151.7668457 45.05493164 C-150.9718012 41.99004824 -150.02123199 38.99632302 -149 36 C-148.71125 35.08605469 -148.4225 34.17210937 -148.125 33.23046875 C-143.10773772 19.00742613 -131.82757457 6.127442 -120 -3 C-119.34 -3 -118.68 -3 -118 -3 C-118 -3.66 -118 -4.32 -118 -5 C-113.90600068 -7.36899961 -109.80184617 -9.71810888 -105.68261719 -12.04296875 C-104.39702164 -12.77418386 -103.12182507 -13.52371159 -101.8515625 -14.28125 C-70.47925356 -31.88381248 -26.04323163 -22.65855171 0 0 Z M-129.390625 10.97265625 C-135.97932778 18.61673507 -141.58381294 27.48234396 -145 37 C-145.55494141 38.35931641 -145.55494141 38.35931641 -146.12109375 39.74609375 C-152.16006225 56.81819502 -150.96927983 77.40067973 -144 94 C-143.74299316 94.62293945 -143.48598633 95.24587891 -143.22119141 95.88769531 C-139.46265864 104.72451576 -134.45037649 111.93634493 -128 119 C-126.96939453 120.16982422 -126.96939453 120.16982422 -125.91796875 121.36328125 C-116.70634828 131.25850992 -104.50666444 138.11898861 -92 143 C-90.41638672 143.62068359 -90.41638672 143.62068359 -88.80078125 144.25390625 C-80.33380725 147.02474039 -72.23354494 147.38066019 -63.375 147.4375 C-62.25528809 147.44765137 -61.13557617 147.45780273 -59.98193359 147.46826172 C-36.17219312 147.22064321 -14.70950346 137.01753692 2.5 120.9375 C18.2198781 104.80538733 25.71682949 83.32139429 25.46801758 61.07836914 C24.90160427 43.97447113 18.2382731 27.00673231 7 14 C6.43023437 13.2884375 5.86046875 12.576875 5.2734375 11.84375 C-8.03438361 -4.14754121 -26.3419479 -11.95558795 -46 -17 C-46.93694702 -17.26828613 -46.93694702 -17.26828613 -47.89282227 -17.54199219 C-78.23289989 -24.13659138 -108.64123064 -10.40641626 -129.390625 10.97265625 Z " fill="#3E4563" transform="translate(154,23)"/>
<path d="M0 0 C25.74 0 51.48 0 78 0 C78 8.25 78 16.5 78 25 C71.73 25 65.46 25 59 25 C58.505 26.485 58.505 26.485 58 28 C57.505 27.01 57.505 27.01 57 26 C51.72 26 46.44 26 41 26 C41.495 24.515 41.495 24.515 42 23 C50.415 22.505 50.415 22.505 59 22 C59.495 20.515 59.495 20.515 60 19 C59.44828125 19.32742187 58.8965625 19.65484375 58.328125 19.9921875 C55.61219077 21.16787715 53.69448241 21.20248638 50.75 21.125 C49.85796875 21.10695313 48.9659375 21.08890625 48.046875 21.0703125 C47.37140625 21.04710938 46.6959375 21.02390625 46 21 C46 20.34 46 19.68 46 19 C44.35 19 42.7 19 41 19 C40.97298592 16.89590361 40.95359777 14.79170822 40.9375 12.6875 C40.92589844 11.51574219 40.91429687 10.34398437 40.90234375 9.13671875 C41 6 41 6 42 3 C39.69 3 37.38 3 35 3 C35.495 3.99 35.495 3.99 36 5 C36.07116382 7.37402501 36.08409085 9.75000677 36.0625 12.125 C36.05347656 13.40632813 36.04445312 14.68765625 36.03515625 16.0078125 C36.02355469 16.99523437 36.01195312 17.98265625 36 19 C34.68 19 33.36 19 32 19 C31.67 19.99 31.34 20.98 31 22 C29.56260487 22.02712066 28.12506137 22.04645067 26.6875 22.0625 C25.48673828 22.07990234 25.48673828 22.07990234 24.26171875 22.09765625 C22 22 22 22 19 21 C18.67 21.99 18.34 22.98 18 24 C23.94 24 29.88 24 36 24 C36 24.33 36 24.66 36 25 C30.06 25.33 24.12 25.66 18 26 C17.34 27.32 16.68 28.64 16 30 C16.33 28.35 16.66 26.7 17 25 C11.39 25 5.78 25 0 25 C0 16.75 0 8.5 0 0 Z " fill="#233164" transform="translate(53,47)"/>
<path d="M0 0 C10.52488379 8.11591857 18.62572806 19.61071562 21.64453125 32.734375 C22.08685577 36.7600251 22.17630926 40.72630003 22.1796875 44.7734375 C22.19193359 45.53785156 22.20417969 46.30226562 22.21679688 47.08984375 C22.25599522 62.48172607 15.17012033 75.42646289 4.9296875 86.5234375 C-8.17094427 99.1754175 -25.57434991 104.32217093 -43.45776367 104.26660156 C-60.44766526 103.80787234 -75.38999397 96.57210217 -87.34765625 84.7109375 C-99.56907313 71.78961568 -103.466687 56.94088773 -103.21484375 39.6015625 C-103.04360416 34.25216363 -102.25597866 29.77879821 -100.0078125 24.8984375 C-99.53214844 23.86460938 -99.05648437 22.83078125 -98.56640625 21.765625 C-90.21785051 5.06851351 -77.66039533 -4.74401019 -60.34765625 -11.07421875 C-39.39235928 -17.41091193 -17.61072584 -12.30463701 0 0 Z M-86.203125 9.28515625 C-90.24062379 14.14952288 -93.72041336 18.98656049 -96.0078125 24.8984375 C-96.30558594 25.66027344 -96.60335937 26.42210937 -96.91015625 27.20703125 C-101.04998952 39.74099651 -100.46294312 53.92243883 -95.0078125 65.8984375 C-94.68039063 66.66027344 -94.35296875 67.42210938 -94.015625 68.20703125 C-87.63820379 81.26445204 -75.76949922 91.08372462 -62.3828125 96.2109375 C-60.59854334 96.79647935 -58.8070999 97.36081259 -57.0078125 97.8984375 C-55.93660156 98.23681641 -55.93660156 98.23681641 -54.84375 98.58203125 C-44.03153078 101.51793347 -32.4559111 100.69082314 -22.0078125 96.8984375 C-21.02039063 96.54652344 -20.03296875 96.19460937 -19.015625 95.83203125 C-3.32370487 89.78285593 7.72153216 79.48856496 14.6171875 64.1953125 C19.93132157 51.45346831 19.79674259 36.8843626 14.609375 24.12109375 C11.97850024 18.87840854 8.7657714 14.37408352 4.9921875 9.8984375 C4.21101563 8.93164062 4.21101563 8.93164062 3.4140625 7.9453125 C-6.0045234 -2.61492017 -22.33368782 -9.30847894 -36.21484375 -10.33984375 C-55.1508633 -10.72964264 -73.06284244 -5.00080931 -86.203125 9.28515625 Z " fill="#323855" transform="translate(133.0078125,42.1015625)"/>
<path d="M0 0 C6.27 0 12.54 0 19 0 C19 18.15 19 36.3 19 55 C-5 64 -5 64 -15 67 C-15.495 64.525 -15.495 64.525 -16 62 C-13.7761796 59.20434007 -12.08899084 57.3826184 -8.6875 56.1875 C-8.130625 56.125625 -7.57375 56.06375 -7 56 C-6.05728998 52.74360341 -6.05728998 52.74360341 -6 49 C-8.86452508 45.2351956 -10.37052063 44.15736984 -15 43 C-15 39.7 -15 36.4 -15 33 C-12 33 -12 33 -9 35 C-1.90893117 35.81983829 5.61936546 35.47644438 12 32 C12.66 31.01 13.32 30.02 14 29 C9.05 29 4.1 29 -1 29 C-1 21.08 -1 13.16 -1 5 C-0.01 6.32 0.98 7.64 2 9 C1.67 8.071875 1.34 7.14375 1 6.1875 C0 3 0 3 0 0 Z " fill="#50B1FA" transform="translate(112,72)"/>
<path d="M0 0 C7.51277942 3.75638971 11.4297691 10.59684563 15 18 C15.39574219 18.79921875 15.79148438 19.5984375 16.19921875 20.421875 C21.08575073 31.73805431 20.50287111 45.63237445 16 57 C12.6604059 65.04207552 8.56379711 72.14580258 2 78 C1.34 78 0.68 78 0 78 C0 52.26 0 26.52 0 0 Z " fill="#FBFBFC" transform="translate(132,48)"/>
<path d="M0 0 C0.95201387 17.32102138 1.12309132 34.59351995 1.0625 51.9375 C1.05746762 54.48242098 1.05290783 57.02734294 1.04882812 59.57226562 C1.03797705 65.71486568 1.02138073 71.85742801 1 78 C-0.13049825 77.04651023 -1.25882756 76.09044848 -2.38623047 75.13330078 C-3.32908401 74.33510422 -3.32908401 74.33510422 -4.29098511 73.52078247 C-12.29527495 66.39809224 -17.58784342 53.69585521 -18.23828125 43.12890625 C-18.57325033 29.40422705 -16.57244618 17.22100856 -8 6 C-2.13226453 0 -2.13226453 0 0 0 Z " fill="#FAFBFC" transform="translate(52,49)"/>
<path d="M0 0 C2.31 0 4.62 0 7 0 C6.67 5.28 6.34 10.56 6 16 C7.65 16 9.3 16 11 16 C11 16.66 11 17.32 11 18 C12.58367747 17.85795259 14.16693318 17.71119847 15.75 17.5625 C16.63171875 17.48128906 17.5134375 17.40007812 18.421875 17.31640625 C20.69350452 17.03761535 22.79851823 16.61209423 25 16 C24.67 17.32 24.34 18.64 24 20 C15.585 20.495 15.585 20.495 7 21 C7 21.33 7 21.66 7 22 C11.29 22 15.58 22 20 22 C19.15666275 26.21668627 18.07200334 28.8744918 16.12109375 32.59765625 C13.96121953 37.22595815 12.52497836 42.13304779 11 47 C10.34 47 9.68 47 9 47 C8.36523438 43.97265625 8.36523438 43.97265625 7.73046875 40.9453125 C7.07691162 38.62953451 7.07691162 38.62953451 4 37 C3.67 37.99 3.34 38.98 3 40 C2.67 40 2.34 40 2 40 C1.34 43.63 0.68 47.26 0 51 C-0.99 51 -1.98 51 -3 51 C-3.33 50.67 -3.66 50.34 -4 50 C-4 50.66 -4 51.32 -4 52 C-7.63 52 -11.26 52 -15 52 C-15 44.41 -15 36.82 -15 29 C-14.34 29 -13.68 29 -13 29 C-13.66 28.01 -14.32 27.02 -15 26 C-15 24.68 -15 23.36 -15 22 C-15.66 21.67 -16.32 21.34 -17 21 C-16.67 19.68 -16.34 18.36 -16 17 C-15.01 17.33 -14.02 17.66 -13 18 C-11.43881572 18.06740865 -9.8749748 18.08514456 -8.3125 18.0625 C-7.50425781 18.05347656 -6.69601563 18.04445313 -5.86328125 18.03515625 C-5.24839844 18.02355469 -4.63351563 18.01195313 -4 18 C-3.67 17.34 -3.34 16.68 -3 16 C-1.68 16 -0.36 16 1 16 C0.67 10.72 0.34 5.44 0 0 Z " fill="#64ADE7" transform="translate(88,50)"/>
<path d="M0 0 C0.99 1.485 0.99 1.485 2 3 C-23.08 3 -48.16 3 -74 3 C-53.68948063 -17.31051937 -22.73909833 -13.45894126 0 0 Z " fill="#F9F9FA" transform="translate(128,43)"/>
<path d="M0 0 C6.27 0 12.54 0 19 0 C19.09218573 4.16372198 19.17169966 8.32386084 19.21972656 12.48779297 C19.23975843 13.90197795 19.26699248 15.31608097 19.30175781 16.72998047 C19.35065489 18.77071419 19.37305123 20.8103469 19.390625 22.8515625 C19.41157227 24.07697754 19.43251953 25.30239258 19.45410156 26.56494141 C18.91188415 30.66655375 17.59119837 32.81322346 15 36 C12.73828125 36.8046875 12.73828125 36.8046875 10.3125 36.875 C9.01119141 36.93107422 9.01119141 36.93107422 7.68359375 36.98828125 C6.79800781 36.99214844 5.91242188 36.99601562 5 37 C3.68708984 37.02126953 3.68708984 37.02126953 2.34765625 37.04296875 C0.23178836 37.05968177 -1.88434128 37.03412353 -4 37 C-4 36.67 -4 36.34 -4 36 C-3.19175781 35.89042969 -2.38351563 35.78085938 -1.55078125 35.66796875 C-0.48214844 35.50941406 0.58648437 35.35085937 1.6875 35.1875 C2.74324219 35.03667969 3.79898438 34.88585937 4.88671875 34.73046875 C8.13371358 33.9686268 10.2975728 32.93308756 13 31 C13.33 30.34 13.66 29.68 14 29 C9.05 29 4.1 29 -1 29 C-1 21.08 -1 13.16 -1 5 C-0.01 6.32 0.98 7.64 2 9 C1.67 8.071875 1.34 7.14375 1 6.1875 C0 3 0 3 0 0 Z " fill="#51B1F8" transform="translate(112,72)"/>
<path d="M0 0 C0 0.66 0 1.32 0 2 C-1.95679687 2.27263672 -1.95679687 2.27263672 -3.953125 2.55078125 C-30.53453317 6.32847443 -52.99688996 13.84413583 -71 35 C-82.53131657 50.46895007 -88.56633002 67.60482671 -89.5625 86.875 C-89.60568359 87.65875 -89.64886719 88.4425 -89.69335938 89.25 C-89.79853351 91.16650649 -89.89967925 93.08323333 -90 95 C-90.66 95 -91.32 95 -92 95 C-92.60106132 66.75011819 -88.53394728 47.05491386 -68.7109375 25.69140625 C-60.96371553 18 -60.96371553 18 -58 18 C-58 17.34 -58 16.68 -58 16 C-38.22027846 4.5544308 -23.37649546 -0.38532685 0 0 Z " fill="#414B68" transform="translate(94,2)"/>
<path d="M0 0 C5.28 0 10.56 0 16 0 C16.02704655 3.70838254 16.04686203 7.41656645 16.0625 11.125 C16.07087891 12.17171875 16.07925781 13.2184375 16.08789062 14.296875 C16.10375207 19.3090905 16.08177213 24.07665912 15 29 C14.01 29 13.02 29 12 29 C11.67 28.67 11.34 28.34 11 28 C11 28.66 11 29.32 11 30 C7.37 30 3.74 30 0 30 C0 22.41 0 14.82 0 7 C0.66 7 1.32 7 2 7 C1.34 6.01 0.68 5.02 0 4 C0 2.68 0 1.36 0 0 Z " fill="#50A8EC" transform="translate(73,72)"/>
<path d="M0 0 C1.66611905 -0.042721 3.33382885 -0.04063832 5 0 C7.03526279 2.03526279 6.86791601 5.89274206 7.3046875 8.65234375 C7.83111044 11.34982523 7.83111044 11.34982523 11 13 C11 12.34 11 11.68 11 11 C10.34 11 9.68 11 9 11 C9 10.34 9 9.68 9 9 C11.86724686 9.57344937 12.8614515 9.8614515 15 12 C14.66480447 18.1452514 14.66480447 18.1452514 12.6875 20.6875 C12.130625 21.120625 11.57375 21.55375 11 22 C10.34 22.66 9.68 23.32 9 24 C7.33333333 25.66666667 5.66666667 27.33333333 4 29 C0.20588235 26.47058824 0.20588235 26.47058824 -0.875 24 C-2.5359884 21.04713174 -4.98641835 20.38122492 -8 19 C-10 17 -10 17 -10.375 14.625 C-9.87752813 11.1426969 -8.74018684 10.14771401 -6 8 C-5.113125 7.71125 -4.22625 7.4225 -3.3125 7.125 C-2.549375 6.75375 -1.78625 6.3825 -1 6 C-0.10169161 2.94727535 -0.10169161 2.94727535 0 0 Z " fill="#CCC321" transform="translate(90,108)"/>
<path d="M0 0 C1.65703637 3.02121144 1.54353791 6.06504769 1.56663513 9.42753601 C1.58313614 10.18726212 1.59963715 10.94698822 1.61663818 11.72973633 C1.66557461 14.24462189 1.69087199 16.75894998 1.7118988 19.2742157 C1.72649423 20.56434193 1.72649423 20.56434193 1.74138451 21.88053131 C1.79221933 26.43380971 1.82498171 30.9868068 1.84300232 35.54032898 C1.86502013 40.23681844 1.94742801 44.93018361 2.04411793 49.62564468 C2.10763876 53.24263686 2.12630732 56.85888463 2.13295555 60.47638702 C2.14385624 62.20684644 2.17147165 63.93728683 2.21636391 65.66719818 C2.54329412 79.18025927 2.54329412 79.18025927 -1.09751892 83.53620911 C-3.650865 85.36103078 -6.05917493 86.69927561 -8.93263245 87.9460907 C-9.60036179 88.29217377 -10.26809113 88.63825684 -10.95605469 88.99482727 C-12.65796384 89.85507038 -14.42022236 90.59278881 -16.18263245 91.3210907 C-17.3221637 91.80320007 -18.46169495 92.28530945 -19.63575745 92.7820282 C-24.38120971 94.45755518 -28.79275866 95.08457363 -33.80763245 95.0085907 C-34.97939026 94.99505554 -34.97939026 94.99505554 -36.17481995 94.98124695 C-36.75489807 94.96964539 -37.3349762 94.95804382 -37.93263245 94.9460907 C-35.16330911 93.09987514 -32.83528502 92.04840828 -29.7412262 90.88749695 C-28.19918518 90.30838562 -28.19918518 90.30838562 -26.62599182 89.71757507 C-25.55155823 89.31861023 -24.47712463 88.91964539 -23.37013245 88.5085907 C-22.32276917 88.11349304 -21.27540588 87.71839539 -20.19630432 87.31132507 C-13.80500168 84.92402061 -7.50045534 82.91643757 -0.93263245 80.9460907 C-0.93263245 54.5460907 -0.93263245 28.1460907 -0.93263245 0.9460907 C-26.67263245 0.9460907 -52.41263245 0.9460907 -78.93263245 0.9460907 C-78.93263245 9.1960907 -78.93263245 17.4460907 -78.93263245 25.9460907 C-79.26263245 25.9460907 -79.59263245 25.9460907 -79.93263245 25.9460907 C-80.26263245 18.6860907 -80.59263245 11.4260907 -80.93263245 3.9460907 C-82.91263245 4.9360907 -82.91263245 4.9360907 -84.93263245 5.9460907 C-80.98037047 0.17670535 -80.98037047 0.17670535 -76.3903656 -0.83358765 C-75.01169532 -0.87752656 -73.63174911 -0.88911982 -72.25245667 -0.87446594 C-71.49576691 -0.88991455 -70.73907715 -0.90536316 -69.9594574 -0.92127991 C-67.46817881 -0.96453829 -64.97894278 -0.96515024 -62.48731995 -0.96406555 C-60.75284894 -0.98294175 -59.01840048 -1.00400515 -57.28398132 -1.02716064 C-53.65420559 -1.06937767 -50.02504616 -1.09164602 -46.39503479 -1.09858704 C-41.73930624 -1.10816547 -37.08506089 -1.15730006 -32.42977715 -1.22002506 C-28.85083706 -1.26563081 -25.27190959 -1.29547292 -21.6927681 -1.31999016 C-19.97590641 -1.33268168 -18.25906813 -1.34910174 -16.54227829 -1.36929512 C-14.14596119 -1.39410114 -11.75044633 -1.3989288 -9.35401917 -1.39790344 C-8.64330261 -1.40861374 -7.93258606 -1.41932404 -7.20033264 -1.43035889 C-4.49947314 -1.41224517 -2.39625998 -1.30673615 0 0 Z " fill="#B0C0D9" transform="translate(131.93263244628906,46.05390930175781)"/>
<path d="M0 0 C0.99 1.32 1.98 2.64 3 4 C3 3.01 3 2.02 3 1 C5.34191563 3.1290142 6.83554954 5.04408729 8 8 C8 9.32 8 10.64 8 12 C8.66 12 9.32 12 10 12 C12.31 16.62 14.62 21.24 17 26 C10.10895096 31.51283923 5.50390019 32.34015601 -3 32 C-3 31.67 -3 31.34 -3 31 C-2.19175781 30.89042969 -1.38351563 30.78085938 -0.55078125 30.66796875 C0.51785156 30.50941406 1.58648437 30.35085937 2.6875 30.1875 C3.74324219 30.03667969 4.79898438 29.88585937 5.88671875 29.73046875 C9.13371358 28.9686268 11.2975728 27.93308756 14 26 C14.33 25.34 14.66 24.68 15 24 C10.05 24 5.1 24 0 24 C0 16.08 0 8.16 0 0 Z " fill="#556D62" transform="translate(111,77)"/>
<path d="M0 0 C0 0.66 0 1.32 0 2 C-1.95679687 2.27263672 -1.95679687 2.27263672 -3.953125 2.55078125 C-25.8689212 5.66540758 -43.643347 10.78380764 -61 25 C-62.32822639 26.00677328 -63.65957657 27.00952395 -65 28 C-65 25 -65 25 -62.625 22.5625 C-61.75875 21.716875 -60.8925 20.87125 -60 20 C-59.7525 19.36964844 -59.505 18.73929688 -59.25 18.08984375 C-57.38224875 14.96719713 -54.4923788 13.6709507 -51.375 12 C-50.73981445 11.65042236 -50.10462891 11.30084473 -49.45019531 10.94067383 C-47.6392116 9.94935226 -45.82042872 8.97382864 -44 8 C-43.22398438 7.57074219 -42.44796875 7.14148438 -41.6484375 6.69921875 C-28.58047581 -0.26498306 -14.49669973 -0.23895659 0 0 Z " fill="#3F4665" transform="translate(94,2)"/>
<path d="M0 0 C2.5625 0.3125 2.5625 0.3125 4.25 1.375 C5.73460332 3.56655728 6.26010848 5.6624016 6.89453125 8.2109375 C7.99319584 11.66755476 9.74526834 14.78448189 11.44140625 17.98046875 C12.5625 20.3125 12.5625 20.3125 13.02734375 22.55078125 C13.20394531 23.13214844 13.38054688 23.71351563 13.5625 24.3125 C14.5525 24.6425 15.5425 24.9725 16.5625 25.3125 C16.5625 25.9725 16.5625 26.6325 16.5625 27.3125 C13.75 30 13.75 30 10.5625 32.3125 C9.5725 31.9825 8.5825 31.6525 7.5625 31.3125 C8.375 29.375 8.375 29.375 9.5625 27.3125 C10.5525 26.9825 11.5425 26.6525 12.5625 26.3125 C12.2325 25.6525 11.9025 24.9925 11.5625 24.3125 C9.5825 25.3025 9.5825 25.3025 7.5625 26.3125 C7.5625 25.3225 7.5625 24.3325 7.5625 23.3125 C6.2425 23.6425 4.9225 23.9725 3.5625 24.3125 C3.5625 22.9925 3.5625 21.6725 3.5625 20.3125 C4.5525 19.6525 5.5425 18.9925 6.5625 18.3125 C6.5625 16.9925 6.5625 15.6725 6.5625 14.3125 C6.2325 15.6325 5.9025 16.9525 5.5625 18.3125 C4.9025 18.3125 4.2425 18.3125 3.5625 18.3125 C3.2325 17.6525 2.9025 16.9925 2.5625 16.3125 C1.2425 16.3125 -0.0775 16.3125 -1.4375 16.3125 C-1.7675 15.3225 -2.0975 14.3325 -2.4375 13.3125 C-1.1175 12.6525 0.2025 11.9925 1.5625 11.3125 C0.758125 11.003125 -0.04625 10.69375 -0.875 10.375 C-3.4375 9.3125 -3.4375 9.3125 -4.4375 8.3125 C-4.625 5.375 -4.625 5.375 -4.4375 2.3125 C-2.4375 0.3125 -2.4375 0.3125 0 0 Z " fill="#232225" transform="translate(20.4375,104.6875)"/>
<path d="M0 0 C2.31 0 4.62 0 7 0 C6.67 5.28 6.34 10.56 6 16 C7.65 16 9.3 16 11 16 C11 16.66 11 17.32 11 18 C12.58367747 17.85795259 14.16693318 17.71119847 15.75 17.5625 C16.63171875 17.48128906 17.5134375 17.40007812 18.421875 17.31640625 C20.69350452 17.03761535 22.79851823 16.61209423 25 16 C24.67 17.32 24.34 18.64 24 20 C15.585 20.495 15.585 20.495 7 21 C6.67 21.66 6.34 22.32 6 23 C5.36707031 22.84660156 4.73414062 22.69320312 4.08203125 22.53515625 C-0.04026849 21.81937036 -4.13766507 21.63849837 -8.3125 21.4375 C-9.56643555 21.37272461 -9.56643555 21.37272461 -10.84570312 21.30664062 C-12.89696935 21.20114693 -14.9484648 21.10012685 -17 21 C-16.67 19.68 -16.34 18.36 -16 17 C-15.01 17.33 -14.02 17.66 -13 18 C-11.43881572 18.06740865 -9.8749748 18.08514456 -8.3125 18.0625 C-7.50425781 18.05347656 -6.69601563 18.04445313 -5.86328125 18.03515625 C-5.24839844 18.02355469 -4.63351563 18.01195313 -4 18 C-3.67 17.34 -3.34 16.68 -3 16 C-1.68 16 -0.36 16 1 16 C0.67 10.72 0.34 5.44 0 0 Z " fill="#F4E517" transform="translate(88,50)"/>
<path d="M0 0 C0.99 0.33 1.98 0.66 3 1 C3 1.66 3 2.32 3 3 C3.99 3.33 4.98 3.66 6 4 C6.73046875 5.84765625 6.73046875 5.84765625 7.1875 8.0625 C7.34605469 8.79597656 7.50460938 9.52945313 7.66796875 10.28515625 C7.77753906 10.85105469 7.88710937 11.41695312 8 12 C6.29159719 10.36587557 5.06546953 9.13093906 4 7 C3.67 14.26 3.34 21.52 3 29 C7.95 29 12.9 29 18 29 C16 33 16 33 14.08203125 34.046875 C7.84016226 35.98067262 2.47664271 37.13832056 -3.8125 34.6875 C-7 33 -7 33 -9 30 C-5.7 30 -2.4 30 1 30 C0.67 22.08 0.34 14.16 0 6 C-0.66 6.66 -1.32 7.32 -2 8 C-1.47731534 5.23723823 -0.89130413 2.6739124 0 0 Z " fill="#EFE618" transform="translate(108,72)"/>
<path d="M0 0 C0.66 0 1.32 0 2 0 C3.5625 2.8125 3.5625 2.8125 5 6 C4.67 6.99 4.34 7.98 4 9 C3.67 8.34 3.34 7.68 3 7 C2.67 14.26 2.34 21.52 2 29 C5.63 29 9.26 29 13 29 C12.67 27.68 12.34 26.36 12 25 C13.5 26.25 13.5 26.25 15 28 C15 29.32 15 30.64 15 32 C8.75478376 34.92051866 2.96766229 37.33696841 -4 36 C-6.59874222 34.88762326 -8.64528062 33.60321319 -11 32 C-11 31.01 -11 30.02 -11 29 C-7.04 29 -3.08 29 1 29 C0.85929562 25.89552247 0.71265848 22.79152225 0.5625 19.6875 C0.52318359 18.80642578 0.48386719 17.92535156 0.44335938 17.01757812 C0.38051758 15.74624023 0.38051758 15.74624023 0.31640625 14.44921875 C0.27974854 13.66893311 0.24309082 12.88864746 0.20532227 12.0847168 C0.05874737 9.80670899 0.05874737 9.80670899 -1 7 C-1.66 7.66 -2.32 8.32 -3 9 C-2.44271087 5.65626525 -1.64826111 2.96687001 0 0 Z " fill="#F0E51B" transform="translate(71,73)"/>
<path d="M0 0 C0.33 0.99 0.66 1.98 1 3 C1.66 2.67 2.32 2.34 3 2 C3.84191782 4.9248633 4.11819313 7.50741656 4.09765625 10.546875 C4.09443359 11.39121094 4.09121094 12.23554687 4.08789062 13.10546875 C4.07951172 13.97816406 4.07113281 14.85085937 4.0625 15.75 C4.05798828 16.63816406 4.05347656 17.52632812 4.04882812 18.44140625 C4.03707422 20.62763316 4.01913966 22.81382528 4 25 C0.04 25 -3.92 25 -8 25 C-8.33 25.99 -8.66 26.98 -9 28 C-9.49624289 22.28401711 -7.7533257 18.05223672 -5.625 12.875 C-5.14933594 11.67810547 -5.14933594 11.67810547 -4.6640625 10.45703125 C-3.23611673 6.89311661 -1.7503611 3.41928779 0 0 Z " fill="#5E6543" transform="translate(68,77)"/>
<path d="M0 0 C4 1 4 1 5.17260742 2.50292969 C5.48045166 3.13618164 5.7882959 3.76943359 6.10546875 4.421875 C6.44900391 5.11796875 6.79253906 5.8140625 7.14648438 6.53125 C7.49001953 7.2634375 7.83355469 7.995625 8.1875 8.75 C8.54263672 9.46671875 8.89777344 10.1834375 9.26367188 10.921875 C11.03827277 14.58556718 12.46209098 17.92152567 13 22 C12.34 21.67 11.68 21.34 11 21 C11 21.66 11 22.32 11 23 C7.37 23 3.74 23 0 23 C0 15.41 0 7.82 0 0 Z " fill="#5F97AB" transform="translate(73,79)"/>
<path d="M0 0 C2.49361571 1.20381448 4.68143083 2.45428722 7 4 C7 5.32 7 6.64 7 8 C7.598125 8.12375 8.19625 8.2475 8.8125 8.375 C11 9 11 9 14 11 C14.375 14 14.375 14 14 17 C10.77856724 19.14762184 9.7404533 19.561068 6 19 C4.1875 17.1875 4.1875 17.1875 3 15 C3 14.01 3 13.02 3 12 C2.236875 11.896875 1.47375 11.79375 0.6875 11.6875 C-2.19700648 10.94960299 -3.35495989 10.46756016 -5 8 C-4.90311287 4.99649894 -3.98152289 3.97984316 -1.9375 1.75 C-1.298125 1.1725 -0.65875 0.595 0 0 Z " fill="#F88182" transform="translate(143,29)"/>
<path d="M0 0 C3.3125 -0.25 3.3125 -0.25 7 0 C8.9375 2 8.9375 2 10 4 C10.33 3.01 10.66 2.02 11 1 C13.64 1 16.28 1 19 1 C19.77842938 4.40562852 20.09978121 7.50765756 20 11 C19.278125 10.814375 18.55625 10.62875 17.8125 10.4375 C14.87173027 9.98004693 12.85896942 10.26483643 10 11 C9.67 10.34 9.34 9.68 9 9 C8.01 9.66 7.02 10.32 6 11 C2.8125 11.125 2.8125 11.125 0 11 C0 7.37 0 3.74 0 0 Z " fill="#F74B4C" transform="translate(85,10)"/>
<path d="M0 0 C1.66611905 -0.042721 3.33382885 -0.04063832 5 0 C7.03526279 2.03526279 6.86791601 5.89274206 7.3046875 8.65234375 C7.83111044 11.34982523 7.83111044 11.34982523 11 13 C11 12.34 11 11.68 11 11 C10.34 11 9.68 11 9 11 C9 10.34 9 9.68 9 9 C11.86724686 9.57344937 12.8614515 9.8614515 15 12 C15.125 14.625 15.125 14.625 15 17 C14.34 16.67 13.68 16.34 13 16 C12.443125 16.309375 11.88625 16.61875 11.3125 16.9375 C7.18376296 18.83448729 3.29024986 18.43923399 -0.9375 17 C-1.618125 16.67 -2.29875 16.34 -3 16 C-3 13 -3 13 -2.0625 10.8125 C-0.69350332 7.18868526 -0.39165697 3.85129358 0 0 Z " fill="#F0E418" transform="translate(90,108)"/>
<path d="M0 0 C-3.9815898 2.13299453 -6.48827768 3.37350747 -11.00390625 2.2578125 C-12.17824219 1.88398438 -13.35257813 1.51015625 -14.5625 1.125 C-23.5987409 -1.56543139 -32.62764873 -1.7982271 -42 -2 C-42 -2.33 -42 -2.66 -42 -3 C-39.03 -3 -36.06 -3 -33 -3 C-33 -3.66 -33 -4.32 -33 -5 C-39.6 -4.67 -46.2 -4.34 -53 -4 C-38.07778739 -11.46110631 -14.60151323 -6.20216657 0 0 Z " fill="#4A5273" transform="translate(127,7)"/>
<path d="M0 0 C3.3 0 6.6 0 10 0 C10 0.99 10 1.98 10 3 C9.34 3 8.68 3 8 3 C8.20625 3.78375 8.4125 4.5675 8.625 5.375 C8.74875 6.24125 8.8725 7.1075 9 8 C8.34 8.66 7.68 9.32 7 10 C6.75787127 11.98128508 6.75787127 11.98128508 6.875 14.125 C6.91625 15.40375 6.9575 16.6825 7 18 C3.7 17.67 0.4 17.34 -3 17 C-3.125 13.625 -3.125 13.625 -3 10 C-0.8614515 7.8614515 0.13275314 7.57344937 3 7 C1.68 6.01 0.36 5.02 -1 4 C-0.67 2.68 -0.34 1.36 0 0 Z " fill="#F74C4C" transform="translate(15,61)"/>
<path d="M0 0 C9.40874207 -1.02268936 16.58412543 4.56222481 24.0625 9.625 C24.63500488 10.00906006 25.20750977 10.39312012 25.79736328 10.78881836 C29.8788143 13.63644291 29.8788143 13.63644291 31 17 C31.99 17.33 32.98 17.66 34 18 C33.01 18.495 33.01 18.495 32 19 C31.01 18.67 30.02 18.34 29 18 C28.67 18.66 28.34 19.32 28 20 C27.59652344 19.5875 27.19304687 19.175 26.77734375 18.75 C20.34707952 12.63374018 12.8641506 8.925576 5 5 C3.85789062 4.42765625 2.71578125 3.8553125 1.5390625 3.265625 C0.70117188 2.84796875 -0.13671875 2.4303125 -1 2 C-0.67 1.34 -0.34 0.68 0 0 Z " fill="#404866" transform="translate(123,8)"/>
<path d="M0 0 C1.9375 0.8125 1.9375 0.8125 4 2 C4.33 2.99 4.66 3.98 5 5 C5.66 5.33 6.32 5.66 7 6 C7 6.99 7 7.98 7 9 C5.35 9 3.7 9 2 9 C2 9.99 2 10.98 2 12 C0.25 13.82421875 0.25 13.82421875 -2 15.6875 C-2.7425 16.31011719 -3.485 16.93273437 -4.25 17.57421875 C-4.8275 18.04472656 -5.405 18.51523437 -6 19 C-8.31 17.02 -10.62 15.04 -13 13 C-11 9 -11 9 -9 7 C-8.01 7 -7.02 7 -6 7 C-5.34 8.65 -4.68 10.3 -4 12 C-3.01 12 -2.02 12 -1 12 C-2.0209375 10.88625 -2.0209375 10.88625 -3.0625 9.75 C-5 7 -5 7 -5 4.875 C-3.74165606 2.51560512 -2.22625688 1.43629476 0 0 Z " fill="#F74746" transform="translate(44,24)"/>
<path d="M0 0 C0.33 0 0.66 0 1 0 C0.67 8.58 0.34 17.16 0 26 C0.66 26 1.32 26 2 26 C2 20.39 2 14.78 2 9 C2.33 9 2.66 9 3 9 C3.01417969 10.24652344 3.02835937 11.49304688 3.04296875 12.77734375 C3.29554322 23.39385573 4.56347005 32.71194308 7.94140625 42.7890625 C9 46 9 46 9 48 C8.34 48 7.68 48 7 48 C7.34444881 50.47266765 7.34444881 50.47266765 8 53 C8.66 53.33 9.32 53.66 10 54 C9.34 54.66 8.68 55.32 8 56 C0.15990792 39.07656499 -5.46640631 18.64767564 0 0 Z " fill="#4C5270" transform="translate(2,71)"/>
<path d="M0 0 C0.33 0 0.66 0 1 0 C1.33 1.98 1.66 3.96 2 6 C2.33 5.34 2.66 4.68 3 4 C6.875 5.75 6.875 5.75 8 8 C8.07092842 10.2072923 8.08415025 12.41667452 8.0625 14.625 C8.05347656 15.81351563 8.04445313 17.00203125 8.03515625 18.2265625 C8.02355469 19.14179687 8.01195313 20.05703125 8 21 C7.34 21 6.68 21 6 21 C5.67 19.02 5.34 17.04 5 15 C3.64381501 16.12534105 3.64381501 16.12534105 3.9375 19.0625 C3.958125 20.031875 3.97875 21.00125 4 22 C4.66 22 5.32 22 6 22 C6 22.99 6 23.98 6 25 C3.01644824 25.24862931 1.35134151 25.18991433 -1.3125 23.75 C-3 22 -3 22 -3 18 C-2.34 18 -1.68 18 -1 18 C-0.505 9.09 -0.505 9.09 0 0 Z " fill="#BA3433" transform="translate(89,83)"/>
<path d="M0 0 C0.75 1.6875 0.75 1.6875 1 4 C-0.9375 6.75 -0.9375 6.75 -3 9 C-0.36 8.67 2.28 8.34 5 8 C6.61949011 10.57213134 7.04408751 11.67669159 6.625 14.75 C6.315625 15.86375 6.315625 15.86375 6 17 C3.36 17.66 0.72 18.32 -2 19 C-1.67 17.35 -1.34 15.7 -1 14 C-1.61875 13.814375 -2.2375 13.62875 -2.875 13.4375 C-6.01922836 11.31052199 -6.02930172 8.55922702 -7 5 C-7.99 4.67 -8.98 4.34 -10 4 C-10 3.01 -10 2.02 -10 1 C-6.52674819 -0.1577506 -3.63932552 -0.06866652 0 0 Z " fill="#F74141" transform="translate(162,48)"/>
<path d="M0 0 C0.99 0 1.98 0 3 0 C3 0.99 3 1.98 3 3 C3.66 2.67 4.32 2.34 5 2 C4.67 3.32 4.34 4.64 4 6 C5.65 5.34 7.3 4.68 9 4 C7.53781513 8.6302521 7.53781513 8.6302521 5 10.375 C3 11 3 11 1 10 C1.103125 10.7425 1.20625 11.485 1.3125 12.25 C1 15 1 15 -1.5 17.3125 C-2.325 17.869375 -3.15 18.42625 -4 19 C-6.5625 16.75 -6.5625 16.75 -9 14 C-9 11.28695455 -8.26824936 10.32656443 -6.5625 8.25 C-5 7 -5 7 -3 7 C-2.814375 6.1028125 -2.814375 6.1028125 -2.625 5.1875 C-2 3 -2 3 0 0 Z " fill="#2D2C2E" transform="translate(152,123)"/>
<path d="M0 0 C1.0828125 0.3403125 1.0828125 0.3403125 2.1875 0.6875 C2.8475 3.3275 3.5075 5.9675 4.1875 8.6875 C2.8675 8.6875 1.5475 8.6875 0.1875 8.6875 C0.1875 8.0275 0.1875 7.3675 0.1875 6.6875 C-0.4725 6.6875 -1.1325 6.6875 -1.8125 6.6875 C-1.4825 8.0075 -1.1525 9.3275 -0.8125 10.6875 C-2.1325 10.3575 -3.4525 10.0275 -4.8125 9.6875 C-4.8125 9.0275 -4.8125 8.3675 -4.8125 7.6875 C-6.8287233 8.40313266 -6.8287233 8.40313266 -8.8125 9.6875 C-9.61778889 11.73750871 -9.61778889 11.73750871 -9.8125 13.6875 C-11.1325 13.6875 -12.4525 13.6875 -13.8125 13.6875 C-14.1425 10.3875 -14.4725 7.0875 -14.8125 3.6875 C-13.760625 3.584375 -12.70875 3.48125 -11.625 3.375 C-7.85510869 2.93603484 -7.85510869 2.93603484 -5.1875 1.0625 C-2.8125 -0.3125 -2.8125 -0.3125 0 0 Z " fill="#3F3E3F" transform="translate(121.8125,148.3125)"/>
<path d="M0 0 C3.80909895 0.32417863 5.78372163 0.85581442 9 3 C11.32108669 3.70812814 13.65377147 4.38024152 16 5 C16 5.66 16 6.32 16 7 C14.68 7.33 13.36 7.66 12 8 C12.66 8 13.32 8 14 8 C14 8.66 14 9.32 14 10 C13.01 10.33 12.02 10.66 11 11 C10.67 11.66 10.34 12.32 10 13 C9.01 13 8.02 13 7 13 C6.67 12.01 6.34 11.02 6 10 C5.071875 10.061875 4.14375 10.12375 3.1875 10.1875 C0 10 0 10 -1.9375 8.8125 C-3 7 -3 7 -2.8125 4.4375 C-2 2 -2 2 0 0 Z " fill="#717073" transform="translate(55,146)"/>
<path d="M0 0 C3.00157698 1.12559137 3.69921051 2.35375855 5.5 4.9375 C7.46672915 6.0875831 7.46672915 6.0875831 9.5 6.9375 C10.49 7.5975 11.48 8.2575 12.5 8.9375 C12.5 9.5975 12.5 10.2575 12.5 10.9375 C9.03846154 13.9375 9.03846154 13.9375 6.5 13.9375 C7.16 14.2675 7.82 14.5975 8.5 14.9375 C8.5 15.5975 8.5 16.2575 8.5 16.9375 C5.53824877 16.32472388 4.11941217 15.68377478 1.5 13.9375 C1.665 13.339375 1.83 12.74125 2 12.125 C2.72501134 8.95307539 2.53305498 7.03666494 1.5 3.9375 C-1.61785113 4.58394661 -1.61785113 4.58394661 -2.5 6.9375 C-1.18 7.2675 0.14 7.5975 1.5 7.9375 C1.5 8.5975 1.5 9.2575 1.5 9.9375 C-0.875 10.0625 -0.875 10.0625 -3.5 9.9375 C-5.5 7.9375 -5.5 7.9375 -5.8125 5.5 C-5.5 2.9375 -5.5 2.9375 -4.3125 1.0625 C-2.5 -0.0625 -2.5 -0.0625 0 0 Z " fill="#373639" transform="translate(38.5,133.0625)"/>
<path d="M0 0 C12.1540067 3.577693 24.0628228 7.76511165 36 12 C36 12.33 36 12.66 36 13 C23.78024319 13.99302764 12.06487697 9.87491596 2 3 C1.34 2.01 0.68 1.02 0 0 Z " fill="#ECF1F5" transform="translate(55,128)"/>
<path d="M0 0 C0.66 0 1.32 0 2 0 C2.66 2.31 3.32 4.62 4 7 C4.66 7 5.32 7 6 7 C6.33 8.98 6.66 10.96 7 13 C7.66 13 8.32 13 9 13 C9.99 14.98 10.98 16.96 12 19 C8.04 19 4.08 19 0 19 C0 12.73 0 6.46 0 0 Z " fill="#52AFF3" transform="translate(112,81)"/>
<path d="M0 0 C4.29 0.66 8.58 1.32 13 2 C13 2.99 13 3.98 13 5 C13.66 5 14.32 5 15 5 C15 4.01 15 3.02 15 2 C15.99 2 16.98 2 18 2 C18 5.3 18 8.6 18 12 C17.01 12 16.02 12 15 12 C15 10.68 15 9.36 15 8 C14.01 8 13.02 8 12 8 C12 8.99 12 9.98 12 11 C11.01 11 10.02 11 9 11 C9 8.69 9 6.38 9 4 C7.68 4 6.36 4 5 4 C5 5.98 5 7.96 5 10 C4.01 10 3.02 10 2 10 C2 7.69 2 5.38 2 3 C1.34 3 0.68 3 0 3 C0 2.01 0 1.02 0 0 Z " fill="#151415" transform="translate(75,152)"/>
<path d="M0 0 C3.8466871 1.2475742 7.64447254 2.59981906 11.4375 4 C15.59144357 5.52084273 19.72694423 6.86051846 24 8 C24 8.99 24 9.98 24 11 C24.33 11.66 24.66 12.32 25 13 C16.17714312 11.24965904 8.18589648 8.73158885 0 5 C0 3.35 0 1.7 0 0 Z " fill="#495071" transform="translate(49,160)"/>
<path d="M0 0 C0.33 0 0.66 0 1 0 C1.88021369 6.71162938 2.11381955 13.23405981 2 20 C-0.97 20 -3.94 20 -7 20 C-6.29937517 15.43263559 -4.68729793 11.4300495 -2.9375 7.1875 C-2.51500977 6.14819336 -2.51500977 6.14819336 -2.08398438 5.08789062 C-1.39325027 3.39032376 -0.69716272 1.69493688 0 0 Z " fill="#54AAEC" transform="translate(69,81)"/>
<path d="M0 0 C0.33 0 0.66 0 1 0 C3.55951317 11.83774843 1.16023791 23.31156991 -1 35 C-1.33 35 -1.66 35 -2 35 C-2 32.03 -2 29.06 -2 26 C-2.66 26 -3.32 26 -4 26 C-3.67 19.4 -3.34 12.8 -3 6 C-2.34 7.32 -1.68 8.64 -1 10 C-0.67 6.7 -0.34 3.4 0 0 Z " fill="#4A5170" transform="translate(182,76)"/>
<path d="M0 0 C1.25361328 0.02707031 2.50722656 0.05414063 3.79882812 0.08203125 C4.99830078 0.12199219 6.19777344 0.16195312 7.43359375 0.203125 C8.53630615 0.23567383 9.63901855 0.26822266 10.77514648 0.30175781 C13.80282474 0.7886473 14.73543384 1.35225022 16.5625 3.75 C11.97928618 3.83704 7.39628466 3.89040632 2.8125 3.9375 C0.85957031 3.97520508 0.85957031 3.97520508 -1.1328125 4.01367188 C-2.38320312 4.02333984 -3.63359375 4.03300781 -4.921875 4.04296875 C-6.07397461 4.0586792 -7.22607422 4.07438965 -8.41308594 4.09057617 C-11.70508786 3.7198672 -13.04445077 2.97615202 -15.4375 0.75 C-11.00807682 -1.46471159 -4.8470309 -0.16396927 0 0 Z " fill="#2F3651" transform="translate(85.4375,169.25)"/>
<path d="M0 0 C2.5625 0.3125 2.5625 0.3125 4.3125 1.375 C6.14155748 4.21003909 6.25004809 7.00050975 6.5625 10.3125 C2.74671299 11.78011039 0.26276276 10.7926051 -3.4375 9.3125 C-4.4375 8.3125 -4.4375 8.3125 -4.625 5.375 C-4.39364421 1.59618883 -3.82906939 0.49090633 0 0 Z " fill="#353337" transform="translate(20.4375,104.6875)"/>
<path d="M0 0 C0 0.99 0 1.98 0 3 C-1.39613065 2.85704109 -2.79189308 2.71048442 -4.1875 2.5625 C-4.96480469 2.48128906 -5.74210937 2.40007813 -6.54296875 2.31640625 C-9 2 -9 2 -11.3125 1.5 C-14.79645713 0.85182193 -18.28121521 0.64363241 -21.8125 0.4375 C-22.85180664 0.37272461 -22.85180664 0.37272461 -23.91210938 0.30664062 C-25.60788686 0.20138547 -27.30392052 0.10027137 -29 0 C-29 -0.66 -29 -1.32 -29 -2 C-18.86978871 -4.19031595 -9.83423019 -2.8833345 0 0 Z " fill="#2C334F" transform="translate(114,32)"/>
<path d="M0 0 C1.38125018 2.76250036 1.19079306 4.94731099 1 8 C-1 10 -1 10 -3.9375 10.4375 C-7 10 -7 10 -8.875 7.6875 C-10 5 -10 5 -10 2 C-8.7090864 1.66376204 -7.41723903 1.33110751 -6.125 1 C-5.40570313 0.814375 -4.68640625 0.62875 -3.9453125 0.4375 C-2 0 -2 0 0 0 Z " fill="#F7393A" transform="translate(171,66)"/>
<path d="M0 0 C1.423125 0.37125 1.423125 0.37125 2.875 0.75 C4.22939668 3.45879335 3.94001451 5.75933268 3.875 8.75 C1.11249964 10.13125018 -1.07231099 9.94079306 -4.125 9.75 C-6.125 7.75 -6.125 7.75 -6.4375 4.75 C-6.334375 3.76 -6.23125 2.77 -6.125 1.75 C-3.125 -0.25 -3.125 -0.25 0 0 Z " fill="#F97778" transform="translate(55.125,19.25)"/>
<path d="M0 0 C0.99 0.33 1.98 0.66 3 1 C3 1.66 3 2.32 3 3 C3.99 3.33 4.98 3.66 6 4 C6.73046875 5.84765625 6.73046875 5.84765625 7.1875 8.0625 C7.34605469 8.79597656 7.50460938 9.52945313 7.66796875 10.28515625 C7.77753906 10.85105469 7.88710937 11.41695312 8 12 C6.29159719 10.36587557 5.06546953 9.13093906 4 7 C3.67 14.26 3.34 21.52 3 29 C2.34 29 1.68 29 1 29 C0.67 21.41 0.34 13.82 0 6 C-0.66 6.66 -1.32 7.32 -2 8 C-1.47731534 5.23723823 -0.89130413 2.6739124 0 0 Z " fill="#9E961E" transform="translate(108,72)"/>
<path d="M0 0 C-0.14166357 1.91697937 -0.28849584 3.83357723 -0.4375 5.75 C-0.51871094 6.81734375 -0.59992188 7.8846875 -0.68359375 8.984375 C-0.94254843 11.45243692 -1.17573771 13.6636804 -2 16 C-2.66 16.33 -3.32 16.66 -4 17 C-4.33 17.99 -4.66 18.98 -5 20 C-7.0625 21.6875 -7.0625 21.6875 -9 23 C-8.38313502 18.09655288 -7.44830525 13.46268291 -6.125 8.6875 C-5.79757813 7.47449219 -5.47015625 6.26148437 -5.1328125 5.01171875 C-3.24773022 0 -3.24773022 0 0 0 Z " fill="#3C4262" transform="translate(181,101)"/>
<path d="M0 0 C2.46800047 1.15173355 4.04783565 2.04783565 6 4 C6 5.32 6 6.64 6 8 C5.34 8 4.68 8 4 8 C3.67 8.99 3.34 9.98 3 11 C0.15673536 11.23053497 -1.46145349 11.35903101 -3.875 9.75 C-5 8 -5 8 -4.9375 6.0625 C-3.75310292 3.45682641 -2.10921555 1.90509792 0 0 Z " fill="#F75354" transform="translate(143,29)"/>
<path d="M0 0 C3.0625 0.1875 3.0625 0.1875 5.0625 2.1875 C5.43046448 5.05762296 5.43759409 6.59524618 3.875 9.0625 C2.0625 10.1875 2.0625 10.1875 -0.5 10 C-2.9375 9.1875 -2.9375 9.1875 -4.9375 7.1875 C-4.23164336 0.2701049 -4.23164336 0.2701049 0 0 Z " fill="#F84546" transform="translate(167.9375,83.8125)"/>
<path d="M0 0 C3.40312738 1.05875074 6.01353231 2.00902154 9 4 C8.67 4.99 8.34 5.98 8 7 C5.9375 7.6875 5.9375 7.6875 4 8 C4.66 8.33 5.32 8.66 6 9 C6 9.99 6 10.98 6 12 C2.44219804 11.39009109 -0.6828589 10.4216319 -4 9 C-3.67 7.68 -3.34 6.36 -3 5 C-1.68 4.67 -0.36 4.34 1 4 C0.34 3.67 -0.32 3.34 -1 3 C-0.67 2.01 -0.34 1.02 0 0 Z " fill="#F74241" transform="translate(21,48)"/>
<path d="M0 0 C-0.99 0.33 -1.98 0.66 -3 1 C-1.68 1.66 -0.36 2.32 1 3 C-2.33333333 3.66666667 -5.66666667 4.33333333 -9 5 C-9.80308594 5.18433594 -10.60617188 5.36867187 -11.43359375 5.55859375 C-18.78569703 6.82311075 -26.68394134 6.36112719 -34 5 C-34 4.67 -34 4.34 -34 4 C-26.74 3.67 -19.48 3.34 -12 3 C-12.66 2.34 -13.32 1.68 -14 1 C-12.41913952 0.63495397 -10.83516093 0.28339494 -9.25 -0.0625 C-7.92742187 -0.35833984 -7.92742187 -0.35833984 -6.578125 -0.66015625 C-4.01320972 -0.99825872 -2.42908361 -0.81158635 0 0 Z " fill="#565A7B" transform="translate(113,169)"/>
<path d="M0 0 C0.33 0 0.66 0 1 0 C1 6.6 1 13.2 1 20 C-1.31 20 -3.62 20 -6 20 C-4.38808348 13.14078075 -2.64031672 6.53792711 0 0 Z " fill="#54B2FA" transform="translate(107,80)"/>
<path d="M0 0 C0.66 0.33 1.32 0.66 2 1 C0.71034824 2.37562854 -0.62689293 3.70766393 -2 5 C-2.66 5 -3.32 5 -4 5 C-4.185625 5.99 -4.37125 6.98 -4.5625 8 C-5.94832514 13.01976661 -9.44894727 16.34450454 -13 20 C-13.99 19.67 -14.98 19.34 -16 19 C-16.66 19.33 -17.32 19.66 -18 20 C-14.4585151 11.86770134 -6.7747741 5.47747693 0 0 Z " fill="#3A405E" transform="translate(34,20)"/>
<path d="M0 0 C2.5 0.25 2.5 0.25 4.5 2.25 C4.75 5.25 4.75 5.25 4.5 8.25 C2.5 10.25 2.5 10.25 0 10.5 C-2.5 10.25 -2.5 10.25 -4.5 8.25 C-4.75 5.25 -4.75 5.25 -4.5 2.25 C-2.5 0.25 -2.5 0.25 0 0 Z " fill="#F84142" transform="translate(16.5,84.75)"/>
<path d="M0 0 C1.32 0 2.64 0 4 0 C3.67 0.99 3.34 1.98 3 3 C2.01 3 1.02 3 0 3 C0.99 3.99 1.98 4.98 3 6 C3.66 4.68 4.32 3.36 5 2 C6.32 2.66 7.64 3.32 9 4 C7.92598892 6.91517292 7.22189824 8.77810176 5 11 C1.55834679 10.64700993 -0.06872538 9.95418308 -3 8 C-2.45276317 4.62537285 -1.9451 2.91765 0 0 Z " fill="#F75151" transform="translate(27,39)"/>
<path d="M0 0 C4.49652778 -0.36458333 4.49652778 -0.36458333 6.8125 1.3125 C8 3 8 3 8 6 C7.34 6 6.68 6 6 6 C5.67 7.32 5.34 8.64 5 10 C3.1875 10.625 3.1875 10.625 1 11 C0.01 10.34 -0.98 9.68 -2 9 C-2.47446226 5.39408679 -1.83832664 3.10217621 0 0 Z " fill="#F74D4E" transform="translate(129,21)"/>
<path d="M0 0 C3.37462715 0.54723683 5.08235 1.0549 8 3 C8 3.99 8 4.98 8 6 C6.02 6.99 6.02 6.99 4 8 C4.66 8.66 5.32 9.32 6 10 C5.67 10.66 5.34 11.32 5 12 C2.0280615 10.87548273 -0.33440687 9.77706209 -3 8 C-2.625 6.0625 -2.625 6.0625 -2 4 C-1.34 3.67 -0.68 3.34 0 3 C0 2.01 0 1.02 0 0 Z " fill="#1D1C1D" transform="translate(158,114)"/>
<path d="M0 0 C1.32 0 2.64 0 4 0 C5.1577506 3.47325181 5.06866652 6.36067448 5 10 C2.29120665 11.35439668 -0.00933268 11.06501451 -3 11 C-3.99 8.03 -4.98 5.06 -6 2 C-4.68 2 -3.36 2 -2 2 C-1.71125 2.804375 -1.4225 3.60875 -1.125 4.4375 C-0.26737432 7.1326468 -0.26737432 7.1326468 2 8 C1.34 5.36 0.68 2.72 0 0 Z " fill="#F74747" transform="translate(64,14)"/>
<path d="M0 0 C2.5625 0.3125 2.5625 0.3125 4.375 1.6875 C5.5625 3.3125 5.5625 3.3125 5.5625 5.3125 C2.5925 4.8175 2.5925 4.8175 -0.4375 4.3125 C-0.7675 5.6325 -1.0975 6.9525 -1.4375 8.3125 C-0.7775 8.3125 -0.1175 8.3125 0.5625 8.3125 C0.5625 7.3225 0.5625 6.3325 0.5625 5.3125 C1.8825 5.6425 3.2025 5.9725 4.5625 6.3125 C4.2325 7.9625 3.9025 9.6125 3.5625 11.3125 C-3.3125 10.4375 -3.3125 10.4375 -4.4375 9.3125 C-4.625 5.875 -4.625 5.875 -4.4375 2.3125 C-2.4375 0.3125 -2.4375 0.3125 0 0 Z " fill="#F74445" transform="translate(121.4375,15.6875)"/>
<path d="M0 0 C0.33 0.66 0.66 1.32 1 2 C-0.0063849 4.38868416 -1.06517871 6.63987598 -2.25 8.9375 C-2.56324219 9.57107422 -2.87648437 10.20464844 -3.19921875 10.85742188 C-4.79404002 14.00405056 -6.27180898 16.71808714 -9 19 C-9 18.01 -9 17.02 -9 16 C-10.98 16.99 -10.98 16.99 -13 18 C-11.23570801 13.02790438 -8.6060834 8.56561939 -6 4 C-4.33333333 4 -2.66666667 4 -1 4 C-0.67 2.68 -0.34 1.36 0 0 Z " fill="#454B6E" transform="translate(177,117)"/>
<path d="M0 0 C0.99 0 1.98 0 3 0 C2.67 2.64 2.34 5.28 2 8 C2.99 8 3.98 8 5 8 C5 6.35 5 4.7 5 3 C6.32 2.67 7.64 2.34 9 2 C9.25 7.625 9.25 7.625 7 11 C4 11.3125 4 11.3125 1 11 C0.34 10.34 -0.32 9.68 -1 9 C-0.9765625 6.8359375 -0.9765625 6.8359375 -0.625 4.375 C-0.51414062 3.55773437 -0.40328125 2.74046875 -0.2890625 1.8984375 C-0.19367188 1.27195312 -0.09828125 0.64546875 0 0 Z " fill="#F74141" transform="translate(107,12)"/>
<path d="M0 0 C0.78375 0.04125 1.5675 0.0825 2.375 0.125 C2.375 1.115 2.375 2.105 2.375 3.125 C3.365 3.785 4.355 4.445 5.375 5.125 C4.5 9 4.5 9 3.375 10.125 C1.37541636 10.16580783 -0.62545254 10.16754356 -2.625 10.125 C-2.955 9.135 -3.285 8.145 -3.625 7.125 C-1.975 7.455 -0.325 7.785 1.375 8.125 C1.375 7.465 1.375 6.805 1.375 6.125 C-0.275 6.125 -1.925 6.125 -3.625 6.125 C-4.25 4.25 -4.25 4.25 -4.625 2.125 C-2.625 0.125 -2.625 0.125 0 0 Z " fill="#F74F51" transform="translate(74.625,11.875)"/>
<path d="M0 0 C-0.33 0.99 -0.66 1.98 -1 3 C-0.34 3 0.32 3 1 3 C1 3.99 1 4.98 1 6 C0.01 6 -0.98 6 -2 6 C-2 6.66 -2 7.32 -2 8 C-0.35 7.34 1.3 6.68 3 6 C3.33 6.99 3.66 7.98 4 9 C0.535 10.485 0.535 10.485 -3 12 C-7 5.375 -7 5.375 -7 2 C-2.25 0 -2.25 0 0 0 Z " fill="#252426" transform="translate(131,144)"/>
<path d="M0 0 C0.99 0 1.98 0 3 0 C3 0.99 3 1.98 3 3 C3.66 2.67 4.32 2.34 5 2 C4.67 3.32 4.34 4.64 4 6 C5.65 5.34 7.3 4.68 9 4 C7.52307692 8.67692308 7.52307692 8.67692308 4.875 10.3125 C3.946875 10.6528125 3.946875 10.6528125 3 11 C1.02 9.35 -0.96 7.7 -3 6 C-2 4 -1 2 0 0 Z " fill="#29292B" transform="translate(152,123)"/>
<path d="M0 0 C0.66 0 1.32 0 2 0 C2 5.28 2 10.56 2 16 C0.02 16.99 0.02 16.99 -2 18 C-1.01 18.66 -0.02 19.32 1 20 C-4.94 20 -10.88 20 -17 20 C-16.67 18.68 -16.34 17.36 -16 16 C-15.01 16.33 -14.02 16.66 -13 17 C-11.43881572 17.06740865 -9.8749748 17.08514456 -8.3125 17.0625 C-7.50425781 17.05347656 -6.69601563 17.04445313 -5.86328125 17.03515625 C-5.24839844 17.02355469 -4.63351563 17.01195313 -4 17 C-3.67 16.34 -3.34 15.68 -3 15 C-1.68 15 -0.36 15 1 15 C0.67 10.05 0.34 5.1 0 0 Z " fill="#C1B71D" transform="translate(88,51)"/>
<path d="M0 0 C0.33 0 0.66 0 1 0 C0.93941406 0.74121094 0.87882813 1.48242188 0.81640625 2.24609375 C0.08089295 11.49093014 -0.47883243 20.74095913 -1 30 C-1.66 30 -2.32 30 -3 30 C-3.40757013 9.41770869 -3.40757013 9.41770869 -1 1 C-0.67 0.67 -0.34 0.34 0 0 Z " fill="#282D49" transform="translate(5,67)"/>
<path d="M0 0 C5.61 0 11.22 0 17 0 C15.35 1.32 13.7 2.64 12 4 C11.31822584 5.32567199 10.64808564 6.65753688 10 8 C9.01 8.33 8.02 8.66 7 9 C4.63950749 6.85409771 3.38096396 4.85399218 2 2 C1.34 1.34 0.68 0.68 0 0 Z " fill="#3D454B" transform="translate(86,128)"/>
<path d="M0 0 C2.475 0.495 2.475 0.495 5 1 C5 5.62 5 10.24 5 15 C4.34 15 3.68 15 3 15 C2.67 15.99 2.34 16.98 2 18 C1.67 18 1.34 18 1 18 C-0.0712828 11.97403427 -0.09945415 6.11090483 0 0 Z " fill="#AAAAAC" transform="translate(89,72)"/>
<path d="M0 0 C0.99 0 1.98 0 3 0 C3.05401695 2.91691525 3.09368066 5.83282724 3.125 8.75 C3.15013672 9.9875 3.15013672 9.9875 3.17578125 11.25 C3.18222656 12.04921875 3.18867188 12.8484375 3.1953125 13.671875 C3.20578613 14.4050293 3.21625977 15.13818359 3.22705078 15.89355469 C2.96777544 18.29896076 2.19225925 19.91251494 1 22 C0.67 22 0.34 22 0 22 C0 14.74 0 7.48 0 0 Z " fill="#272D4A" transform="translate(151,76)"/>
<path d="M0 0 C0.33 0.66 0.66 1.32 1 2 C0.67 2.99 0.34 3.98 0 5 C0.66 5 1.32 5 2 5 C1.71572583 6.58467728 1.42225182 8.1677057 1.125 9.75 C0.96257813 10.63171875 0.80015625 11.5134375 0.6328125 12.421875 C0.03203736 14.86947744 -0.77997117 16.80599857 -2 19 C-2.33 18.01 -2.66 17.02 -3 16 C-3.66 16.99 -4.32 17.98 -5 19 C-4.70245971 11.87391001 -3.28874656 6.3327492 0 0 Z " fill="#404562" transform="translate(8,52)"/>
<path d="M0 0 C3.40896916 2.77767858 4.94589119 6.60223405 6.75 10.5 C7.07871094 11.17675781 7.40742187 11.85351562 7.74609375 12.55078125 C10.12211361 17.63365917 10.12211361 17.63365917 9 21 C8.67 20.34 8.34 19.68 8 19 C7.34 19.33 6.68 19.66 6 20 C5.16013916 18.06532058 4.32831973 16.12714871 3.5 14.1875 C3.0359375 13.10855469 2.571875 12.02960938 2.09375 10.91796875 C1 8 1 8 1 5 C0.34 5 -0.32 5 -1 5 C-0.67 3.35 -0.34 1.7 0 0 Z " fill="#70773C" transform="translate(76,80)"/>
<path d="M0 0 C0 1.98 0 3.96 0 6 C-1.32 6 -2.64 6 -4 6 C-2.35 6.33 -0.7 6.66 1 7 C1 7.99 1 8.98 1 10 C-1.64 10 -4.28 10 -7 10 C-7 7.03 -7 4.06 -7 1 C-2.25 0 -2.25 0 0 0 Z " fill="#2B2A2C" transform="translate(102,153)"/>
<path d="M0 0 C1.5 1.3125 1.5 1.3125 3 3 C3 3.99 3 4.98 3 6 C3.99 6.33 4.98 6.66 6 7 C6 7.66 6 8.32 6 9 C3.1875 11.6875 3.1875 11.6875 0 14 C-0.99 13.67 -1.98 13.34 -3 13 C-2.1875 11.0625 -2.1875 11.0625 -1 9 C-0.01 8.67 0.98 8.34 2 8 C1.67 7.34 1.34 6.68 1 6 C-0.98 6.99 -0.98 6.99 -3 8 C-2.67 6.02 -2.34 4.04 -2 2 C-1.34 2 -0.68 2 0 2 C0 1.34 0 0.68 0 0 Z " fill="#2D2D30" transform="translate(31,123)"/>
<path d="M0 0 C1.32 0 2.64 0 4 0 C4 0.66 4 1.32 4 2 C4.99 2.66 5.98 3.32 7 4 C6.67 5.65 6.34 7.3 6 9 C4.02 9.33 2.04 9.66 0 10 C0 9.34 0 8.68 0 8 C1.32 8 2.64 8 4 8 C4 7.34 4 6.68 4 6 C2.35 6.33 0.7 6.66 -1 7 C-1.625 4.625 -1.625 4.625 -2 2 C-1.34 1.34 -0.68 0.68 0 0 Z " fill="#272627" transform="translate(135,140)"/>
<path d="M0 0 C0.33 0 0.66 0 1 0 C1.05449228 2.83359844 1.09390733 5.66612485 1.125 8.5 C1.14175781 9.29148437 1.15851563 10.08296875 1.17578125 10.8984375 C1.21989226 16.27998079 0.50594058 20.82999927 -1 26 C-2.65 26.33 -4.3 26.66 -6 27 C-5.34 23.37 -4.68 19.74 -4 16 C-3.34 16.99 -2.68 17.98 -2 19 C-0.76240177 15.28720531 -0.64391103 11.68693654 -0.4375 7.8125 C-0.37272461 6.68811523 -0.37272461 6.68811523 -0.30664062 5.54101562 C-0.20077315 3.69421625 -0.0999024 1.84713166 0 0 Z " fill="#394060" transform="translate(154,78)"/>
<path d="M0 0 C0 0.66 0 1.32 0 2 C-15.74487472 4.29612756 -15.74487472 4.29612756 -23 4 C-22.34 3.01 -21.68 2.02 -21 1 C-14.03043729 -0.23653532 -7.06080852 -0.107525 0 0 Z " fill="#212742" transform="translate(94,2)"/>
<path d="M0 0 C0.33 1.32 0.66 2.64 1 4 C0.34 4 -0.32 4 -1 4 C-1 3.34 -1 2.68 -1 2 C-1.99 2.99 -2.98 3.98 -4 5 C-3.01 5 -2.02 5 -1 5 C-1.33 6.98 -1.66 8.96 -2 11 C-3.32 11 -4.64 11 -6 11 C-6.33 7.7 -6.66 4.4 -7 1 C-4.53721199 -0.231394 -2.7204945 -0.07159196 0 0 Z " fill="#333134" transform="translate(114,151)"/>
<path d="M0 0 C2.66389689 2.66389689 2.98142077 4.40323509 3.09765625 8.13671875 C3.08605469 9.30847656 3.07445312 10.48023437 3.0625 11.6875 C3.05347656 12.86699219 3.04445312 14.04648438 3.03515625 15.26171875 C3.02355469 16.16535156 3.01195312 17.06898437 3 18 C2.34 18.33 1.68 18.66 1 19 C-1.4008222 7.14594039 -1.4008222 7.14594039 -1 1 C-0.67 0.67 -0.34 0.34 0 0 Z " fill="#262C48" transform="translate(179,68)"/>
<path d="M0 0 C-0.33 1.32 -0.66 2.64 -1 4 C-4.15506142 4.93619813 -6.96586502 5.1057123 -10.25 5.0625 C-11.14203125 5.05347656 -12.0340625 5.04445312 -12.953125 5.03515625 C-13.62859375 5.02355469 -14.3040625 5.01195312 -15 5 C-13.54341873 2.08683746 -11.63839986 1.90792226 -8.625 0.8125 C-7.15933594 0.26529297 -7.15933594 0.26529297 -5.6640625 -0.29296875 C-3 -1 -3 -1 0 0 Z " fill="#333A57" transform="translate(124,166)"/>
<path d="M0 0 C3 1 3 1 4.60546875 3.72265625 C5.12753906 4.82480469 5.64960938 5.92695312 6.1875 7.0625 C6.71730469 8.16722656 7.24710938 9.27195313 7.79296875 10.41015625 C8.19128906 11.26480469 8.58960938 12.11945313 9 13 C7.68 13.33 6.36 13.66 5 14 C2.46800885 11.02766256 1.56274789 8.84544389 1 5 C0.814375 4.071875 0.62875 3.14375 0.4375 2.1875 C0.293125 1.465625 0.14875 0.74375 0 0 Z " fill="#373D5B" transform="translate(9,119)"/>
<path d="M0 0 C1.32 0 2.64 0 4 0 C3.79503906 0.66386719 3.59007812 1.32773438 3.37890625 2.01171875 C2.97478516 3.33623047 2.97478516 3.33623047 2.5625 4.6875 C2.29566406 5.55761719 2.02882813 6.42773438 1.75390625 7.32421875 C1.03655471 9.87025921 0.482459 12.4003423 0 15 C-0.66 13.68 -1.32 12.36 -2 11 C-2.99 11.495 -2.99 11.495 -4 12 C-2 3.42857143 -2 3.42857143 0 0 Z " fill="#39405E" transform="translate(35,63)"/>
<path d="M0 0 C0.66 0 1.32 0 2 0 C2 1.32 2 2.64 2 4 C3.65 4.33 5.3 4.66 7 5 C7 5.99 7 6.98 7 8 C1.25 8.125 1.25 8.125 -1 7 C-1 7.66 -1 8.32 -1 9 C-1.66 9 -2.32 9 -3 9 C-2.5020163 5.26512223 -2.12508244 3.18762365 0 0 Z " fill="#2B2A2E" transform="translate(163,104)"/>
<path d="M0 0 C2.31 0.66 4.62 1.32 7 2 C7 2.66 7 3.32 7 4 C5.68 4.33 4.36 4.66 3 5 C3.66 5 4.32 5 5 5 C5 5.66 5 6.32 5 7 C4.01 7.33 3.02 7.66 2 8 C1.67 8.66 1.34 9.32 1 10 C0.01 10 -0.98 10 -2 10 C-1.34 6.7 -0.68 3.4 0 0 Z " fill="#282628" transform="translate(64,149)"/>
<path d="M0 0 C1.2077558 3.62326739 0.54311128 4.64146369 -1 8 C-1.66 7.34 -2.32 6.68 -3 6 C-5.74485593 5.85492305 -8.38480543 5.81347577 -11.125 5.875 C-12.25615234 5.88853516 -12.25615234 5.88853516 -13.41015625 5.90234375 C-15.27357254 5.9259313 -17.13682593 5.96180281 -19 6 C-18.67 5.01 -18.34 4.02 -18 3 C-9.585 2.505 -9.585 2.505 -1 2 C-0.67 1.34 -0.34 0.68 0 0 Z " fill="#4E522F" transform="translate(113,67)"/>
<path d="M0 0 C0.66 0.99 1.32 1.98 2 3 C4.58380177 3.25030977 4.58380177 3.25030977 7 3 C7 3.66 7 4.32 7 5 C5.68 5 4.36 5 3 5 C3 5.66 3 6.32 3 7 C4.98 6.67 6.96 6.34 9 6 C8.67 6.66 8.34 7.32 8 8 C6.68 8 5.36 8 4 8 C3.67 8.66 3.34 9.32 3 10 C2.34 9.34 1.68 8.68 1 8 C-1.10820797 8.3185177 -1.10820797 8.3185177 -3 9 C-3 8.34 -3 7.68 -3 7 C-2.01 6.34 -1.02 5.68 0 5 C-1.32 5.33 -2.64 5.66 -4 6 C-4 4 -4 4 -2 1.875 C-1.34 1.25625 -0.68 0.6375 0 0 Z " fill="#B2B2B7" transform="translate(132,143)"/>
<path d="M0 0 C1.32 0 2.64 0 4 0 C4.33 0.99 4.66 1.98 5 3 C4.01 3.33 3.02 3.66 2 4 C1.67 4.66 1.34 5.32 1 6 C2.32 6.33 3.64 6.66 5 7 C5 7.66 5 8.32 5 9 C2.625 9.125 2.625 9.125 0 9 C-2 7 -2 7 -2.25 4.5 C-2 2 -2 2 0 0 Z " fill="#2E2E30" transform="translate(35,134)"/>
<path d="M0 0 C0.33 0.99 0.66 1.98 1 3 C-2.78187881 4.83691257 -4.94568308 5.15837626 -9 4 C-9 3.34 -9 2.68 -9 2 C-9.99 1.67 -10.98 1.34 -12 1 C-3.43568465 -1.42655602 -3.43568465 -1.42655602 0 0 Z " fill="#353C59" transform="translate(115,139)"/>
<path d="M0 0 C0.66 0.66 1.32 1.32 2 2 C1.56344692 6.80208391 -0.42868426 11.46393757 -2 16 C-2.99 15.34 -3.98 14.68 -5 14 C-3.45730076 9.27934033 -1.92205381 4.58335908 0 0 Z " fill="#6D7B50" transform="translate(105,78)"/>
<path d="M0 0 C0.33 0.99 0.66 1.98 1 3 C1.66 3 2.32 3 3 3 C3 2.01 3 1.02 3 0 C3.99 0 4.98 0 6 0 C6 3.3 6 6.6 6 10 C5.01 10 4.02 10 3 10 C3 8.68 3 7.36 3 6 C2.01 5.67 1.02 5.34 0 5 C0 3.35 0 1.7 0 0 Z " fill="#313033" transform="translate(87,154)"/>
<path d="M0 0 C0.33 0.66 0.66 1.32 1 2 C0.0625 4.625 0.0625 4.625 -1 7 C-1.66 6.67 -2.32 6.34 -3 6 C-2.34 5.01 -1.68 4.02 -1 3 C-3.04836882 3.56362302 -3.04836882 3.56362302 -5 5 C-6.08223366 7.91004903 -6.08223366 7.91004903 -6 11 C-4.68681738 12.89958081 -4.68681738 12.89958081 -3 14 C-5.86724686 13.42655063 -6.8614515 13.1385485 -9 11 C-9.375 8.625 -9.375 8.625 -9 6 C-6.46045282 2.7079944 -3.90853901 1.30284634 0 0 Z " fill="#3C4438" transform="translate(89,114)"/>
<path d="M0 0 C0.99 0.33 1.98 0.66 3 1 C3 1.66 3 2.32 3 3 C3.99 3.33 4.98 3.66 6 4 C6.73046875 5.84765625 6.73046875 5.84765625 7.1875 8.0625 C7.34605469 8.79597656 7.50460938 9.52945313 7.66796875 10.28515625 C7.77753906 10.85105469 7.88710937 11.41695312 8 12 C6.29159719 10.36587557 5.06546953 9.13093906 4 7 C3.01 7.495 3.01 7.495 2 8 C1.34 7.34 0.68 6.68 0 6 C-0.66 6.66 -1.32 7.32 -2 8 C-1.47731534 5.23723823 -0.89130413 2.6739124 0 0 Z " fill="#97973E" transform="translate(108,72)"/>
<path d="M0 0 C2.0625 0.4375 2.0625 0.4375 4 1 C3.34 1 2.68 1 2 1 C2.66 2.65 3.32 4.3 4 6 C5.32 6 6.64 6 8 6 C7.67 6.99 7.34 7.98 7 9 C4.125 9.125 4.125 9.125 1 9 C-1 7 -1 7 -1.1875 3.9375 C-1 1 -1 1 0 0 Z " fill="#F73D3D" transform="translate(50,20)"/>
<path d="M0 0 C3.82278276 0.26064428 5.57935599 0.61171322 8.4375 3.25 C10 6 10 6 9.8125 8.6875 C9 11 9 11 8 13 C7.34 12.67 6.68 12.34 6 12 C6.33 9.69 6.66 7.38 7 5 C5.35 4.01 3.7 3.02 2 2 C2 2.66 2 3.32 2 4 C2.66 4 3.32 4 4 4 C4 4.66 4 5.32 4 6 C2.68 5.34 1.36 4.68 0 4 C0 2.68 0 1.36 0 0 Z " fill="#3E4637" transform="translate(97,115)"/>
<path d="M0 0 C-0.125 2.3125 -0.125 2.3125 -1 5 C-3.8125 6.5625 -3.8125 6.5625 -7 8 C-9.31418291 10.06167261 -9.31418291 10.06167261 -11 12 C-11.66 11.67 -12.32 11.34 -13 11 C-11.73347137 9.53792657 -10.46161082 8.08047074 -9.1875 6.625 C-8.47980469 5.81289062 -7.77210938 5.00078125 -7.04296875 4.1640625 C-3.11191336 0 -3.11191336 0 0 0 Z " fill="#333A58" transform="translate(168,133)"/>
<path d="M0 0 C1.80937684 3.61875369 0.48774807 7.52127172 -0.73828125 11.23828125 C-1.46235843 13.17029761 -2.22794648 15.08664997 -3 17 C-3.99 17 -4.98 17 -6 17 C-5.34496718 12.94180817 -4.05440879 9.46028718 -2.4375 5.6875 C-1.75494141 4.08455078 -1.75494141 4.08455078 -1.05859375 2.44921875 C-0.53458984 1.23685547 -0.53458984 1.23685547 0 0 Z " fill="#5B6647" transform="translate(68,77)"/>
<path d="M0 0 C2.97 0.495 2.97 0.495 6 1 C6 2.32 6 3.64 6 5 C6.66 5.33 7.32 5.66 8 6 C7.34 6 6.68 6 6 6 C6 7.32 6 8.64 6 10 C5.01 10 4.02 10 3 10 C3 7.69 3 5.38 3 3 C2.01 2.67 1.02 2.34 0 2 C0 1.34 0 0.68 0 0 Z " fill="#1E1C1E" transform="translate(81,153)"/>
<path d="M0 0 C0.99 0 1.98 0 3 0 C3.33 0.99 3.66 1.98 4 3 C4.99 2.67 5.98 2.34 7 2 C7.33 1.34 7.66 0.68 8 0 C8.66 0 9.32 0 10 0 C9.67 1.98 9.34 3.96 9 6 C3.52173913 6.36521739 3.52173913 6.36521739 1.125 4.6875 C0 3 0 3 0 0 Z " fill="#232224" transform="translate(52,150)"/>
<path d="M0 0 C2.94887797 0.50842724 5.37371875 1.59306362 8 3 C8 4.65 8 6.3 8 8 C3.58110387 6.64978174 1.65654657 4.73884332 -1 1 C-0.67 0.67 -0.34 0.34 0 0 Z " fill="#3A415F" transform="translate(41,156)"/>
<path d="M0 0 C0.66 0.33 1.32 0.66 2 1 C1.34 1.66 0.68 2.32 0 3 C0.99 3.66 1.98 4.32 3 5 C-0.96 6.98 -0.96 6.98 -5 9 C-5.33 7.35 -5.66 5.7 -6 4 C-4.02 2.68 -2.04 1.36 0 0 Z " fill="#474D6B" transform="translate(144,153)"/>
<path d="M0 0 C0.66 0 1.32 0 2 0 C2 0.99 2 1.98 2 3 C2.66 3 3.32 3 4 3 C4 3.66 4 4.32 4 5 C4.99 5 5.98 5 7 5 C7.33 4.34 7.66 3.68 8 3 C7.6875 4.875 7.6875 4.875 7 7 C6.01 7.66 5.02 8.32 4 9 C1.4375 6.75 1.4375 6.75 -1 4 C-0.8125 1.6875 -0.8125 1.6875 0 0 Z " fill="#1D1C1E" transform="translate(144,133)"/>
<path d="M0 0 C4.455 2.97 4.455 2.97 9 6 C8.01 7.485 8.01 7.485 7 9 C7 8.34 7 7.68 7 7 C5.68 7.99 4.36 8.98 3 10 C2.34 9.67 1.68 9.34 1 9 C1 8.34 1 7.68 1 7 C0.01 7.495 0.01 7.495 -1 8 C-0.34 6.35 0.32 4.7 1 3 C0.34 2.67 -0.32 2.34 -1 2 C-0.67 1.34 -0.34 0.68 0 0 Z " fill="#C3C2C6" transform="translate(154,120)"/>
<path d="M0 0 C0.66 0 1.32 0 2 0 C3.5625 2.8125 3.5625 2.8125 5 6 C4.67 6.99 4.34 7.98 4 9 C3.34 8.34 2.68 7.68 2 7 C1.01 8.485 1.01 8.485 0 10 C-0.33 9.01 -0.66 8.02 -1 7 C-1.66 7.66 -2.32 8.32 -3 9 C-2.44271087 5.65626525 -1.64826111 2.96687001 0 0 Z " fill="#D2C921" transform="translate(71,73)"/>
<path d="M0 0 C-1.44781793 3.44428265 -3.27694609 5.36130962 -6.125 7.75 C-7.21167969 8.67039062 -7.21167969 8.67039062 -8.3203125 9.609375 C-8.87460937 10.06828125 -9.42890625 10.5271875 -10 11 C-10.66 10.34 -11.32 9.68 -12 9 C-3.25 0 -3.25 0 0 0 Z " fill="#2F3554" transform="translate(40,19)"/>
<path d="M0 0 C0.33 0 0.66 0 1 0 C1.33 1.98 1.66 3.96 2 6 C2.33 5.34 2.66 4.68 3 4 C4.9375 4.625 4.9375 4.625 7 6 C7.75 9.125 7.75 9.125 8 12 C6 9 6 9 6 7 C3.03 9.475 3.03 9.475 0 12 C0 8.04 0 4.08 0 0 Z " fill="#6A353C" transform="translate(89,83)"/>
<path d="M0 0 C2.31 0.33 4.62 0.66 7 1 C7.6875 3.8125 7.6875 3.8125 8 7 C6.5625 8.875 6.5625 8.875 5 10 C3.95550089 6.86650268 4.06576355 6.01031744 5 3 C3.68 2.67 2.36 2.34 1 2 C1 2.99 1 3.98 1 5 C0.34 5 -0.32 5 -1 5 C-0.67 3.35 -0.34 1.7 0 0 Z " fill="#F9B9BB" transform="translate(121,19)"/>
<path d="M0 0 C3.375 -0.125 3.375 -0.125 7 0 C9 2 9 2 9 5 C8.34 5 7.68 5 7 5 C6.67 5.99 6.34 6.98 6 8 C5.01 8 4.02 8 3 8 C2.957279 6.33388095 2.95936168 4.66617115 3 3 C3.33 2.67 3.66 2.34 4 2 C2.68 1.34 1.36 0.68 0 0 Z " fill="#F88587" transform="translate(85,10)"/>
<path d="M0 0 C0.33 0 0.66 0 1 0 C0.88556397 2.0839403 0.75804453 4.16716493 0.625 6.25 C0.55539063 7.41015625 0.48578125 8.5703125 0.4140625 9.765625 C0 13 0 13 -2 17 C-2 14.03 -2 11.06 -2 8 C-2.66 8 -3.32 8 -4 8 C-4 6.68 -4 5.36 -4 4 C-3.34 4 -2.68 4 -2 4 C-1.34 2.68 -0.68 1.36 0 0 Z " fill="#555C7E" transform="translate(182,94)"/>
<path d="M0 0 C0 3.93169105 -1.39419615 5.16427228 -4 8 C-4.66 8 -5.32 8 -6 8 C-6.33 8.66 -6.66 9.32 -7 10 C-7.8125 8.3125 -7.8125 8.3125 -8 6 C-5.46183391 2.96830161 -3.77491089 1.25830363 0 0 Z " fill="#424B70" transform="translate(165,138)"/>
<path d="M0 0 C2.31 0 4.62 0 7 0 C7 1.98 7 3.96 7 6 C5.02 6 3.04 6 1 6 C0.67 4.02 0.34 2.04 0 0 Z " fill="#F86B6C" transform="translate(15,73)"/>
<path d="M0 0 C1.2065625 0.0309375 1.2065625 0.0309375 2.4375 0.0625 C2.4375 1.0525 2.4375 2.0425 2.4375 3.0625 C1.7775 3.0625 1.1175 3.0625 0.4375 3.0625 C0.7675 4.7125 1.0975 6.3625 1.4375 8.0625 C0.1175 8.0625 -1.2025 8.0625 -2.5625 8.0625 C-2.2325 6.0825 -1.9025 4.1025 -1.5625 2.0625 C-2.2225 1.7325 -2.8825 1.4025 -3.5625 1.0625 C-2.5625 0.0625 -2.5625 0.0625 0 0 Z " fill="#F83D3D" transform="translate(22.5625,60.9375)"/>
<path d="M0 0 C2.31 0 4.62 0 7 0 C7.6875 1.8125 7.6875 1.8125 8 4 C6.5625 5.75 6.5625 5.75 5 7 C5 6.34 5 5.68 5 5 C4.01 5 3.02 5 2 5 C2 4.01 2 3.02 2 2 C1.34 1.34 0.68 0.68 0 0 Z " fill="#F64A4B" transform="translate(155,48)"/>
<path d="M0 0 C2.2636564 1.40445835 4.0208685 3.1967913 6 5 C5.01 5 4.02 5 3 5 C-0.11785113 5.64644661 -0.11785113 5.64644661 -1 8 C-0.34 8.33 0.32 8.66 1 9 C-0.9375 8.6875 -0.9375 8.6875 -3 8 C-3.33 7.01 -3.66 6.02 -4 5 C-3.01 4.67 -2.02 4.34 -1 4 C-0.67 3.34 -0.34 2.68 0 2 C-0.99 1.67 -1.98 1.34 -3 1 C-2.01 0.67 -1.02 0.34 0 0 Z " fill="#FAC9CB" transform="translate(31,37)"/>
<path d="M0 0 C0.99 0 1.98 0 3 0 C3.66 2.64 4.32 5.28 5 8 C3.68 8 2.36 8 1 8 C1 7.34 1 6.68 1 6 C0.01 6.33 -0.98 6.66 -2 7 C-2 6.01 -2 5.02 -2 4 C-1.01 4 -0.02 4 1 4 C0.67 2.68 0.34 1.36 0 0 Z " fill="#201E1F" transform="translate(121,149)"/>
<path d="M0 0 C3.25543229 0.34879632 4.01873107 1.02133261 6.25 3.5625 C6.8275 4.366875 7.405 5.17125 8 6 C7.67 6.66 7.34 7.32 7 8 C3.64379729 6.61122646 1.92701272 5.08322035 0 2 C0 1.34 0 0.68 0 0 Z " fill="#232324" transform="translate(139,137)"/>
<path d="M0 0 C1.010625 0.33 2.02125 0.66 3.0625 1 C8.74431386 2.60697766 13.62456116 2.60627337 19 0 C19 0.66 19 1.32 19 2 C15.58895449 4.07128547 12.89464724 4.26961411 8.9375 4.25 C7.37322266 4.25773437 7.37322266 4.25773437 5.77734375 4.265625 C3 4 3 4 0 2 C0 1.34 0 0.68 0 0 Z " fill="#46421C" transform="translate(85,123)"/>
<path d="M0 0 C1.2375 0.1546875 1.2375 0.1546875 2.5 0.3125 C3.16 1.3025 3.82 2.2925 4.5 3.3125 C2.52 3.6425 0.54 3.9725 -1.5 4.3125 C-1.83 5.3025 -2.16 6.2925 -2.5 7.3125 C-3.16 7.3125 -3.82 7.3125 -4.5 7.3125 C-4.625 4.9375 -4.625 4.9375 -4.5 2.3125 C-2.5 0.3125 -2.5 0.3125 0 0 Z " fill="#1D1B1D" transform="translate(20.5,104.6875)"/>
<path d="M0 0 C0.33 0.66 0.66 1.32 1 2 C0.67 2.99 0.34 3.98 0 5 C0.66 5 1.32 5 2 5 C1.67 7.31 1.34 9.62 1 12 C0.34 11.01 -0.32 10.02 -1 9 C-1.33 9.66 -1.66 10.32 -2 11 C-2.66 11 -3.32 11 -4 11 C-3.5247412 9.35303396 -3.04468109 7.70745272 -2.5625 6.0625 C-2.29566406 5.14597656 -2.02882813 4.22945312 -1.75390625 3.28515625 C-1 1 -1 1 0 0 Z " fill="#676C85" transform="translate(8,52)"/>
<path d="M0 0 C2.5 1.375 2.5 1.375 5 3 C5 3.66 5 4.32 5 5 C5.99 5.33 6.98 5.66 8 6 C7.01 6.495 7.01 6.495 6 7 C5.01 6.67 4.02 6.34 3 6 C2.67 6.66 2.34 7.32 2 8 C0.4375 6.8125 0.4375 6.8125 -1 5 C-0.6875 2.3125 -0.6875 2.3125 0 0 Z " fill="#4A5273" transform="translate(149,20)"/>
<path d="M0 0 C-0.33 0.66 -0.66 1.32 -1 2 C-0.34 2.66 0.32 3.32 1 4 C-3.455 4.495 -3.455 4.495 -8 5 C-7.67 3.68 -7.34 2.36 -7 1 C-4.53721199 -0.231394 -2.7204945 -0.07159196 0 0 Z " fill="#424967" transform="translate(73,3)"/>
<path d="M0 0 C0 0.66 0 1.32 0 2 C-0.66 2 -1.32 2 -2 2 C-2.33 3.32 -2.66 4.64 -3 6 C-4.65 5.67 -6.3 5.34 -8 5 C-6.44843568 0.34530705 -4.78780941 0 0 0 Z " fill="#1F1E20" transform="translate(31,123)"/>
<path d="M0 0 C1.485 0.99 1.485 0.99 3 2 C3.6875 5.625 3.6875 5.625 4 9 C3.01 9.33 2.02 9.66 1 10 C-0.83691257 6.21812119 -1.15837626 4.05431692 0 0 Z " fill="#2B314F" transform="translate(173,51)"/>
<path d="M0 0 C-1.14121294 4.7278822 -1.86144658 7.19646381 -6 10 C-5.38909774 3.52443609 -5.38909774 3.52443609 -3.5625 1.0625 C-2 0 -2 0 0 0 Z " fill="#2C3350" transform="translate(178,114)"/>
<path d="M0 0 C0.33 0 0.66 0 1 0 C1 1.98 1 3.96 1 6 C-0.98 6.99 -0.98 6.99 -3 8 C-4.5 6.625 -4.5 6.625 -6 5 C-6 4.34 -6 3.68 -6 3 C-4.0625 2.4375 -4.0625 2.4375 -2 2 C-1.67 2.33 -1.34 2.66 -1 3 C-0.67 2.01 -0.34 1.02 0 0 Z " fill="#F87676" transform="translate(171,68)"/>
<path d="M0 0 C0.66 0 1.32 0 2 0 C2.1875 2.875 2.1875 2.875 2 6 C-1 8 -1 8 -5 8 C-5 7.34 -5 6.68 -5 6 C-4.360625 5.525625 -3.72125 5.05125 -3.0625 4.5625 C-0.71627037 3.0908635 -0.71627037 3.0908635 0 0 Z " fill="#F63D3C" transform="translate(155,40)"/>
<path d="M0 0 C0.99 0.66 1.98 1.32 3 2 C3 3.32 3 4.64 3 6 C2.34 6 1.68 6 1 6 C0.67 6.99 0.34 7.98 0 9 C-1.32 9 -2.64 9 -4 9 C-4 8.34 -4 7.68 -4 7 C-3.01 7 -2.02 7 -1 7 C-1 6.01 -1 5.02 -1 4 C-0.34 4 0.32 4 1 4 C1 3.34 1 2.68 1 2 C0.01 1.67 -0.98 1.34 -2 1 C-1.34 0.67 -0.68 0.34 0 0 Z " fill="#F63938" transform="translate(146,31)"/>
<path d="M0 0 C0.99 0.33 1.98 0.66 3 1 C3.79953138 4.28696233 4.09658936 5.71023192 3 9 C2.01 9 1.02 9 0 9 C0 6.03 0 3.06 0 0 Z " fill="#F83333" transform="translate(96,11)"/>
<path d="M0 0 C1 3 1 3 -0.1875 5.625 C-2 8 -2 8 -4.1875 8.8125 C-4.785625 8.874375 -5.38375 8.93625 -6 9 C-5.69381595 5.32579134 -5.24228216 4.21864487 -2.4375 1.6875 C-1.633125 1.130625 -0.82875 0.57375 0 0 Z " fill="#2B314D" transform="translate(42,55)"/>
<path d="M0 0 C0.66 0.33 1.32 0.66 2 1 C0.92598892 3.91517292 0.22189824 5.77810176 -2 8 C-2.66 7.67 -3.32 7.34 -4 7 C-3.6875 4.625 -3.6875 4.625 -3 2 C-2.01 1.34 -1.02 0.68 0 0 Z " fill="#353A58" transform="translate(18,38)"/>
<path d="M0 0 C1.65 0 3.3 0 5 0 C5 1.98 5 3.96 5 6 C5.99 6.33 6.98 6.66 8 7 C6.68 7 5.36 7 4 7 C3.67 6.34 3.34 5.68 3 5 C2.01 5.33 1.02 5.66 0 6 C0 4.02 0 2.04 0 0 Z " fill="#F75E5F" transform="translate(91,14)"/>
<path d="M0 0 C1.98 0.66 3.96 1.32 6 2 C6 2.99 6 3.98 6 5 C6.33 5.66 6.66 6.32 7 7 C4.69 6.34 2.38 5.68 0 5 C0 3.35 0 1.7 0 0 Z " fill="#525776" transform="translate(49,160)"/>
<path d="M0 0 C1.5625 1.25 1.5625 1.25 3 3 C2.6875 5.1875 2.6875 5.1875 2 7 C1.34 7 0.68 7 0 7 C-0.99 7.33 -1.98 7.66 -3 8 C-2.67 6.02 -2.34 4.04 -2 2 C-1.34 2 -0.68 2 0 2 C0 1.34 0 0.68 0 0 Z " fill="#58575D" transform="translate(31,123)"/>
<path d="M0 0 C1.32 0.66 2.64 1.32 4 2 C2.25 6.875 2.25 6.875 0 8 C0 6.68 0 5.36 0 4 C-0.66 4 -1.32 4 -2 4 C-1.34 2.68 -0.68 1.36 0 0 Z " fill="#F74342" transform="translate(32,41)"/>
<path d="M0 0 C6.75 0.75 6.75 0.75 9 3 C4.92630576 5.03684712 2.41062136 5.0257259 -2 4 C-0.68 3.67 0.64 3.34 2 3 C2 2.34 2 1.68 2 1 C1.34 0.67 0.68 0.34 0 0 Z " fill="#525B7A" transform="translate(118,5)"/>
<path d="M0 0 C0.66 1.32 1.32 2.64 2 4 C-0.31 4.66 -2.62 5.32 -5 6 C-4.625 3.5625 -4.625 3.5625 -4 1 C-2 0 -2 0 0 0 Z " fill="#434967" transform="translate(128,163)"/>
<path d="M0 0 C1.89213369 2.38573379 3.02391783 4.07175348 4 7 C3.67 7.66 3.34 8.32 3 9 C-0.0625 9.625 -0.0625 9.625 -3 10 C-3.33 8.68 -3.66 7.36 -4 6 C-3.34 6 -2.68 6 -2 6 C-2 6.66 -2 7.32 -2 8 C-0.68 8 0.64 8 2 8 C1.34 7.01 0.68 6.02 0 5 C-0.125 2.3125 -0.125 2.3125 0 0 Z " fill="#BFBEC1" transform="translate(124,149)"/>
<path d="M0 0 C0.99 0 1.98 0 3 0 C4.6875 2 4.6875 2 6 4 C5.01 5.485 5.01 5.485 4 7 C1.375 7.1875 1.375 7.1875 -1 7 C0.32 6.67 1.64 6.34 3 6 C2.67 5.34 2.34 4.68 2 4 C1.01 3.67 0.02 3.34 -1 3 C-0.67 2.01 -0.34 1.02 0 0 Z " fill="#D6D6DB" transform="translate(37,137)"/>
<path d="M0 0 C1 2 1 2 1 5 C1.66 5.33 2.32 5.66 3 6 C3 6.66 3 7.32 3 8 C0.03824877 7.38722388 -1.38058783 6.74627478 -4 5 C-4 4.34 -4 3.68 -4 3 C-2 1.375 -2 1.375 0 0 Z " fill="#27282B" transform="translate(44,142)"/>
<path d="M0 0 C-0.75 4.75 -0.75 4.75 -3 7 C-3 6.01 -3 5.02 -3 4 C-4.98 4.99 -4.98 4.99 -7 6 C-6.1875 3.5625 -6.1875 3.5625 -5 1 C-2 0 -2 0 0 0 Z " fill="#404566" transform="translate(171,129)"/>
<path d="M0 0 C0.33 0.99 0.66 1.98 1 3 C0.01 3.33 -0.98 3.66 -2 4 C-2.33 4.66 -2.66 5.32 -3 6 C-4.32 5.34 -5.64 4.68 -7 4 C-3.375 0 -3.375 0 0 0 Z " fill="#F75F60" transform="translate(38,31)"/>
<path d="M0 0 C1.2065625 0.0309375 1.2065625 0.0309375 2.4375 0.0625 C2.7675 0.7225 3.0975 1.3825 3.4375 2.0625 C1.7875 2.0625 0.1375 2.0625 -1.5625 2.0625 C-1.5625 2.7225 -1.5625 3.3825 -1.5625 4.0625 C-0.5725 4.3925 0.4175 4.7225 1.4375 5.0625 C-0.5425 5.0625 -2.5225 5.0625 -4.5625 5.0625 C-3.43829114 0.08386076 -3.43829114 0.08386076 0 0 Z " fill="#F74141" transform="translate(74.5625,11.9375)"/>
<path d="M0 0 C1.9453125 -0.29296875 1.9453125 -0.29296875 4.125 -0.1875 C5.40375 -0.125625 6.6825 -0.06375 8 0 C7.01 1.485 7.01 1.485 6 3 C4.0546875 3.29296875 4.0546875 3.29296875 1.875 3.1875 C0.59625 3.125625 -0.6825 3.06375 -2 3 C-1.34 2.01 -0.68 1.02 0 0 Z " fill="#282F4A" transform="translate(73,3)"/>
<path d="M0 0 C1.32 0.33 2.64 0.66 4 1 C3.67 2.65 3.34 4.3 3 6 C1.02 6.33 -0.96 6.66 -3 7 C-3 6.34 -3 5.68 -3 5 C-1.35 5 0.3 5 2 5 C2 4.01 2 3.02 2 2 C1.34 2 0.68 2 0 2 C0 1.34 0 0.68 0 0 Z " fill="#1F1E1F" transform="translate(138,143)"/>
<path d="M0 0 C0.99 0.99 1.98 1.98 3 3 C1.68 3 0.36 3 -1 3 C-0.34 4.65 0.32 6.3 1 8 C-0.32 7.67 -1.64 7.34 -3 7 C-3.33 5.68 -3.66 4.36 -4 3 C-2.68 2.01 -1.36 1.02 0 0 Z " fill="#8F8D91" transform="translate(149,129)"/>
<path d="M0 0 C0.66 0.33 1.32 0.66 2 1 C2 3.31 2 5.62 2 8 C1.01 8 0.02 8 -1 8 C-1.125 2.25 -1.125 2.25 0 0 Z " fill="#A49C9F" transform="translate(93,97)"/>
<path d="M0 0 C0.33 0 0.66 0 1 0 C1 2.97 1 5.94 1 9 C-0.32 9.33 -1.64 9.66 -3 10 C-2.01 6.7 -1.02 3.4 0 0 Z " fill="#50AAEB" transform="translate(107,80)"/>
<path d="M0 0 C0.99 0.33 1.98 0.66 3 1 C2.34 1 1.68 1 1 1 C1 1.66 1 2.32 1 3 C1.99 3.33 2.98 3.66 4 4 C4 4.66 4 5.32 4 6 C2.35 5.67 0.7 5.34 -1 5 C-1.33 3.68 -1.66 2.36 -2 1 C-1.34 0.67 -0.68 0.34 0 0 Z " fill="#F74747" transform="translate(164,70)"/>
<path d="M0 0 C2.3125 0.1875 2.3125 0.1875 5 1 C6.8125 3.5625 6.8125 3.5625 8 6 C7.01 6.33 6.02 6.66 5 7 C4.731875 6.030625 4.46375 5.06125 4.1875 4.0625 C3.795625 3.051875 3.40375 2.04125 3 1 C2.01 0.67 1.02 0.34 0 0 Z " fill="#3D3C40" transform="translate(36,133)"/>
<path d="M0 0 C-4.75 4 -4.75 4 -7 4 C-7 3.34 -7 2.68 -7 2 C-7.66 1.67 -8.32 1.34 -9 1 C-5.57367167 -0.61798838 -3.61944899 -1.34053666 0 0 Z " fill="#DDE9F4" transform="translate(130,129)"/>
<path d="M0 0 C0.33 0.99 0.66 1.98 1 3 C1.66 3 2.32 3 3 3 C3.33 4.65 3.66 6.3 4 8 C3.01 7.67 2.02 7.34 1 7 C0.67 8.32 0.34 9.64 0 11 C0 7.37 0 3.74 0 0 Z " fill="#4E9FDA" transform="translate(74,82)"/>
<path d="M0 0 C2.5654594 2.5654594 2.54046087 4.47686668 3 8 C1.66666667 8 0.33333333 8 -1 8 C-1.04241723 5.66705225 -1.04092937 3.33297433 -1 1 C-0.67 0.67 -0.34 0.34 0 0 Z " fill="#2D3452" transform="translate(179,68)"/>
<path d="M0 0 C0.66 0.99 1.32 1.98 2 3 C4.56282742 3.72965366 4.56282742 3.72965366 7 4 C7 4.66 7 5.32 7 6 C6.21625 5.938125 5.4325 5.87625 4.625 5.8125 C3.325625 5.9053125 3.325625 5.9053125 2 6 C1.34 6.99 0.68 7.98 0 9 C-0.87890625 2.84765625 -0.87890625 2.84765625 -1 1 C-0.67 0.67 -0.34 0.34 0 0 Z " fill="#FBCED0" transform="translate(69,14)"/>
<path d="M0 0 C2 3.75 2 3.75 2 6 C-1.01031744 6.93423645 -1.86650268 7.04449911 -5 6 C-4.67 5.01 -4.34 4.02 -4 3 C-3.34 3 -2.68 3 -2 3 C-2 3.66 -2 4.32 -2 5 C-1.34 5 -0.68 5 0 5 C-0.33 4.01 -0.66 3.02 -1 2 C-0.67 1.34 -0.34 0.68 0 0 Z " fill="#69696C" transform="translate(115,150)"/>
<path d="M0 0 C1.65 0 3.3 0 5 0 C5 1.32 5 2.64 5 4 C4.01 4.33 3.02 4.66 2 5 C1.34 4.34 0.68 3.68 0 3 C0 2.01 0 1.02 0 0 Z " fill="#CCCDD1" transform="translate(91,130)"/>
<path d="M0 0 C3.0916909 2.52956528 3.90931332 5.22454612 5 9 C4.01 9.33 3.02 9.66 2 10 C0.44765929 6.41021211 0 3.89497319 0 0 Z " fill="#536C63" transform="translate(114,78)"/>
<path d="M0 0 C0.99 0.33 1.98 0.66 3 1 C3.33 1.99 3.66 2.98 4 4 C3.38125 4.28875 2.7625 4.5775 2.125 4.875 C-0.13325765 5.93720042 -0.13325765 5.93720042 -2 8 C-1.47731534 5.23723823 -0.89130413 2.6739124 0 0 Z " fill="#D2CB1E" transform="translate(108,72)"/>
<path d="M0 0 C0.33 0 0.66 0 1 0 C1.66 1.98 2.32 3.96 3 6 C4.65 6.33 6.3 6.66 8 7 C7.360625 7.12375 6.72125 7.2475 6.0625 7.375 C5.0415625 7.684375 5.0415625 7.684375 4 8 C3.67 8.66 3.34 9.32 3 10 C3 9.34 3 8.68 3 8 C2.01 7.67 1.02 7.34 0 7 C-1.17755913 4.05610218 -1.03348696 3.10046087 0 0 Z " fill="#F8A5A8" transform="translate(48,22)"/>
<path d="M0 0 C0.33 0.66 0.66 1.32 1 2 C3.02463255 2.65213292 3.02463255 2.65213292 5 3 C4.34 3 3.68 3 3 3 C3 3.66 3 4.32 3 5 C3.66 5.33 4.32 5.66 5 6 C3.35 5.67 1.7 5.34 0 5 C-0.5625 3.0625 -0.5625 3.0625 -1 1 C-0.67 0.67 -0.34 0.34 0 0 Z " fill="#F83736" transform="translate(41,28)"/>
<path d="M0 0 C3.25696479 0.41755959 4.63443291 0.63443291 7 3 C4.6875 3.6875 4.6875 3.6875 2 4 C0.1875 2.5625 0.1875 2.5625 -1 1 C-0.67 0.67 -0.34 0.34 0 0 Z " fill="#313754" transform="translate(123,8)"/>
<path d="M0 0 C0.33 0.99 0.66 1.98 1 3 C-2.37462715 2.45276317 -4.08235 1.9451 -7 0 C-4.3333581 -1.33332095 -2.83319697 -0.67102033 0 0 Z " fill="#282F4C" transform="translate(59,164)"/>
<path d="M0 0 C0.99 0.33 1.98 0.66 3 1 C2.67 1.99 2.34 2.98 2 4 C2.99 4.99 3.98 5.98 5 7 C0.25 5.125 0.25 5.125 -2 4 C-2 3.34 -2 2.68 -2 2 C-1.34 2 -0.68 2 0 2 C0 1.34 0 0.68 0 0 Z " fill="#595D82" transform="translate(39,154)"/>
<path d="M0 0 C0.33 0.99 0.66 1.98 1 3 C-1.31 3.33 -3.62 3.66 -6 4 C-5.67 3.01 -5.34 2.02 -5 1 C-2 0 -2 0 0 0 Z " fill="#282E4B" transform="translate(106,141)"/>
<path d="M0 0 C1.32 0.33 2.64 0.66 4 1 C4 1.99 4 2.98 4 4 C2.02 4 0.04 4 -2 4 C-1.34 2.68 -0.68 1.36 0 0 Z " fill="#181819" transform="translate(162,116)"/>
<path d="M0 0 C1.65 0.33 3.3 0.66 5 1 C4.34 2.32 3.68 3.64 3 5 C1.35 5 -0.3 5 -2 5 C-1.34 4.34 -0.68 3.68 0 3 C0 2.01 0 1.02 0 0 Z " fill="#3A393D" transform="translate(158,114)"/>
<path d="M0 0 C1.32 0.66 2.64 1.32 4 2 C4 4.31 4 6.62 4 9 C3.67 9 3.34 9 3 9 C2.7525 8.030625 2.505 7.06125 2.25 6.0625 C1.63125 4.5465625 1.63125 4.5465625 1 3 C-1.03243548 2.03122943 -1.03243548 2.03122943 -3 2 C-2.01 1.34 -1.02 0.68 0 0 Z " fill="#5495C9" transform="translate(86,105)"/>
<path d="M0 0 C0.99 0.495 0.99 0.495 2 1 C2 1.66 2 2.32 2 3 C2.66 3 3.32 3 4 3 C4.33 4.32 4.66 5.64 5 7 C4.01 7.33 3.02 7.66 2 8 C1.34 5.36 0.68 2.72 0 0 Z " fill="#7A8749" transform="translate(117,86)"/>
<path d="M0 0 C0.66 0.33 1.32 0.66 2 1 C-1.96 4.465 -1.96 4.465 -6 8 C-6.66 7.67 -7.32 7.34 -8 7 C-5.36 4.69 -2.72 2.38 0 0 Z " fill="#4F5673" transform="translate(34,20)"/>
<path d="M0 0 C2.475 0.495 2.475 0.495 5 1 C4.34 3.64 3.68 6.28 3 9 C2.67 9 2.34 9 2 9 C2 7.02 2 5.04 2 3 C1.34 3 0.68 3 0 3 C0 2.01 0 1.02 0 0 Z " fill="#464348" transform="translate(75,152)"/>
<path d="M0 0 C1.32 0 2.64 0 4 0 C4 1.32 4 2.64 4 4 C2.35 3.67 0.7 3.34 -1 3 C-0.67 2.01 -0.34 1.02 0 0 Z " fill="#CAC8CB" transform="translate(19,108)"/>
<path d="M0 0 C1.53445094 3.06890187 0.54984289 5.70094266 0 9 C-0.99 9.33 -1.98 9.66 -3 10 C-2.69201674 8.51988629 -2.378482 7.04092675 -2.0625 5.5625 C-1.88847656 4.73878906 -1.71445313 3.91507812 -1.53515625 3.06640625 C-1 1 -1 1 0 0 Z " fill="#48584E" transform="translate(68,77)"/>
<path d="M0 0 C-0.33 0.99 -0.66 1.98 -1 3 C-3.0625 3.6875 -3.0625 3.6875 -5 4 C-5.33 2.68 -5.66 1.36 -6 0 C-3.50907189 -1.24546405 -2.58919267 -0.7767578 0 0 Z " fill="#373D5B" transform="translate(52,12)"/>
<path d="M0 0 C1.3921875 0.3403125 1.3921875 0.3403125 2.8125 0.6875 C2.4825 1.3475 2.1525 2.0075 1.8125 2.6875 C-0.8275 2.6875 -3.4675 2.6875 -6.1875 2.6875 C-4.14987265 -0.14253799 -3.59070275 -0.35202968 0 0 Z " fill="#292F4B" transform="translate(110.1875,3.3125)"/>
<path d="M0 0 C-0.33 0.99 -0.66 1.98 -1 3 C-1.66 3 -2.32 3 -3 3 C-3.33 3.66 -3.66 4.32 -4 5 C-4.99 5 -5.98 5 -7 5 C-7 4.01 -7 3.02 -7 2 C-2.25 0 -2.25 0 0 0 Z " fill="#323034" transform="translate(131,144)"/>
<path d="M0 0 C1.32 0 2.64 0 4 0 C3.67 1.32 3.34 2.64 3 4 C1.35 3.67 -0.3 3.34 -2 3 C-1.34 2.01 -0.68 1.02 0 0 Z " fill="#46444A" transform="translate(135,140)"/>
<path d="M0 0 C2.31 0.66 4.62 1.32 7 2 C7 2.99 7 3.98 7 5 C3.34683329 3.75023244 2.21934164 3.32901247 0 0 Z " fill="#E1E8F1" transform="translate(55,128)"/>
<path d="M0 0 C1.98 0.495 1.98 0.495 4 1 C3.01 1.495 3.01 1.495 2 2 C2.66 2.66 3.32 3.32 4 4 C3.67 4.66 3.34 5.32 3 6 C1.68 5.34 0.36 4.68 -1 4 C-0.67 2.68 -0.34 1.36 0 0 Z " fill="#3B3A3D" transform="translate(160,120)"/>
<path d="M0 0 C1.77706209 2.66559313 2.87548273 5.0280615 4 8 C3.01 8 2.02 8 1 8 C0.87625 7.360625 0.7525 6.72125 0.625 6.0625 C0.315625 5.0415625 0.315625 5.0415625 0 4 C-0.66 3.67 -1.32 3.34 -2 3 C-1.34 3 -0.68 3 0 3 C0 2.01 0 1.02 0 0 Z " fill="#3B3A3F" transform="translate(27,115)"/>
<path d="M0 0 C1.125 3.75 1.125 3.75 0 6 C-0.99 6 -1.98 6 -3 6 C-2.625 3.5625 -2.625 3.5625 -2 1 C-1.34 0.67 -0.68 0.34 0 0 Z " fill="#2B314D" transform="translate(11,51)"/>
<path d="M0 0 C0.99 0.33 1.98 0.66 3 1 C2.67 2.32 2.34 3.64 2 5 C0.35 5 -1.3 5 -3 5 C-1.125 1.125 -1.125 1.125 0 0 Z " fill="#4A506F" transform="translate(23,30)"/>
</svg>
