<?xml version="1.0" encoding="UTF-8"?>
<svg version="1.1" xmlns="http://www.w3.org/2000/svg" width="176" height="176">
<path d="M0 0 C18.36918142 13.66937414 32.74378864 32.87129769 36.34375 56.01025391 C39.51112715 84.75310173 33.69250077 108.4702012 15.64453125 131.0390625 C2.47663124 146.53353136 -16.90981408 158.31117321 -37.375 160.5625 C-51.99350155 161.56511615 -66.5368585 161.86741175 -80.375 156.5625 C-81.38691406 156.211875 -82.39882812 155.86125 -83.44140625 155.5 C-104.75158881 147.49826261 -121.90539816 131.40293731 -131.75 111 C-140.88599365 89.8552215 -143.14833717 65.52729154 -135.375 43.5625 C-134.8490625 42.00982422 -134.8490625 42.00982422 -134.3125 40.42578125 C-126.30634588 19.15943438 -110.17368656 2.01195672 -89.8125 -7.8125 C-59.63069042 -20.8531105 -27.228415 -18.29409133 0 0 Z " fill="#0F090C" transform="translate(139.375,15.4375)"/>
<path d="M0 0 C18.36918142 13.66937414 32.74378864 32.87129769 36.34375 56.01025391 C39.51112715 84.75310173 33.69250077 108.4702012 15.64453125 131.0390625 C2.47663124 146.53353136 -16.90981408 158.31117321 -37.375 160.5625 C-51.99350155 161.56511615 -66.5368585 161.86741175 -80.375 156.5625 C-81.38691406 156.211875 -82.39882812 155.86125 -83.44140625 155.5 C-104.75158881 147.49826261 -121.90539816 131.40293731 -131.75 111 C-140.88599365 89.8552215 -143.14833717 65.52729154 -135.375 43.5625 C-134.8490625 42.00982422 -134.8490625 42.00982422 -134.3125 40.42578125 C-126.30634588 19.15943438 -110.17368656 2.01195672 -89.8125 -7.8125 C-59.63069042 -20.8531105 -27.228415 -18.29409133 0 0 Z M-100.0625 29.3125 C-112.07507228 43.89717599 -117.11259103 60.47762882 -115.66601562 79.14794922 C-113.52683497 96.89668806 -103.87340716 111.28084731 -90.74609375 122.88671875 C-75.44311704 134.85998666 -58.27067321 136.98616804 -39.375 135.5625 C-23.95028756 133.10321475 -9.02333319 123.42238256 0.19824219 110.97363281 C4.71150103 104.60263423 8.10170796 97.96010316 10.625 90.5625 C10.98851562 89.52867188 11.35203125 88.49484375 11.7265625 87.4296875 C15.57419292 70.86814785 13.0063137 53.99084523 4.875 39.25 C-5.33521093 23.54398676 -20.09359099 12.57851109 -38.3125 8.125 C-61.92718864 4.54098317 -83.66771695 11.79329599 -100.0625 29.3125 Z " fill="#F2C532" transform="translate(139.375,15.4375)"/>
<path d="M0 0 C13.01172792 10.55065897 23.61310849 25.46334478 25.53540039 42.49316406 C25.69105571 45.45988926 25.73713318 48.4003919 25.71826172 51.37109375 C25.7125415 52.42329102 25.70682129 53.47548828 25.70092773 54.55957031 C25.31965815 71.29435252 18.36042071 86.15072382 6.85498047 98.30078125 C-9.03296845 112.65877953 -26.95818231 116.67020416 -47.84179688 115.89697266 C-62.62161377 114.82426381 -76.88743198 105.70707991 -86.82470703 95.05078125 C-93.42702676 87.06474182 -97.52790907 78.48164125 -100.78173828 68.68359375 C-101.14783203 67.59433594 -101.51392578 66.50507812 -101.89111328 65.3828125 C-105.72053176 49.47728924 -102.25637559 33.51518135 -94.59423828 19.37109375 C-85.61311045 5.14776255 -72.93399845 -5.27578713 -56.78173828 -10.31640625 C-56.11658203 -10.53941406 -55.45142578 -10.76242188 -54.76611328 -10.9921875 C-36.43211886 -16.13550273 -15.11978409 -11.17098874 0 0 Z M-77.78173828 3.68359375 C-78.46365234 4.18117188 -79.14556641 4.67875 -79.84814453 5.19140625 C-86.51224721 10.38184238 -90.56147345 17.49513436 -94.78173828 24.68359375 C-95.21744141 25.42222656 -95.65314453 26.16085938 -96.10205078 26.921875 C-97.07096966 28.87674871 -97.07096966 28.87674871 -95.78173828 31.68359375 C-94.96189453 31.59980469 -94.14205078 31.51601562 -93.29736328 31.4296875 C-92.21970703 31.32785156 -91.14205078 31.22601563 -90.03173828 31.12109375 C-88.43072266 30.96447266 -88.43072266 30.96447266 -86.79736328 30.8046875 C-84.10526013 30.69658491 -82.32972957 30.97082967 -79.78173828 31.68359375 C-78.11208377 31.36556432 -76.4449531 31.03374424 -74.78173828 30.68359375 C-74.12173828 31.01359375 -73.46173828 31.34359375 -72.78173828 31.68359375 C-70.17242562 30.7899577 -70.17242562 30.7899577 -67.78173828 29.68359375 C-67.79062073 30.34091995 -67.79950317 30.99824615 -67.80865479 31.67549133 C-67.89701062 38.50451987 -67.95742373 45.33338661 -68.00146484 52.1628418 C-68.02160525 54.71303907 -68.04891925 57.26319003 -68.08349609 59.81323242 C-68.13190567 63.47456272 -68.15468302 67.13528357 -68.17236328 70.796875 C-68.19300842 71.94070145 -68.21365356 73.08452789 -68.23492432 74.26301575 C-68.2353775 75.85432564 -68.2353775 75.85432564 -68.23583984 77.4777832 C-68.24472229 78.41266068 -68.25360474 79.34753815 -68.26275635 80.31074524 C-67.97777782 82.79800821 -67.97777782 82.79800821 -66.06463623 84.48469543 C-63.42354849 85.87170253 -61.77375223 86.06359715 -58.80126953 86.07177734 C-57.81344482 86.08123383 -56.82562012 86.09069031 -55.80786133 86.10043335 C-54.74736572 86.09436066 -53.68687012 86.08828796 -52.59423828 86.08203125 C-50.95225464 86.08633652 -50.95225464 86.08633652 -49.27709961 86.09072876 C-46.96386192 86.09276927 -44.65060698 86.08724037 -42.33740234 86.07470703 C-38.79501797 86.05865393 -35.25377463 86.07455695 -31.71142578 86.09375 C-29.46402743 86.09176757 -27.21662978 86.08792389 -24.96923828 86.08203125 C-23.90874268 86.08810394 -22.84824707 86.09417664 -21.75561523 86.10043335 C-20.76779053 86.09097687 -19.77996582 86.08152039 -18.76220703 86.07177734 C-17.89490967 86.06939056 -17.0276123 86.06700378 -16.1340332 86.06454468 C-13.18390895 85.58677611 -11.8442704 84.84702374 -9.78173828 82.68359375 C-9.20307512 80.25147709 -9.20307512 80.25147709 -9.32763672 77.4777832 C-9.3280899 75.88647331 -9.3280899 75.88647331 -9.32855225 74.26301575 C-9.34919739 73.1191893 -9.36984253 71.97536285 -9.39111328 70.796875 C-9.39960297 69.03865669 -9.39960297 69.03865669 -9.40826416 67.24491882 C-9.43068506 63.49489797 -9.48089445 59.74582664 -9.53173828 55.99609375 C-9.55179578 53.45639399 -9.57004785 50.91667928 -9.58642578 48.37695312 C-9.63056868 42.14550843 -9.69753846 35.91461891 -9.78173828 29.68359375 C-8.85361328 30.19212891 -8.85361328 30.19212891 -7.90673828 30.7109375 C-5.30251978 31.90294193 -4.46227503 31.43749471 -1.78173828 30.68359375 C-1.14236328 30.84859375 -0.50298828 31.01359375 0.15576172 31.18359375 C2.24631168 31.85082873 2.24631168 31.85082873 4.46826172 31.18359375 C7.11706472 30.7019932 8.67045423 30.82476397 11.28076172 31.24609375 C14.99212128 31.65846703 16.26339667 31.77662316 19.21826172 29.68359375 C15.22842588 16.10203135 5.08630757 5.5230121 -6.76611328 -1.7109375 C-29.91204226 -14.03344632 -57.22597316 -13.04352072 -77.78173828 3.68359375 Z " fill="#108643" transform="translate(126.78173828125,35.31640625)"/>
<path d="M0 0 C1.38251953 0.60134766 1.38251953 0.60134766 2.79296875 1.21484375 C15.9915636 7.63729117 25.16794743 18.2608996 32 31 C32.73828125 33.41015625 32.73828125 33.41015625 33 35 C28.18007832 36.99850411 25.08994913 36.84832485 20 36 C18.66216607 36.31478446 17.32796291 36.64587656 16 37 C14.33178677 36.67449498 12.66500443 36.34153937 11 36 C9.515 36.495 9.515 36.495 8 37 C5.8125 35.75 5.8125 35.75 4 34 C4 33.01 4 32.02 4 31 C-1.94 31 -7.88 31 -14 31 C-14 30.34 -14 29.68 -14 29 C-14.99 29.99 -14.99 29.99 -16 31 C-18.68839385 31.26991906 -21.29141936 31.08737357 -24 31 C-24.495 29.02 -24.495 29.02 -25 27 C-25.33 28.32 -25.66 29.64 -26 31 C-33.28358209 31.35820896 -33.28358209 31.35820896 -36 30 C-37.33691418 27.32617164 -36.97179094 24.99557343 -36.84765625 22.0703125 C-37.09900938 18.6544879 -38.87176839 16.56639694 -41 14 C-43.3796612 12.8101694 -44.91485735 12.86650034 -47.5625 12.875 C-48.36816406 12.87242188 -49.17382812 12.86984375 -50.00390625 12.8671875 C-51.99942021 12.77988609 -51.99942021 12.77988609 -53 14 C-52.34 13.67 -51.68 13.34 -51 13 C-46.76843021 12.52095436 -44.70017455 12.52814324 -41.125 14.9375 C-38.68694682 18.45116487 -38.37593248 20.63615571 -38.23828125 24.81640625 C-38.08286582 27.41351413 -38.08286582 27.41351413 -36 31 C-41.94 31 -47.88 31 -54 31 C-54.33 32.32 -54.66 33.64 -55 35 C-57.74177497 36.16671276 -60.00567607 37 -63 37 C-64.7634375 37.0309375 -64.7634375 37.0309375 -66.5625 37.0625 C-70 37 -70 37 -71 36 C-73.02408755 36.09002398 -75.04544287 36.24641038 -77.0625 36.4375 C-78.71958984 36.59025391 -78.71958984 36.59025391 -80.41015625 36.74609375 C-81.26480469 36.82988281 -82.11945313 36.91367188 -83 37 C-81.38220658 25.77783806 -72.64233356 15.66308559 -64.1640625 8.65625 C-45.89267212 -4.87811325 -21.35910658 -9.86042691 0 0 Z " fill="#138845" transform="translate(113,30)"/>
<path d="M0 0 C18.36918142 13.66937414 32.74378864 32.87129769 36.34375 56.01025391 C39.51112715 84.75310173 33.69250077 108.4702012 15.64453125 131.0390625 C2.47663124 146.53353136 -16.90981408 158.31117321 -37.375 160.5625 C-51.99350155 161.56511615 -66.5368585 161.86741175 -80.375 156.5625 C-81.38691406 156.211875 -82.39882812 155.86125 -83.44140625 155.5 C-104.75158881 147.49826261 -121.90539816 131.40293731 -131.75 111 C-140.88599365 89.8552215 -143.14833717 65.52729154 -135.375 43.5625 C-134.8490625 42.00982422 -134.8490625 42.00982422 -134.3125 40.42578125 C-126.30634588 19.15943438 -110.17368656 2.01195672 -89.8125 -7.8125 C-59.63069042 -20.8531105 -27.228415 -18.29409133 0 0 Z M-118.6171875 18.14453125 C-132.69138934 36.40813559 -138.99392117 57.6733612 -137.375 80.5625 C-137.3028125 81.61566406 -137.230625 82.66882813 -137.15625 83.75390625 C-134.47703644 105.64429885 -122.22101854 125.53887725 -105.79296875 139.8046875 C-87.13136001 154.18559738 -64.80706191 160.81425727 -41.375 158.5625 C-19.14320271 155.67306767 1.41238168 144.43106638 15.63671875 127.11328125 C30.82368508 107.29790613 37.27890163 83.39667265 34.12890625 58.66796875 C29.49057129 35.31906227 16.88497157 15.33840724 -2.40625 1.3671875 C-40.65362331 -23.53147384 -88.86792476 -16.11376608 -118.6171875 18.14453125 Z " fill="#080601" transform="translate(139.375,15.4375)"/>
<path d="M0 0 C0.66 0.33 1.32 0.66 2 1 C2.33 1.99 2.66 2.98 3 4 C3.66 4 4.32 4 5 4 C5.33 4.66 5.66 5.32 6 6 C6.78375 6.144375 7.5675 6.28875 8.375 6.4375 C11.31414903 7.06731765 12.23329302 7.61494558 14 10 C14.6875 12.1875 14.6875 12.1875 15 14 C15.40089844 13.51917969 15.80179688 13.03835937 16.21484375 12.54296875 C19.0691448 10.07590329 21.58568351 10.28406284 25.24609375 10.390625 C30.5714232 11.56899577 34.11923481 15.35617922 38 19 C43.64447622 24.16158377 49.30995117 28.25741121 56 32 C55.67 33.32 55.34 34.64 55 36 C54.39671875 35.91621094 53.7934375 35.83242187 53.171875 35.74609375 C51.97304687 35.59333984 51.97304687 35.59333984 50.75 35.4375 C49.56664062 35.28087891 49.56664062 35.28087891 48.359375 35.12109375 C45.98046654 34.99899746 44.2809511 35.39270275 42 36 C40.33178677 35.67449498 38.66500443 35.34153937 37 35 C36.01 35.33 35.02 35.66 34 36 C31.8125 34.75 31.8125 34.75 30 33 C30 32.01 30 31.02 30 30 C24.06 30 18.12 30 12 30 C12 29.34 12 28.68 12 28 C11.34 28.66 10.68 29.32 10 30 C7.31160615 30.26991906 4.70858064 30.08737357 2 30 C1.67 28.68 1.34 27.36 1 26 C0.67 27.32 0.34 28.64 0 30 C-7.28358209 30.35820896 -7.28358209 30.35820896 -10 29 C-11.36879241 26.26241518 -11.13283519 23.95223029 -10.91015625 20.9375 C-10.84852116 18.66869144 -10.84852116 18.66869144 -13 16 C-12.875 12.9375 -12.875 12.9375 -12 10 C-9.9375 8.625 -9.9375 8.625 -8 8 C-8 7.34 -8 6.68 -8 6 C-4.535 5.505 -4.535 5.505 -1 5 C-0.34 6.32 0.32 7.64 1 9 C1 8.34 1 7.68 1 7 C0.67 7 0.34 7 0 7 C0 4.69 0 2.38 0 0 Z " fill="#3D6D4F" transform="translate(87,31)"/>
<path d="M0 0 C13.01172792 10.55065897 23.61310849 25.46334478 25.53540039 42.49316406 C25.69105571 45.45988926 25.73713318 48.4003919 25.71826172 51.37109375 C25.7125415 52.42329102 25.70682129 53.47548828 25.70092773 54.55957031 C25.31965815 71.29435252 18.36042071 86.15072382 6.85498047 98.30078125 C-9.03296845 112.65877953 -26.95818231 116.67020416 -47.84179688 115.89697266 C-62.62161377 114.82426381 -76.88743198 105.70707991 -86.82470703 95.05078125 C-93.42702676 87.06474182 -97.52790907 78.48164125 -100.78173828 68.68359375 C-101.14783203 67.59433594 -101.51392578 66.50507812 -101.89111328 65.3828125 C-105.72053176 49.47728924 -102.25637559 33.51518135 -94.59423828 19.37109375 C-85.61311045 5.14776255 -72.93399845 -5.27578713 -56.78173828 -10.31640625 C-56.11658203 -10.53941406 -55.45142578 -10.76242188 -54.76611328 -10.9921875 C-36.43211886 -16.13550273 -15.11978409 -11.17098874 0 0 Z M-77.78173828 3.68359375 C-78.46365234 4.18117188 -79.14556641 4.67875 -79.84814453 5.19140625 C-88.92240429 12.25902931 -95.39739906 23.80135381 -98.78173828 34.68359375 C-99.00474609 35.37195313 -99.22775391 36.0603125 -99.45751953 36.76953125 C-103.93550828 53.15836083 -99.49932125 69.84064917 -91.76220703 84.45703125 C-83.2633905 98.30322938 -69.65309658 107.97184316 -54.15673828 112.55859375 C-37.88603954 116.11049792 -20.75558439 113.94881204 -6.34033203 105.4453125 C-1.73935864 102.27731403 2.26784163 98.62046179 6.21826172 94.68359375 C6.85634766 94.06871094 7.49443359 93.45382813 8.15185547 92.8203125 C19.6700861 80.84032652 23.76052263 64.60654372 23.63818359 48.42041016 C23.07973671 31.5345516 15.36465203 17.18967914 3.21826172 5.68359375 C-12.59597019 -7.66699669 -28.58268816 -10.56236015 -48.74316406 -9.60205078 C-59.76531552 -8.56590124 -69.30050688 -3.21795079 -77.78173828 3.68359375 Z " fill="#0E1206" transform="translate(126.78173828125,35.31640625)"/>
<path d="M0 0 C3.95583124 2.06172561 6.45483962 4.08792055 7.96875 8.2734375 C8.67160664 12.89938172 9.04965194 17.24494486 6.796875 21.47265625 C2.99092425 26.15162147 -0.4008674 27.98117277 -6.40625 28.6484375 C-11.78559064 28.09195399 -15.20151105 26.22122413 -18.96875 22.2109375 C-20.64623248 17.57319181 -20.67457654 13.14127495 -20.03125 8.2734375 C-16.03258108 -0.02009804 -8.7247978 -3.12079306 0 0 Z " fill="#F4F4F4" transform="translate(94.03125,76.7265625)"/>
<path d="M0 0 C0.33 0 0.66 0 1 0 C1.07347656 0.87011719 1.07347656 0.87011719 1.1484375 1.7578125 C1.71097957 9.93449456 1.71097957 9.93449456 5.75 16.75 C8.4143357 18.2301865 11.08198501 19.13785921 14 20 C14 23.96 14 27.92 14 32 C9.87482814 32.05372872 5.75034921 32.09354309 1.625 32.125 C0.449375 32.14175781 -0.72625 32.15851563 -1.9375 32.17578125 C-3.61972656 32.18544922 -3.61972656 32.18544922 -5.3359375 32.1953125 C-6.37282715 32.20578613 -7.4097168 32.21625977 -8.47802734 32.22705078 C-11 32 -11 32 -13 30 C-13.22705078 27.38623047 -13.22705078 27.38623047 -13.1953125 24.1171875 C-13.18886719 22.95058594 -13.18242188 21.78398438 -13.17578125 20.58203125 C-13.15902344 19.35871094 -13.14226563 18.13539062 -13.125 16.875 C-13.11597656 15.64394531 -13.10695312 14.41289063 -13.09765625 13.14453125 C-13.07402633 10.09627194 -13.03815439 7.04811211 -13 4 C-9.04 4 -5.08 4 -1 4 C-0.67 2.68 -0.34 1.36 0 0 Z " fill="#253C6D" transform="translate(73,87)"/>
<path d="M0 0 C3.96 0 7.92 0 12 0 C12.05372251 4.29183178 12.0935403 8.58299786 12.125 12.875 C12.14175781 14.09832031 12.15851563 15.32164063 12.17578125 16.58203125 C12.18222656 17.74863281 12.18867187 18.91523437 12.1953125 20.1171875 C12.20578613 21.19597168 12.21625977 22.27475586 12.22705078 23.38623047 C12 26 12 26 10 28 C7.47802734 28.22705078 7.47802734 28.22705078 4.3359375 28.1953125 C3.21445313 28.18886719 2.09296875 28.18242188 0.9375 28.17578125 C-0.238125 28.15902344 -1.41375 28.14226562 -2.625 28.125 C-4.40003906 28.11146484 -4.40003906 28.11146484 -6.2109375 28.09765625 C-9.14071057 28.07402905 -12.07038014 28.03815713 -15 28 C-15 24.04 -15 20.08 -15 16 C-12.49348958 14.828125 -9.98697917 13.65625 -7.48046875 12.484375 C-3.42167584 10.05549105 -2.22898036 7.72309588 -0.8125 3.25 C-0.544375 2.1775 -0.27625 1.105 0 0 Z " fill="#D51D32" transform="translate(104,91)"/>
<path d="M0 0 C5.23517403 2.39322241 7.29888643 6.16098377 10 11 C9.01 12.32 8.02 13.64 7 15 C8.65 14.01 10.3 13.02 12 12 C12.33 12.99 12.66 13.98 13 15 C14.80028835 16.10146078 14.80028835 16.10146078 17 17 C17.76957031 17.4021875 18.53914063 17.804375 19.33203125 18.21875 C20.15058594 18.6415625 20.96914063 19.064375 21.8125 19.5 C23.02873047 20.13421875 23.02873047 20.13421875 24.26953125 20.78125 C37.28462168 26.59056075 52.74826098 25.46523364 65.84765625 20.515625 C69.4751461 18.77155305 72.44802016 16.78184785 75.38671875 14.0390625 C77 13 77 13 79.20703125 13.3359375 C79.79871094 13.55507812 80.39039062 13.77421875 81 14 C81 18 81 18 79.671875 19.52734375 C65.96292859 29.58614386 49.66947432 33.18414507 32.95361328 30.6953125 C25.78336631 29.26454802 19.70728679 26.752943 13.8671875 22.3671875 C11.9499766 20.96337199 10.21642977 19.86342846 8 19 C7.01 19.33 6.02 19.66 5 20 C4.78085937 19.48050781 4.56171875 18.96101563 4.3359375 18.42578125 C1.97816456 13.24059768 -0.39481569 10.34922495 -5 7 C-3.25 6.3125 -3.25 6.3125 -1 6 C1.25 7.4375 1.25 7.4375 3 9 C2.30058404 5.85262818 1.23921302 2.97411124 0 0 Z " fill="#E2E2E2" transform="translate(43,108)"/>
<path d="M0 0 C8.91 0 17.82 0 27 0 C27 8.58 27 17.16 27 26 C23.04 26 19.08 26 15 26 C14.62875 24.783125 14.2575 23.56625 13.875 22.3125 C12.12503666 17.67057847 10.11896986 15.74597991 6 13 C2.78734084 11.67649342 2.78734084 11.67649342 0 11 C0 7.37 0 3.74 0 0 Z " fill="#D61D33" transform="translate(89,63)"/>
<path d="M0 0 C8.91 0 17.82 0 27 0 C27 3.63 27 7.26 27 11 C25.783125 11.37125 24.56625 11.7425 23.3125 12.125 C18.67057847 13.87496334 16.74597991 15.88103014 14 20 C12.67649342 23.21265916 12.67649342 23.21265916 12 26 C8.04 26 4.08 26 0 26 C0 17.42 0 8.84 0 0 Z " fill="#233B6C" transform="translate(60,63)"/>
<path d="M0 0 C4.9237737 1.47205605 8.54774096 5.28237767 12.2734375 8.6796875 C17.92873282 13.83157585 23.58025996 17.93534842 30.2734375 21.6796875 C26.5234375 22.8046875 26.5234375 22.8046875 24.2734375 21.6796875 C24.7684375 22.6696875 24.7684375 22.6696875 25.2734375 23.6796875 C20.50361991 24.40728679 17.00051681 24.76016277 12.2734375 23.6796875 C11.2834375 24.0096875 10.2934375 24.3396875 9.2734375 24.6796875 C7.0859375 23.4296875 7.0859375 23.4296875 5.2734375 21.6796875 C5.2734375 20.6896875 5.2734375 19.6996875 5.2734375 18.6796875 C-0.6665625 18.6796875 -6.6065625 18.6796875 -12.7265625 18.6796875 C-12.0665625 17.3596875 -11.4065625 16.0396875 -10.7265625 14.6796875 C-10.42291215 12.48937837 -10.42291215 12.48937837 -10.3515625 10.2421875 C-10.0355906 7.10318797 -9.63642627 5.50302049 -8.1640625 2.6171875 C-5.43922686 0.4512925 -3.50105306 -0.22125614 0 0 Z " fill="#EBEBEB" transform="translate(111.7265625,42.3203125)"/>
<path d="M0 0 C3.02944324 2.04158132 4.69626345 3.54102615 5.45703125 7.1953125 C5.60661907 8.73175693 5.71091358 10.27353334 5.76171875 11.81640625 C5.91713418 14.41351413 5.91713418 14.41351413 8 18 C2.06 18 -3.88 18 -10 18 C-10.33 19.32 -10.66 20.64 -11 22 C-14.0625 23.25 -14.0625 23.25 -17 24 C-16.34 23.01 -15.68 22.02 -15 21 C-15 19.68 -15 18.36 -15 17 C-14.05125 16.87625 -13.1025 16.7525 -12.125 16.625 C-8.91332809 16.28312823 -8.91332809 16.28312823 -7 14 C-7.804375 13.7525 -8.60875 13.505 -9.4375 13.25 C-10.283125 12.8375 -11.12875 12.425 -12 12 C-12.33 10.68 -12.66 9.36 -13 8 C-14.98 9.98 -16.96 11.96 -19 14 C-18.34 15.65 -17.68 17.3 -17 19 C-18.19625 18.7525 -19.3925 18.505 -20.625 18.25 C-25.2565088 17.62810129 -27.25607537 19.27714572 -31 22 C-33.171875 21.625 -33.171875 21.625 -35 21 C-34.32195313 20.59910156 -33.64390625 20.19820312 -32.9453125 19.78515625 C-26.81319237 16.03963689 -21.54843465 11.96123107 -16.27734375 7.08984375 C-7.11549539 -1.31768433 -7.11549539 -1.31768433 0 0 Z " fill="#EDECEC" transform="translate(69,43)"/>
<path d="M0 0 C2 1 2 1 4 4 C4.4140625 6.69921875 4.4140625 6.69921875 4.625 9.6875 C4.69976562 10.68136719 4.77453125 11.67523438 4.8515625 12.69921875 C4.90054688 13.45847656 4.94953125 14.21773437 5 15 C3.02 15.33 1.04 15.66 -1 16 C-0.84402344 16.67546875 -0.68804687 17.3509375 -0.52734375 18.046875 C-0.33269531 18.93890625 -0.13804688 19.8309375 0.0625 20.75 C0.25972656 21.63171875 0.45695312 22.5134375 0.66015625 23.421875 C0.99825872 25.98679028 0.81158635 27.57091639 0 30 C-7.28358209 30.35820896 -7.28358209 30.35820896 -10 29 C-11.36879241 26.26241518 -11.13283519 23.95223029 -10.91015625 20.9375 C-10.84852116 18.66869144 -10.84852116 18.66869144 -13 16 C-12.875 12.9375 -12.875 12.9375 -12 10 C-9.9375 8.625 -9.9375 8.625 -8 8 C-8 7.34 -8 6.68 -8 6 C-4.535 5.505 -4.535 5.505 -1 5 C-0.34 6.32 0.32 7.64 1 9 C1 8.34 1 7.68 1 7 C0.67 7 0.34 7 0 7 C0 4.69 0 2.38 0 0 Z " fill="#4B8B65" transform="translate(87,31)"/>
<path d="M0 0 C3.24079649 2.4823122 5.73199154 5.08070111 7 9 C7 11.33333333 7 13.66666667 7 16 C10.00617269 19.00617269 12.82381598 18.59585316 17 19 C17.33 17.35 17.66 15.7 18 14 C18.33 14 18.66 14 19 14 C19 15.65 19 17.3 19 19 C24.58500567 18.80101292 24.58500567 18.80101292 29 16 C29.39764263 14.01178687 29.73775349 12.01055661 30 10 C30.33 10 30.66 10 31 10 C31.04241723 12.33294775 31.04092937 14.66702567 31 17 C30.505 17.495 30.505 17.495 30 18 C35.61 18.33 41.22 18.66 47 19 C46.67 19.66 46.34 20.32 46 21 C37.09 21 28.18 21 19 21 C19 24.63 19 28.26 19 32 C19.845625 32.04125 20.69125 32.0825 21.5625 32.125 C26.15914255 33.29505447 28.87513145 35.48041122 32 39 C34.35428335 43.61047157 34.0019804 46.99009798 33 52 C32.67 52 32.34 52 32 52 C31.94392578 51.11248047 31.94392578 51.11248047 31.88671875 50.20703125 C31.33912903 43.60615927 31.33912903 43.60615927 28 38 C23.17957769 34.67161317 18.66679397 34.43871755 13 35 C11.515 35.495 11.515 35.495 10 36 C9.67 35.34 9.34 34.68 9 34 C12.08809695 32.23537317 13.23312136 32 17 32 C17 28.37 17 24.74 17 21 C8.09 21 -0.82 21 -10 21 C-10.33 20.34 -10.66 19.68 -11 19 C-2.585 18.505 -2.585 18.505 6 18 C5.34 17.01 4.68 16.02 4 15 C3.7265625 12.87890625 3.7265625 12.87890625 3.625 10.5625 C3.3220697 7.46251329 3.07993523 6.1260517 1.375 3.4375 C-1.92545145 1.43985833 -4.20574612 1.5934728 -8 2 C-10.35369807 2.88064927 -10.35369807 2.88064927 -12 4 C-11.67 3.01 -11.34 2.02 -11 1 C-7.52252713 -0.73873643 -3.7938163 -0.59073264 0 0 Z " fill="#25181E" transform="translate(70,42)"/>
<path d="M0 0 C7.59 0 15.18 0 23 0 C23 3.63 23 7.26 23 11 C12.99044309 14.17376195 12.99044309 14.17376195 8.4375 13.375 C6 12 6 12 4 9 C3.46083854 6.3397977 3.26629902 3.70737337 3 1 C2.01 0.67 1.02 0.34 0 0 Z " fill="#294173" transform="translate(64,63)"/>
<path d="M0 0 C5.875 4.625 5.875 4.625 7 8 C7.7425 8.061875 8.485 8.12375 9.25 8.1875 C12.8185739 9.24185138 13.92245228 10.99909773 16 14 C11.23018241 14.72759929 7.72707931 15.08047527 3 14 C2.01 14.33 1.02 14.66 0 15 C-2.1875 13.8125 -2.1875 13.8125 -4 12 C-4 10.68 -4 9.36 -4 8 C-4.99 7.67 -5.98 7.34 -7 7 C-7.33 6.01 -7.66 5.02 -8 4 C-7.030625 3.855625 -6.06125 3.71125 -5.0625 3.5625 C-2.13513227 3.32437659 -2.13513227 3.32437659 -1 2 C-0.67 1.34 -0.34 0.68 0 0 Z " fill="#B2B1B0" transform="translate(121,52)"/>
<path d="M0 0 C5.23517403 2.39322241 7.29888643 6.16098377 10 11 C9.01 12.32 8.02 13.64 7 15 C8.65 14.01 10.3 13.02 12 12 C12.33 12.99 12.66 13.98 13 15 C13.66 15 14.32 15 15 15 C15 15.66 15 16.32 15 17 C14.34 17.33 13.68 17.66 13 18 C13.66 18.66 14.32 19.32 15 20 C11.66666667 20 8.33333333 20 5 20 C4.78085937 19.48050781 4.56171875 18.96101563 4.3359375 18.42578125 C1.97816456 13.24059768 -0.39481569 10.34922495 -5 7 C-3.25 6.3125 -3.25 6.3125 -1 6 C1.25 7.4375 1.25 7.4375 3 9 C2.30058404 5.85262818 1.23921302 2.97411124 0 0 Z " fill="#DEDEDE" transform="translate(43,108)"/>
<path d="M0 0 C0.3403125 0.928125 0.3403125 0.928125 0.6875 1.875 C2.37929835 4.61410209 3.99244161 5.05024472 7 6 C4.75 8.5 4.75 8.5 2 11 C0.68 11 -0.64 11 -2 11 C-2.33 11.66 -2.66 12.32 -3 13 C-2.34 13.33 -1.68 13.66 -1 14 C-5.10389201 16.98464873 -7.96516798 17.457712 -13 17 C-15.4375 16 -15.4375 16 -17 15 C-13.38860104 11.30051813 -13.38860104 11.30051813 -11 10 C-7.125 10.6875 -7.125 10.6875 -4 12 C-4 11.34 -4 10.68 -4 10 C-4.66 9.67 -5.32 9.34 -6 9 C-6 6 -6 6 -4.6875 4.39453125 C-4.130625 3.87246094 -3.57375 3.35039063 -3 2.8125 C-2.443125 2.28269531 -1.88625 1.75289062 -1.3125 1.20703125 C-0.879375 0.80871094 -0.44625 0.41039062 0 0 Z " fill="#A1A09E" transform="translate(56,50)"/>
<path d="M0 0 C0.61875 0.28875 1.2375 0.5775 1.875 0.875 C2.205 1.865 2.535 2.855 2.875 3.875 C4.87516466 5.08382096 4.87516466 5.08382096 6.875 5.875 C6.625 8.1875 6.625 8.1875 5.875 10.875 C4.555 11.865 3.235 12.855 1.875 13.875 C-0.765 11.565 -3.405 9.255 -6.125 6.875 C-4.3423913 -0.25543478 -4.3423913 -0.25543478 0 0 Z " fill="#5C4A13" transform="translate(34.125,30.125)"/>
<path d="M0 0 C0.66 0 1.32 0 2 0 C2 1.65 2 3.3 2 5 C3.32 5.33 4.64 5.66 6 6 C4.68 6 3.36 6 2 6 C2 7.32 2 8.64 2 10 C3.32 10.33 4.64 10.66 6 11 C5.01 11 4.02 11 3 11 C3 12.65 3 14.3 3 16 C3.99 15.67 4.98 15.34 6 15 C6.33 14.34 6.66 13.68 7 13 C7.66 13.33 8.32 13.66 9 14 C6.9375 16.5625 6.9375 16.5625 4 19 C0.31817782 19 -1.9539611 18.77609338 -4.9375 16.5625 C-6 15 -6 15 -6 13 C-5.34 13 -4.68 13 -4 13 C-4 13.99 -4 14.98 -4 16 C-2.68 16.33 -1.36 16.66 0 17 C0 15.02 0 13.04 0 11 C-1.65 10.67 -3.3 10.34 -5 10 C-5.103125 9.360625 -5.20625 8.72125 -5.3125 8.0625 C-5.539375 7.381875 -5.76625 6.70125 -6 6 C-6.99 5.67 -7.98 5.34 -9 5 C-8.67 3.68 -8.34 2.36 -8 1 C-7.67 1.99 -7.34 2.98 -7 4 C-6.34 4.33 -5.68 4.66 -5 5 C-4.67 5.99 -4.34 6.98 -4 8 C-2.68 8.66 -1.36 9.32 0 10 C0 6.7 0 3.4 0 0 Z " fill="#413F3C" transform="translate(87,82)"/>
<path d="M0 0 C0.66 0.2475 1.32 0.495 2 0.75 C5.13349732 1.79449911 5.98968256 1.68423645 9 0.75 C8.67 1.74 8.34 2.73 8 3.75 C6.35 4.08 4.7 4.41 3 4.75 C3 5.74 3 6.73 3 7.75 C4.65 7.75 6.3 7.75 8 7.75 C8 8.41 8 9.07 8 9.75 C3.48382401 9.82654536 -0.59085217 9.85228696 -5 8.75 C-5.36253776 3.31193353 -5.36253776 3.31193353 -3.75 0.8125 C-2 -0.25 -2 -0.25 0 0 Z " fill="#5F4D13" transform="translate(13,73.25)"/>
<path d="M0 0 C0 1.98 0 3.96 0 6 C-5.34412955 9.03643725 -5.34412955 9.03643725 -8.25 8.875 C-10 8 -10 8 -12 5 C-12 3.68 -12 2.36 -12 1 C-10.37681021 0.63762737 -8.7513642 0.28534843 -7.125 -0.0625 C-6.22007813 -0.25972656 -5.31515625 -0.45695312 -4.3828125 -0.66015625 C-2 -1 -2 -1 0 0 Z " fill="#261F07" transform="translate(21,102)"/>
<path d="M0 0 C0 3.20395416 -0.74335022 5.09399739 -2 8 C-1.01 7.34 -0.02 6.68 1 6 C3.1875 6.375 3.1875 6.375 5 7 C4.04270084 8.12588014 3.08412105 9.2506715 2.125 10.375 C1.59132812 11.00148438 1.05765625 11.62796875 0.5078125 12.2734375 C-0.61432007 13.55836651 -1.79371975 14.79371975 -3 16 C-4.65 14.68 -6.3 13.36 -8 12 C-7.55396127 6.94489444 -5.35299176 4.59833262 -2 1 C-1.34 0.67 -0.68 0.34 0 0 Z " fill="#EDEDED" transform="translate(132,109)"/>
<path d="M0 0 C3.96 1.98 7.92 3.96 12 6 C11.34 7.98 10.68 9.96 10 12 C1.42857143 9.14285714 1.42857143 9.14285714 -2 5 C-1.67 4.67 -1.34 4.34 -1 4 C-1.66 3.34 -2.32 2.68 -3 2 C-2.01 1.34 -1.02 0.68 0 0 Z " fill="#D6D6D6" transform="translate(58,124)"/>
<path d="M0 0 C0.598125 0.226875 1.19625 0.45375 1.8125 0.6875 C2.40982819 3.45014289 2.8125 5.84782769 2.8125 8.6875 C3.8025 9.0175 4.7925 9.3475 5.8125 9.6875 C5.8125 10.3475 5.8125 11.0075 5.8125 11.6875 C1.24795749 11.14410208 -2.1603176 9.89286179 -6.1875 7.6875 C-5.82037028 4.97074005 -5.46005401 3.07686287 -3.875 0.8125 C-2.1875 -0.3125 -2.1875 -0.3125 0 0 Z " fill="#2A2208" transform="translate(20.1875,50.3125)"/>
<path d="M0 0 C-1.12451727 2.9719385 -2.22293791 5.33440687 -4 8 C-0.535 7.505 -0.535 7.505 3 7 C3 7.66 3 8.32 3 9 C1.56570999 9.67354499 0.12742943 10.33859701 -1.3125 11 C-2.11300781 11.37125 -2.91351563 11.7425 -3.73828125 12.125 C-6 13 -6 13 -9 13 C-8.37240135 10.07120629 -7.41377341 7.63904371 -6 5 C-7.98 5.66 -9.96 6.32 -12 7 C-12 6.01 -12 5.02 -12 4 C-10.56570999 3.32645501 -9.12742943 2.66140299 -7.6875 2 C-6.88699219 1.62875 -6.08648437 1.2575 -5.26171875 0.875 C-3 0 -3 0 0 0 Z " fill="#151104" transform="translate(161,51)"/>
<path d="M0 0 C4.95 0 9.9 0 15 0 C15 1.65 15 3.3 15 5 C10.05 5 5.1 5 0 5 C0 3.35 0 1.7 0 0 Z " fill="#94696C" transform="translate(96,70)"/>
<path d="M0 0 C-0.7425 0.721875 -1.485 1.44375 -2.25 2.1875 C-4.69701496 4.69012893 -6.82562458 7.26449544 -9 10 C-10.31494512 11.35147138 -11.64264858 12.69112542 -13 14 C-13 13.01 -13 12.02 -13 11 C-13.66 11 -14.32 11 -15 11 C-14.67 12.32 -14.34 13.64 -14 15 C-18 15 -18 15 -20 14 C-19.01 13.01 -18.02 12.02 -17 11 C-17.33 10.01 -17.66 9.02 -18 8 C-19.98 8.33 -21.96 8.66 -24 9 C-21.53846154 5.18461538 -21.53846154 5.18461538 -18.8125 4.25 C-18.214375 4.1675 -17.61625 4.085 -17 4 C-16.731875 4.61875 -16.46375 5.2375 -16.1875 5.875 C-15.04443152 8.2995233 -15.04443152 8.2995233 -12 10 C-9.69 7.36 -7.38 4.72 -5 2 C-5.99 1.34 -6.98 0.68 -8 0 C-5.13822943 -1.43088528 -3.06624227 -0.59991697 0 0 Z " fill="#27332C" transform="translate(141,114)"/>
<path d="M0 0 C2 1 2 1 4 4 C4.4140625 6.69921875 4.4140625 6.69921875 4.625 9.6875 C4.69976562 10.68136719 4.77453125 11.67523438 4.8515625 12.69921875 C4.90054688 13.45847656 4.94953125 14.21773437 5 15 C1.625 15.125 1.625 15.125 -2 15 C-4 13 -4 13 -4.125 10.375 C-4.08375 9.59125 -4.0425 8.8075 -4 8 C-3.34 8 -2.68 8 -2 8 C-1.67 7.01 -1.34 6.02 -1 5 C-0.34 6.32 0.32 7.64 1 9 C1 8.34 1 7.68 1 7 C0.67 7 0.34 7 0 7 C0 4.69 0 2.38 0 0 Z " fill="#E1E1E0" transform="translate(87,31)"/>
<path d="M0 0 C1.8125 2.25 1.8125 2.25 3 5 C2.4375 7.25 2.4375 7.25 1 9 C-1.125 9.75 -1.125 9.75 -3 10 C-3.66 8.68 -4.32 7.36 -5 6 C-6.98 6.66 -8.96 7.32 -11 8 C-11 7.34 -11 6.68 -11 6 C-9.35546875 4.4921875 -9.35546875 4.4921875 -7.1875 2.875 C-6.47980469 2.33617187 -5.77210938 1.79734375 -5.04296875 1.2421875 C-3 0 -3 0 0 0 Z " fill="#665215" transform="translate(152,37)"/>
<path d="M0 0 C2.5 1.6875 2.5 1.6875 5 4 C5.3125 6.75 5.3125 6.75 5 9 C0.49044586 10.25265393 0.49044586 10.25265393 -2.0625 8.9375 C-2.701875 8.628125 -3.34125 8.31875 -4 8 C-6.23470405 8.78309467 -6.23470405 8.78309467 -8 10 C-6.34908222 5.70761377 -3.26245434 3.1206085 0 0 Z " fill="#1A1505" transform="translate(142,28)"/>
<path d="M0 0 C6.875 0.875 6.875 0.875 8 2 C8.125 4.5 8.125 4.5 8 7 C7 8 7 8 3.4375 8.0625 C2.303125 8.041875 1.16875 8.02125 0 8 C0 9.65 0 11.3 0 13 C-0.66 13 -1.32 13 -2 13 C-1.85851011 11.3954444 -1.71164314 9.79136233 -1.5625 8.1875 C-1.48128906 7.29417969 -1.40007812 6.40085937 -1.31640625 5.48046875 C-1 3 -1 3 0 0 Z " fill="#2E2609" transform="translate(101,8)"/>
<path d="M0 0 C0.99 0 1.98 0 3 0 C3.36103152 6.3782235 3.36103152 6.3782235 1.875 8.9375 C-0.785027 10.44484863 -3.00206205 10.19986253 -6 10 C-6.33 8.02 -6.66 6.04 -7 4 C-4 2 -4 2 0 2 C0 1.34 0 0.68 0 0 Z " fill="#158645" transform="translate(97,51)"/>
<path d="M0 0 C4.34361288 1.18462169 7.28300842 2.30489146 10 6 C9.75 8.25 9.75 8.25 9 10 C3.63157895 10.35789474 3.63157895 10.35789474 1.125 8.9375 C-0.58196395 5.99772876 -0.18799766 3.32129197 0 0 Z " fill="#148644" transform="translate(76,51)"/>
<path d="M0 0 C1.9375 0.6875 1.9375 0.6875 4 2 C4.75 4.625 4.75 4.625 5 7 C3.68 7.33 2.36 7.66 1 8 C0.67 9.65 0.34 11.3 0 13 C-0.66 13 -1.32 13 -2 13 C-1.67 10.69 -1.34 8.38 -1 6 C-3.475 7.485 -3.475 7.485 -6 9 C-5.52797514 4.75177626 -3.03344482 2.80010291 0 0 Z " fill="#473A0E" transform="translate(40,139)"/>
<path d="M0 0 C0.99 0 1.98 0 3 0 C3.99 1.98 4.98 3.96 6 6 C6.33 4.02 6.66 2.04 7 0 C7.66 0 8.32 0 9 0 C9 3.63 9 7.26 9 11 C8.01 11 7.02 11 6 11 C4.3125 8.5 4.3125 8.5 3 6 C2.67 7.65 2.34 9.3 2 11 C1.34 11 0.68 11 0 11 C0 7.37 0 3.74 0 0 Z " fill="#211B06" transform="translate(80,157)"/>
<path d="M0 0 C0.66 0 1.32 0 2 0 C2 1.32 2 2.64 2 4 C3.98 3.34 5.96 2.68 8 2 C7.44894091 5.9492568 6.61064629 9.34920174 5 13 C4.34 13 3.68 13 3 13 C3.33 11.02 3.66 9.04 4 7 C2.68 6.67 1.36 6.34 0 6 C-0.66 7.32 -1.32 8.64 -2 10 C-2.66 10 -3.32 10 -4 10 C-3.52449439 8.51965236 -3.04448784 7.04074979 -2.5625 5.5625 C-2.29566406 4.73878906 -2.02882812 3.91507813 -1.75390625 3.06640625 C-1 1 -1 1 0 0 Z " fill="#201A06" transform="translate(58,151)"/>
<path d="M0 0 C-1.33250791 3.5875213 -2.830717 6.8364623 -5 10 C-5.66 10 -6.32 10 -7 10 C-7.33 8.68 -7.66 7.36 -8 6 C-9.32 5.67 -10.64 5.34 -12 5 C-12 4.34 -12 3.68 -12 3 C-10.5682384 2.30062798 -9.12932968 1.61587282 -7.6875 0.9375 C-6.48673828 0.36322266 -6.48673828 0.36322266 -5.26171875 -0.22265625 C-3 -1 -3 -1 0 0 Z " fill="#1F1906" transform="translate(36,133)"/>
<path d="M0 0 C0.66 0 1.32 0 2 0 C1.34 1.98 0.68 3.96 0 6 C1.65 6.33 3.3 6.66 5 7 C5.33 5.68 5.66 4.36 6 3 C6.66 3 7.32 3 8 3 C6.87204037 7.10899581 5.66489182 11.07561214 4 15 C3.34 14.67 2.68 14.34 2 14 C2.33 12.35 2.66 10.7 3 9 C1.68 9 0.36 9 -1 9 C-1.33 9.99 -1.66 10.98 -2 12 C-2.66 12 -3.32 12 -4 12 C-3.45660208 7.43545749 -2.20536179 4.0271824 0 0 Z " fill="#261E07" transform="translate(113,11)"/>
<path d="M0 0 C0 16.83 0 33.66 0 51 C-0.33 51 -0.66 51 -1 51 C-1 35.16 -1 19.32 -1 3 C-2.32 3 -3.64 3 -5 3 C-5 2.34 -5 1.68 -5 1 C-3 0 -3 0 0 0 Z " fill="#156437" transform="translate(59,65)"/>
<path d="M0 0 C0.33 2.64 0.66 5.28 1 8 C0.34 8 -0.32 8 -1 8 C-1.33 6.02 -1.66 4.04 -2 2 C-2.99 2 -3.98 2 -5 2 C-5 3.65 -5 5.3 -5 7 C-5.66 6.67 -6.32 6.34 -7 6 C-7 5.01 -7 4.02 -7 3 C-7.99 3.66 -8.98 4.32 -10 5 C-10.25030977 7.58380177 -10.25030977 7.58380177 -10 10 C-12.5654594 7.4345406 -12.54046087 5.52313332 -13 2 C-11.39935157 1.46845258 -9.79431126 0.95011647 -8.1875 0.4375 C-7.29417969 0.14746094 -6.40085938 -0.14257812 -5.48046875 -0.44140625 C-3 -1 -3 -1 0 0 Z " fill="#1C1705" transform="translate(166,64)"/>
<path d="M0 0 C1.98 1.65 3.96 3.3 6 5 C3.15853391 7.84146609 0.00130732 8.77858378 -4 9 C-6.5 7.125 -6.5 7.125 -8 5 C-4.25 3 -4.25 3 -2 3 C-0.84188612 1.94729537 -0.84188612 1.94729537 0 0 Z " fill="#7C7B79" transform="translate(121,52)"/>
<path d="M0 0 C3.63 1.32 7.26 2.64 11 4 C11 4.66 11 5.32 11 6 C9.35 6.66 7.7 7.32 6 8 C6 8.99 6 9.98 6 11 C1.93459004 9.64486335 1.02699731 7.69203082 -1 4 C-0.67 2.68 -0.34 1.36 0 0 Z " fill="#604D13" transform="translate(141,132)"/>
<path d="M0 0 C0.66 0 1.32 0 2 0 C1.67 2.31 1.34 4.62 1 7 C1.99 7 2.98 7 4 7 C4.33 6.01 4.66 5.02 5 4 C5.28875 4.639375 5.5775 5.27875 5.875 5.9375 C6.82823451 8.15206079 6.82823451 8.15206079 9 9 C9.66 7.02 10.32 5.04 11 3 C11.93065133 5.60582371 12.14917407 6.64198224 11.0625 9.25 C10.711875 9.8275 10.36125 10.405 10 11 C5.6822542 10.49202991 1.96697886 9.80317221 -2 8 C-1.34 5.36 -0.68 2.72 0 0 Z " fill="#1D1705" transform="translate(12,61)"/>
<path d="M0 0 C0.58265625 0.21527344 1.1653125 0.43054688 1.765625 0.65234375 C2.095625 2.63234375 2.425625 4.61234375 2.765625 6.65234375 C-1.67039396 7.88457124 -1.67039396 7.88457124 -4.359375 6.77734375 C-4.978125 6.40609375 -5.596875 6.03484375 -6.234375 5.65234375 C-7.224375 5.32234375 -8.214375 4.99234375 -9.234375 4.65234375 C-8.16330383 3.78285058 -7.07691556 2.9322017 -5.984375 2.08984375 C-5.38109375 1.61417969 -4.7778125 1.13851562 -4.15625 0.6484375 C-2.234375 -0.34765625 -2.234375 -0.34765625 0 0 Z " fill="#725C17" transform="translate(27.234375,122.34765625)"/>
<path d="M0 0 C1.32 0.33 2.64 0.66 4 1 C3.67 1.66 3.34 2.32 3 3 C2.34 3 1.68 3 1 3 C1 18.51 1 34.02 1 50 C0.67 50 0.34 50 0 50 C0 33.5 0 17 0 0 Z " fill="#177740" transform="translate(117,65)"/>
<path d="M0 0 C3.45925163 1.2491742 6.14693203 2.67527795 9 5 C8.67 7.31 8.34 9.62 8 12 C5.9375 12.8125 5.9375 12.8125 3 13 C0.39870926 11.65635809 -1.90404479 10.04763347 -4 8 C-4 7.34 -4 6.68 -4 6 C1 8 1 8 6 10 C6.33 8.68 6.66 7.36 7 6 C6.21625 5.7525 5.4325 5.505 4.625 5.25 C1.67682892 3.84610901 1.0975223 2.99324263 0 0 Z " fill="#241D07" transform="translate(24,39)"/>
<path d="M0 0 C0.66 0 1.32 0 2 0 C1.67 1.98 1.34 3.96 1 6 C1.66 6 2.32 6 3 6 C3.226875 5.195625 3.45375 4.39125 3.6875 3.5625 C5 1 5 1 7.5625 0.125 C8.366875 0.08375 9.17125 0.0425 10 0 C11 1 11 1 11.0625 4.0625 C11.041875 5.031875 11.02125 6.00125 11 7 C10.01 7.33 9.02 7.66 8 8 C8.33 6.02 8.66 4.04 9 2 C5.98672434 3.50663783 5.38943382 6.03166411 4 9 C2.35 8.67 0.7 8.34 -1 8 C-1.04241723 5.66705225 -1.04092937 3.33297433 -1 1 C-0.67 0.67 -0.34 0.34 0 0 Z " fill="#271F07" transform="translate(157,75)"/>
<path d="M0 0 C0.99 0 1.98 0 3 0 C3 0.66 3 1.32 3 2 C4.32 2.66 5.64 3.32 7 4 C7 4.66 7 5.32 7 6 C5.68 6 4.36 6 3 6 C2.67 6.99 2.34 7.98 2 9 C4.31 9 6.62 9 9 9 C7.75 10.5625 7.75 10.5625 6 12 C3.67511119 11.7181953 2.09107165 11.04553582 0 10 C0 6.7 0 3.4 0 0 Z " fill="#1C0608" transform="translate(101,101)"/>
<path d="M0 0 C3.33557632 2.9905167 5.15083921 5.93184627 7 10 C6.01 10 5.02 10 4 10 C3.67 9.34 3.34 8.68 3 8 C1.68 8 0.36 8 -1 8 C-0.01 9.485 -0.01 9.485 1 11 C1 11.99 1 12.98 1 14 C0.34 14 -0.32 14 -1 14 C-2.65 10.7 -4.3 7.4 -6 4 C-5.01 4 -4.02 4 -3 4 C-2.67 4.66 -2.34 5.32 -2 6 C-1.34 6 -0.68 6 0 6 C0 4.02 0 2.04 0 0 Z " fill="#2A2208" transform="translate(126,145)"/>
<path d="M0 0 C1.6266848 0.28211877 3.25132896 0.57602375 4.875 0.875 C5.77992188 1.03742188 6.68484375 1.19984375 7.6171875 1.3671875 C10 2 10 2 12 4 C10.02 4 8.04 4 6 4 C6 5.32 6 6.64 6 8 C7.32 8.33 8.64 8.66 10 9 C10 9.66 10 10.32 10 11 C8.54096742 10.69078116 7.08279278 10.37751201 5.625 10.0625 C4.81289062 9.88847656 4.00078125 9.71445313 3.1640625 9.53515625 C1 9 1 9 -1 8 C-1 7.34 -1 6.68 -1 6 C1.475 6.495 1.475 6.495 4 7 C4.33 5.68 4.66 4.36 5 3 C3.35 2.67 1.7 2.34 0 2 C0 1.34 0 0.68 0 0 Z " fill="#282108" transform="translate(155,102)"/>
<path d="M0 0 C0.99 0.33 1.98 0.66 3 1 C3.6875 3.0625 3.6875 3.0625 4 5 C4.99 5 5.98 5 7 5 C7.33 4.01 7.66 3.02 8 2 C7.67 4.97 7.34 7.94 7 11 C4.525 10.01 4.525 10.01 2 9 C2 8.01 2 7.02 2 6 C1.01 5.67 0.02 5.34 -1 5 C-0.67 3.35 -0.34 1.7 0 0 Z " fill="#ABAAA9" transform="translate(80,81)"/>
<path d="M0 0 C5.06365761 0.64446551 9.93471812 1.59599422 14.875 2.875 C15.55046875 3.03613281 16.2259375 3.19726562 16.921875 3.36328125 C18.8671875 3.8671875 18.8671875 3.8671875 22 5 C22.33 5.99 22.66 6.98 23 8 C17.14016367 7.48334032 12.39106117 6.24718923 7 3.9375 C6.32066406 3.65583984 5.64132813 3.37417969 4.94140625 3.08398438 C3.29060213 2.39808689 1.64474531 1.70030171 0 1 C0 0.67 0 0.34 0 0 Z " fill="#131305" transform="translate(57,143)"/>
<path d="M0 0 C1.4540625 0.0309375 1.4540625 0.0309375 2.9375 0.0625 C1.9375 3.0625 1.9375 3.0625 0.9375 5.0625 C-0.47905793 5.0897415 -1.89577045 5.10900467 -3.3125 5.125 C-4.49585937 5.14240234 -4.49585937 5.14240234 -5.703125 5.16015625 C-7.96941002 5.06635306 -9.8913895 4.69491063 -12.0625 4.0625 C-11.7325 3.0725 -11.4025 2.0825 -11.0625 1.0625 C-9.928125 1.083125 -8.79375 1.10375 -7.625 1.125 C-3.70384291 1.05620777 -3.73763955 0.07627836 0 0 Z " fill="#B4B4B4" transform="translate(95.0625,133.9375)"/>
<path d="M0 0 C2.64877676 1.76585117 2.92675382 4.14541078 3.6875 7.125 C3.0275 7.125 2.3675 7.125 1.6875 7.125 C0.0625 5.125 0.0625 5.125 -1.3125 3.125 C-1.3125 4.445 -1.3125 5.765 -1.3125 7.125 C-2.3025 7.125 -3.2925 7.125 -4.3125 7.125 C-4.3125 6.135 -4.3125 5.145 -4.3125 4.125 C-5.3025 4.62 -5.3025 4.62 -6.3125 5.125 C-5.9825 7.105 -5.6525 9.085 -5.3125 11.125 C-5.9725 11.125 -6.6325 11.125 -7.3125 11.125 C-7.9725 8.815 -8.6325 6.505 -9.3125 4.125 C-3.07436213 0.16618174 -3.07436213 0.16618174 0 0 Z " fill="#2E2509" transform="translate(22.3125,111.875)"/>
<path d="M0 0 C3.24079649 2.4823122 5.73199154 5.08070111 7 9 C7 11.33333333 7 13.66666667 7 16 C7.66 16.99 8.32 17.98 9 19 C5.125 17.25 5.125 17.25 4 15 C3.87346461 13.54343706 3.77235954 12.08458407 3.6875 10.625 C3.35328272 7.52725478 3.07676563 6.12105349 1.375 3.4375 C-1.92545145 1.43985833 -4.20574612 1.5934728 -8 2 C-10.35369807 2.88064927 -10.35369807 2.88064927 -12 4 C-11.67 3.01 -11.34 2.02 -11 1 C-7.52252713 -0.73873643 -3.7938163 -0.59073264 0 0 Z " fill="#354438" transform="translate(70,42)"/>
<path d="M0 0 C1.2065625 0.0309375 1.2065625 0.0309375 2.4375 0.0625 C2.7675 1.0525 3.0975 2.0425 3.4375 3.0625 C1.7875 3.0625 0.1375 3.0625 -1.5625 3.0625 C-1.2325 5.3725 -0.9025 7.6825 -0.5625 10.0625 C1.0875 10.0625 2.7375 10.0625 4.4375 10.0625 C4.4375 9.0725 4.4375 8.0825 4.4375 7.0625 C5.0975 7.0625 5.7575 7.0625 6.4375 7.0625 C5.5625 10.9375 5.5625 10.9375 4.4375 12.0625 C2.43791636 12.10330783 0.43704746 12.10504356 -1.5625 12.0625 C-4.62726484 6.79110447 -4.62726484 6.79110447 -4.3125 3.25 C-3.22518447 0.07866304 -3.22518447 0.07866304 0 0 Z " fill="#1E1806" transform="translate(56.5625,13.9375)"/>
<path d="M0 0 C0.226875 0.61875 0.45375 1.2375 0.6875 1.875 C2.37929835 4.61410209 3.99244161 5.05024472 7 6 C6.01 7.485 6.01 7.485 5 9 C1.05273438 9.42905061 -1.61242079 9.08466413 -5 7 C-3.70700306 4.11562221 -2.34058637 2.12780579 0 0 Z " fill="#ABAAA9" transform="translate(56,50)"/>
<path d="M0 0 C2.33944736 0.28730055 4.6739143 0.61936779 7 1 C7 1.33 7 1.66 7 2 C5.02 2 3.04 2 1 2 C1 2.99 1 3.98 1 5 C2.32 5 3.64 5 5 5 C5 5.66 5 6.32 5 7 C3.35 7 1.7 7 0 7 C0 7.99 0 8.98 0 10 C1.65 10.33 3.3 10.66 5 11 C5 11.33 5 11.66 5 12 C2.69 11.67 0.38 11.34 -2 11 C-1.85957123 9.35369672 -1.71250671 7.70795821 -1.5625 6.0625 C-1.48128906 5.14597656 -1.40007812 4.22945312 -1.31640625 3.28515625 C-1 1 -1 1 0 0 Z " fill="#2B2308" transform="translate(70,155)"/>
<path d="M0 0 C0 3.10551666 -0.5393715 4.35261084 -2 7 C-0.35 6.34 1.3 5.68 3 5 C2.67 6.65 2.34 8.3 2 10 C3.65 9.34 5.3 8.68 7 8 C6.25 9.9375 6.25 9.9375 5 12 C2.921875 12.62890625 2.921875 12.62890625 1 13 C-0.00593243 11.8803014 -1.0045849 10.7540588 -2 9.625 C-2.8353125 8.68527344 -2.8353125 8.68527344 -3.6875 7.7265625 C-5 6 -5 6 -5 4 C-3.37373596 2.61767557 -1.7074998 1.28062485 0 0 Z " fill="#282008" transform="translate(135,138)"/>
<path d="M0 0 C0.66 0 1.32 0 2 0 C7.55580866 13.44874715 7.55580866 13.44874715 8 21 C7.67 20.34 7.34 19.68 7 19 C6.34 19 5.68 19 5 19 C4.3516711 16.77155786 3.70643631 14.5422154 3.0625 12.3125 C2.70285156 11.07113281 2.34320313 9.82976562 1.97265625 8.55078125 C1.19273569 5.70360138 0.52712784 2.90197746 0 0 Z " fill="#1F1C07" transform="translate(144,58)"/>
<path d="M0 0 C2.96875 -0.3984375 2.96875 -0.3984375 6.5 -0.375 C7.6653125 -0.38273437 8.830625 -0.39046875 10.03125 -0.3984375 C11.0109375 -0.26695313 11.990625 -0.13546875 13 0 C13.66 0.99 14.32 1.98 15 3 C9.39 3 3.78 3 -2 3 C-1.34 2.01 -0.68 1.02 0 0 Z " fill="#24211E" transform="translate(97,67)"/>
<path d="M0 0 C0.57234375 0.22558594 1.1446875 0.45117188 1.734375 0.68359375 C1.734375 2.00359375 1.734375 3.32359375 1.734375 4.68359375 C-1.265625 5.68359375 -1.265625 5.68359375 -2.265625 5.68359375 C-4.26967727 6.33797816 -6.26991177 7.00420201 -8.265625 7.68359375 C-8.925625 7.02359375 -9.585625 6.36359375 -10.265625 5.68359375 C-9.02827516 4.64746342 -7.77517863 3.63011573 -6.515625 2.62109375 C-5.81953125 2.05261719 -5.1234375 1.48414062 -4.40625 0.8984375 C-2.265625 -0.31640625 -2.265625 -0.31640625 0 0 Z " fill="#EEEEEE" transform="translate(122.265625,121.31640625)"/>
<path d="M0 0 C0 1.65 0 3.3 0 5 C0.99 4.67 1.98 4.34 3 4 C3.33 3.34 3.66 2.68 4 2 C4.66 2.33 5.32 2.66 6 3 C3.9375 5.5625 3.9375 5.5625 1 8 C-2.68182218 8 -4.9539611 7.77609338 -7.9375 5.5625 C-9 4 -9 4 -9 2 C-8.34 2 -7.68 2 -7 2 C-7 2.99 -7 3.98 -7 5 C-5.68 5.33 -4.36 5.66 -3 6 C-3 4.35 -3 2.7 -3 1 C-1 0 -1 0 0 0 Z " fill="#71706D" transform="translate(90,93)"/>
<path d="M0 0 C-3.49238422 0.87309606 -5.56732545 0.8833973 -9 0 C-10.58567839 -0.1421701 -12.17518632 -0.24504041 -13.765625 -0.31640625 C-14.65507813 -0.35830078 -15.54453125 -0.40019531 -16.4609375 -0.44335938 C-17.38132812 -0.48267578 -18.30171875 -0.52199219 -19.25 -0.5625 C-20.18585938 -0.60568359 -21.12171875 -0.64886719 -22.0859375 -0.69335938 C-24.39048641 -0.7991805 -26.69513839 -0.90126557 -29 -1 C-29 -1.33 -29 -1.66 -29 -2 C-5.61744966 -3.74496644 -5.61744966 -3.74496644 0 0 Z " fill="#0E2C13" transform="translate(109,27)"/>
<path d="M0 0 C0.33 0 0.66 0 1 0 C1.36563746 2.68637768 1.71774726 5.37342859 2.0625 8.0625 C2.16626953 8.81466797 2.27003906 9.56683594 2.37695312 10.34179688 C2.98142216 15.15670542 2.90611433 19.22864273 2 24 C0.22330777 20.93843346 -0.24050818 18.75963785 -0.1953125 15.234375 C-0.18886719 14.34492187 -0.18242187 13.45546875 -0.17578125 12.5390625 C-0.15902344 11.61867188 -0.14226563 10.69828125 -0.125 9.75 C-0.11597656 8.81414062 -0.10695313 7.87828125 -0.09765625 6.9140625 C-0.07413636 4.60911343 -0.04126853 2.3046884 0 0 Z " fill="#2D2609" transform="translate(24,77)"/>
<path d="M0 0 C0.66 0.66 1.32 1.32 2 2 C1.319375 2.9075 0.63875 3.815 -0.0625 4.75 C-2.23168405 7.70183792 -2.23168405 7.70183792 -1.875 10.3125 C-1.11181389 12.1891646 -1.11181389 12.1891646 1 13 C1 13.66 1 14.32 1 15 C-2.64553172 13.7191375 -4.16671013 12.83328987 -7 10 C-3.535 5.05 -3.535 5.05 0 0 Z " fill="#282008" transform="translate(129,18)"/>
<path d="M0 0 C0.66 0 1.32 0 2 0 C3.2890625 1.53125 3.2890625 1.53125 4.625 3.5 C5.07101563 4.1496875 5.51703125 4.799375 5.9765625 5.46875 C6.31429687 5.9740625 6.65203125 6.479375 7 7 C8.98 6.34 10.96 5.68 13 5 C11.86280581 8.41158256 10.95657056 9.11854601 8 11 C7.34 11 6.68 11 6 11 C4.4921875 9.35546875 4.4921875 9.35546875 2.875 7.1875 C2.06675781 6.12595703 2.06675781 6.12595703 1.2421875 5.04296875 C0 3 0 3 0 0 Z " fill="#231C07" transform="translate(37,25)"/>
<path d="M0 0 C-1.37031105 5.65253308 -5.67689413 8.5113541 -10 12 C-10.33 11.01 -10.66 10.02 -11 9 C-9.54782324 7.49403892 -8.08807139 5.99537896 -6.625 4.5 C-5.40683594 3.24703125 -5.40683594 3.24703125 -4.1640625 1.96875 C-2 0 -2 0 0 0 Z " fill="#181F0B" transform="translate(137,127)"/>
<path d="M0 0 C0.66 0.33 1.32 0.66 2 1 C2 1.66 2 2.32 2 3 C2.66 3 3.32 3 4 3 C4 3.66 4 4.32 4 5 C3.01 5.495 3.01 5.495 2 6 C2.66 6.66 3.32 7.32 4 8 C2.68 8 1.36 8 0 8 C-2.25 5.5 -2.25 5.5 -4 3 C-2.68 2.01 -1.36 1.02 0 0 Z " fill="#F0F0F0" transform="translate(54,120)"/>
<path d="M0 0 C0 0.66 0 1.32 0 2 C-0.99 2 -1.98 2 -3 2 C-2.67 2.99 -2.34 3.98 -2 5 C-1.96045766 7.33299825 -1.95598268 9.66708189 -2 12 C-2.66 12 -3.32 12 -4 12 C-4.33 8.7 -4.66 5.4 -5 2 C-5.99 1.67 -6.98 1.34 -8 1 C-5.10765685 0.17361624 -3.11257569 0 0 0 Z " fill="#302709" transform="translate(100,156)"/>
<path d="M0 0 C2.125 -0.4375 2.125 -0.4375 5 0 C8.51804823 3.05514714 11.29396838 6.30534817 12 11 C11.72686657 13.34114367 11.40197001 15.67750658 11 18 C10.67 18 10.34 18 10 18 C9.96261719 17.40832031 9.92523438 16.81664063 9.88671875 16.20703125 C9.33912903 9.60615927 9.33912903 9.60615927 6 4 C2.93319201 2.17370206 2.93319201 2.17370206 0 1 C0 0.67 0 0.34 0 0 Z " fill="#292021" transform="translate(92,76)"/>
<path d="M0 0 C-0.7425 0.721875 -1.485 1.44375 -2.25 2.1875 C-4.69595985 4.68904985 -6.835483 7.25827847 -9 10 C-9.98230498 11.0173873 -10.97469597 12.02596117 -12 13 C-10.72278474 8.00724943 -8.82669043 5.42388092 -5 2 C-5.99 1.34 -6.98 0.68 -8 0 C-5.13822943 -1.43088528 -3.06624227 -0.59991697 0 0 Z " fill="#193123" transform="translate(141,114)"/>
<path d="M0 0 C6.875 0.875 6.875 0.875 8 2 C8.125 4.5 8.125 4.5 8 7 C7 8 7 8 4.4375 8.0625 C3.633125 8.041875 2.82875 8.02125 2 8 C3.32 7.67 4.64 7.34 6 7 C6 5.68 6 4.36 6 3 C2.12202338 2.56613908 2.12202338 2.56613908 0.25 4.5 C-0.1625 4.995 -0.575 5.49 -1 6 C-0.67 4.02 -0.34 2.04 0 0 Z " fill="#191405" transform="translate(101,8)"/>
<path d="M0 0 C2.96175123 0.61277612 4.38058783 1.25372522 7 3 C10.00259517 3.33218192 10.00259517 3.33218192 11.6875 1.5 C12.3371875 0.7575 12.3371875 0.7575 13 0 C12.38722388 2.96175123 11.74627478 4.38058783 10 7 C6.4124787 5.66749209 3.1635377 4.169283 0 2 C0 1.34 0 0.68 0 0 Z " fill="#2C2309" transform="translate(145,126)"/>
<path d="M0 0 C-0.33 1.65 -0.66 3.3 -1 5 C-2.98 5.33 -4.96 5.66 -7 6 C-7.33 4.68 -7.66 3.36 -8 2 C-2.25 0 -2.25 0 0 0 Z " fill="#EBBE30" transform="translate(19,103)"/>
<path d="M0 0 C4.75 1.875 4.75 1.875 7 3 C7 3.66 7 4.32 7 5 C6.4225 5.04125 5.845 5.0825 5.25 5.125 C1.86687535 6.44065958 0.80777315 8.96552364 -1 12 C-2 9 -2 9 -1.22265625 7.17578125 C-0.1484375 5.45052083 0.92578125 3.72526042 2 2 C1.34 2 0.68 2 0 2 C0 1.34 0 0.68 0 0 Z " fill="#231C07" transform="translate(48,145)"/>
<path d="M0 0 C0.66 0 1.32 0 2 0 C2 0.99 2 1.98 2 3 C4.64 4.32 7.28 5.64 10 7 C9.34 7.66 8.68 8.32 8 9 C7.0925 8.484375 6.185 7.96875 5.25 7.4375 C2.22210089 5.76123652 2.22210089 5.76123652 -0.375 6.3125 C-0.91125 6.539375 -1.4475 6.76625 -2 7 C-1.125 2.25 -1.125 2.25 0 0 Z " fill="#251E07" transform="translate(152,113)"/>
<path d="M0 0 C2.64 0 5.28 0 8 0 C8 1.32 8 2.64 8 4 C5.69 4 3.38 4 1 4 C0.67 2.68 0.34 1.36 0 0 Z " fill="#AEAEAC" transform="translate(102,70)"/>
<path d="M0 0 C6.14587738 0.2410148 6.14587738 0.2410148 8.578125 2.40234375 C9.78844931 3.88046971 10.90220903 5.43647953 12 7 C5.85412262 6.7589852 5.85412262 6.7589852 3.421875 4.59765625 C2.21155069 3.11953029 1.09779097 1.56352047 0 0 Z " fill="#A3A2A0" transform="translate(125,59)"/>
<path d="M0 0 C0.66 0 1.32 0 2 0 C2.33 1.65 2.66 3.3 3 5 C3.66 5 4.32 5 5 5 C5 5.66 5 6.32 5 7 C6.65 7.33 8.3 7.66 10 8 C9.34 8.66 8.68 9.32 8 10 C4.89497628 9.84076801 3.44007711 9.42490203 1.1875 7.25 C-0.19608294 4.62847443 -0.24360427 2.92325122 0 0 Z " fill="#222D43" transform="translate(62,106)"/>
<path d="M0 0 C1.65 0 3.3 0 5 0 C4.67 1.65 4.34 3.3 4 5 C2.02 5.66 0.04 6.32 -2 7 C-1.34 6.01 -0.68 5.02 0 4 C0 2.68 0 1.36 0 0 Z " fill="#D7D6D6" transform="translate(54,60)"/>
<path d="M0 0 C0.66 0 1.32 0 2 0 C2 0.66 2 1.32 2 2 C2.721875 2.12375 3.44375 2.2475 4.1875 2.375 C6.95721894 2.9904931 9.3970354 3.88444374 12 5 C12 5.66 12 6.32 12 7 C7.43545749 6.45660208 4.0271824 5.20536179 0 3 C0 2.01 0 1.02 0 0 Z " fill="#241D07" transform="translate(14,55)"/>
<path d="M0 0 C-0.66 1.32 -1.32 2.64 -2 4 C-4.31 3.67 -6.62 3.34 -9 3 C-9 2.34 -9 1.68 -9 1 C-5.64919071 -1.10976881 -3.77897651 -1.0497157 0 0 Z " fill="#685515" transform="translate(33,135)"/>
<path d="M0 0 C-1.84891121 3.69782242 -5.56955696 4.84569023 -9.3125 6.1875 C-10.199375 6.455625 -11.08625 6.72375 -12 7 C-12 6.01 -12 5.02 -12 4 C-10.56570999 3.32645501 -9.12742943 2.66140299 -7.6875 2 C-6.88699219 1.62875 -6.08648437 1.2575 -5.26171875 0.875 C-3 0 -3 0 0 0 Z " fill="#2E2509" transform="translate(161,51)"/>
<path d="M0 0 C1.32 0.66 2.64 1.32 4 2 C3.01 2.495 3.01 2.495 2 3 C3.32 5.64 4.64 8.28 6 11 C1.93459004 9.64486335 1.02699731 7.69203082 -1 4 C-0.75 1.625 -0.75 1.625 0 0 Z " fill="#181405" transform="translate(141,132)"/>
<path d="M0 0 C0.721875 0.268125 1.44375 0.53625 2.1875 0.8125 C2.1875 1.4725 2.1875 2.1325 2.1875 2.8125 C-4.4375 5.9375 -4.4375 5.9375 -7.8125 4.8125 C-3.50480769 -0.23365385 -3.50480769 -0.23365385 0 0 Z " fill="#A5A4A2" transform="translate(46.8125,60.1875)"/>
<path d="M0 0 C0 0.99 0 1.98 0 3 C-1.94348501 4.73223664 -3.94720004 6.39881603 -6 8 C-6.66 8.66 -7.32 9.32 -8 10 C-8 6 -8 6 -6.7578125 4.296875 C-6.21898437 3.78640625 -5.68015625 3.2759375 -5.125 2.75 C-4.59132813 2.22921875 -4.05765625 1.7084375 -3.5078125 1.171875 C-2 0 -2 0 0 0 Z " fill="#1C1B07" transform="translate(48,38)"/>
<path d="M0 0 C0.66 0 1.32 0 2 0 C0.78065514 4.03321763 -0.55954927 7.54269479 -3 11 C-3.66 11 -4.32 11 -5 11 C-3.78065514 6.96678237 -2.44045073 3.45730521 0 0 Z " fill="#1F1906" transform="translate(124,16)"/>
<path d="M0 0 C2.95749791 3.46741134 5.07848152 6.86873527 7 11 C6.01 11 5.02 11 4 11 C2.578125 9.35546875 2.578125 9.35546875 1.25 7.1875 C0.80140625 6.47980469 0.3528125 5.77210937 -0.109375 5.04296875 C-1 3 -1 3 0 0 Z " fill="#211B06" transform="translate(47,18)"/>
<path d="M0 0 C0.66 0 1.32 0 2 0 C1.67 2.31 1.34 4.62 1 7 C0.34 7 -0.32 7 -1 7 C-1.33 8.65 -1.66 10.3 -2 12 C-2.66 12 -3.32 12 -4 12 C-3.45660208 7.43545749 -2.20536179 4.0271824 0 0 Z " fill="#181304" transform="translate(113,11)"/>
<path d="M0 0 C1.32 0 2.64 0 4 0 C4 1.98 4 3.96 4 6 C2.35 6 0.7 6 -1 6 C-0.67 4.02 -0.34 2.04 0 0 Z " fill="#BEBEBE" transform="translate(100,131)"/>
<path d="M0 0 C2.0625 1.75 2.0625 1.75 4 4 C3.75 6.25 3.75 6.25 3 8 C2.46375 7.505 1.9275 7.01 1.375 6.5 C-1.59358445 4.62510456 -3.55312427 4.76498575 -7 5 C-7 4.34 -7 3.68 -7 3 C-4.69 3 -2.38 3 0 3 C0 2.01 0 1.02 0 0 Z " fill="#1E3427" transform="translate(43,110)"/>
<path d="M0 0 C0.66 0 1.32 0 2 0 C2 1.32 2 2.64 2 4 C2.66 4.33 3.32 4.66 4 5 C3.34 5.66 2.68 6.32 2 7 C1.83312552 9.58354218 1.83312552 9.58354218 2 12 C1.34 12 0.68 12 0 12 C-0.92844389 7.66726186 -0.92844389 4.33273814 0 0 Z " fill="#CDCCCC" transform="translate(89,49)"/>
<path d="M0 0 C1.65 0 3.3 0 5 0 C4.88637738 1.4800841 4.75877092 2.95910074 4.625 4.4375 C4.55539063 5.26121094 4.48578125 6.08492187 4.4140625 6.93359375 C4.27742188 7.61550781 4.14078125 8.29742187 4 9 C3.01 9.495 3.01 9.495 2 10 C1.34 6.7 0.68 3.4 0 0 Z " fill="#2E2C29" transform="translate(85,46)"/>
<path d="M0 0 C-1.16369126 3.49107379 -1.88973538 3.85222763 -4.9375 5.6875 C-5.64777344 6.12449219 -6.35804688 6.56148437 -7.08984375 7.01171875 C-9 8 -9 8 -11 8 C-9.83630874 4.50892621 -9.11026462 4.14777237 -6.0625 2.3125 C-5.35222656 1.87550781 -4.64195312 1.43851563 -3.91015625 0.98828125 C-2 0 -2 0 0 0 Z " fill="#1E1806" transform="translate(158,46)"/>
<path d="M0 0 C0.66 0 1.32 0 2 0 C1.49259538 4.39750672 -1.08293314 6.86948922 -4 10 C-4.66 10 -5.32 10 -6 10 C-4.63312778 6.01328937 -2.84804907 3.11505367 0 0 Z " fill="#221C07" transform="translate(137,25)"/>
<path d="M0 0 C0.66 0 1.32 0 2 0 C1.67 1.98 1.34 3.96 1 6 C2.32 5.67 3.64 5.34 5 5 C4.67 6.32 4.34 7.64 4 9 C2.35 8.67 0.7 8.34 -1 8 C-1.04241723 5.66705225 -1.04092937 3.33297433 -1 1 C-0.67 0.67 -0.34 0.34 0 0 Z " fill="#141004" transform="translate(157,75)"/>
<path d="M0 0 C0.99 0 1.98 0 3 0 C3.33 1.98 3.66 3.96 4 6 C2.68 6 1.36 6 0 6 C-0.38218767 4.34385343 -0.71395102 2.67542976 -1 1 C-0.67 0.67 -0.34 0.34 0 0 Z " fill="#94781E" transform="translate(68,13)"/>
<path d="M0 0 C0.33 0.99 0.66 1.98 1 3 C-0.258125 2.87625 -1.51625 2.7525 -2.8125 2.625 C-3.87404297 2.52058594 -3.87404297 2.52058594 -4.95703125 2.4140625 C-7 2 -7 2 -10 0 C-6.7169902 -1.6415049 -3.57454967 -0.51888624 0 0 Z " fill="#26290C" transform="translate(79,148)"/>
<path d="M0 0 C0.66 0 1.32 0 2 0 C1.67 2.31 1.34 4.62 1 7 C1.99 7.33 2.98 7.66 4 8 C0.25 9.125 0.25 9.125 -2 8 C-1.34 5.36 -0.68 2.72 0 0 Z " fill="#272008" transform="translate(12,61)"/>
<path d="M0 0 C0.33 2.64 0.66 5.28 1 8 C0.34 8 -0.32 8 -1 8 C-1.33 6.02 -1.66 4.04 -2 2 C-3.65 1.67 -5.3 1.34 -7 1 C-3.375 -1.125 -3.375 -1.125 0 0 Z " fill="#31270A" transform="translate(166,64)"/>
<path d="M0 0 C0.66 0 1.32 0 2 0 C3.28571429 8.57142857 3.28571429 8.57142857 2 12 C1.34 12 0.68 12 0 12 C0 8.04 0 4.08 0 0 Z " fill="#CFCFCE" transform="translate(85,49)"/>
<path d="M0 0 C1.65 0.33 3.3 0.66 5 1 C4.67 2.65 4.34 4.3 4 6 C2.02 5.01 0.04 4.02 -2 3 C-1.34 2.01 -0.68 1.02 0 0 Z " fill="#B3B3B3" transform="translate(61,129)"/>
<path d="M0 0 C0 0.99 0 1.98 0 3 C-0.66 3.66 -1.32 4.32 -2 5 C-2.99 5 -3.98 5 -5 5 C-7.68767578 7.43750025 -7.68767578 7.43750025 -10 10 C-9.32942834 7.06624899 -8.5040235 5.38058917 -6.0859375 3.5546875 C-4.08267818 2.3159229 -2.06666551 1.12945673 0 0 Z " fill="#192C21" transform="translate(135,106)"/>
<path d="M0 0 C0.99 0.33 1.98 0.66 3 1 C3.33 1.99 3.66 2.98 4 4 C4.66 4.66 5.32 5.32 6 6 C2.59581686 5.17830062 -0.67757548 4.10747484 -4 3 C-2.1875 1.4375 -2.1875 1.4375 0 0 Z " fill="#191405" transform="translate(22,124)"/>
<path d="M0 0 C0.99 0.33 1.98 0.66 3 1 C-2.625 5.875 -2.625 5.875 -6 7 C-6.66 6.34 -7.32 5.68 -8 5 C-7.05125 4.54625 -6.1025 4.0925 -5.125 3.625 C-1.99686321 2.19761746 -1.99686321 2.19761746 0 0 Z " fill="#271B1C" transform="translate(99,99)"/>
<path d="M0 0 C1.99954746 -0.04254356 4.00041636 -0.04080783 6 0 C7 1 7 1 7.0625 3.5625 C7.041875 4.366875 7.02125 5.17125 7 6 C6.01 6 5.02 6 4 6 C4 4.35 4 2.7 4 1 C3.01 1.33 2.02 1.66 1 2 C0.67 1.34 0.34 0.68 0 0 Z " fill="#C2C1C0" transform="translate(85,81)"/>
<path d="M0 0 C0.33 0.66 0.66 1.32 1 2 C2.98 2 4.96 2 7 2 C7 2.66 7 3.32 7 4 C-1.57142857 4.28571429 -1.57142857 4.28571429 -5 2 C-3.35 2 -1.7 2 0 2 C0 1.34 0 0.68 0 0 Z " fill="#161104" transform="translate(14,79)"/>
<path d="M0 0 C-3.44450737 2.29633824 -5.93812283 2.54016485 -10 3 C-10 2.01 -10 1.02 -10 0 C-6.30458414 -0.95024979 -3.69541586 -0.95024979 0 0 Z " fill="#20230B" transform="translate(107,148)"/>
<path d="M0 0 C1.98 0.495 1.98 0.495 4 1 C3.67 2.32 3.34 3.64 3 5 C1.68 5.33 0.36 5.66 -1 6 C-0.67 4.02 -0.34 2.04 0 0 Z " fill="#FCFCFC" transform="translate(90,93)"/>
<path d="M0 0 C2 2 2 2 2.125 5.625 C2.08375 6.73875 2.0425 7.8525 2 9 C1.67 9 1.34 9 1 9 C0.67 7.35 0.34 5.7 0 4 C-0.99 3.67 -1.98 3.34 -3 3 C-3 3.66 -3 4.32 -3 5 C-4.32 4.67 -5.64 4.34 -7 4 C-4 2 -4 2 0 2 C0 1.34 0 0.68 0 0 Z " fill="#6D8575" transform="translate(100,48)"/>
<path d="M0 0 C0.66 0 1.32 0 2 0 C2 0.66 2 1.32 2 2 C5.60992379 1.34414811 5.60992379 1.34414811 9 0 C8.02617818 2.51570636 7.53848865 3.73944098 5.0625 4.9375 C3 5 3 5 1.25 3.6875 C0 2 0 2 0 0 Z " fill="#1E1806" transform="translate(133,146)"/>
<path d="M0 0 C0.66 0.33 1.32 0.66 2 1 C2 2.65 2 4.3 2 6 C0.68 6 -0.64 6 -2 6 C-1.49396008 3.83125748 -1.00016187 2.00032373 0 0 Z " fill="#E0B62E" transform="translate(159,75)"/>
<path d="M0 0 C0.33 0.99 0.66 1.98 1 3 C0.34 3 -0.32 3 -1 3 C-1 3.66 -1 4.32 -1 5 C-2.98 5.66 -4.96 6.32 -7 7 C-7 6.34 -7 5.68 -7 5 C-5.46875 3.7109375 -5.46875 3.7109375 -3.5 2.375 C-2.8503125 1.92898437 -2.200625 1.48296875 -1.53125 1.0234375 C-1.0259375 0.68570313 -0.520625 0.34796875 0 0 Z " fill="#141004" transform="translate(148,38)"/>
<path d="M0 0 C0.66 0.33 1.32 0.66 2 1 C2.99 1 3.98 1 5 1 C5 2.32 5 3.64 5 5 C2.5625 4.625 2.5625 4.625 0 4 C-0.33 3.34 -0.66 2.68 -1 2 C-0.67 1.34 -0.34 0.68 0 0 Z " fill="#AAAAAA" transform="translate(77,134)"/>
<path d="M0 0 C1.32 0 2.64 0 4 0 C4.33 1.65 4.66 3.3 5 5 C3.02 4.34 1.04 3.68 -1 3 C-0.67 2.01 -0.34 1.02 0 0 Z " fill="#BDBDBD" transform="translate(70,133)"/>
<path d="M0 0 C3.35433109 0.94933899 6.69246505 1.89748835 10 3 C9.01 3.66 8.02 4.32 7 5 C4.95703125 4.5390625 4.95703125 4.5390625 2.8125 3.625 C2.09707031 3.32851563 1.38164063 3.03203125 0.64453125 2.7265625 C0.10183594 2.48679688 -0.44085938 2.24703125 -1 2 C-0.67 1.34 -0.34 0.68 0 0 Z " fill="#4E4C49" transform="translate(50,56)"/>
<path d="M0 0 C0.33 0.99 0.66 1.98 1 3 C-1.31 2.67 -3.62 2.34 -6 2 C-6 1.34 -6 0.68 -6 0 C-3 -1 -3 -1 0 0 Z " fill="#DBDADA" transform="translate(51,59)"/>
<path d="M0 0 C2 1.375 2 1.375 4 3 C4 3.66 4 4.32 4 5 C2.68 5.33 1.36 5.66 0 6 C-1.125 2.25 -1.125 2.25 0 0 Z " fill="#A4A3A1" transform="translate(121,52)"/>
<path d="M0 0 C0.99 0.33 1.98 0.66 3 1 C2.67 2.65 2.34 4.3 2 6 C1.01 5.67 0.02 5.34 -1 5 C-0.67 3.35 -0.34 1.7 0 0 Z " fill="#E0B62E" transform="translate(18,52)"/>
<path d="M0 0 C3.37503669 1.1858237 5.64722731 2.27573689 8 5 C7.01 5.495 7.01 5.495 6 6 C3.96166576 4.7260411 1.96147874 3.38938077 0 2 C0 1.34 0 0.68 0 0 Z " fill="#1B1605" transform="translate(20,45)"/>
<path d="M0 0 C3.36720387 1.39332574 4.9859524 2.9789286 7 6 C4 6 4 6 1.8125 4.125 C0 2 0 2 0 0 Z " fill="#080C04" transform="translate(130,40)"/>
<path d="M0 0 C0.99 0.33 1.98 0.66 3 1 C3 2.32 3 3.64 3 5 C1.68 4.67 0.36 4.34 -1 4 C-1 1 -1 1 0 0 Z " fill="#E4B92F" transform="translate(142,31)"/>
<path d="M0 0 C2.31 0.33 4.62 0.66 7 1 C7 1.33 7 1.66 7 2 C5.02 2 3.04 2 1 2 C1 2.99 1 3.98 1 5 C0.34 5 -0.32 5 -1 5 C-0.67 3.35 -0.34 1.7 0 0 Z " fill="#1B1605" transform="translate(70,155)"/>
<path d="M0 0 C2.97 0.495 2.97 0.495 6 1 C5.67 1.66 5.34 2.32 5 3 C3.68 3 2.36 3 1 3 C0.34 3.66 -0.32 4.32 -1 5 C-1.33 4.01 -1.66 3.02 -2 2 C-1.34 2 -0.68 2 0 2 C0 1.34 0 0.68 0 0 Z " fill="#EFEFEF" transform="translate(69,131)"/>
<path d="M0 0 C1.98 0.495 1.98 0.495 4 1 C3.34 2.65 2.68 4.3 2 6 C1.01 5.67 0.02 5.34 -1 5 C-0.67 3.35 -0.34 1.7 0 0 Z " fill="#CECECE" transform="translate(66,130)"/>
<path d="M0 0 C1.98 0.99 3.96 1.98 6 3 C6 3.33 6 3.66 6 4 C3.69 4 1.38 4 -1 4 C-0.67 2.68 -0.34 1.36 0 0 Z " fill="#D16C78" transform="translate(104,106)"/>
<path d="M0 0 C0.66 0 1.32 0 2 0 C3.7143618 1.95927063 5.38405168 3.95880212 7 6 C4.03824877 5.38722388 2.61941217 4.74627478 0 3 C0 2.01 0 1.02 0 0 Z " fill="#DFDFDE" transform="translate(117,61)"/>
<path d="M0 0 C0 0.66 0 1.32 0 2 C-2.8125 3.125 -2.8125 3.125 -6 4 C-6.99 3.34 -7.98 2.68 -9 2 C-3.375 0 -3.375 0 0 0 Z " fill="#362C0B" transform="translate(164,58)"/>
<path d="M0 0 C0.66 0.33 1.32 0.66 2 1 C1.67 1.99 1.34 2.98 1 4 C-1.5625 5.1875 -1.5625 5.1875 -4 6 C-4.33 5.01 -4.66 4.02 -5 3 C-2.625 1.4375 -2.625 1.4375 0 0 Z " fill="#DEB42E" transform="translate(155,49)"/>
<path d="M0 0 C2.9375 0.375 2.9375 0.375 6 1 C6.33 1.66 6.66 2.32 7 3 C6.34 3.66 5.68 4.32 5 5 C4.67 4.34 4.34 3.68 4 3 C2.35 3 0.7 3 -1 3 C-0.67 2.01 -0.34 1.02 0 0 Z " fill="#E9E9E8" transform="translate(110,43)"/>
<path d="M0 0 C1.98 0.495 1.98 0.495 4 1 C4 1.99 4 2.98 4 4 C2.35 4 0.7 4 -1 4 C-0.67 2.68 -0.34 1.36 0 0 Z " fill="#E2B72E" transform="translate(103,10)"/>
</svg>
