<?xml version="1.0" encoding="UTF-8"?>
<svg version="1.1" xmlns="http://www.w3.org/2000/svg" width="195" height="167">
<path d="M0 0 C1.81494141 0.20483398 1.81494141 0.20483398 4 1 C5.51708984 3.02758789 5.51708984 3.02758789 6.9609375 5.72265625 C7.5075 6.72369385 8.0540625 7.72473145 8.6171875 8.75610352 C9.48730469 10.39276978 9.48730469 10.39276978 10.375 12.0625 C11.6308703 14.36564345 12.88873339 16.66770121 14.1484375 18.96875 C14.46866882 19.5571315 14.78890015 20.145513 15.11883545 20.75172424 C18.30049175 26.58848103 21.63329774 32.33111285 25 38.0625 C25.86286621 39.53565674 25.86286621 39.53565674 26.74316406 41.03857422 C27.90839883 43.02715047 29.07441359 45.01526988 30.24121094 47.00292969 C33.20919265 52.06052874 36.16817705 57.12337083 39.125 62.1875 C39.70765625 63.18531494 40.2903125 64.18312988 40.890625 65.21118164 C45.12713097 72.47724057 49.3090219 79.77313744 53.47021484 87.08251953 C57.18678418 93.60150698 60.95949106 100.08627227 64.75 106.5625 C70.63873008 116.6266213 76.44138138 126.73762879 82.21386719 136.86865234 C86.7333386 144.79841479 91.28767151 152.70692216 95.90307617 160.58129883 C99 165.89246588 99 165.89246588 99 167 C34.65 167 -29.7 167 -96 167 C-91.99174071 158.98348141 -87.93144061 151.24570798 -83.375 143.5625 C-82.13201475 141.44968787 -80.88984135 139.33639794 -79.6484375 137.22265625 C-79.03323242 136.17609863 -78.41802734 135.12954102 -77.78417969 134.05126953 C-75.15446799 129.55398754 -72.57469701 125.02893283 -70 120.5 C-65.79790572 113.11733819 -61.5410285 105.76880879 -57.25 98.4375 C-52.11136558 89.65614473 -47.03702033 80.83985798 -42 72 C-36.46762536 62.29186041 -30.88349107 52.61590269 -25.23852539 42.97265625 C-22.13083217 37.66118057 -19.03800411 32.34159646 -15.96875 27.0078125 C-15.63122208 26.42144012 -15.29369415 25.83506775 -14.94593811 25.23092651 C-13.3152709 22.39718764 -11.68655932 19.56234693 -10.06030273 16.72607422 C-6.81277438 11.07769614 -3.49593201 5.49832785 0 0 Z " fill="#CE1227" transform="translate(96,0)"/>
<path d="M0 0 C1.81494141 0.20483398 1.81494141 0.20483398 4 1 C5.51708984 3.02758789 5.51708984 3.02758789 6.9609375 5.72265625 C7.5087085 6.72522461 8.05647949 7.72779297 8.62084961 8.76074219 C9.48915405 10.3951123 9.48915405 10.3951123 10.375 12.0625 C11.61067631 14.34125823 12.84903418 16.61856407 14.08984375 18.89453125 C14.4069783 19.47899017 14.72411285 20.0634491 15.05085754 20.6656189 C17.2949679 24.77974488 19.64733446 28.81026962 22.06640625 32.82421875 C22.71496582 33.90372803 23.36352539 34.9832373 24.03173828 36.09545898 C25.28374937 38.16786935 26.54615976 40.23403942 27.81982422 42.29321289 C28.38330566 43.23285889 28.94678711 44.17250488 29.52734375 45.140625 C30.02999756 45.96079102 30.53265137 46.78095703 31.05053711 47.62597656 C32.24664131 50.61669841 31.9970318 51.96079442 31 55 C29.78491211 57.49536133 29.78491211 57.49536133 28.27734375 60.08203125 C27.73916016 61.01337891 27.20097656 61.94472656 26.64648438 62.90429688 C25.80053711 64.34385742 25.80053711 64.34385742 24.9375 65.8125 C24.36966797 66.79154297 23.80183594 67.77058594 23.21679688 68.77929688 C21.81745173 71.18993348 20.41170071 73.5965851 19 76 C12.46080965 75.11972438 12.46080965 75.11972438 9.91015625 74.45703125 C0.40962586 72.18389821 -9.02880679 74.40900512 -17.25390625 79.35546875 C-25.76809768 85.38164219 -31.20946293 92.8378517 -33.75 103 C-34.82176344 115.86116123 -32.09074154 125.66366489 -24 136 C-22.37454065 137.38327056 -20.71665841 138.73167849 -19 140 C-19.29038651 140.7166684 -19.58077301 141.43333679 -19.87995911 142.17172241 C-20.58750208 143.95837855 -21.26963803 145.75549696 -21.91557312 147.56533813 C-24.65629136 154.89269947 -27.84971093 161.94915989 -34 167 C-43.32555156 170.38520558 -53.89243144 169.18169666 -63.63348389 168.51062012 C-67.28473529 168.28336932 -70.93938492 168.18465356 -74.59570312 168.07421875 C-81.73872978 167.8399276 -88.8680161 167.46588412 -96 167 C-95.06921155 165.11742225 -94.13593815 163.23607302 -93.20166016 161.35522461 C-92.68221832 160.30741318 -92.16277649 159.25960175 -91.62759399 158.18003845 C-89.0738132 153.19039044 -86.23323614 148.38214423 -83.375 143.5625 C-82.13201475 141.44968787 -80.88984135 139.33639794 -79.6484375 137.22265625 C-79.03323242 136.17609863 -78.41802734 135.12954102 -77.78417969 134.05126953 C-75.15446799 129.55398754 -72.57469701 125.02893283 -70 120.5 C-65.79790572 113.11733819 -61.5410285 105.76880879 -57.25 98.4375 C-52.11136558 89.65614473 -47.03702033 80.83985798 -42 72 C-36.46762536 62.29186041 -30.88349107 52.61590269 -25.23852539 42.97265625 C-22.13083217 37.66118057 -19.03800411 32.34159646 -15.96875 27.0078125 C-15.63122208 26.42144012 -15.29369415 25.83506775 -14.94593811 25.23092651 C-13.3152709 22.39718764 -11.68655932 19.56234693 -10.06030273 16.72607422 C-6.81277438 11.07769614 -3.49593201 5.49832785 0 0 Z " fill="#0139A8" transform="translate(96,0)"/>
<path d="M0 0 C2.55746272 2.49262564 4.51072456 4.70791746 6 8 C4.58802647 12.75566546 1.82601011 17.02706201 -0.625 21.3125 C-1.04523438 22.05306641 -1.46546875 22.79363281 -1.8984375 23.55664062 C-2.92948495 25.37269011 -3.96436046 27.18656533 -5 29 C-4.38584229 29.76739502 -4.38584229 29.76739502 -3.75927734 30.55029297 C4.30314739 40.71879828 8.0433599 50.01092532 7 63 C5.11110664 73.23852386 0.9598444 81.47013437 -7.42578125 87.84375 C-16.89694202 93.85344455 -26.27260418 96.6105762 -37.4765625 94.54296875 C-39.33303361 94.08705093 -41.16993943 93.55247112 -43 93 C-43.23589844 93.65484375 -43.47179687 94.3096875 -43.71484375 94.984375 C-45.38717032 98.90849693 -47.45417485 102.54627556 -49.5625 106.25 C-49.97435547 106.9821875 -50.38621094 107.714375 -50.81054688 108.46875 C-53.86137393 113.86137393 -53.86137393 113.86137393 -55 115 C-56.85287502 115.07226502 -58.70833878 115.0838122 -60.5625 115.0625 C-62.08037109 115.04896484 -62.08037109 115.04896484 -63.62890625 115.03515625 C-64.41136719 115.02355469 -65.19382813 115.01195312 -66 115 C-60.95069603 104.38498596 -60.95069603 104.38498596 -57.75 99.44921875 C-57.37681641 98.87260498 -57.00363281 98.29599121 -56.61914062 97.7019043 C-55.54131552 96.06282951 -54.44290978 94.43734489 -53.34375 92.8125 C-51.6906963 90.15022288 -51.6906963 90.15022288 -52.63671875 87.765625 C-54.06217748 85.83362876 -54.06217748 85.83362876 -56.3125 83.75 C-63.09231203 76.81251792 -67.04006446 68.21112483 -67.3125 58.4375 C-66.80625193 46.89504401 -62.41334048 37.48276791 -53.91796875 29.53125 C-44.94035825 22.36378907 -35.35151349 20.0306257 -24 21 C-20.25456197 21.78636017 -16.63238243 22.79873967 -13 24 C-12.72365723 23.27079346 -12.44731445 22.54158691 -12.16259766 21.7902832 C-11.06858286 19.16460173 -9.83321852 16.80794329 -8.3984375 14.35546875 C-7.66367188 13.09379883 -7.66367188 13.09379883 -6.9140625 11.80664062 C-6.40617187 10.94232422 -5.89828125 10.07800781 -5.375 9.1875 C-4.859375 8.30384766 -4.34375 7.42019531 -3.8125 6.50976562 C-2.54468886 4.33805211 -1.27377652 2.1682182 0 0 Z " fill="#B2AEAE" transform="translate(128,52)"/>
<path d="M0 0 C0.99 0.33 1.98 0.66 3 1 C2.34 1 1.68 1 1 1 C1 6.28 1 11.56 1 17 C5.95 17 10.9 17 16 17 C16.33 16.34 16.66 15.68 17 15 C17 15.66 17 16.32 17 17 C20.63 17 24.26 17 28 17 C28 17.33 28 17.66 28 18 C24.7 18 21.4 18 18 18 C18.495 19.3303125 18.495 19.3303125 19 20.6875 C19.91222143 23.70923347 20.18330958 25.88373706 20 29 C19.34 29 18.68 29 18 29 C17.34 25.37 16.68 21.74 16 18 C11.05 18 6.1 18 1 18 C1 23.61 1 29.22 1 35 C4.3 35 7.6 35 11 35 C11.33 35.66 11.66 36.32 12 37 C8.37 37 4.74 37 1 37 C1 42.28 1 47.56 1 53 C5.62 53 10.24 53 15 53 C15 53.33 15 53.66 15 54 C10.38 54 5.76 54 1 54 C1.495 61.92 1.495 61.92 2 70 C7.77171958 66.15218695 11.21583561 63.26436987 14 57 C14.99 57.33 15.98 57.66 17 58 C11.81321185 66.44646925 11.81321185 66.44646925 9 70 C11.97 68.68 14.94 67.36 18 66 C17 69 17 69 14.8828125 70.16796875 C5.14124764 73.76931213 -3.08291784 73.99383612 -13 71 C-13.23589844 71.65484375 -13.47179687 72.3096875 -13.71484375 72.984375 C-15.38717032 76.90849693 -17.45417485 80.54627556 -19.5625 84.25 C-19.97435547 84.9821875 -20.38621094 85.714375 -20.81054688 86.46875 C-23.86137393 91.86137393 -23.86137393 91.86137393 -25 93 C-26.85287502 93.07226502 -28.70833878 93.0838122 -30.5625 93.0625 C-32.08037109 93.04896484 -32.08037109 93.04896484 -33.62890625 93.03515625 C-34.41136719 93.02355469 -35.19382813 93.01195312 -36 93 C-30.95069603 82.38498596 -30.95069603 82.38498596 -27.75 77.44921875 C-27.37681641 76.87260498 -27.00363281 76.29599121 -26.61914062 75.7019043 C-25.54131552 74.06282951 -24.44290978 72.43734489 -23.34375 70.8125 C-21.6906963 68.15022288 -21.6906963 68.15022288 -22.63671875 65.765625 C-24.06217748 63.83362876 -24.06217748 63.83362876 -26.3125 61.75 C-33.09231203 54.81251792 -37.04006446 46.21112483 -37.3125 36.4375 C-36.78968032 24.51721124 -32.13301813 15.60122461 -23.61328125 7.27734375 C-22 6 -22 6 -19 5 C-19 8 -19 8 -20.71484375 9.75390625 C-21.44832031 10.35074219 -22.18179688 10.94757813 -22.9375 11.5625 C-25.92648955 13.91285524 -25.92648955 13.91285524 -28 17 C-24.37 17 -20.74 17 -17 17 C-17 17.33 -17 17.66 -17 18 C-20.96 18.33 -24.92 18.66 -29 19 C-29.9590625 21.5678125 -29.9590625 21.5678125 -30.9375 24.1875 C-31.29714844 25.15042969 -31.65679687 26.11335938 -32.02734375 27.10546875 C-33.17088849 30.30652364 -33.17088849 30.30652364 -34 35 C-29.38 35 -24.76 35 -20 35 C-20.04125 33.63875 -20.0825 32.2775 -20.125 30.875 C-20.1376134 26.8828592 -19.52922788 23.72749297 -18 20 C-17.67 20 -17.34 20 -17 20 C-17.33 24.95 -17.66 29.9 -18 35 C-12.06 35 -6.12 35 0 35 C0 29.39 0 23.78 0 18 C-5.28 18 -10.56 18 -16 18 C-16 17.67 -16 17.34 -16 17 C-11.05 16.67 -6.1 16.34 -1 16 C-0.67 10.72 -0.34 5.44 0 0 Z " fill="#78797B" transform="translate(98,74)"/>
<path d="M0 0 C-0.66 0.66 -1.32 1.32 -2 2 C-1.31292969 2.44730469 -0.62585938 2.89460938 0.08203125 3.35546875 C0.98308594 3.96003906 1.88414063 4.56460938 2.8125 5.1875 C3.70582031 5.77917969 4.59914062 6.37085937 5.51953125 6.98046875 C8.12652898 9.10301651 9.45995312 11.03758425 11 14 C10.21753906 13.98839844 9.43507812 13.97679688 8.62890625 13.96484375 C7.61699219 13.95582031 6.60507813 13.94679688 5.5625 13.9375 C4.55316406 13.92589844 3.54382813 13.91429688 2.50390625 13.90234375 C0.05978933 13.71387324 0.05978933 13.71387324 -1 15 C-3.53049402 15.07313567 -6.03304837 15.09247527 -8.5625 15.0625 C-9.62887695 15.05573242 -9.62887695 15.05573242 -10.71679688 15.04882812 C-12.47790013 15.03700864 -14.23896036 15.01907263 -16 15 C-15.98839844 13.85660156 -15.97679687 12.71320313 -15.96484375 11.53515625 C-15.95546712 10.04427246 -15.94636679 8.55338691 -15.9375 7.0625 C-15.92493164 5.93038086 -15.92493164 5.93038086 -15.91210938 4.77539062 C-15.90347559 2.85005687 -15.94775667 0.92464419 -16 -1 C-16.495 -1.495 -16.495 -1.495 -17 -2 C-17 -0.86820312 -17 0.26359375 -17 1.4296875 C-17 11.953125 -17 22.4765625 -17 33 C-22.94 33 -28.88 33 -35 33 C-35 28.38 -35 23.76 -35 19 C-35.66 23.62 -36.32 28.24 -37 33 C-41.62 33 -46.24 33 -51 33 C-50.58380339 26.34085417 -49.34590425 21.74485447 -46 16 C-45.525625 15.113125 -45.05125 14.22625 -44.5625 13.3125 C-42.65895908 10.49525944 -40.52759507 8.26835455 -38 6 C-37.34 6 -36.68 6 -36 6 C-36 4.68 -36 3.36 -36 2 C-34.3962669 1.35309078 -32.79199694 0.70751236 -31.1875 0.0625 C-30.29417969 -0.29714844 -29.40085937 -0.65679687 -28.48046875 -1.02734375 C-18.88674726 -4.78929123 -9.56611364 -3.16359664 0 0 Z " fill="#8A8A8B" transform="translate(115,76)"/>
<path d="M0 0 C0.99 0.33 1.98 0.66 3 1 C2.34 1 1.68 1 1 1 C1 6.28 1 11.56 1 17 C5.95 17 10.9 17 16 17 C16.33 16.34 16.66 15.68 17 15 C17 15.66 17 16.32 17 17 C20.63 17 24.26 17 28 17 C28 17.33 28 17.66 28 18 C24.7 18 21.4 18 18 18 C18.495 19.3303125 18.495 19.3303125 19 20.6875 C19.91222143 23.70923347 20.18330958 25.88373706 20 29 C19.34 29 18.68 29 18 29 C17.34 25.37 16.68 21.74 16 18 C11.05 18 6.1 18 1 18 C1 23.61 1 29.22 1 35 C4.3 35 7.6 35 11 35 C11.33 35.66 11.66 36.32 12 37 C8.37 37 4.74 37 1 37 C1 42.28 1 47.56 1 53 C5.62 53 10.24 53 15 53 C15 53.33 15 53.66 15 54 C10.38 54 5.76 54 1 54 C1.495 61.92 1.495 61.92 2 70 C7.77171958 66.15218695 11.21583561 63.26436987 14 57 C14.99 57.33 15.98 57.66 17 58 C11.81321185 66.44646925 11.81321185 66.44646925 9 70 C11.97 68.68 14.94 67.36 18 66 C17 69 17 69 13.625 70.6875 C8.47429132 72.48556558 3.3881575 72.26742693 -2 72 C-1.34 71.67 -0.68 71.34 0 71 C0 65.39 0 59.78 0 54 C-4.95 54 -9.9 54 -15 54 C-15 53.67 -15 53.34 -15 53 C-10.38 53 -5.76 53 -1 53 C-1 47.72 -1 42.44 -1 37 C-6.61 37 -12.22 37 -18 37 C-17.34 41.62 -16.68 46.24 -16 51 C-16.99 51 -17.98 51 -19 51 C-20.38594404 46.32925945 -20.06372054 41.84276108 -20 37 C-24.95 37 -29.9 37 -35 37 C-35.33 37.66 -35.66 38.32 -36 39 C-36.95404758 28.04612043 -35.04026656 20.05591349 -27.92578125 11.5078125 C-22.91850437 6.30616812 -22.91850437 6.30616812 -19 5 C-19 8 -19 8 -20.71484375 9.75390625 C-21.44832031 10.35074219 -22.18179688 10.94757813 -22.9375 11.5625 C-25.92648955 13.91285524 -25.92648955 13.91285524 -28 17 C-24.37 17 -20.74 17 -17 17 C-17 17.33 -17 17.66 -17 18 C-20.96 18.33 -24.92 18.66 -29 19 C-29.9590625 21.5678125 -29.9590625 21.5678125 -30.9375 24.1875 C-31.29714844 25.15042969 -31.65679687 26.11335938 -32.02734375 27.10546875 C-33.17088849 30.30652364 -33.17088849 30.30652364 -34 35 C-29.38 35 -24.76 35 -20 35 C-20.04125 33.63875 -20.0825 32.2775 -20.125 30.875 C-20.1376134 26.8828592 -19.52922788 23.72749297 -18 20 C-17.67 20 -17.34 20 -17 20 C-17.33 24.95 -17.66 29.9 -18 35 C-12.06 35 -6.12 35 0 35 C0 29.39 0 23.78 0 18 C-5.28 18 -10.56 18 -16 18 C-16 17.67 -16 17.34 -16 17 C-11.05 16.67 -6.1 16.34 -1 16 C-0.67 10.72 -0.34 5.44 0 0 Z " fill="#F4F4F4" transform="translate(98,74)"/>
<path d="M0 0 C8.2236194 -0.38750039 15.1768938 0.41283102 23 3 C22.34 3.66 21.68 4.32 21 5 C21.68707031 5.44730469 22.37414062 5.89460938 23.08203125 6.35546875 C23.98308594 6.96003906 24.88414063 7.56460938 25.8125 8.1875 C26.70582031 8.77917969 27.59914063 9.37085937 28.51953125 9.98046875 C31.12652898 12.10301651 32.45995312 14.03758425 34 17 C33.21753906 16.98839844 32.43507812 16.97679688 31.62890625 16.96484375 C30.61699219 16.95582031 29.60507813 16.94679688 28.5625 16.9375 C27.55316406 16.92589844 26.54382813 16.91429688 25.50390625 16.90234375 C23.05978933 16.71387324 23.05978933 16.71387324 22 18 C19.4672235 18.07320163 16.96896082 18.09227569 14.4375 18.0625 C11.983125 18.041875 9.52875 18.02125 7 18 C7 12.72 7 7.44 7 2 C4.69 1.67 2.38 1.34 0 1 C0 0.67 0 0.34 0 0 Z " fill="#87898C" transform="translate(92,73)"/>
<path d="M0 0 C4.30764815 1.56641751 8.06171464 3.68336156 12 6 C11.38125 6.061875 10.7625 6.12375 10.125 6.1875 C9.42375 6.455625 8.7225 6.72375 8 7 C7.3098201 8.65706787 6.65029181 10.32687634 6 12 C4.54952508 14.78978994 2.99289207 17.51762088 1.4375 20.25 C1.02564453 20.9821875 0.61378906 21.714375 0.18945312 22.46875 C-2.86137393 27.86137393 -2.86137393 27.86137393 -4 29 C-5.85287502 29.07226502 -7.70833878 29.0838122 -9.5625 29.0625 C-10.57441406 29.05347656 -11.58632812 29.04445312 -12.62890625 29.03515625 C-13.41136719 29.02355469 -14.19382813 29.01195312 -15 29 C-11.32267405 21.26925795 -7.26146807 14.0006818 -2.63671875 6.8125 C-1.24920371 4.42822594 -0.4459369 2.68854708 0 0 Z " fill="#FAF8FA" transform="translate(77,138)"/>
<path d="M0 0 C2.55746272 2.49262564 4.51072456 4.70791746 6 8 C4.58802647 12.75566546 1.82601011 17.02706201 -0.625 21.3125 C-1.04523438 22.05306641 -1.46546875 22.79363281 -1.8984375 23.55664062 C-2.92948495 25.37269011 -3.96436046 27.18656533 -5 29 C-3.35 31.64 -1.7 34.28 0 37 C-0.99 37 -1.98 37 -3 37 C-3.804375 35.948125 -3.804375 35.948125 -4.625 34.875 C-7.83987555 30.98330854 -11.74345729 28.64669643 -16 26 C-15.01 25.67 -14.02 25.34 -13 25 C-12.89115479 24.27530518 -12.78230957 23.55061035 -12.67016602 22.80395508 C-11.95200364 19.79918462 -10.88741709 17.76368052 -9.27734375 15.13671875 C-8.47006836 13.80737305 -8.47006836 13.80737305 -7.64648438 12.45117188 C-7.08251953 11.53916016 -6.51855469 10.62714844 -5.9375 9.6875 C-5.36966797 8.75615234 -4.80183594 7.82480469 -4.21679688 6.86523438 C-2.81775907 4.57269344 -1.41201519 2.28456247 0 0 Z " fill="#FAF8F9" transform="translate(128,52)"/>
<path d="M0 0 C4.95 0 9.9 0 15 0 C15 5.61 15 11.22 15 17 C16.98 17.33 18.96 17.66 21 18 C21 18.33 21 18.66 21 19 C19.2709226 19.02725341 17.54171824 19.04650987 15.8125 19.0625 C14.36810547 19.07990234 14.36810547 19.07990234 12.89453125 19.09765625 C10.14423487 19.00486622 7.67520409 18.62111685 5 18 C5 17.34 5 16.68 5 16 C3.0399719 14.36323743 3.0399719 14.36323743 1 13 C1.165 12.401875 1.33 11.80375 1.5 11.1875 C2.54499241 6.61565822 1.59201218 4.77603654 0 0 Z " fill="#BBB0B1" transform="translate(83,128)"/>
<path d="M0 0 C4.29 0 8.58 0 13 0 C14.72577473 5.2851851 15 8.03527231 15 14 C10.05 14 5.1 14 0 14 C0 9.38 0 4.76 0 0 Z " fill="#F8F8F8" transform="translate(100,94)"/>
<path d="M0 0 C4.29 0 8.58 0 13 0 C13 4.62 13 9.24 13 14 C8.05 14 3.1 14 -2 14 C-1.125 3.375 -1.125 3.375 0 0 Z " fill="#FAFAFA" transform="translate(83,94)"/>
<path d="M0 0 C4.95 0 9.9 0 15 0 C15 3.96 15 7.92 15 12 C10.71 12 6.42 12 2 12 C0.86235649 7.73383684 0 4.43513689 0 0 Z " fill="#FEFEFE" transform="translate(81,113)"/>
<path d="M0 0 C4.62 0 9.24 0 14 0 C14.25 7.5 14.25 7.5 12 12 C8.04 12 4.08 12 0 12 C0 8.04 0 4.08 0 0 Z " fill="#FDFDFD" transform="translate(101,113)"/>
<path d="M0 0 C3.63 0 7.26 0 11 0 C10.93070495 3.46475274 10.80173399 6.0684222 8.48046875 8.765625 C4.7770024 11.97789476 2.10235271 14 -3 14 C-5.01151741 14.63106429 -7.01363702 15.29373761 -9 16 C-7.30947142 12.49371851 -5.31590972 9.27361517 -3.21875 6 C-2.03771029 4.06188355 -1.01500248 2.03000496 0 0 Z " fill="#F5E4E6" transform="translate(116,128)"/>
<path d="M0 0 C2.97 0 5.94 0 9 0 C9.67528223 1.57967807 10.33989694 3.16391903 11 4.75 C11.37125 5.63171875 11.7425 6.5134375 12.125 7.421875 C13 10 13 10 13 14 C9.37 14 5.74 14 2 14 C1.34 9.38 0.68 4.76 0 0 Z " fill="#FCFCFC" transform="translate(118,94)"/>
<path d="M0 0 C2.97 0 5.94 0 9 0 C8.34 4.62 7.68 9.24 7 14 C3.37 14 -0.26 14 -4 14 C-3.52372025 12.04096255 -3.04388577 10.08278903 -2.5625 8.125 C-2.29566406 7.03445312 -2.02882813 5.94390625 -1.75390625 4.8203125 C-1 2 -1 2 0 0 Z " fill="#FCFCFC" transform="translate(69,94)"/>
<path d="M0 0 C3.63 0 7.26 0 11 0 C10.51855059 4.81449408 10.1991413 7.60171741 8 12 C5.03 12 2.06 12 -1 12 C-0.67 8.04 -0.34 4.08 0 0 Z " fill="#FBFBFB" transform="translate(120,113)"/>
<path d="M0 0 C3.63 0 7.26 0 11 0 C11.66 3.96 12.32 7.92 13 12 C9.7 12 6.4 12 3 12 C2.01 8.04 1.02 4.08 0 0 Z " fill="#FBFBFB" transform="translate(65,113)"/>
<path d="M0 0 C3.3 0 6.6 0 10 0 C12.57025846 4.2837641 14.58707905 8.1725201 16 13 C10.08304954 13 7.03549068 9.83738113 2.85546875 6.10546875 C1 4 1 4 0 0 Z " fill="#DDDDDD" transform="translate(70,128)"/>
<path d="M0 0 C0.99 0.33 1.98 0.66 3 1 C2.34 1 1.68 1 1 1 C1 6.28 1 11.56 1 17 C5.95 17 10.9 17 16 17 C16.33 16.34 16.66 15.68 17 15 C17 15.66 17 16.32 17 17 C20.63 17 24.26 17 28 17 C28 17.33 28 17.66 28 18 C24.7 18 21.4 18 18 18 C18.495 19.3303125 18.495 19.3303125 19 20.6875 C19.91222143 23.70923347 20.18330958 25.88373706 20 29 C19.34 29 18.68 29 18 29 C17.34 25.37 16.68 21.74 16 18 C11.05 18 6.1 18 1 18 C1 23.28 1 28.56 1 34 C0.67 34 0.34 34 0 34 C0 28.72 0 23.44 0 18 C-5.28 18 -10.56 18 -16 18 C-16 17.67 -16 17.34 -16 17 C-11.05 16.67 -6.1 16.34 -1 16 C-0.67 10.72 -0.34 5.44 0 0 Z " fill="#FDFDFD" transform="translate(98,74)"/>
<path d="M0 0 C3.63 0 7.26 0 11 0 C9.72276562 5.81851217 6.56193997 9.36335918 2 13 C1.34 13 0.68 13 0 13 C0 8.71 0 4.42 0 0 Z " fill="#F6F6F6" transform="translate(100,130)"/>
<path d="M0 0 C5.28 0 10.56 0 16 0 C16 5.61 16 11.22 16 17 C10.06 17 4.12 17 -2 17 C-2 10.34552889 -1.54922882 6.19691529 0 0 Z M1 2 C0.67 3.381875 0.34 4.76375 0 6.1875 C-0.185625 6.96480469 -0.37125 7.74210937 -0.5625 8.54296875 C-1.14608589 11.40448243 -1.14608589 11.40448243 -1 16 C3.95 16 8.9 16 14 16 C14 11.38 14 6.76 14 2 C9.71 2 5.42 2 1 2 Z " fill="#595959" transform="translate(82,92)"/>
<path d="M0 0 C5.94 0 11.88 0 18 0 C17.54241844 5.71976954 17.15327084 9.6168229 15 15 C10.05 15 5.1 15 0 15 C0 10.05 0 5.1 0 0 Z M2 2 C2 5.96 2 9.92 2 14 C5.96 14 9.92 14 14 14 C15.80568106 10.38863788 16.24851563 9.455469 16.125 5.75 C16.08375 4.5125 16.0425 3.275 16 2 C11.38 2 6.76 2 2 2 Z " fill="#5F5F5F" transform="translate(99,111)"/>
<path d="M0 0 C3.63 0 7.26 0 11 0 C11 4.29 11 8.58 11 13 C6.84707442 10.50824465 5.31172714 9.56530755 2.6875 5.9375 C2.17574219 5.24527344 1.66398437 4.55304688 1.13671875 3.83984375 C0 2 0 2 0 0 Z " fill="#FAFAFA" transform="translate(85,130)"/>
<path d="M0 0 C4.62 0 9.24 0 14 0 C14.66 5.28 15.32 10.56 16 16 C12.04 16 8.08 16 4 16 C0 6.75 0 6.75 0 0 Z M1 2 C1.99 5.96 2.98 9.92 4 14 C7.3 14 10.6 14 14 14 C13.34 10.04 12.68 6.08 12 2 C8.37 2 4.74 2 1 2 Z " fill="#636363" transform="translate(64,111)"/>
<path d="M0 0 C4.62 0 9.24 0 14 0 C11.89204064 13.45850974 11.89204064 13.45850974 9 16 C5.23501565 16.41214326 1.8100206 16.22411886 -2 16 C-1.34 10.72 -0.68 5.44 0 0 Z M1 2 C0.67 5.96 0.34 9.92 0 14 C2.97 14 5.94 14 9 14 C9.495 12.7625 9.99 11.525 10.5 10.25 C10.7784375 9.55390625 11.056875 8.8578125 11.34375 8.140625 C12.19540327 5.73577305 12.19540327 5.73577305 12 2 C8.37 2 4.74 2 1 2 Z " fill="#616161" transform="translate(119,111)"/>
<path d="M0 0 C0 3.96 0 7.92 0 12 C-3.63 12 -7.26 12 -11 12 C-9.48206115 8.24979813 -4.98384031 0 0 0 Z " fill="#FBFBFB" transform="translate(96,77)"/>
<path d="M0 0 C3.63 0 7.26 0 11 0 C10.34 5.61 9.68 11.22 9 17 C4.38 17 -0.24 17 -5 17 C-4.57878919 10.26062696 -3.31539081 5.88214499 0 0 Z M0 2 C-0.67031719 3.9570868 -1.33614683 5.91571113 -2 7.875 C-2.37125 8.96554688 -2.7425 10.05609375 -3.125 11.1796875 C-4.098772 13.82620854 -4.098772 13.82620854 -4 16 C-0.37 16 3.26 16 7 16 C7.66 11.38 8.32 6.76 9 2 C6.03 2 3.06 2 0 2 Z " fill="#4E4E4E" transform="translate(69,92)"/>
<path d="M0 0 C3.96 0 7.92 0 12 0 C14.63163857 6.00342549 16.56991674 10.44595748 16 17 C11.71 17 7.42 17 3 17 C2.49622232 14.73000175 1.99709981 12.45896997 1.5 10.1875 C1.08234375 8.29064453 1.08234375 8.29064453 0.65625 6.35546875 C0 3 0 3 0 0 Z M2 2 C2.66 6.62 3.32 11.24 4 16 C7.63 16 11.26 16 15 16 C14.53328373 10.58609132 13.75702189 6.79482068 11 2 C8.03 2 5.06 2 2 2 Z " fill="#4E4E4E" transform="translate(116,92)"/>
<path d="M0 0 C5.65028902 2.26011561 5.65028902 2.26011561 7.8125 5.5 C8.23144531 6.1084375 8.65039062 6.716875 9.08203125 7.34375 C10 9 10 9 10 11 C6.7 11 3.4 11 0 11 C0 7.37 0 3.74 0 0 Z " fill="#FAFAFA" transform="translate(101,78)"/>
<path d="M0 0 C4.62 0 9.24 0 14 0 C12.49129061 7.54354696 8.9848243 11.54321595 3 16 C2.01 16.33 1.02 16.66 0 17 C0 11.39 0 5.78 0 0 Z M1 2 C1 6.29 1 10.58 1 15 C4.49297416 13.25351292 5.80259292 12.43293687 8.1875 9.625 C8.69667969 9.03976563 9.20585938 8.45453125 9.73046875 7.8515625 C11.29785049 5.79623722 11.29785049 5.79623722 12 2 C8.37 2 4.74 2 1 2 Z " fill="#484848" transform="translate(99,128)"/>
<path d="M0 0 C0.33 0 0.66 0 1 0 C1 4.95 1 9.9 1 15 C5.62 15 10.24 15 15 15 C15 15.33 15 15.66 15 16 C10.38 16 5.76 16 1 16 C1.33 21.94 1.66 27.88 2 34 C0.68 33.67 -0.64 33.34 -2 33 C-1.34 33 -0.68 33 0 33 C0 27.39 0 21.78 0 16 C-4.95 16 -9.9 16 -15 16 C-15 15.67 -15 15.34 -15 15 C-10.38 14.67 -5.76 14.34 -1 14 C-0.67 9.38 -0.34 4.76 0 0 Z " fill="#FEFEFE" transform="translate(98,112)"/>
<path d="M0 0 C4.62 0 9.24 0 14 0 C14 5.28 14 10.56 14 16 C7.88253162 14.77650632 6.45763699 12.86851186 3 8 C0 2.7 0 2.7 0 0 Z M2 2 C3.56356126 5.90890314 4.35198004 7.7763231 6.9375 10.75 C7.44152344 11.34296875 7.94554688 11.9359375 8.46484375 12.546875 C10.04853832 14.25090252 10.04853832 14.25090252 13 15 C13 10.71 13 6.42 13 2 C9.37 2 5.74 2 2 2 Z " fill="#494949" transform="translate(83,128)"/>
<path d="M0 0 C5.61 0.33 11.22 0.66 17 1 C17 1.33 17 1.66 17 2 C12.38 2 7.76 2 3 2 C4.32 5.3 5.64 8.6 7 12 C6.01 12 5.02 12 4 12 C3.83886719 11.43410156 3.67773438 10.86820313 3.51171875 10.28515625 C2.58104708 7.77543027 1.77338718 6.02123407 0 4 C-3.67931093 2.9782633 -7.19703434 2.8950906 -11 3 C-11 2.67 -11 2.34 -11 2 C-7.37 2 -3.74 2 0 2 C0 1.34 0 0.68 0 0 Z " fill="#D7D7D7" transform="translate(80,125)"/>
<path d="M0 0 C3.6875 -0.3125 3.6875 -0.3125 7 0 C5.12459748 4.77375186 1.79385795 7.2027298 -2.8125 9.25 C-3.534375 9.4975 -4.25625 9.745 -5 10 C-2.33035714 2.8125 -2.33035714 2.8125 0 0 Z " fill="#F2F2F2" transform="translate(117,130)"/>
<path d="M0 0 C5.96131152 1.34129509 9.80192016 4.74864504 14 9 C14 9.33 14 9.66 14 10 C8.82676264 10.70145591 8.82676264 10.70145591 6 10 C3.75326649 7.61148234 2.38265772 4.95520835 1 2 C0.67 1.34 0.34 0.68 0 0 Z " fill="#EFEFEF" transform="translate(110,79)"/>
<path d="M0 0 C3.63 0 7.26 0 11 0 C9.22157001 4.44607497 8.35585467 5.9797308 5 9 C4.34 8.67 3.68 8.34 3 8 C4.65 6.02 6.3 4.04 8 2 C4.63147485 1.9434891 4.63147485 1.9434891 1 3 C-0.8544092 5.2231534 -1.78559244 7.32830337 -3 10 C-3.33 9.34 -3.66 8.68 -4 8 C-2.88536076 5.21060129 -1.41371466 2.65606996 0 0 Z " fill="#585858" transform="translate(116,128)"/>
<path d="M0 0 C0.33 1.32 0.66 2.64 1 4 C4.63 4 8.26 4 12 4 C12 4.33 12 4.66 12 5 C8.04 5 4.08 5 0 5 C-0.33 5.99 -0.66 6.98 -1 8 C-1.66 8 -2.32 8 -3 8 C-3 6.68 -3 5.36 -3 4 C-7.62 4 -12.24 4 -17 4 C-17 3.67 -17 3.34 -17 3 C-15.94039063 2.95101562 -14.88078125 2.90203125 -13.7890625 2.8515625 C-12.40101503 2.77653291 -11.01299549 2.70098515 -9.625 2.625 C-8.57699219 2.57859375 -8.57699219 2.57859375 -7.5078125 2.53125 C-3.29814173 2.40500502 -3.29814173 2.40500502 0 0 Z " fill="#DBDBDB" transform="translate(116,123)"/>
<path d="M0 0 C0.66 0.33 1.32 0.66 2 1 C0.2476366 4.23513244 -1.53472551 7.25664682 -4 10 C-7.875 10.5625 -7.875 10.5625 -11 10 C-4.68882603 2.08392268 -4.68882603 2.08392268 0 0 Z " fill="#F3F3F3" transform="translate(84,79)"/>
<path d="M0 0 C3.3 0 6.6 0 10 0 C13.22265625 5.2734375 13.22265625 5.2734375 14 7 C13.67 7.66 13.34 8.32 13 9 C10 4.25 10 4.25 10 2 C7.69 2.33 5.38 2.66 3 3 C4.98 5.31 6.96 7.62 9 10 C4.42730974 7.71365487 3.0047845 6.00637934 0 2 C0 1.34 0 0.68 0 0 Z " fill="#525252" transform="translate(70,128)"/>
<path d="M0 0 C0.33 0 0.66 0 1 0 C1.07654536 4.51617599 1.10228696 8.59085217 0 13 C3.3 12.67 6.6 12.34 10 12 C9.67 12.99 9.34 13.98 9 15 C5.37 15 1.74 15 -2 15 C-1.38487182 9.99109914 -0.7282448 4.99367864 0 0 Z " fill="#575757" transform="translate(119,112)"/>
<path d="M0 0 C0.66 0.33 1.32 0.66 2 1 C4.204364 1.22950319 6.41392173 1.41075933 8.625 1.5625 C9.81351563 1.64628906 11.00203125 1.73007813 12.2265625 1.81640625 C13.59941406 1.90728516 13.59941406 1.90728516 15 2 C15 2.33 15 2.66 15 3 C10.05 3 5.1 3 0 3 C0 4.65 0 6.3 0 8 C-0.22429687 7.35546875 -0.44859375 6.7109375 -0.6796875 6.046875 C-1.82889456 3.75611148 -1.82889456 3.75611148 -4.3828125 3.390625 C-5.74019531 3.32101563 -5.74019531 3.32101563 -7.125 3.25 C-8.03507812 3.19328125 -8.94515625 3.1365625 -9.8828125 3.078125 C-10.58148438 3.05234375 -11.28015625 3.0265625 -12 3 C-11.67 2.34 -11.34 1.68 -11 1 C-10.28972656 1.01160156 -9.57945313 1.02320312 -8.84765625 1.03515625 C-7.92855469 1.04417969 -7.00945312 1.05320312 -6.0625 1.0625 C-4.68771484 1.07990234 -4.68771484 1.07990234 -3.28515625 1.09765625 C-1.03406673 1.25949049 -1.03406673 1.25949049 0 0 Z " fill="#B8B8B8" transform="translate(82,88)"/>
<path d="M0 0 C0.33 0 0.66 0 1 0 C1.33 1.65 1.66 3.3 2 5 C2.33 5 2.66 5 3 5 C3.66 8.63 4.32 12.26 5 16 C4.01 16 3.02 16 2 16 C0.13216954 10.51324804 -0.2358396 5.77807024 0 0 Z " fill="#D5DDEE" transform="translate(61,106)"/>
<path d="M0 0 C2 3 2 3 2 7 C1.34 7 0.68 7 0 7 C-0.33 5.68 -0.66 4.36 -1 3 C-5.29 2.67 -9.58 2.34 -14 2 C-14 1.67 -14 1.34 -14 1 C-12.04175306 0.83232136 -10.08339945 0.66588795 -8.125 0.5 C-6.48917969 0.36078125 -6.48917969 0.36078125 -4.8203125 0.21875 C-3.21670436 0.09437042 -1.60842449 0 0 0 Z " fill="#D9D3D4" transform="translate(129,89)"/>
<path d="M0 0 C4.62 0 9.24 0 14 0 C13.67 0.66 13.34 1.32 13 2 C9.37 2 5.74 2 2 2 C1.67 2.66 1.34 3.32 1 4 C0.67 2.68 0.34 1.36 0 0 Z " fill="#626262" transform="translate(83,128)"/>
<path d="M0 0 C1.46726798 3.81489674 0.43336419 6.29011622 -1 10 C-1.99 10 -2.98 10 -4 10 C-3.38461538 3.47692308 -3.38461538 3.47692308 -1.4375 1.0625 C-0.7259375 0.5365625 -0.7259375 0.5365625 0 0 Z " fill="#E5E9F2" transform="translate(66,94)"/>
<path d="M0 0 C0.66 0.33 1.32 0.66 2 1 C0.37829621 2.00533667 -1.24747237 3.00411907 -2.875 4 C-4.23238281 4.8353125 -4.23238281 4.8353125 -5.6171875 5.6875 C-8 7 -8 7 -10 7 C-8.63016497 3.83884224 -8.0109362 3.0072908 -5 1 C-5 1.66 -5 2.32 -5 3 C-4.21625 2.484375 -3.4325 1.96875 -2.625 1.4375 C-1.75875 0.963125 -0.8925 0.48875 0 0 Z " fill="#4A4A4A" transform="translate(117,137)"/>
<path d="M0 0 C-2.64 2.97 -5.28 5.94 -8 9 C-8.33 8.34 -8.66 7.68 -9 7 C-8.01 5.68 -7.02 4.36 -6 3 C-6.33 2.34 -6.66 1.68 -7 1 C-3.375 -1.125 -3.375 -1.125 0 0 Z " fill="#3A3A3A" transform="translate(91,77)"/>
<path d="M0 0 C3 1 3 1 4.1875 2.875 C5 5 5 5 5 8 C2 7 2 7 0.8125 5.125 C0 3 0 3 0 0 Z " fill="#ECEEF3" transform="translate(64,122)"/>
<path d="M0 0 C-0.75 2.4375 -0.75 2.4375 -2 5 C-4.125 5.8125 -4.125 5.8125 -6 6 C-6 4.68 -6 3.36 -6 2 C-2.25 0 -2.25 0 0 0 Z " fill="#B2B4B8" transform="translate(85,76)"/>
<path d="M0 0 C0.99 0.33 1.98 0.66 3 1 C4.6875 4.5625 4.6875 4.5625 6 8 C5.01 8 4.02 8 3 8 C0 2.25 0 2.25 0 0 Z " fill="#EDEDED" transform="translate(81,129)"/>
<path d="M0 0 C0.33 0.99 0.66 1.98 1 3 C-1.31 4.65 -3.62 6.3 -6 8 C-6 5 -6 5 -4.6875 3.61328125 C-3.125 2.40885417 -1.5625 1.20442708 0 0 Z " fill="#EAEBEE" transform="translate(78,79)"/>
<path d="M0 0 C0.99 0.33 1.98 0.66 3 1 C1.68 3.31 0.36 5.62 -1 8 C-1.66 7.34 -2.32 6.68 -3 6 C-2.01 4.02 -1.02 2.04 0 0 Z " fill="#E9E9E9" transform="translate(112,131)"/>
<path d="M0 0 C1.9451 2.91765 2.45276317 4.62537285 3 8 C2.01 8 1.02 8 0 8 C-1.125 2.25 -1.125 2.25 0 0 Z " fill="#F6E2E4" transform="translate(131,94)"/>
<path d="M0 0 C1.48199902 0.44909061 2.96055236 0.90956564 4.4375 1.375 C5.26121094 1.63023438 6.08492188 1.88546875 6.93359375 2.1484375 C9 3 9 3 10 5 C3.375 4.25 3.375 4.25 0 2 C0 1.34 0 0.68 0 0 Z " fill="#393939" transform="translate(106,76)"/>
<path d="M0 0 C1.03348696 3.10046087 1.17755913 4.05610218 0 7 C-0.99 7.33 -1.98 7.66 -3 8 C-2.74438677 5.6568787 -2.40729228 3.32156597 -2 1 C-1.34 0.67 -0.68 0.34 0 0 Z " fill="#DDDDDD" transform="translate(118,116)"/>
<path d="M0 0 C0.33 0 0.66 0 1 0 C1.1875 3.375 1.1875 3.375 1 7 C0.01 7.66 -0.98 8.32 -2 9 C-1.125 1.125 -1.125 1.125 0 0 Z " fill="#EAEAEA" transform="translate(80,94)"/>
</svg>
