<?xml version="1.0" encoding="UTF-8"?>
<svg version="1.1" xmlns="http://www.w3.org/2000/svg" width="228" height="190">
<path d="M0 0 C0.33 -0.66 0.66 -1.32 1 -2 C5.29 -2 9.58 -2 14 -2 C14 4.6 14 11.2 14 18 C2.15234579 18.60447215 2.15234579 18.60447215 -0.98828125 16.95703125 C-2.37117216 15.68596441 -3.68794083 14.34406061 -5 13 C-9.96827369 10.68147228 -14.63193686 10.78527747 -20 11 C-20 11.66 -20 12.32 -20 13 C-19.31486328 13.18062988 -18.62972656 13.36125977 -17.92382812 13.54736328 C-14.777304 14.38817147 -11.63893773 15.25631723 -8.5 16.125 C-7.42234375 16.40859375 -6.3446875 16.6921875 -5.234375 16.984375 C2.76300664 19.22754302 9.75141697 22.18041483 14.5 29.3125 C16.62556486 34.53784694 16.9370746 38.73780904 15.375 44.17578125 C13.04423155 49.7009511 9.39361881 52.54548206 4 55 C-4.80853187 57.94242447 -15.58262602 56.53933154 -24 53 C-24.33 52.67 -24.66 52.34 -25 52 C-25.33 52.99 -25.66 53.98 -26 55 C-30.62 55 -35.24 55 -40 55 C-40 47.74 -40 40.48 -40 33 C-27.75231481 32.38143004 -27.75231481 32.38143004 -24.1875 35.3125 C-23.465625 36.199375 -22.74375 37.08625 -22 38 C-16.03943757 41.55688574 -9.74025763 41.33453485 -3 41 C-3.81834126 38.7971862 -3.81834126 38.7971862 -6.09790039 38.2097168 C-7.00531982 37.95875244 -7.91273926 37.70778809 -8.84765625 37.44921875 C-9.84603516 37.16240234 -10.84441406 36.87558594 -11.87304688 36.58007812 C-13.97095322 35.99297267 -16.06988976 35.40953388 -18.16992188 34.83007812 C-26.66150243 32.37985239 -33.89403822 29.55682344 -39 22 C-41.18409926 17.63180148 -40.77826464 11.43708014 -39.31640625 6.859375 C-36.4663488 1.41943133 -32.37034729 -1.07045204 -26.8125 -3.25 C-17.47267177 -5.08734326 -8.5836077 -4.29180385 0 0 Z " fill="#0053A5" transform="translate(115,89)"/>
<path d="M0 0 C7.31896318 6.01623511 9.12054072 11.41364337 10.1015625 20.609375 C10.64470325 30.84639735 8.81883134 39.10105674 2.2890625 47.234375 C-5.68797934 54.27197183 -15.55767548 54.83903978 -25.734375 54.5390625 C-34.50794795 53.8668241 -41.45593172 50.8165714 -47.828125 44.70703125 C-52.82410835 38.14591619 -54.61031228 29.328748 -53.7109375 21.234375 C-51.85640117 11.18785803 -49.22250251 4.40943197 -40.7109375 -1.765625 C-28.0009099 -8.00914733 -12.0586532 -7.8537626 0 0 Z M-28.7109375 12.234375 C-31.28675396 15.90269293 -31.00806387 19.86373945 -30.9609375 24.171875 C-30.96867187 24.87505859 -30.97640625 25.57824219 -30.984375 26.30273438 C-30.96910815 30.37516678 -30.61801251 33.61093249 -28.7109375 37.234375 C-25.54897228 39.60584892 -22.56715506 39.62786659 -18.7109375 39.234375 C-15.12092843 37.72994484 -15.12092843 37.72994484 -13.0859375 34.62109375 C-12.54573389 31.18292285 -12.52660156 27.76785175 -12.5234375 24.296875 C-12.50506836 23.24209961 -12.50506836 23.24209961 -12.48632812 22.16601562 C-12.47487096 18.09108519 -12.73963037 14.83827669 -14.7109375 11.234375 C-19.96456649 8.33105372 -23.92981256 8.71144083 -28.7109375 12.234375 Z " fill="#0053A5" transform="translate(184.7109375,90.765625)"/>
<path d="M0 0 C12.54 0 25.08 0 38 0 C38 4.95 38 9.9 38 15 C35.36 15 32.72 15 30 15 C29.67 24.24 29.34 33.48 29 43 C31.97 43 34.94 43 38 43 C38 47.95 38 52.9 38 58 C25.46 58 12.92 58 0 58 C0 53.05 0 48.1 0 43 C2.64 43 5.28 43 8 43 C8 33.76 8 24.52 8 15 C5.36 15 2.72 15 0 15 C0 10.05 0 5.1 0 0 Z " fill="#0054A5" transform="translate(35,86)"/>
<path d="M0 0 C1.32 0 2.64 0 4 0 C5.7109375 1.828125 5.7109375 1.828125 7.375 4.25 C10.26437169 8.2127452 12.74297685 10.61191384 17 13 C18.32 12.01 19.64 11.02 21 10 C20.566875 9.44570312 20.13375 8.89140625 19.6875 8.3203125 C19.130625 7.59585938 18.57375 6.87140625 18 6.125 C17.443125 5.40570313 16.88625 4.68640625 16.3125 3.9453125 C15 2 15 2 15 0 C17.1875 0.0625 17.1875 0.0625 20 1 C21.96065539 3.20441255 23.40665873 5.496178 25 8 C29.95 6.515 29.95 6.515 35 5 C34.505 2.525 34.505 2.525 34 0 C35.32 0 36.64 0 38 0 C38.495 1.98 38.495 1.98 39 4 C39.61875 3.835 40.2375 3.67 40.875 3.5 C45.25470729 2.79924683 49.57428989 2.92265749 54 3 C54 2.01 54 1.02 54 0 C54.99 0 55.98 0 57 0 C57 0.99 57 1.98 57 3 C57.65226562 2.98839844 58.30453125 2.97679687 58.9765625 2.96484375 C63.7761914 2.91529006 68.27784685 3.00586249 73 4 C73.33 2.68 73.66 1.36 74 0 C74.99 0 75.98 0 77 0 C77 1.65 77 3.3 77 5 C79.97 5.99 82.94 6.98 86 8 C86.58007812 7.13375 86.58007812 7.13375 87.171875 6.25 C87.69265625 5.5075 88.2134375 4.765 88.75 4 C89.51570313 2.88625 89.51570313 2.88625 90.296875 1.75 C90.85890625 1.1725 91.4209375 0.595 92 0 C93.32 0 94.64 0 96 0 C94.74243333 3.48249231 93.2268108 6.06465849 91 9 C91 9.66 91 10.32 91 11 C92.65 11.66 94.3 12.32 96 13 C97.44064765 11.58653438 98.87739015 10.16908789 100.3125 8.75 C101.11300781 7.96109375 101.91351563 7.1721875 102.73828125 6.359375 C104.68743651 4.32605933 106.37421406 2.29398922 108 0 C109.32 0.33 110.64 0.66 112 1 C101.11008128 16.50988424 86.38089786 27.15806478 67.51171875 30.64453125 C47.64421721 32.65559092 28.66342212 29.31987809 12.79296875 16.50390625 C7.81124858 12.12239333 3.43752966 7.68970427 0 2 C0 1.34 0 0.68 0 0 Z M58 6 C56.71387324 7.05978933 56.71387324 7.05978933 56.90234375 9.50390625 C56.91394531 10.51324219 56.92554688 11.52257812 56.9375 12.5625 C56.94652344 13.57441406 56.95554688 14.58632812 56.96484375 15.62890625 C56.97644531 16.41136719 56.98804688 17.19382813 57 18 C59.475 18.99 59.475 18.99 62 20 C63.15395711 18.58994275 64.29787466 17.17166542 65.4375 15.75 C66.07558594 14.96109375 66.71367188 14.1721875 67.37109375 13.359375 C68.90505305 11.13752508 69.57130246 9.63256518 70 7 C68.02145742 6.80602524 66.0421352 6.61998679 64.0625 6.4375 C62.96035156 6.33308594 61.85820313 6.22867188 60.72265625 6.12109375 C59.82417969 6.08113281 58.92570312 6.04117188 58 6 Z M41 7 C44.52171712 14.27687055 44.52171712 14.27687055 50 20 C51.32 19.67 52.64 19.34 54 19 C54 14.71 54 10.42 54 6 C49.43316563 6 45.46673196 6.28532289 41 7 Z M29 11 C30.49192754 14.78010855 32.58559193 16.49429699 35.875 18.8125 C36.73867187 19.43769531 37.60234375 20.06289062 38.4921875 20.70703125 C40.88025061 22.23915118 40.88025061 22.23915118 43.3203125 21.69921875 C43.87460938 21.46847656 44.42890625 21.23773438 45 21 C43.62437236 18.19826297 42.19418207 15.44859336 40.625 12.75 C40.22539063 12.04359375 39.82578125 11.3371875 39.4140625 10.609375 C38.94742188 10.07828125 38.48078125 9.5471875 38 9 C34.20442119 9 32.37097383 9.50178941 29 11 Z M73 9 C71.22405326 11.13597078 71.22405326 11.13597078 69.8125 13.875 C69.30332031 14.77992188 68.79414062 15.68484375 68.26953125 16.6171875 C67.49594252 18.06915405 66.73575083 19.52849835 66 21 C67.70985229 21.8611214 67.70985229 21.8611214 70 22 C72.83837963 20.46987028 72.83837963 20.46987028 75.625 18.25 C76.58664063 17.53328125 77.54828125 16.8165625 78.5390625 16.078125 C81.16134363 14.05896639 81.16134363 14.05896639 83 11 C79.38026598 9.68373308 76.90432869 9 73 9 Z M24 13 C22.68 14.32 21.36 15.64 20 17 C22.03553489 18.15669119 24.07872468 19.29991741 26.125 20.4375 C27.26195312 21.07558594 28.39890625 21.71367187 29.5703125 22.37109375 C32.82752964 23.9180864 35.43794061 24.61564405 39 25 C36.67068609 22.55869984 34.17000737 20.49785568 31.5 18.4375 C30.7265625 17.83808594 29.953125 17.23867187 29.15625 16.62109375 C27.47751548 15.35900167 25.74750886 14.16500591 24 13 Z M78.8359375 19.140625 C78.23007813 19.75421875 77.62421875 20.3678125 77 21 C76.175 21.804375 75.35 22.60875 74.5 23.4375 C74.005 23.953125 73.51 24.46875 73 25 C79.53666539 23.35243885 85.76616481 21.42975436 91 17 C91 16.34 91 15.68 91 15 C85.15622013 12.80858255 82.92771015 15.22130254 78.8359375 19.140625 Z M44 25 C44 25.66 44 26.32 44 27 C55.52963334 28.08098668 55.52963334 28.08098668 67 27 C67.33 26.34 67.66 25.68 68 25 C63.89003576 23.03842616 60.53353543 22.7304589 56 22.75 C54.80375 22.74484375 53.6075 22.7396875 52.375 22.734375 C49.14195026 22.98882799 46.90582541 23.61312878 44 25 Z " fill="#0054A5" transform="translate(57,149)"/>
<path d="M0 0 C5.64968194 4.65723567 10.70642575 9.87333421 15.19775391 15.65136719 C15.19775391 16.31136719 15.19775391 16.97136719 15.19775391 17.65136719 C10.92363739 17.16667356 9.24720276 16.11026919 6.57275391 12.77636719 C3.60326618 9.00485893 3.60326618 9.00485893 0.19775391 5.65136719 C-2.45690659 5.88180583 -2.45690659 5.88180583 -4.80224609 6.65136719 C-4.80224609 10.04730197 -4.28058661 10.717566 -2.30224609 13.33886719 C-1.83818359 13.96148437 -1.37412109 14.58410156 -0.89599609 15.22558594 C-0.53505859 15.69609375 -0.17412109 16.16660156 0.19775391 16.65136719 C-1.12224609 16.98136719 -2.44224609 17.31136719 -3.80224609 17.65136719 C-5.78224609 15.34136719 -7.76224609 13.03136719 -9.80224609 10.65136719 C-13.36004805 11.26127609 -16.48510499 12.22973529 -19.80224609 13.65136719 C-19.30724609 15.63136719 -19.30724609 15.63136719 -18.80224609 17.65136719 C-20.12224609 17.65136719 -21.44224609 17.65136719 -22.80224609 17.65136719 C-23.29724609 15.67136719 -23.29724609 15.67136719 -23.80224609 13.65136719 C-24.97787109 13.98136719 -26.15349609 14.31136719 -27.36474609 14.65136719 C-31.3034137 15.64832048 -34.75363738 15.82005922 -38.80224609 15.65136719 C-38.80224609 16.31136719 -38.80224609 16.97136719 -38.80224609 17.65136719 C-39.79224609 17.65136719 -40.78224609 17.65136719 -41.80224609 17.65136719 C-41.80224609 16.99136719 -41.80224609 16.33136719 -41.80224609 15.65136719 C-44.23931698 15.37558549 -46.67319658 15.13005227 -49.11474609 14.90136719 C-50.15018555 14.77955078 -50.15018555 14.77955078 -51.20654297 14.65527344 C-53.48438163 14.41158332 -53.48438163 14.41158332 -56.80224609 14.65136719 C-58.69798871 16.52418537 -58.69798871 16.52418537 -59.80224609 18.65136719 C-60.46224609 18.65136719 -61.12224609 18.65136719 -61.80224609 18.65136719 C-61.47224609 16.67136719 -61.14224609 14.69136719 -60.80224609 12.65136719 C-64.43224609 11.66136719 -68.06224609 10.67136719 -71.80224609 9.65136719 C-72.46224609 10.97136719 -73.12224609 12.29136719 -73.80224609 13.65136719 C-75.73974609 16.40136719 -75.73974609 16.40136719 -77.80224609 18.65136719 C-78.79224609 18.65136719 -79.78224609 18.65136719 -80.80224609 18.65136719 C-79.81975498 15.93062257 -78.92345206 13.80399693 -77.11474609 11.52636719 C-76.68162109 10.90761719 -76.24849609 10.28886719 -75.80224609 9.65136719 C-76.44945976 6.59569541 -76.44945976 6.59569541 -78.54052734 5.66308594 C-81.04826809 5.41413122 -81.04826809 5.41413122 -83.34521484 7.67089844 C-84.65425781 9.05341797 -84.65425781 9.05341797 -85.98974609 10.46386719 C-86.87017578 11.3778125 -87.75060547 12.29175781 -88.65771484 13.23339844 C-90.80863587 15.44839074 -90.80863587 15.44839074 -91.80224609 17.65136719 C-93.45224609 17.65136719 -95.10224609 17.65136719 -96.80224609 17.65136719 C-85.55112545 1.45857787 -72.2868369 -6.95644842 -53.48583984 -11.96582031 C-34.68897101 -14.6471786 -15.42137201 -11.53991587 0 0 Z M-52.80224609 -8.34863281 C-49.91317032 -5.02619568 -47.57050388 -4.48944354 -43.25146484 -4.14550781 C-37.26249818 -4.04385633 -33.10553603 -4.52021151 -27.80224609 -7.34863281 C-27.80224609 -7.67863281 -27.80224609 -8.00863281 -27.80224609 -8.34863281 C-32.02094471 -9.149169 -36.00993183 -9.48385261 -40.30224609 -9.47363281 C-41.38505859 -9.47621094 -42.46787109 -9.47878906 -43.58349609 -9.48144531 C-46.73614962 -9.35136009 -49.70522676 -8.93632022 -52.80224609 -8.34863281 Z M-62.61157227 -5.7277832 C-63.26617432 -5.38739014 -63.92077637 -5.04699707 -64.59521484 -4.69628906 C-65.30742188 -4.33212891 -66.01962891 -3.96796875 -66.75341797 -3.59277344 C-67.49140625 -3.20283203 -68.22939453 -2.81289063 -68.98974609 -2.41113281 C-69.73933594 -2.02505859 -70.48892578 -1.63898437 -71.26123047 -1.24121094 C-73.11285299 -0.28591524 -74.95817062 0.68158296 -76.80224609 1.65136719 C-75.41522533 3.19050932 -75.41522533 3.19050932 -73.80224609 4.65136719 C-69.70081748 4.58895414 -66.64797648 1.50694367 -63.55224609 -0.91113281 C-62.99794922 -1.33587891 -62.44365234 -1.760625 -61.87255859 -2.19824219 C-60.51135199 -3.24261622 -59.15618776 -4.29485746 -57.80224609 -5.34863281 C-60.60618498 -6.62050998 -60.60618498 -6.62050998 -62.61157227 -5.7277832 Z M-23.80224609 -6.34863281 C-22.14082096 -5.00877383 -20.47223259 -3.67780574 -18.80224609 -2.34863281 C-18.08939453 -1.7234375 -17.37654297 -1.09824219 -16.64208984 -0.45410156 C-15.86994141 0.19945312 -15.09779297 0.85300781 -14.30224609 1.52636719 C-13.57005859 2.16316406 -12.83787109 2.79996094 -12.08349609 3.45605469 C-9.78714223 4.99462719 -9.78714223 4.99462719 -7.02099609 3.84667969 C-6.28880859 3.45222656 -5.55662109 3.05777344 -4.80224609 2.65136719 C-7.83416173 -0.76775695 -10.63943285 -2.40222452 -14.86474609 -4.09863281 C-15.90759766 -4.52660156 -16.95044922 -4.95457031 -18.02490234 -5.39550781 C-20.7857826 -6.51093101 -20.7857826 -6.51093101 -23.80224609 -6.34863281 Z M-66.36474609 5.02636719 C-66.83912109 5.56261719 -67.31349609 6.09886719 -67.80224609 6.65136719 C-64.83224609 7.64136719 -61.86224609 8.63136719 -58.80224609 9.65136719 C-56.16224609 6.02136719 -53.52224609 2.39136719 -50.80224609 -1.34863281 C-51.13224609 -2.00863281 -51.46224609 -2.66863281 -51.80224609 -3.34863281 C-57.46892688 -3.34863281 -62.33796912 1.29423243 -66.36474609 5.02636719 Z M-29.80224609 -3.34863281 C-28.15095782 1.45511489 -25.53836298 5.4031857 -22.80224609 9.65136719 C-19.83224609 8.66136719 -16.86224609 7.67136719 -13.80224609 6.65136719 C-16.94492323 2.06829636 -20.76921607 -1.03855067 -25.80224609 -3.34863281 C-27.12224609 -3.34863281 -28.44224609 -3.34863281 -29.80224609 -3.34863281 Z M-46.80224609 -1.34863281 C-51.76937206 4.04000367 -51.76937206 4.04000367 -54.80224609 10.65136719 C-50.95079566 12.5770924 -46.00181357 11.70019937 -41.80224609 11.65136719 C-41.80224609 7.69136719 -41.80224609 3.73136719 -41.80224609 -0.34863281 C-43.45224609 -0.67863281 -45.10224609 -1.00863281 -46.80224609 -1.34863281 Z M-38.80224609 -0.34863281 C-38.80224609 3.61136719 -38.80224609 7.57136719 -38.80224609 11.65136719 C-37.19349609 11.67199219 -35.58474609 11.69261719 -33.92724609 11.71386719 C-32.56986328 11.73126953 -32.56986328 11.73126953 -31.18505859 11.74902344 C-28.78538759 11.81385976 -28.78538759 11.81385976 -26.80224609 10.65136719 C-28.27814282 6.22367702 -30.53294451 2.01768069 -33.80224609 -1.34863281 C-36.72771049 -1.57223961 -36.72771049 -1.57223961 -38.80224609 -0.34863281 Z " fill="#0053A4" transform="translate(152.80224609375,62.3486328125)"/>
<path d="M0 0 C4.39629018 0.23763731 6.77258856 2.14143559 10 5 C8.375 10.75 8.375 10.75 5 13 C4.67 13.99 4.34 14.98 4 16 C-0.455 14.02 -0.455 14.02 -5 12 C-5 13.32 -5 14.64 -5 16 C-4.030625 16.268125 -3.06125 16.53625 -2.0625 16.8125 C-1.051875 17.204375 -0.04125 17.59625 1 18 C1.33 18.99 1.66 19.98 2 21 C-2.12751449 20.39301257 -5.3321148 18.96189209 -9 17 C-8.64301497 14.35831079 -8.247692 12.39109264 -6.8125 10.125 C-5 9 -5 9 -1.8125 9.3125 C-0.884375 9.539375 0.04375 9.76625 1 10 C1 8.02 1 6.04 1 4 C0.01 5.485 0.01 5.485 -1 7 C-1.66 7 -2.32 7 -3 7 C-2.25 2.25 -2.25 2.25 0 0 Z M4 6 C4 6.99 4 7.98 4 9 C4.66 9 5.32 9 6 9 C6.33 8.01 6.66 7.02 7 6 C6.01 6 5.02 6 4 6 Z " fill="#0052A3" transform="translate(29,56)"/>
<path d="M0 0 C1.98 0 3.96 0 6 0 C7.99785435 4.1205746 8.17835515 7.45194365 8 12 C7.41992188 11.97679687 6.83984375 11.95359375 6.2421875 11.9296875 C1.32291389 11.81604091 -2.32346803 12.32981001 -7 14 C-7.99 13.67 -8.98 13.34 -10 13 C-9.45276317 9.62537285 -8.9451 7.91765 -7 5 C-8.32 5 -9.64 5 -11 5 C-11 4.01 -11 3.02 -11 2 C-8.36 1.67 -5.72 1.34 -3 1 C-3.50712033 4.71888239 -4.11608215 7.73454239 -6 11 C-4.35 10.67 -2.7 10.34 -1 10 C-0.67 8.35 -0.34 6.7 0 5 C0.99 4.67 1.98 4.34 3 4 C1.68 3.67 0.36 3.34 -1 3 C-0.67 2.01 -0.34 1.02 0 0 Z M2 7 C2.33 7.99 2.66 8.98 3 10 C3.66 9.67 4.32 9.34 5 9 C5 8.34 5 7.68 5 7 C4.01 7 3.02 7 2 7 Z " fill="#0053A6" transform="translate(100,14)"/>
<path d="M0 0 C2.9719385 1.12451727 5.33440687 2.22293791 8 4 C8 2.68 8 1.36 8 0 C8.99 0 9.98 0 11 0 C11 2.64 11 5.28 11 8 C6.73173127 8 6.06117568 7.62386487 3 5 C2.67 6.32 2.34 7.64 2 9 C3.32 9.33 4.64 9.66 6 10 C6 11.98 6 13.96 6 16 C6.66 16 7.32 16 8 16 C8 14.35 8 12.7 8 11 C8.99 11 9.98 11 11 11 C10.67 13.31 10.34 15.62 10 18 C6.01803543 19.05404945 3.01804691 18.84098656 -1 18 C-1 15 -1 12 -1 9 C-1.01160156 8.36964844 -1.02320313 7.73929687 -1.03515625 7.08984375 C-1.06094341 5.0600258 -1.03221787 3.02972606 -1 1 C-0.67 0.67 -0.34 0.34 0 0 Z M2 12 C2 13.32 2 14.64 2 16 C2.66 16 3.32 16 4 16 C4 14.68 4 13.36 4 12 C3.34 12 2.68 12 2 12 Z " fill="#0055A5" transform="translate(204,109)"/>
<path d="M0 0 C1.65 0 3.3 0 5 0 C5.93423645 3.01031744 6.04449911 3.86650268 5 7 C3.66923011 7.34342449 2.33568021 7.67619874 1 8 C0.01 9.485 0.01 9.485 -1 11 C-0.236875 10.814375 0.52625 10.62875 1.3125 10.4375 C4 10 4 10 7 11 C6.67 9.68 6.34 8.36 6 7 C9.875 8.875 9.875 8.875 11 10 C11.4375 12.25 11.4375 12.25 11 15 C9.15533163 16.98449746 7.20759137 18.39029796 5 20 C2.53199953 18.84826645 0.95216435 17.95216435 -1 16 C-1 15.01 -1 14.02 -1 13 C-2.32 12.34 -3.64 11.68 -5 11 C-3.78461236 7.54081981 -2.55967074 5.55967074 0 3 C0 2.01 0 1.02 0 0 Z M3 13 C3 13.99 3 14.98 3 16 C3.66 16 4.32 16 5 16 C4.67 15.01 4.34 14.02 4 13 C3.67 13 3.34 13 3 13 Z " fill="#0055A5" transform="translate(182,42)"/>
<path d="M0 0 C0.99 0.33 1.98 0.66 3 1 C3.33 3.31 3.66 5.62 4 8 C5.32 8.33 6.64 8.66 8 9 C8.75 10.75 8.75 10.75 9 13 C7.08080766 15.65734324 5.70054268 16.78444841 2.5625 17.75 C-1.15971356 16.66057164 -2.20925036 14.39834936 -4.04296875 11.09765625 C-5.26191829 8.42591787 -5.79705565 6.86940033 -5 4 C-2.6875 1.625 -2.6875 1.625 0 0 Z M-1 4 C-1.99 5.485 -1.99 5.485 -3 7 C-1.68 7 -0.36 7 1 7 C1 6.01 1 5.02 1 4 C0.34 4 -0.32 4 -1 4 Z M2 12 C2.33 12.99 2.66 13.98 3 15 C3.99 14.01 4.98 13.02 6 12 C4.68 12 3.36 12 2 12 Z " fill="#0052A5" transform="translate(60,27)"/>
<path d="M0 0 C2.46396688 1.67549748 4.3240933 3.53641716 6 6 C6.58762379 9.32986813 6.55829043 10.98194099 4.9375 13.9375 C1.70517937 15.71006293 -0.54760518 14.96909328 -4 14 C-6.71447928 11.35695438 -8.75054511 8.86655074 -9 5 C-7.27345461 0.35160857 -4.88959842 -0.77789066 0 0 Z M-4 3 C-4.66 4.32 -5.32 5.64 -6 7 C-3.77122275 9.64573501 -3.77122275 9.64573501 -1 12 C1.27523089 11.95502158 1.27523089 11.95502158 3 11 C2.62952882 8.25851328 2.31412056 6.41406801 0.625 4.1875 C-1.06825302 2.70499171 -1.06825302 2.70499171 -4 3 Z " fill="#0053A1" transform="translate(46,37)"/>
<path d="M0 0 C5.46864457 1.01591421 10.76390013 2.07091057 16 4 C15.34 6.64 14.68 9.28 14 12 C10.04 12 6.08 12 2 12 C2 11.34 2 10.68 2 10 C1.34 10 0.68 10 0 10 C0 9.01 0 8.02 0 7 C0.99 7 1.98 7 3 7 C3 6.34 3 5.68 3 5 C3.99 5 4.98 5 6 5 C6 5.66 6 6.32 6 7 C7.98 7.66 9.96 8.32 12 9 C12 8.34 12 7.68 12 7 C10.56570999 6.32645501 9.12742943 5.66140299 7.6875 5 C6.88699219 4.62875 6.08648437 4.2575 5.26171875 3.875 C2.93786041 2.81959333 2.93786041 2.81959333 0 3 C0 2.01 0 1.02 0 0 Z " fill="#0052A3" transform="translate(10,84)"/>
<path d="M0 0 C0.66 0 1.32 0 2 0 C2 0.99 2 1.98 2 3 C2.66 3 3.32 3 4 3 C4 3.99 4 4.98 4 6 C3.01 6 2.02 6 1 6 C1 6.66 1 7.32 1 8 C0.34 8 -0.32 8 -1 8 C-1 7.01 -1 6.02 -1 5 C-3.31 4.67 -5.62 4.34 -8 4 C-8 5.32 -8 6.64 -8 8 C-6.783125 8.12375 -5.56625 8.2475 -4.3125 8.375 C-0.93520941 8.78891306 1.89756695 9.54573451 5 11 C4.67 11.66 4.34 12.32 4 13 C2.06201479 12.69052329 0.12462574 12.37731166 -1.8125 12.0625 C-2.89144531 11.88847656 -3.97039062 11.71445313 -5.08203125 11.53515625 C-8 11 -8 11 -11 10 C-10.67 7.36 -10.34 4.72 -10 2 C-6.7 2 -3.4 2 0 2 C0 1.34 0 0.68 0 0 Z " fill="#0056A4" transform="translate(212,128)"/>
<path d="M0 0 C1.6875 1.5 1.6875 1.5 3 3 C3.99 3 4.98 3 6 3 C6 3.99 6 4.98 6 6 C-0.435 8.97 -0.435 8.97 -7 12 C-10 8 -10 8 -10.4375 5.4375 C-10 3 -10 3 -8.375 1.1875 C-5.3347031 -0.33264845 -3.35958291 -0.42888292 0 0 Z M-7 4 C-7 5.32 -7 6.64 -7 8 C-5.02 7.34 -3.04 6.68 -1 6 C-1 5.01 -1 4.02 -1 3 C-4.7763932 2.7018576 -4.7763932 2.7018576 -7 4 Z " fill="#0052A6" transform="translate(203,68)"/>
<path d="M0 0 C0.2475 0.639375 0.495 1.27875 0.75 1.9375 C1.81562433 4.18741541 1.81562433 4.18741541 4.125 4.75 C4.74375 4.8325 5.3625 4.915 6 5 C5.67 5.99 5.34 6.98 5 8 C0.38 8.66 -4.24 9.32 -9 10 C-11 4 -11 4 -10.125 1.625 C-6.82252679 -0.90042069 -4.0850154 -0.26786986 0 0 Z M-6.1875 2.9375 C-6.785625 3.288125 -7.38375 3.63875 -8 4 C-8 4.99 -8 5.98 -8 7 C-4.535 6.505 -4.535 6.505 -1 6 C-1 5.01 -1 4.02 -1 3 C-3.89186786 1.66695302 -3.89186786 1.66695302 -6.1875 2.9375 Z " fill="#0052A6" transform="translate(212,94)"/>
<path d="M0 0 C3.14739518 0.27368654 5.3360073 0.49093893 7.875 2.4375 C9 4 9 4 9 6 C8.401875 5.835 7.80375 5.67 7.1875 5.5 C4.88655664 4.8885876 4.88655664 4.8885876 2 5 C2.20625 6.27875 2.4125 7.5575 2.625 8.875 C2.9765625 11.0546875 2.9765625 11.0546875 3 13 C2.34 13.66 1.68 14.32 1 15 C-1.9375 14.875 -1.9375 14.875 -5 14 C-6.875 11.9375 -6.875 11.9375 -8 10 C-4.23312136 10 -3.08809695 10.23537317 0 12 C-0.165 11.484375 -0.33 10.96875 -0.5 10.4375 C-1.1542464 7.24804881 -1.12249588 4.24614095 -1 1 C-0.67 0.67 -0.34 0.34 0 0 Z " fill="#0053A4" transform="translate(176,34)"/>
<path d="M0 0 C1.5 1.1875 1.5 1.1875 3 3 C3.1875 5.6875 3.1875 5.6875 3 8 C1.54618103 8.69699552 0.08677047 9.38233866 -1.375 10.0625 C-2.18710938 10.44535156 -2.99921875 10.82820313 -3.8359375 11.22265625 C-4.55007812 11.47917969 -5.26421875 11.73570313 -6 12 C-6.66 11.67 -7.32 11.34 -8 11 C-8.59355614 8.35139573 -8.74209269 5.70802678 -9 3 C-6.1875 2.3125 -6.1875 2.3125 -3 2 C-1.125 3.4375 -1.125 3.4375 0 5 C-0.2784375 4.0409375 -0.2784375 4.0409375 -0.5625 3.0625 C-0.706875 2.381875 -0.85125 1.70125 -1 1 C-0.67 0.67 -0.34 0.34 0 0 Z M-7 5 C-6.67 5.99 -6.34 6.98 -6 8 C-5.01 7.67 -4.02 7.34 -3 7 C-3.33 6.34 -3.66 5.68 -4 5 C-4.99 5 -5.98 5 -7 5 Z " fill="#0051A2" transform="translate(206,77)"/>
<path d="M0 0 C0.66 1.98 1.32 3.96 2 6 C2 4.02 2 2.04 2 0 C2.99 0 3.98 0 5 0 C5.29296875 6.0546875 5.29296875 6.0546875 5 8 C1.52957297 10.31361802 0.08165827 10.51020728 -4 10 C-6 8.3125 -6 8.3125 -7 6 C-6.3125 3.3125 -6.3125 3.3125 -5 1 C-3 0 -3 0 0 0 Z M-3 3 C-3.33 4.32 -3.66 5.64 -4 7 C-3.34 7 -2.68 7 -2 7 C-2.33 5.68 -2.66 4.36 -3 3 Z " fill="#0055A6" transform="translate(17,125)"/>
<path d="M0 0 C3.08640553 4.11520737 3.08640553 4.11520737 2.8046875 7 C1.79737031 9.50362331 0.67680309 10.28427434 -1.5625 11.75 C-2.20316406 12.17796875 -2.84382812 12.6059375 -3.50390625 13.046875 C-4.24447266 13.51867187 -4.24447266 13.51867187 -5 14 C-5.66 13.67 -6.32 13.34 -7 13 C-5.74523029 9.23569087 -4.30577382 8.94955892 -1 7 C-1 6.34 -1 5.68 -1 5 C-1.7425 5.309375 -2.485 5.61875 -3.25 5.9375 C-5.50692176 6.8094925 -7.6450153 7.47667007 -10 8 C-10 7.01 -10 6.02 -10 5 C-8.3203125 3.61328125 -8.3203125 3.61328125 -6.125 2.3125 C-5.40570313 1.87550781 -4.68640625 1.43851563 -3.9453125 0.98828125 C-2 0 -2 0 0 0 Z " fill="#0057A9" transform="translate(197,57)"/>
<path d="M0 0 C1.32 2.97 2.64 5.94 4 9 C-0.43076923 12.07692308 -0.43076923 12.07692308 -3.3125 11.6875 C-3.869375 11.460625 -4.42625 11.23375 -5 11 C-5.33 9.35 -5.66 7.7 -6 6 C-4.68 5.34 -3.36 4.68 -2 4 C-2 3.34 -2 2.68 -2 2 C-3.98 2.66 -5.96 3.32 -8 4 C-8 3.01 -8 2.02 -8 1 C-5.29120665 -0.35439668 -2.99066732 -0.06501451 0 0 Z M-2 6 C-2.33 6.99 -2.66 7.98 -3 9 C-2.01 8.67 -1.02 8.34 0 8 C0 7.34 0 6.68 0 6 C-0.66 6 -1.32 6 -2 6 Z " fill="#0051A6" transform="translate(72,24)"/>
<path d="M0 0 C3.38879801 0.3388798 4.66384629 1.04066581 7.125 3.3125 C6.25 9.1875 6.25 9.1875 5.125 10.3125 C3.59980724 10.22312197 2.07818071 10.06712854 0.5625 9.875 C-0.26378906 9.77316406 -1.09007812 9.67132813 -1.94140625 9.56640625 C-2.57949219 9.48261719 -3.21757812 9.39882812 -3.875 9.3125 C-4.5 5.9375 -4.5 5.9375 -4.875 2.3125 C-2.875 0.3125 -2.875 0.3125 0 0 Z M-1.875 3.3125 C-1.875 4.3025 -1.875 5.2925 -1.875 6.3125 C-0.80854885 7.60883621 -0.80854885 7.60883621 1.6875 7.375 C2.491875 7.354375 3.29625 7.33375 4.125 7.3125 C3.795 5.9925 3.465 4.6725 3.125 3.3125 C1.475 3.3125 -0.175 3.3125 -1.875 3.3125 Z " fill="#0053A4" transform="translate(203.875,139.6875)"/>
<path d="M0 0 C2.31 0.33 4.62 0.66 7 1 C8.25677888 3.97056826 7.9757649 5.06866612 6.875 8.1875 C5 11 5 11 2.5 12 C0 12 0 12 -3 10 C-3.45892595 6.48156769 -3.41140736 4.65139498 -1.5 1.625 C-1.005 1.08875 -0.51 0.5525 0 0 Z M2 2 C0.39092892 4.37612865 0.39092892 4.37612865 -1 7 C-0.67 7.66 -0.34 8.32 0 9 C0.99 9 1.98 9 3 9 C3.66 7.02 4.32 5.04 5 3 C4.01 2.67 3.02 2.34 2 2 Z " fill="#0054A6" transform="translate(155,25)"/>
<path d="M0 0 C4.12751449 0.60698743 7.3321148 2.03810791 11 4 C10.34 6.31 9.68 8.62 9 11 C4.04230204 11.29162929 0.97193147 11.12940055 -3 8 C-3 7.34 -3 6.68 -3 6 C0.12290635 6.48578543 2.99580359 6.9986012 6 8 C6.33 7.01 6.66 6.02 7 5 C4.69 4.34 2.38 3.68 0 3 C0 2.01 0 1.02 0 0 Z " fill="#0053A2" transform="translate(197,149)"/>
<path d="M0 0 C1.37478516 0.01740234 1.37478516 0.01740234 2.77734375 0.03515625 C3.69644531 0.04417969 4.61554687 0.05320312 5.5625 0.0625 C6.27277344 0.07410156 6.98304687 0.08570312 7.71484375 0.09765625 C8.97025932 3.86390296 8.08546333 5.46954559 6.71484375 9.09765625 C5.06484375 9.09765625 3.41484375 9.09765625 1.71484375 9.09765625 C1.05484375 7.11765625 0.39484375 5.13765625 -0.28515625 3.09765625 C-0.61515625 4.41765625 -0.94515625 5.73765625 -1.28515625 7.09765625 C-2.27515625 7.09765625 -3.26515625 7.09765625 -4.28515625 7.09765625 C-3.24873605 0.13883487 -3.24873605 0.13883487 0 0 Z M2.71484375 3.09765625 C2.71484375 4.08765625 2.71484375 5.07765625 2.71484375 6.09765625 C3.70484375 6.09765625 4.69484375 6.09765625 5.71484375 6.09765625 C5.71484375 5.10765625 5.71484375 4.11765625 5.71484375 3.09765625 C4.72484375 3.09765625 3.73484375 3.09765625 2.71484375 3.09765625 Z " fill="#0052A7" transform="translate(14.28515625,97.90234375)"/>
<path d="M0 0 C6.44444444 1.44444444 6.44444444 1.44444444 8 3 C8.1875 5.9375 8.1875 5.9375 8 9 C7.34 9.66 6.68 10.32 6 11 C2.57444675 10.81315164 -0.05928088 10.58794945 -3 8.75 C-4 7 -4 7 -3.875 4.4375 C-3 2 -3 2 0 0 Z M0 3 C0 4.32 0 5.64 0 7 C1.65 7.33 3.3 7.66 5 8 C5 6.68 5 5.36 5 4 C3.35 3.67 1.7 3.34 0 3 Z " fill="#0053A5" transform="translate(20,75)"/>
<path d="M0 0 C6.875 0.875 6.875 0.875 8 2 C8.14475933 5.8361222 8.17661508 9.32307787 7 13 C6.01 13 5.02 13 4 13 C4.33 9.7 4.66 6.4 5 3 C4.01 3 3.02 3 2 3 C1.34 5.97 0.68 8.94 0 12 C-0.99 11.67 -1.98 11.34 -3 11 C-2.01 7.37 -1.02 3.74 0 0 Z " fill="#0053A3" transform="translate(133,16)"/>
<path d="M0 0 C2.99388589 1.59673914 3.66873586 3.92402645 4.875 7 C4.875 8.32 4.875 9.64 4.875 11 C3.885 10.67 2.895 10.34 1.875 10 C0.6875 6.9375 0.6875 6.9375 -0.125 4 C-0.785 4 -1.445 4 -2.125 4 C-1.795 6.97 -1.465 9.94 -1.125 13 C-2.115 12.67 -3.105 12.34 -4.125 12 C-5.07421875 9.71484375 -5.07421875 9.71484375 -5.8125 6.9375 C-6.06386719 6.01839844 -6.31523438 5.09929688 -6.57421875 4.15234375 C-6.75597656 3.44207031 -6.93773438 2.73179688 -7.125 2 C-4.67142891 0.84136921 -2.73464304 0 0 0 Z " fill="#0051A6" transform="translate(80.125,19)"/>
<path d="M0 0 C0 0.99 0 1.98 0 3 C-3.465 4.485 -3.465 4.485 -7 6 C-7 6.66 -7 7.32 -7 8 C-2.545 7.505 -2.545 7.505 2 7 C1.67 7.99 1.34 8.98 1 10 C-2.6037898 11.52160014 -5.05220686 12 -9 12 C-10.44730888 9.70133296 -10.99170327 8.17008298 -11.125 5.4375 C-9.76014588 2.48031608 -9.01629623 2.32398784 -6.0625 1.1875 C-3.90821701 0.47983172 -2.26860179 0 0 0 Z " fill="#0055A7" transform="translate(25,141)"/>
<path d="M0 0 C2.9375 0.75 2.9375 0.75 6 2 C7.53431302 4.68504779 6.96683897 6.15374661 6.3125 9.1875 C5 12 5 12 3.125 13 C0.57952098 13 -0.84377121 12.30913891 -3 11 C-3.36923077 3.49230769 -3.36923077 3.49230769 -1.5 1 C-1.005 0.67 -0.51 0.34 0 0 Z M1 3 C-1.30671915 5.71549154 -1.30671915 5.71549154 -0.625 8.1875 C-0.41875 8.785625 -0.2125 9.38375 0 10 C0.99 10 1.98 10 3 10 C3.33 8.02 3.66 6.04 4 4 C3.01 3.67 2.02 3.34 1 3 Z " fill="#0054A0" transform="translate(124,14)"/>
<path d="M0 0 C1.51400391 0.01740234 1.51400391 0.01740234 3.05859375 0.03515625 C4.07050781 0.04417969 5.08242188 0.05320312 6.125 0.0625 C7.29869141 0.07990234 7.29869141 0.07990234 8.49609375 0.09765625 C8.16609375 1.08765625 7.83609375 2.07765625 7.49609375 3.09765625 C4.52609375 3.09765625 1.55609375 3.09765625 -1.50390625 3.09765625 C-1.50390625 4.08765625 -1.50390625 5.07765625 -1.50390625 6.09765625 C1.46609375 6.42765625 4.43609375 6.75765625 7.49609375 7.09765625 C7.49609375 7.75765625 7.49609375 8.41765625 7.49609375 9.09765625 C3.86609375 9.09765625 0.23609375 9.09765625 -3.50390625 9.09765625 C-3.6015625 2.9453125 -3.6015625 2.9453125 -3.50390625 1.09765625 C-2.50390625 0.09765625 -2.50390625 0.09765625 0 0 Z " fill="#0052A5" transform="translate(13.50390625,107.90234375)"/>
<path d="M0 0 C1.65 0.33 3.3 0.66 5 1 C5 1.66 5 2.32 5 3 C4.01 3.495 4.01 3.495 3 4 C3 4.99 3 5.98 3 7 C2.01 7 1.02 7 0 7 C-0.66 9.31 -1.32 11.62 -2 14 C-2.99 14 -3.98 14 -5 14 C-4.7834375 13.07767578 -4.7834375 13.07767578 -4.5625 12.13671875 C-4.376875 11.32847656 -4.19125 10.52023438 -4 9.6875 C-3.814375 8.88699219 -3.62875 8.08648437 -3.4375 7.26171875 C-2.90504177 4.89304062 -2.90504177 4.89304062 -3 2 C-2.34 2 -1.68 2 -1 2 C-0.67 1.34 -0.34 0.68 0 0 Z " fill="#0052A5" transform="translate(151,18)"/>
<path d="M0 0 C0.99 0.33 1.98 0.66 3 1 C3 2.32 3 3.64 3 5 C0.03 5.66 -2.94 6.32 -6 7 C-6 7.99 -6 8.98 -6 10 C-6.66 10 -7.32 10 -8 10 C-8 9.34 -8 8.68 -8 8 C-8.99 8 -9.98 8 -11 8 C-11 7.01 -11 6.02 -11 5 C-10.34 5 -9.68 5 -9 5 C-9 4.01 -9 3.02 -9 2 C-8.34 2 -7.68 2 -7 2 C-7 2.66 -7 3.32 -7 4 C-3.535 3.505 -3.535 3.505 0 3 C0 2.01 0 1.02 0 0 Z " fill="#0053A4" transform="translate(21,134)"/>
<path d="M0 0 C0.99 0 1.98 0 3 0 C3 0.99 3 1.98 3 3 C3.66 3 4.32 3 5 3 C5 3.66 5 4.32 5 5 C4.34 5 3.68 5 3 5 C3 7.31 3 9.62 3 12 C3.66 12 4.32 12 5 12 C5 12.99 5 13.98 5 15 C3.35 14.67 1.7 14.34 0 14 C0 11.03 0 8.06 0 5 C-0.66 5 -1.32 5 -2 5 C-2 4.34 -2 3.68 -2 3 C-1.34 3 -0.68 3 0 3 C0 2.01 0 1.02 0 0 Z " fill="#0053A6" transform="translate(110,11)"/>
<path d="M0 0 C-1 3 -1 3 -3.3984375 4.421875 C-4.38070313 4.86015625 -5.36296875 5.2984375 -6.375 5.75 C-7.35210938 6.19859375 -8.32921875 6.6471875 -9.3359375 7.109375 C-12 8 -12 8 -15 7 C-15 6.34 -15 5.68 -15 5 C-13.25447527 4.15733289 -11.5033792 3.32619962 -9.75 2.5 C-8.77546875 2.0359375 -7.8009375 1.571875 -6.796875 1.09375 C-4 0 -4 0 0 0 Z " fill="#0056A8" transform="translate(29,152)"/>
<path d="M0 0 C0.66 0 1.32 0 2 0 C2.50806447 1.72681437 3.00610467 3.45657979 3.5 5.1875 C3.7784375 6.15042969 4.056875 7.11335938 4.34375 8.10546875 C4.96677608 10.85345876 5.12302812 13.19598416 5 16 C4.01 15.67 3.02 15.34 2 15 C1.015625 12.63671875 1.015625 12.63671875 0.25 9.6875 C-0.01296875 8.72199219 -0.2759375 7.75648437 -0.546875 6.76171875 C-0.98967528 4.0629274 -0.89543883 2.54716045 0 0 Z " fill="#0055A8" transform="translate(84,13)"/>
<path d="M0 0 C5.28139679 1.48539285 9.28054101 5.08672304 13 9 C13 9.66 13 10.32 13 11 C9.37159027 10.38416899 7.13879117 8.86239708 4.25 6.625 C3.45078125 6.01914062 2.6515625 5.41328125 1.828125 4.7890625 C0.92320313 3.90347656 0.92320313 3.90347656 0 3 C0 2.01 0 1.02 0 0 Z " fill="#0055A3" transform="translate(29,49)"/>
<path d="M0 0 C0.33 1.98 0.66 3.96 1 6 C-3.37934119 5.48041715 -7.68803391 4.94324258 -12 4 C-8.74358283 0.74358283 -4.52301031 0 0 0 Z " fill="#0051A1" transform="translate(211,87)"/>
<path d="M0 0 C0.99 0.33 1.98 0.66 3 1 C2.67 1.99 2.34 2.98 2 4 C3.28511874 6.03131672 4.61876037 8.03277992 6 10 C6 10.66 6 11.32 6 12 C3.29561004 11.63594751 2.25593617 11.31857318 0.515625 9.15234375 C-0.11085937 8.05599609 -0.11085937 8.05599609 -0.75 6.9375 C-1.17796875 6.20402344 -1.6059375 5.47054687 -2.046875 4.71484375 C-2.36140625 4.14894531 -2.6759375 3.58304688 -3 3 C-2.01 2.67 -1.02 2.34 0 2 C0 1.34 0 0.68 0 0 Z " fill="#0052A6" transform="translate(51,33)"/>
<path d="M0 0 C0.66 0 1.32 0 2 0 C2 0.99 2 1.98 2 3 C5.3 3 8.6 3 12 3 C11.67 3.99 11.34 4.98 11 6 C7.37 6 3.74 6 0 6 C0 4.02 0 2.04 0 0 Z " fill="#0052A5" transform="translate(10,118)"/>
<path d="M0 0 C2.475 0.99 2.475 0.99 5 2 C4.67 2.99 4.34 3.98 4 5 C3.01 5 2.02 5 1 5 C-0.36176581 6.98075027 -1.69593116 8.98079663 -3 11 C-3.66 11 -4.32 11 -5 11 C-4.46884894 6.48521602 -2.63379708 3.65333143 0 0 Z " fill="#0053A4" transform="translate(165,29)"/>
<path d="M0 0 C0 0.99 0 1.98 0 3 C-3.67410785 4.17571451 -7.16929183 4.07366746 -11 4 C-11 3.01 -11 2.02 -11 1 C-3.375 0 -3.375 0 0 0 Z " fill="#0054A4" transform="translate(214,104)"/>
<path d="M0 0 C0.66 0 1.32 0 2 0 C2 3.96 2 7.92 2 12 C1.01 11.67 0.02 11.34 -1 11 C-0.67 7.37 -0.34 3.74 0 0 Z " fill="#0053A5" transform="translate(117,14)"/>
<path d="M0 0 C0.99 0 1.98 0 3 0 C3 0.99 3 1.98 3 3 C2.01 3 1.02 3 0 3 C0 2.01 0 1.02 0 0 Z " fill="#0053A4" transform="translate(215,104)"/>
<path d="M0 0 C0.99 0 1.98 0 3 0 C3 0.99 3 1.98 3 3 C2.01 3 1.02 3 0 3 C0 2.01 0 1.02 0 0 Z " fill="#0054A3" transform="translate(117,10)"/>
</svg>
