<?xml version="1.0" encoding="UTF-8"?>
<svg version="1.1" xmlns="http://www.w3.org/2000/svg" width="156" height="190">
<path d="M0 0 C44.88 0 89.76 0 136 0 C136.0825 17.180625 136.165 34.36125 136.25 52.0625 C136.28641602 57.45988525 136.32283203 62.85727051 136.36035156 68.41821289 C136.37841797 75.07897949 136.37841797 75.07897949 136.3817749 78.2106781 C136.38786227 80.36838596 136.40181468 82.52608139 136.42230225 84.68370056 C136.53721355 97.43821952 136.31842461 108.89628538 132 121 C131.62208313 122.08132706 131.24416626 123.16265411 130.85479736 124.27674866 C124.28858718 142.22001288 110.00305862 157.51977778 93 166 C89.70429431 167.2841578 86.4567362 168.26361782 83 169 C82.28972656 169.18175781 81.57945313 169.36351562 80.84765625 169.55078125 C62.83345488 172.39252769 46.62421408 169.38357251 31.4765625 159.32421875 C19.71441069 150.66029935 10.50197088 137.4648136 5 124 C4.58505783 122.99697845 4.17011566 121.99395691 3.74259949 120.96054077 C-0.85034714 108.30630488 -0.64389762 96.14837312 -0.48828125 82.8125 C-0.48091126 80.68425147 -0.47582184 78.55599382 -0.47302246 76.42773438 C-0.44702303 68.61834955 -0.37721743 60.80915994 -0.3125 53 C-0.209375 35.51 -0.10625 18.02 0 0 Z " fill="#083EAA" transform="translate(10,10)"/>
<path d="M0 0 C44.88 0 89.76 0 136 0 C136.0825 17.180625 136.165 34.36125 136.25 52.0625 C136.28641602 57.45988525 136.32283203 62.85727051 136.36035156 68.41821289 C136.37841797 75.07897949 136.37841797 75.07897949 136.3817749 78.2106781 C136.38786227 80.36838596 136.40181468 82.52608139 136.42230225 84.68370056 C136.53721355 97.43821952 136.31842461 108.89628538 132 121 C131.62208313 122.08132706 131.24416626 123.16265411 130.85479736 124.27674866 C124.28858718 142.22001288 110.00305862 157.51977778 93 166 C89.70429431 167.2841578 86.4567362 168.26361782 83 169 C82.28972656 169.18175781 81.57945313 169.36351562 80.84765625 169.55078125 C62.83345488 172.39252769 46.62421408 169.38357251 31.4765625 159.32421875 C19.71441069 150.66029935 10.50197088 137.4648136 5 124 C4.58505783 122.99697845 4.17011566 121.99395691 3.74259949 120.96054077 C-0.85034714 108.30630488 -0.64389762 96.14837312 -0.48828125 82.8125 C-0.48091126 80.68425147 -0.47582184 78.55599382 -0.47302246 76.42773438 C-0.44702303 68.61834955 -0.37721743 60.80915994 -0.3125 53 C-0.209375 35.51 -0.10625 18.02 0 0 Z M9 40 C8.87625 50.51875 8.7525 61.0375 8.625 71.875 C8.57037598 75.15679199 8.51575195 78.43858398 8.45947266 81.81982422 C8.28284373 100.06104153 8.51313243 119.2046359 21 134 C23.88503334 135.33514952 23.88503334 135.33514952 26.125 134.0625 C32.08168562 131.86111618 37.57548352 132.74790502 43.5625 134.5 C50.8518663 136.63198736 56.00712097 136.5694534 63.06640625 133.6796875 C67.64758361 132.06933425 71.52553297 132.69488523 75.875 134.5 C82.70993639 137.27092016 88.32802134 136.4598161 94.96484375 133.67578125 C101.04037611 131.65837799 107.11786644 132.99757155 113 135 C127.19970843 115.70296034 126.90040912 93.5690215 126.4375 70.6875 C126.293125 60.560625 126.14875 50.43375 126 40 C87.39 40 48.78 40 9 40 Z " fill="#E6EBF6" transform="translate(10,10)"/>
<path d="M0 0 C5.61 0 11.22 0 17 0 C17 1.98 17 3.96 17 6 C22.28 6 27.56 6 33 6 C33 4.02 33 2.04 33 0 C38.61 0 44.22 0 50 0 C50 1.98 50 3.96 50 6 C55.61 6 61.22 6 67 6 C67 4.02 67 2.04 67 0 C72.28 0 77.56 0 83 0 C83 13.86 83 27.72 83 42 C77.72 42 72.44 42 67 42 C67 32.1 67 22.2 67 12 C61.39 12 55.78 12 50 12 C50 30.81 50 49.62 50 69 C58.75915047 63.61702046 58.75915047 63.61702046 64 56 C63.49439113 53.3192607 63.49439113 53.3192607 62 51 C61.34 49.68 60.68 48.36 60 47 C67.59 47 75.18 47 83 47 C83 55.25 83 63.5 83 72 C81.68 71.01 80.36 70.02 79 69 C75.71111431 70.42615397 73.73024144 72.19039083 71.25 74.75 C62.4753275 82.61991904 51.23830784 85.83739694 39.59301758 85.50439453 C25.60046408 84.6677228 15.28708778 78.22098488 6 68 C5.38125 68.495 4.7625 68.99 4.125 69.5 C2 71 2 71 0 71 C0 63.08 0 55.16 0 47 C7.92 47 15.84 47 24 47 C22 51 22 51 20 53 C20.32563155 56.47340322 21.92300562 58.44057147 24.1875 61 C24.75855469 61.66 25.32960938 62.32 25.91796875 63 C28.46638274 65.56568582 28.46638274 65.56568582 34 69 C34 49.86 34 30.72 34 11 C28.39 11 22.78 11 17 11 C17 21.23 17 31.46 17 42 C11.39 42 5.78 42 0 42 C0 28.14 0 14.28 0 0 Z " fill="#FBFCFD" transform="translate(36,55)"/>
<path d="M0 0 C44.88 0 89.76 0 136 0 C136.0825 17.180625 136.165 34.36125 136.25 52.0625 C136.28641602 57.45988525 136.32283203 62.85727051 136.36035156 68.41821289 C136.37841797 75.07897949 136.37841797 75.07897949 136.3817749 78.2106781 C136.38786227 80.36838596 136.40181468 82.52608139 136.42230225 84.68370056 C136.53721355 97.43821952 136.31842461 108.89628538 132 121 C131.62208313 122.08132706 131.24416626 123.16265411 130.85479736 124.27674866 C124.28858718 142.22001288 110.00305862 157.51977778 93 166 C89.70429431 167.2841578 86.4567362 168.26361782 83 169 C82.28972656 169.18175781 81.57945313 169.36351562 80.84765625 169.55078125 C62.83345488 172.39252769 46.62421408 169.38357251 31.4765625 159.32421875 C19.71441069 150.66029935 10.50197088 137.4648136 5 124 C4.58505783 122.99697845 4.17011566 121.99395691 3.74259949 120.96054077 C-0.85034714 108.30630488 -0.64389762 96.14837312 -0.48828125 82.8125 C-0.48091126 80.68425147 -0.47582184 78.55599382 -0.47302246 76.42773438 C-0.44702303 68.61834955 -0.37721743 60.80915994 -0.3125 53 C-0.209375 35.51 -0.10625 18.02 0 0 Z M6 7 C5.83743397 9.00008405 5.74751306 11.0060572 5.68359375 13.01171875 C5.66254074 13.66303268 5.64148773 14.31434662 5.61979675 14.98539734 C5.55143886 17.21928809 5.49303997 19.45325462 5.4375 21.6875 C5.41798279 22.46611389 5.39846558 23.24472778 5.37835693 24.04693604 C5.21893917 30.69743301 5.10559539 37.34845832 5 44 C4.97983826 45.21846619 4.95967651 46.43693237 4.93890381 47.69232178 C4.8191222 55.1720567 4.72482872 62.65132682 4.67336941 70.13186169 C4.64958209 73.58025092 4.61801169 77.02808493 4.56539917 80.47616577 C4.07532701 101.3118223 4.07532701 101.3118223 10 121 C10.30969727 121.75023437 10.61939453 122.50046875 10.93847656 123.2734375 C14.37542109 131.44824572 19.07433725 138.45291944 25 145 C25.68835938 145.78117188 26.37671875 146.56234375 27.0859375 147.3671875 C36.52513155 157.48791181 48.8697544 164.06750877 62.734375 165.34375 C78.57926709 165.73178817 92.10865609 161.16835216 104.25 150.8125 C117.55857404 138.04317126 129.24484007 118.84272054 130.09225845 99.94231224 C130.12973897 97.49901941 130.1351117 95.05759026 130.12939453 92.61401367 C130.13114685 91.6881546 130.13289917 90.76229553 130.13470459 89.80838013 C130.13909057 86.76155703 130.13619779 83.71479239 130.1328125 80.66796875 C130.13348619 78.5490162 130.13445675 76.43006373 130.13571167 74.31111145 C130.13718399 69.87870546 130.13504797 65.44631966 130.13037109 61.01391602 C130.12465665 55.31947581 130.12796657 49.62508255 130.13394356 43.93064404 C130.1375469 39.55993797 130.13641194 35.18924315 130.13381577 30.81853676 C130.13314677 28.71767484 130.13397397 26.6168119 130.13629532 24.51595116 C130.13882 21.59027752 130.13498467 18.66468149 130.12939453 15.73901367 C130.13243088 14.42606575 130.13243088 14.42606575 130.13552856 13.08659363 C130.50178134 9.23296938 130.50178134 9.23296938 129 6 C127.42077271 5.90188865 125.83715467 5.87368108 124.25488281 5.87301636 C123.22842651 5.87019653 122.20197021 5.86737671 121.14440918 5.86447144 C119.44097351 5.86750778 119.44097351 5.86750778 117.703125 5.87060547 C116.51464966 5.86885315 115.32617432 5.86710083 114.10168457 5.86529541 C110.83317224 5.8616373 107.56470011 5.86251028 104.29618835 5.8656745 C100.88267937 5.86819853 97.46917315 5.86586044 94.05566406 5.86428833 C88.32226069 5.86246676 82.58887017 5.86487261 76.85546875 5.86962891 C70.21794224 5.87507151 63.58044645 5.87330884 56.94292068 5.8678025 C51.25375734 5.86327101 45.56460326 5.862621 39.87543869 5.86524117 C36.4733098 5.86680374 33.07119536 5.86699825 29.66906738 5.86370468 C25.87831512 5.86117991 22.08762277 5.86501629 18.296875 5.87060547 C16.59343933 5.86756912 16.59343933 5.86756912 14.85559082 5.86447144 C13.82913452 5.86729126 12.80267822 5.87011108 11.74511719 5.87301636 C10.84766785 5.87339338 9.95021851 5.87377041 9.02557373 5.87415886 C7.00392768 5.77543871 7.00392768 5.77543871 6 7 Z " fill="#033AA9" transform="translate(10,10)"/>
<path d="M0 0 C38.28 0 76.56 0 116 0 C116 8.58 116 17.16 116 26 C77.72 26 39.44 26 0 26 C0 17.42 0 8.84 0 0 Z " fill="#0B40AB" transform="translate(20,20)"/>
<path d="M0 0 C3.87633699 0.01044751 7.75268115 0.01484225 11.62902832 0.01983643 C19.16095027 0.03038723 26.69282949 0.04789086 34.22473145 0.06866455 C34.22473145 8.64866455 34.22473145 17.22866455 34.22473145 26.06866455 C33.23473145 24.08866455 33.23473145 24.08866455 32.22473145 22.06866455 C30.57473145 22.06866455 28.92473145 22.06866455 27.22473145 22.06866455 C28.54473145 21.73866455 29.86473145 21.40866455 31.22473145 21.06866455 C30.79160645 19.93686768 30.35848145 18.8050708 29.91223145 17.63897705 C29.34955858 16.15727185 28.78706802 14.67549741 28.22473145 13.19366455 C27.93855957 12.44729736 27.6523877 11.70093018 27.35754395 10.9319458 C25.22473145 5.29522705 25.22473145 5.29522705 25.22473145 3.06866455 C23.24473145 3.06866455 21.26473145 3.06866455 19.22473145 3.06866455 C19.04297363 3.69772705 18.86121582 4.32678955 18.6739502 4.97491455 C17.0692056 10.43927563 15.28887691 15.76086193 13.22473145 21.06866455 C15.20473145 21.56366455 15.20473145 21.56366455 17.22473145 22.06866455 C12.47473145 22.19366455 12.47473145 22.19366455 10.22473145 21.06866455 C10.22473145 15.12866455 10.22473145 9.18866455 10.22473145 3.06866455 C8.90473145 3.06866455 7.58473145 3.06866455 6.22473145 3.06866455 C6.22473145 6.69866455 6.22473145 10.32866455 6.22473145 14.06866455 C3.26888994 11.31667418 1.03707998 8.69336162 -0.77526855 5.06866455 C-0.77526855 3.74866455 -0.77526855 2.42866455 -0.77526855 1.06866455 C-8.03526855 1.06866455 -15.29526855 1.06866455 -22.77526855 1.06866455 C-22.77526855 1.72866455 -22.77526855 2.38866455 -22.77526855 3.06866455 C-26.73526855 3.06866455 -30.69526855 3.06866455 -34.77526855 3.06866455 C-34.77526855 9.00866455 -34.77526855 14.94866455 -34.77526855 21.06866455 C-37.08526855 21.39866455 -39.39526855 21.72866455 -41.77526855 22.06866455 C-40.45526855 21.73866455 -39.13526855 21.40866455 -37.77526855 21.06866455 C-38.20839355 19.93686768 -38.64151855 18.8050708 -39.08776855 17.63897705 C-39.65044142 16.15727185 -40.21293198 14.67549741 -40.77526855 13.19366455 C-41.20452637 12.07411377 -41.20452637 12.07411377 -41.64245605 10.9319458 C-43.77526855 5.29522705 -43.77526855 5.29522705 -43.77526855 3.06866455 C-45.75526855 3.06866455 -47.73526855 3.06866455 -49.77526855 3.06866455 C-50.02276855 4.01741455 -50.27026855 4.96616455 -50.52526855 5.94366455 C-51.90013229 10.79553874 -53.84661827 15.41556169 -55.77526855 20.06866455 C-56.43526855 20.06866455 -57.09526855 20.06866455 -57.77526855 20.06866455 C-57.77526855 13.79866455 -57.77526855 7.52866455 -57.77526855 1.06866455 C-38.50591526 0.08359646 -19.28725139 -0.05772135 0 0 Z " fill="#1347AE" transform="translate(101.7752685546875,19.93133544921875)"/>
<path d="M0 0 C2.9752849 0.1899118 5.23667056 0.57324409 7.8515625 2.03515625 C10.50907943 3.22862294 12.53251521 3.26611642 15.4375 3.25 C16.36433594 3.25515625 17.29117188 3.2603125 18.24609375 3.265625 C21.1680539 2.98379055 23.29621833 2.09480996 26 1 C29.29416842 1.27916681 32.03124226 1.51562113 35 3 C36.62165752 3.12148305 38.24884327 3.17543652 39.875 3.1875 C40.73867187 3.20167969 41.60234375 3.21585938 42.4921875 3.23046875 C45.15630633 2.9856354 46.66080731 2.23191091 49 1 C52.625 0.75 52.625 0.75 56 1 C56.66 1.66 57.32 2.32 58 3 C47.1898063 10.11254193 47.1898063 10.11254193 41 10 C38.73336107 9.32964468 36.53619427 8.53004308 34.31640625 7.71875 C28.31894691 5.85781827 23.61509281 6.56654478 18 9.1875 C14.29764003 10.80620622 12.20367755 11.26486726 8.3125 10.0625 C4.08420577 8.28691737 0.59230432 5.82798425 -3 3 C-1.68359375 1.48828125 -1.68359375 1.48828125 0 0 Z " fill="#1145AD" transform="translate(50,158)"/>
<path d="M0 0 C0.95712891 0.40798828 0.95712891 0.40798828 1.93359375 0.82421875 C7.32574666 3.03772899 13.26040391 3.41400535 18.74609375 1.32421875 C19.52984375 0.99421875 20.31359375 0.66421875 21.12109375 0.32421875 C25.72853736 -0.05344056 28.82869197 0.04982913 33.05859375 1.88671875 C39.05813465 4.36402429 44.52094209 3.0744683 50.37109375 0.69921875 C54.11682639 -0.67421655 55.45234936 -0.93363647 59.12109375 0.32421875 C60.11109375 0.65421875 61.10109375 0.98421875 62.12109375 1.32421875 C61.43359375 3.26171875 61.43359375 3.26171875 60.12109375 5.32421875 C56.82681794 6.42231069 55.45698203 6.43618151 52.12109375 5.32421875 C46.78813943 4.98072775 46.78813943 4.98072775 42.12109375 7.32421875 C40 7.58984375 40 7.58984375 37.68359375 7.57421875 C36.92175781 7.579375 36.15992188 7.58453125 35.375 7.58984375 C32.89074391 7.2970718 31.32490616 6.46627538 29.12109375 5.32421875 C25.62950326 5.0702849 22.99598985 4.95584144 19.74609375 6.32421875 C14.48512176 8.32839856 9.61449348 7.96792553 4.49609375 5.76171875 C-0.11615798 3.79724116 -3.4651622 4.5196374 -8.12890625 6.07421875 C-8.70640625 6.15671875 -9.28390625 6.23921875 -9.87890625 6.32421875 C-11.62890625 5.01171875 -11.62890625 5.01171875 -12.87890625 3.32421875 C-12.87890625 2.66421875 -12.87890625 2.00421875 -12.87890625 1.32421875 C-8.85514734 -1.25098695 -4.52663746 -1.62808374 0 0 Z " fill="#1448AF" transform="translate(52.87890625,151.67578125)"/>
<path d="M0 0 C6.63931546 2.13189029 12.05271075 2.37960063 18.625 -0.0625 C24.41583083 -2.19755415 28.66931337 -1.22650308 34.5625 0.5625 C41.54108715 2.43176442 46.30560997 1.56865972 52.89453125 -0.82421875 C58.00216056 -2.41632662 62.32641318 -1.79628452 67.0625 0.5 C66.7325 1.82 66.4025 3.14 66.0625 4.5 C65.216875 4.355625 64.37125 4.21125 63.5 4.0625 C62.365625 3.876875 61.23125 3.69125 60.0625 3.5 C58.99 3.231875 57.9175 2.96375 56.8125 2.6875 C52.25093571 2.45942179 49.53435437 3.76998632 45.4140625 5.5625 C42.39651654 6.76550836 40.27483031 6.99969583 37.0625 6.5 C35.969375 6.005 34.87625 5.51 33.75 5 C28.70767789 2.94888592 23.75289317 2.39624896 18.625 4.5 C12.03014852 7.07360058 5.56056672 5.56034378 -0.8359375 3.17578125 C-4.7518444 1.91657699 -8.40709873 1.75666224 -12.125 3.5625 C-12.723125 3.871875 -13.32125 4.18125 -13.9375 4.5 C-16.1875 4.125 -16.1875 4.125 -17.9375 3.5 C-16.9375 0.5 -16.9375 0.5 -15.375 -0.6875 C-9.94367557 -2.49794148 -5.29174297 -1.73648175 0 0 Z " fill="#1649AF" transform="translate(52.9375,146.5)"/>
<path d="M0 0 C1.98 0 3.96 0 6 0 C7.82845741 4.05440555 9.21775257 7.6027062 10 12 C10.20496094 11.21753906 10.40992188 10.43507813 10.62109375 9.62890625 C10.89050781 8.61699219 11.15992188 7.60507812 11.4375 6.5625 C11.70433594 5.55316406 11.97117187 4.54382813 12.24609375 3.50390625 C13 1 13 1 14 0 C15.98 0 17.96 0 20 0 C20 6.27 20 12.54 20 19 C18.68 19 17.36 19 16 19 C15.67 16.36 15.34 13.72 15 11 C14.01 13.64 13.02 16.28 12 19 C10.35 18.67 8.7 18.34 7 18 C6.34 15.03 5.68 12.06 5 9 C4.67 11.97 4.34 14.94 4 18 C2.68 18 1.36 18 0 18 C0 12.06 0 6.12 0 0 Z " fill="#DDE5F3" transform="translate(23,23)"/>
<path d="M0 0 C10.7421875 -0.1953125 10.7421875 -0.1953125 14 0 C16 2 16 2 16.125 4.9375 C16.08375 5.948125 16.0425 6.95875 16 8 C16 8.99 16 9.98 16 11 C16 13.33333333 16 15.66666667 16 18 C14.68 18 13.36 18 12 18 C11.67 15.69 11.34 13.38 11 11 C8.69 11 6.38 11 4 11 C4 13.31 4 15.62 4 18 C2.68 18 1.36 18 0 18 C0 12.06 0 6.12 0 0 Z " fill="#F6F8FC" transform="translate(67,23)"/>
<path d="M0 0 C1.65 0 3.3 0 5 0 C7.01953125 2.40625 7.01953125 2.40625 8.8125 5.5 C9.41707031 6.5209375 10.02164063 7.541875 10.64453125 8.59375 C11.09183594 9.3878125 11.53914063 10.181875 12 11 C12.33 7.7 12.66 4.4 13 1 C14.32 1 15.64 1 17 1 C17 6.94 17 12.88 17 19 C15.35 19 13.7 19 12 19 C10.19921875 16.8125 10.19921875 16.8125 8.6875 14 C8.17574219 13.071875 7.66398437 12.14375 7.13671875 11.1875 C6.76160156 10.465625 6.38648437 9.74375 6 9 C5.67 12.63 5.34 16.26 5 20 C3.35 20 1.7 20 0 20 C0 13.4 0 6.8 0 0 Z " fill="#E1E7F4" transform="translate(95,22)"/>
<path d="M0 0 C1.98 0 3.96 0 6 0 C7.0063655 2.43504509 8.00526413 4.87270864 9 7.3125 C9.28617188 8.00279297 9.57234375 8.69308594 9.8671875 9.40429688 C11.08910744 12.41545674 12 14.71886984 12 18 C10.68 18 9.36 18 8 18 C8 17.01 8 16.02 8 15 C6.5199159 15.11362262 5.04089926 15.24122908 3.5625 15.375 C2.73878906 15.44460937 1.91507812 15.51421875 1.06640625 15.5859375 C0.38449219 15.72257812 -0.29742187 15.85921875 -1 16 C-1.33 16.66 -1.66 17.32 -2 18 C-3.32 18 -4.64 18 -6 18 C-5.41347648 13.51006131 -4.2356462 9.77456816 -2.4375 5.625 C-1.98246094 4.56539062 -1.52742188 3.50578125 -1.05859375 2.4140625 C-0.70925781 1.61742188 -0.35992187 0.82078125 0 0 Z " fill="#E8EDF7" transform="translate(121,23)"/>
<path d="M0 0 C1.98 0 3.96 0 6 0 C7.0063655 2.43504509 8.00526413 4.87270864 9 7.3125 C9.28617188 8.00279297 9.57234375 8.69308594 9.8671875 9.40429688 C11.08910744 12.41545674 12 14.71886984 12 18 C10.68 18 9.36 18 8 18 C8 17.01 8 16.02 8 15 C5.03 15 2.06 15 -1 15 C-1.33 15.99 -1.66 16.98 -2 18 C-3.32 18 -4.64 18 -6 18 C-5.41347648 13.51006131 -4.2356462 9.77456816 -2.4375 5.625 C-1.98246094 4.56539062 -1.52742188 3.50578125 -1.05859375 2.4140625 C-0.70925781 1.61742188 -0.35992187 0.82078125 0 0 Z " fill="#E8EDF7" transform="translate(52,23)"/>
<path d="M0 0 C16.17 0 32.34 0 49 0 C49 0.33 49 0.66 49 1 C40.75 1 32.5 1 24 1 C24 7.6 24 14.2 24 21 C23.67 21 23.34 21 23 21 C23 15.06 23 9.12 23 3 C21.02 3.33 19.04 3.66 17 4 C16.01 7.96 15.02 11.92 14 16 C12 15 12 15 11.1484375 12.49609375 C10.89320312 11.48675781 10.63796875 10.47742188 10.375 9.4375 C10.11460938 8.42558594 9.85421875 7.41367187 9.5859375 6.37109375 C9.39257812 5.58863281 9.19921875 4.80617188 9 4 C8.071875 3.896875 7.14375 3.79375 6.1875 3.6875 C3 3 3 3 0 0 Z " fill="#2B59B6" transform="translate(20,20)"/>
<path d="M0 0 C-0.66 0.33 -1.32 0.66 -2 1 C-2 1.66 -2 2.32 -2 3 C-3.175625 3.28875 -4.35125 3.5775 -5.5625 3.875 C-8.25776159 4.53815751 -10.85227899 5.27394682 -13.5 6.125 C-20.56575442 7.8914386 -26.62373437 6.88460614 -33.5 5 C-34.22703125 4.80921875 -34.9540625 4.6184375 -35.703125 4.421875 C-37.47106531 3.95662755 -39.23588933 3.47956407 -41 3 C-40.67 2.34 -40.34 1.68 -40 1 C-32.73581213 0.74951076 -32.73581213 0.74951076 -29.0625 2 C-22.55922028 4.12351991 -17.22621481 3.3148866 -11.0625 0.66796875 C-7.43524996 -0.50676564 -3.76702967 -0.23543935 0 0 Z " fill="#EDF1F9" transform="translate(116,142)"/>
<path d="M0 0 C4.62 0 9.24 0 14 0 C14 0.33 14 0.66 14 1 C12.02 1 10.04 1 8 1 C7.938125 1.928125 7.87625 2.85625 7.8125 3.8125 C7.06985193 9.28109031 4.40373236 14.0949668 2 19 C1.34 19 0.68 19 0 19 C0 12.73 0 6.46 0 0 Z " fill="#043BA9" transform="translate(44,21)"/>
<path d="M0 0 C1.32 0 2.64 0 4 0 C4 6.27 4 12.54 4 19 C2.68 19 1.36 19 0 19 C0 12.73 0 6.46 0 0 Z " fill="#EDF1F9" transform="translate(87,23)"/>
<path d="M0 0 C1.98 0 3.96 0 6 0 C6 5.94 6 11.88 6 18 C5.01 18 4.02 18 3 18 C2.67 13.71 2.34 9.42 2 5 C1.01 5 0.02 5 -1 5 C-0.67 3.35 -0.34 1.7 0 0 Z " fill="#FAFBFD" transform="translate(37,23)"/>
<path d="M0 0 C-3.68087353 2.45391569 -6.44355588 2.22802759 -10.6875 2.125 C-11.7403418 2.11146484 -11.7403418 2.11146484 -12.81445312 2.09765625 C-14.54311525 2.07413704 -16.27160145 2.03826713 -18 2 C-18.33 1.34 -18.66 0.68 -19 0 C-12.32315878 -2.18019305 -6.5914475 -3.19585333 0 0 Z " fill="#1145AE" transform="translate(87,169)"/>
<path d="M0 0 C4.6009187 0.46009187 7.90008057 0.88391255 12 3 C14.32495277 3.38749213 16.65851268 3.72982839 19 4 C19 4.33 19 4.66 19 5 C17.35 5 15.7 5 14 5 C14 5.66 14 6.32 14 7 C11.4669876 6.57783127 9.37296307 6.21134574 7.125 4.9375 C4.07379213 3.59137888 1.28960139 3.87347687 -2 4 C-1.34 2.68 -0.68 1.36 0 0 Z " fill="#D6DFF1" transform="translate(49,155)"/>
<path d="M0 0 C0.66 0.33 1.32 0.66 2 1 C2 1.33 2 1.66 2 2 C1.32453125 2.04898438 0.6490625 2.09796875 -0.046875 2.1484375 C-0.93890625 2.22320312 -1.8309375 2.29796875 -2.75 2.375 C-3.63171875 2.44460937 -4.5134375 2.51421875 -5.421875 2.5859375 C-8.00181781 3.00029195 -9.70325724 3.81202961 -12 5 C-14.25 4.625 -14.25 4.625 -16 4 C-15 1 -15 1 -13.4375 -0.1875 C-8.8251031 -1.72496563 -4.5310633 -1.51035443 0 0 Z " fill="#0E43AC" transform="translate(51,146)"/>
<path d="M0 0 C4.54805635 -0.17835515 7.8794254 0.00214565 12 2 C11.67 3.32 11.34 4.64 11 6 C6.80530429 5.40075776 2.99000166 4.42500059 -1 3 C-0.67 2.01 -0.34 1.02 0 0 Z " fill="#0F44AD" transform="translate(108,145)"/>
<path d="M0 0 C-1 3 -1 3 -3.0625 4.1875 C-6.85475122 5.23642055 -10.07062002 5.13319932 -14 5 C-14 4.34 -14 3.68 -14 3 C-12.4188708 2.49307308 -10.83498617 1.99473557 -9.25 1.5 C-7.92742187 1.08234375 -7.92742187 1.08234375 -6.578125 0.65625 C-4 0 -4 0 0 0 Z " fill="#E5EBF6" transform="translate(77,157)"/>
<path d="M0 0 C2.31 0 4.62 0 7 0 C7.5625 1.9375 7.5625 1.9375 8 4 C7 5 7 5 3.4375 5.0625 C2.303125 5.041875 1.16875 5.02125 0 5 C0 3.35 0 1.7 0 0 Z " fill="#0E43AC" transform="translate(71,26)"/>
<path d="M0 0 C6.625 0.75 6.625 0.75 10 3 C9.67 3.66 9.34 4.32 9 5 C5.7 4.67 2.4 4.34 -1 4 C-0.67 2.68 -0.34 1.36 0 0 Z " fill="#DEE5F4" transform="translate(106,148)"/>
<path d="M0 0 C-3.55639236 2.30119506 -6.94718288 3.77472971 -11 5 C-11 4.34 -11 3.68 -11 3 C-12.65 3 -14.3 3 -16 3 C-16 2.67 -16 2.34 -16 2 C-13.71022755 1.47090114 -11.41810812 0.95194981 -9.125 0.4375 C-7.84882812 0.14746094 -6.57265625 -0.14257812 -5.2578125 -0.44140625 C-2 -1 -2 -1 0 0 Z " fill="#2B5AB6" transform="translate(108,147)"/>
<path d="M0 0 C1.08667969 0.20367187 2.17335938 0.40734375 3.29296875 0.6171875 C4.54013672 0.86855469 4.54013672 0.86855469 5.8125 1.125 C4.171875 2.70703125 4.171875 2.70703125 1.8125 4.125 C-0.984375 3.76171875 -0.984375 3.76171875 -3.9375 2.8125 C-4.92234375 2.50699219 -5.9071875 2.20148438 -6.921875 1.88671875 C-8.04335938 1.50966797 -8.04335938 1.50966797 -9.1875 1.125 C-5.43214902 -1.37856732 -4.31860586 -0.8358592 0 0 Z " fill="#3763BA" transform="translate(59.1875,147.875)"/>
<path d="M0 0 C0.99 0.66 1.98 1.32 3 2 C-0.3 2.66 -3.6 3.32 -7 4 C-7 2.68 -7 1.36 -7 0 C-3.8195064 -1.06016453 -3.04021693 -1.04507457 0 0 Z " fill="#C8D4EC" transform="translate(77,165)"/>
<path d="M0 0 C0.90105469 0.11085937 1.80210938 0.22171875 2.73046875 0.3359375 C3.76107422 0.47902344 3.76107422 0.47902344 4.8125 0.625 C4.8125 0.955 4.8125 1.285 4.8125 1.625 C3.1625 1.625 1.5125 1.625 -0.1875 1.625 C-0.1875 2.285 -0.1875 2.945 -0.1875 3.625 C-2.8275 2.965 -5.4675 2.305 -8.1875 1.625 C-4.73535147 -0.67643236 -3.95270676 -0.51333854 0 0 Z " fill="#CFD9EE" transform="translate(61.1875,151.375)"/>
<path d="M0 0 C0.66 0 1.32 0 2 0 C2.33 2.31 2.66 4.62 3 7 C1.68 7 0.36 7 -1 7 C-0.67 4.69 -0.34 2.38 0 0 Z " fill="#2656B5" transform="translate(123,27)"/>
<path d="M0 0 C0.66 0 1.32 0 2 0 C2.33 2.31 2.66 4.62 3 7 C1.68 7 0.36 7 -1 7 C-0.67 4.69 -0.34 2.38 0 0 Z " fill="#2A58B6" transform="translate(54,27)"/>
<path d="M0 0 C1.65 0 3.3 0 5 0 C5.33 0.99 5.66 1.98 6 3 C3.36 3.33 0.72 3.66 -2 4 C-1.34 2.68 -0.68 1.36 0 0 Z " fill="#E4EAF5" transform="translate(49,155)"/>
<path d="M0 0 C-0.33 0.99 -0.66 1.98 -1 3 C-3.64 3 -6.28 3 -9 3 C-9 2.34 -9 1.68 -9 1 C-5.846632 0.29925156 -3.27275026 0 0 0 Z " fill="#F7F8FC" transform="translate(70,152)"/>
<path d="M0 0 C1.22589844 0.01353516 1.22589844 0.01353516 2.4765625 0.02734375 C3.41628906 0.04474609 3.41628906 0.04474609 4.375 0.0625 C4.375 0.3925 4.375 0.7225 4.375 1.0625 C1.735 1.3925 -0.905 1.7225 -3.625 2.0625 C-3.625 2.7225 -3.625 3.3825 -3.625 4.0625 C-4.945 4.3925 -6.265 4.7225 -7.625 5.0625 C-7.25 3.125 -7.25 3.125 -6.625 1.0625 C-4.21954362 -0.14022819 -2.67503047 -0.03821472 0 0 Z " fill="#CDD8EE" transform="translate(43.625,141.9375)"/>
<path d="M0 0 C-0.33 0.66 -0.66 1.32 -1 2 C-3.31 2 -5.62 2 -8 2 C-8 1.34 -8 0.68 -8 0 C-4.71303767 -0.79953138 -3.28976808 -1.09658936 0 0 Z " fill="#F9FAFD" transform="translate(71,160)"/>
<path d="M0 0 C0 0.66 0 1.32 0 2 C-1.98 2.66 -3.96 3.32 -6 4 C-6.33 3.01 -6.66 2.02 -7 1 C-4 0 -4 0 0 0 Z " fill="#EBEFF8" transform="translate(76,150)"/>
<path d="M0 0 C2.97 0 5.94 0 9 0 C8.01 0.495 8.01 0.495 7 1 C7 1.66 7 2.32 7 3 C5.68 3 4.36 3 3 3 C3 2.34 3 1.68 3 1 C2.01 0.67 1.02 0.34 0 0 Z " fill="#D9E2F2" transform="translate(107,142)"/>
</svg>
