<?xml version="1.0" encoding="UTF-8"?>
<svg version="1.1" xmlns="http://www.w3.org/2000/svg" width="215" height="187">
<path d="M0 0 C1.88671875 0.13745117 1.88671875 0.13745117 4 1 C5.45703125 3.07543945 5.45703125 3.07543945 6.8125 5.80078125 C7.32683594 6.80061035 7.84117188 7.80043945 8.37109375 8.83056641 C8.90863281 9.87647949 9.44617188 10.92239258 10 12 C11.11241881 13.97977829 12.23759132 15.95244104 13.375 17.91796875 C14.25321411 19.43934448 14.25321411 19.43934448 15.14916992 20.99145508 C15.75994385 22.0461499 16.37071777 23.10084473 17 24.1875 C17.65009033 25.31244873 18.30018066 26.43739746 18.9699707 27.59643555 C23.93416209 36.18236937 28.93409313 44.74734263 33.93945312 53.30932617 C37.66276798 59.68576581 41.34626706 66.08346601 45 72.5 C53.29844045 87.06821853 61.69317867 101.58342314 70.38745117 115.91943359 C74.74176195 123.15450172 78.88213756 130.51546948 83.05511475 137.85601807 C87.77287219 146.1542828 92.56948999 154.39025809 97.59375 162.5078125 C99 165 99 165 99 167 C34.65 167 -29.7 167 -96 167 C-94.60210955 163.50527389 -93.28283805 160.55006512 -91.453125 157.32421875 C-90.94507324 156.42606445 -90.43702148 155.52791016 -89.91357422 154.60253906 C-89.36459473 153.64057617 -88.81561523 152.67861328 -88.25 151.6875 C-87.67652832 150.6778418 -87.10305664 149.66818359 -86.51220703 148.62792969 C-80.62817453 138.29538359 -74.62720261 128.03151907 -68.61962891 117.77050781 C-66.2565142 113.72820668 -63.90735856 109.6779121 -61.5625 105.625 C-61.12832764 104.87468506 -60.69415527 104.12437012 -60.24682617 103.35131836 C-57.65277941 98.86539754 -55.06383008 94.37655252 -52.4765625 89.88671875 C-45.77406861 78.25671697 -39.04933141 66.64066658 -32.27685547 55.05126953 C-27.93169318 47.61028619 -23.61589122 40.15271111 -19.3125 32.6875 C-18.68972168 31.60734619 -18.06694336 30.52719238 -17.42529297 29.41430664 C-15.04509719 25.28522261 -12.66539524 21.15585623 -10.28759766 17.02539062 C-8.73478762 14.32862335 -7.18009668 11.6329491 -5.625 8.9375 C-5.16649658 8.13981201 -4.70799316 7.34212402 -4.2355957 6.52026367 C-1.11370044 1.11370044 -1.11370044 1.11370044 0 0 Z " fill="#CE1328" transform="translate(106,10)"/>
<path d="M0 0 C1.88842773 0.14038086 1.88842773 0.14038086 4 1 C5.44165039 3.04907227 5.44165039 3.04907227 6.78515625 5.75390625 C8.9741768 10.01029691 11.22244531 14.1971846 13.62109375 18.33984375 C14.24693359 19.42330078 14.87277344 20.50675781 15.51757812 21.62304688 C16.46793945 23.26370117 16.46793945 23.26370117 17.4375 24.9375 C18.06720703 26.02740234 18.69691406 27.11730469 19.34570312 28.24023438 C23.54531805 35.50431651 27.76715331 42.75524156 32 50 C26.66666667 59.33333333 21.33333333 68.66666667 16 78 C15.40574219 77.9278125 14.81148438 77.855625 14.19921875 77.78125 C2.41684117 76.4619169 -9.03473573 75.52199137 -19.1875 82.6875 C-27.67245034 89.64687341 -34.11458301 98.17486015 -35.23828125 109.375 C-35.55002691 120.40095161 -32.42419799 129.78388756 -25 138 C-24.00923729 139.00915274 -23.01193901 140.01208328 -22 141 C-22.62953101 143.0119978 -23.30967528 145.00804211 -24 147 C-24.26220337 147.77549194 -24.52440674 148.55098389 -24.79455566 149.34997559 C-27.27587335 156.09240091 -30.23150562 162.49669114 -36 167 C-45.06519973 170.10438381 -55.20320664 168.98271155 -64.63769531 168.37329102 C-68.17533283 168.16680616 -71.71585871 168.07697668 -75.2578125 167.9765625 C-82.17893732 167.76349867 -89.08862997 167.42335669 -96 167 C-94.67380825 163.6220259 -93.24435047 160.48221021 -91.453125 157.32421875 C-90.94507324 156.42606445 -90.43702148 155.52791016 -89.91357422 154.60253906 C-89.36459473 153.64057617 -88.81561523 152.67861328 -88.25 151.6875 C-87.67652832 150.6778418 -87.10305664 149.66818359 -86.51220703 148.62792969 C-80.62817453 138.29538359 -74.62720261 128.03151907 -68.61962891 117.77050781 C-66.2565142 113.72820668 -63.90735856 109.6779121 -61.5625 105.625 C-61.12832764 104.87468506 -60.69415527 104.12437012 -60.24682617 103.35131836 C-57.65277941 98.86539754 -55.06383008 94.37655252 -52.4765625 89.88671875 C-45.77406861 78.25671697 -39.04933141 66.64066658 -32.27685547 55.05126953 C-27.93169318 47.61028619 -23.61589122 40.15271111 -19.3125 32.6875 C-18.68972168 31.60734619 -18.06694336 30.52719238 -17.42529297 29.41430664 C-15.04509719 25.28522261 -12.66539524 21.15585623 -10.28759766 17.02539062 C-8.73478762 14.32862335 -7.18009668 11.6329491 -5.625 8.9375 C-5.16649658 8.13981201 -4.70799316 7.34212402 -4.2355957 6.52026367 C-1.11370044 1.11370044 -1.11370044 1.11370044 0 0 Z " fill="#033AA9" transform="translate(106,10)"/>
<path d="M0 0 C0.66 0 1.32 0 2 0 C4.05794696 2.53609279 5.36062252 4.77652463 6 8 C4.55301639 12.17676498 2.11728757 15.62309125 -0.375 19.25 C-1.66743407 21.18356278 -2.9468147 23.12593536 -4.2109375 25.078125 C-4.79149902 25.92793945 -5.37206055 26.77775391 -5.97021484 27.65332031 C-7.28903634 29.94693955 -7.28903634 29.94693955 -6.2734375 32.19140625 C-4.85513937 34.20573764 -3.31843239 35.96043389 -1.625 37.75 C6.5118367 46.81918257 7.69318023 56.13774287 7.17919922 67.94140625 C6.37155453 77.21941711 0.33187585 85.05529332 -6.25 91.25 C-14.4186176 97.9267988 -24.75123692 99.79039304 -35 99 C-38.73974525 98.20588126 -42.36519529 97.18113577 -46 96 C-46.24621094 96.67546875 -46.49242188 97.3509375 -46.74609375 98.046875 C-48.26230379 101.6177622 -50.11877348 104.89802797 -52.0625 108.25 C-52.42666016 108.88679688 -52.79082031 109.52359375 -53.16601562 110.1796875 C-55.85925752 114.85925752 -55.85925752 114.85925752 -57 116 C-58.68608966 116.07205511 -60.37500659 116.08386068 -62.0625 116.0625 C-63.44115234 116.04896484 -63.44115234 116.04896484 -64.84765625 116.03515625 C-65.55792969 116.02355469 -66.26820312 116.01195312 -67 116 C-64.77185426 111.35088822 -62.49626767 106.76672167 -59.81640625 102.359375 C-59.25856445 101.4314917 -59.25856445 101.4314917 -58.68945312 100.48486328 C-57.94501463 99.25628173 -57.18735645 98.03560283 -56.41601562 96.82373047 C-55.22317732 94.92310457 -55.22317732 94.92310457 -54 92 C-54.82682787 88.9304691 -56.69364228 87.12417195 -58.875 84.875 C-65.19718968 77.71809579 -67.38937409 68.34367395 -67.27734375 59.0078125 C-66.16327903 46.9257022 -59.13023428 38.31698652 -50.23828125 30.6953125 C-42.72356106 25.00353491 -34.12351665 24.47830955 -25 25 C-21.62569292 25.51601771 -18.31640195 26.19427979 -15 27 C-14.76023438 26.1646875 -14.52046875 25.329375 -14.2734375 24.46875 C-12.80660803 20.4732145 -10.85479331 17.10701859 -8.625 13.5 C-8.23828125 12.86191406 -7.8515625 12.22382812 -7.453125 11.56640625 C-6.31660869 9.70145163 -5.16180627 7.84928336 -4 6 C-3.63358398 5.40445313 -3.26716797 4.80890625 -2.88964844 4.1953125 C-1.98121729 2.76068166 -0.99698508 1.37456667 0 0 Z " fill="#FDFCFB" transform="translate(137,61)"/>
<path d="M0 0 C2 3 2 3 3 6 C5.64 6.33 8.28 6.66 11 7 C9.71034824 8.37562854 8.37310707 9.70766393 7 11 C6.34 11 5.68 11 5 11 C5.66 13.64 6.32 16.28 7 19 C6.4225 18.690625 5.845 18.38125 5.25 18.0625 C2.2375338 16.61927636 2.2375338 16.61927636 -1 16 C-3.72981832 17.35400645 -3.72981832 17.35400645 -6 19 C-5.47731534 16.23723823 -4.89130413 13.6739124 -4 11 C-4.804375 10.71125 -5.60875 10.4225 -6.4375 10.125 C-9 9 -9 9 -10 7 C-7.36 7 -4.72 7 -2 7 C-1.34 4.69 -0.68 2.38 0 0 Z " fill="#FCD52C" transform="translate(107,96)"/>
<path d="M0 0 C2.35953094 2.35953094 2.49141413 3.77895617 3 7 C5.31 7 7.62 7 10 7 C9.319375 7.515625 8.63875 8.03125 7.9375 8.5625 C5.57571378 10.97254504 5.57571378 10.97254504 6.25 14.75 C6.4975 15.8225 6.745 16.895 7 18 C6.236875 17.67 5.47375 17.34 4.6875 17 C0.41535909 15.41036617 -1.95586595 16.25118528 -6 18 C-5.7525 16.9275 -5.505 15.855 -5.25 14.75 C-4.57571378 10.97254504 -4.57571378 10.97254504 -6.9375 8.5625 C-7.618125 8.046875 -8.29875 7.53125 -9 7 C-6.69 7 -4.38 7 -2 7 C-1.855625 6.21625 -1.71125 5.4325 -1.5625 4.625 C-1 2 -1 2 0 0 Z " fill="#FCD324" transform="translate(90,124)"/>
<path d="M0 0 C0.66 0 1.32 0 2 0 C2.66 1.98 3.32 3.96 4 6 C6.31 6.33 8.62 6.66 11 7 C10.154375 7.515625 9.30875 8.03125 8.4375 8.5625 C7.633125 9.366875 6.82875 10.17125 6 11 C6.0636079 14.70054409 6.0636079 14.70054409 7 18 C6.1646875 17.4740625 6.1646875 17.4740625 5.3125 16.9375 C1.55681863 15.41492647 -1.2832512 16.76108373 -5 18 C-4.7525 16.9275 -4.505 15.855 -4.25 14.75 C-3.57571378 10.97254504 -3.57571378 10.97254504 -5.9375 8.5625 C-6.618125 8.046875 -7.29875 7.53125 -8 7 C-5.69 7 -3.38 7 -1 7 C-0.67 4.69 -0.34 2.38 0 0 Z " fill="#FCD425" transform="translate(123,124)"/>
</svg>
