<?xml version="1.0" encoding="UTF-8"?>
<svg version="1.1" xmlns="http://www.w3.org/2000/svg" width="191" height="191">
<path d="M0 0 C18.44355734 14.24052778 30.17665298 33.13481766 34.1875 56.1875 C34.59183984 60.65650203 34.66534481 65.07712526 34.625 69.5625 C34.61815186 70.74207275 34.61130371 71.92164551 34.60424805 73.13696289 C34.4398278 82.08277913 33.38546273 89.77455882 30.1875 98.1875 C29.81367188 99.23550781 29.43984375 100.28351563 29.0546875 101.36328125 C24.60683853 112.95419893 17.84702299 122.37027046 9.1875 131.1875 C8.45015625 131.94933594 7.7128125 132.71117187 6.953125 133.49609375 C-11.13205616 151.0047339 -33.66780905 155.72088542 -58.02734375 155.46875 C-65.82501289 155.2547341 -72.48889433 153.97137992 -79.8125 151.1875 C-80.86050781 150.81367188 -81.90851563 150.43984375 -82.98828125 150.0546875 C-94.57919893 145.60683853 -103.99527046 138.84702299 -112.8125 130.1875 C-113.57433594 129.45015625 -114.33617188 128.7128125 -115.12109375 127.953125 C-132.6297339 109.86794384 -137.34588542 87.33219095 -137.09375 62.97265625 C-136.8797341 55.17498711 -135.59637992 48.51110567 -132.8125 41.1875 C-132.43867188 40.13949219 -132.06484375 39.09148437 -131.6796875 38.01171875 C-127.23373737 26.42574938 -120.47702197 16.99500088 -111.8125 8.1875 C-111.05195312 7.4140625 -110.29140625 6.640625 -109.5078125 5.84375 C-79.64958459 -22.74183213 -32.97104333 -22.8080939 0 0 Z " fill="#0A3384" transform="translate(146.8125,25.8125)"/>
<path d="M0 0 C18.44355734 14.24052778 30.17665298 33.13481766 34.1875 56.1875 C34.59183984 60.65650203 34.66534481 65.07712526 34.625 69.5625 C34.61815186 70.74207275 34.61130371 71.92164551 34.60424805 73.13696289 C34.4398278 82.08277913 33.38546273 89.77455882 30.1875 98.1875 C29.81367188 99.23550781 29.43984375 100.28351563 29.0546875 101.36328125 C24.60683853 112.95419893 17.84702299 122.37027046 9.1875 131.1875 C8.45015625 131.94933594 7.7128125 132.71117187 6.953125 133.49609375 C-11.13205616 151.0047339 -33.66780905 155.72088542 -58.02734375 155.46875 C-65.82501289 155.2547341 -72.48889433 153.97137992 -79.8125 151.1875 C-80.86050781 150.81367188 -81.90851563 150.43984375 -82.98828125 150.0546875 C-94.57919893 145.60683853 -103.99527046 138.84702299 -112.8125 130.1875 C-113.57433594 129.45015625 -114.33617188 128.7128125 -115.12109375 127.953125 C-132.6297339 109.86794384 -137.34588542 87.33219095 -137.09375 62.97265625 C-136.8797341 55.17498711 -135.59637992 48.51110567 -132.8125 41.1875 C-132.43867188 40.13949219 -132.06484375 39.09148437 -131.6796875 38.01171875 C-127.23373737 26.42574938 -120.47702197 16.99500088 -111.8125 8.1875 C-111.05195312 7.4140625 -110.29140625 6.640625 -109.5078125 5.84375 C-79.64958459 -22.74183213 -32.97104333 -22.8080939 0 0 Z M-99.45703125 27.38671875 C-112.70207468 43.13580024 -115.86194102 59.28976507 -114.8125 79.1875 C-114.32604674 83.16668769 -113.35831702 86.49529516 -111.8125 90.1875 C-111.565 90.78481934 -111.3175 91.38213867 -111.0625 91.99755859 C-104.17847298 108.17581885 -93.69085015 120.45104114 -77.3046875 127.75 C-61.11269224 134.12537174 -42.73135212 135.0240872 -26.51953125 128.0234375 C-9.47896711 119.88794236 0.98169745 107.56393892 8.14453125 90.3046875 C13.50786713 74.27494206 12.62615193 57.68482785 5.90234375 42.234375 C2.39386182 35.23695701 -2.31628734 29.71219044 -7.8125 24.1875 C-8.40417969 23.56101562 -8.99585938 22.93453125 -9.60546875 22.2890625 C-20.81581669 11.35093051 -37.06200276 6.21711172 -52.375 5.8125 C-70.57072024 6.22476143 -86.95219119 14.28546342 -99.45703125 27.38671875 Z " fill="#EDECE9" transform="translate(146.8125,25.8125)"/>
<path d="M0 0 C5.17460492 -0.31242898 7.96945213 0.78678652 12.0703125 4.1875 C14.57360412 9.19408324 13.83342294 17.37020273 12.3984375 22.66796875 C11.5703125 24.5625 11.5703125 24.5625 10.0703125 27.1875 C10.8540625 27.22875 11.6378125 27.27 12.4453125 27.3125 C18.8901228 28.86814386 24.19228591 32.22212334 28.7578125 37 C30.57058203 41.40244029 30.66965176 44.68739836 29.0703125 49.1875 C25.42258465 54.53330805 20.08319478 57.96204242 14.0703125 60.1875 C13.4103125 60.1875 12.7503125 60.1875 12.0703125 60.1875 C12.48603516 61.09242187 12.48603516 61.09242187 12.91015625 62.015625 C13.45349609 63.21445313 13.45349609 63.21445313 14.0078125 64.4375 C14.36746094 65.22640625 14.72710937 66.0153125 15.09765625 66.828125 C17.31716543 72.21199466 17.60416971 77.40872981 17.0703125 83.1875 C15.45758683 86.87373011 14.4399875 87.94105 11.0703125 90.1875 C4.47009067 90.91256476 -1.61609164 90.0934912 -7.9296875 88.1875 C-6.96367816 83.74796772 -5.97758374 79.32748306 -4.8046875 74.9375 C-4.06712664 71.77652489 -3.85257912 69.38198999 -3.9296875 66.1875 C-6.49632186 66.58561485 -9.05629626 67.00511279 -11.6171875 67.4375 C-12.6990332 67.60185547 -12.6990332 67.60185547 -13.80273438 67.76953125 C-18.49170751 68.58314303 -21.48460684 69.68313497 -24.9296875 73.1875 C-25.4246875 74.6725 -25.4246875 74.6725 -25.9296875 76.1875 C-27.90439428 77.23656298 -29.91044138 78.22695584 -31.9296875 79.1875 C-33.08891755 79.92064006 -34.2346175 80.67553027 -35.3671875 81.44921875 C-35.95242187 81.84560547 -36.53765625 82.24199219 -37.140625 82.65039062 C-38.33882212 83.47055393 -39.53153233 84.29878812 -40.71875 85.13476562 C-44.62157506 87.7524093 -47.23843205 88.68093998 -51.9296875 88.1875 C-52.93959442 85.27416921 -53.93584702 82.35634681 -54.9296875 79.4375 C-55.21585938 78.6125 -55.50203125 77.7875 -55.796875 76.9375 C-56.06757812 76.13828125 -56.33828125 75.3390625 -56.6171875 74.515625 C-56.86855469 73.7824707 -57.11992188 73.04931641 -57.37890625 72.29394531 C-57.9296875 70.1875 -57.9296875 70.1875 -57.9296875 66.1875 C-59.5384375 66.2184375 -59.5384375 66.2184375 -61.1796875 66.25 C-64.9296875 66.1875 -64.9296875 66.1875 -68.9296875 65.1875 C-69.5896875 68.1575 -70.2496875 71.1275 -70.9296875 74.1875 C-72.4146875 73.6925 -72.4146875 73.6925 -73.9296875 73.1875 C-73.31977859 69.62969804 -72.3513194 66.5046411 -70.9296875 63.1875 C-71.7340625 63.14625 -72.5384375 63.105 -73.3671875 63.0625 C-79.59494807 61.5328746 -84.3059674 58.04883768 -88.4921875 53.25 C-90.31208043 49.37283681 -90.73341135 47.42531664 -89.9296875 43.1875 C-85.75141388 36.10917462 -79.14693475 32.63298512 -71.9296875 29.1875 C-71.9296875 27.5375 -71.9296875 25.8875 -71.9296875 24.1875 C-68.9296875 25.1875 -68.9296875 25.1875 -67.9296875 27.1875 C-64.9596875 26.5275 -61.9896875 25.8675 -58.9296875 25.1875 C-58.67574219 24.20007813 -58.42179687 23.21265625 -58.16015625 22.1953125 C-57.81309854 20.90088104 -57.46540929 19.60661879 -57.1171875 18.3125 C-56.78074219 17.03632812 -56.44429687 15.76015625 -56.09765625 14.4453125 C-54.9296875 11.1875 -54.9296875 11.1875 -51.9296875 9.1875 C-52.9296875 14.1875 -53.9296875 19.1875 -54.9296875 24.1875 C-52.51055622 23.93174607 -50.09558211 23.65856619 -47.6796875 23.375 C-46.99777344 23.30474609 -46.31585938 23.23449219 -45.61328125 23.16210938 C-41.458375 22.65787318 -39.15700124 21.77083141 -35.9296875 19.1875 C-34.9396875 19.5175 -33.9496875 19.8475 -32.9296875 20.1875 C-33.4246875 20.6825 -33.4246875 20.6825 -33.9296875 21.1875 C-31.2896875 21.5175 -28.6496875 21.8475 -25.9296875 22.1875 C-25.4346875 20.7025 -25.4346875 20.7025 -24.9296875 19.1875 C-23.9396875 19.8475 -22.9496875 20.5075 -21.9296875 21.1875 C-20.00520859 21.63888911 -20.00520859 21.63888911 -17.91796875 21.8203125 C-17.16064453 21.90410156 -16.40332031 21.98789063 -15.62304688 22.07421875 C-14.83736328 22.15285156 -14.05167969 22.23148438 -13.2421875 22.3125 C-12.44490234 22.39886719 -11.64761719 22.48523438 -10.82617188 22.57421875 C-8.86145424 22.78598472 -6.89565954 22.98771473 -4.9296875 23.1875 C-5.55089396 21.26960046 -6.17680641 19.35322478 -6.8046875 17.4375 C-7.15273437 16.37015625 -7.50078125 15.3028125 -7.859375 14.203125 C-8.7364297 11.73200739 -9.68894955 9.4901308 -10.9296875 7.1875 C-14.46935205 8.19883273 -17.01563468 9.24766303 -20.0546875 11.375 C-22.9296875 13.1875 -22.9296875 13.1875 -25.109375 12.80078125 C-25.71007812 12.59839844 -26.31078125 12.39601563 -26.9296875 12.1875 C-18.45992745 6.23411794 -10.44677607 1.01507136 0 0 Z " fill="#E6ECF6" transform="translate(124.9296875,47.8125)"/>
<path d="M0 0 C2.9921875 2.0390625 2.9921875 2.0390625 5 4 C4.505 2.02 4.505 2.02 4 0 C10.93 0.495 10.93 0.495 18 1 C18 1.66 18 2.32 18 3 C18.721875 2.79375 19.44375 2.5875 20.1875 2.375 C23.44641585 1.94047789 25.08304504 2.58319331 28 4 C27.125 8.75 27.125 8.75 26 11 C28.0245738 9.06745228 29.42105792 7.36841312 31 5 C37.06590859 5.75823857 42.78794836 8.33719513 47 12.8125 C49.43049521 16.68610174 49.80233306 18.50693485 49 23 C45.697233 28.32704356 40.9275033 31.86864372 35 34 C32.67781668 33.66705539 31.09568185 33.04784093 29 32 C29.185625 32.639375 29.37125 33.27875 29.5625 33.9375 C29.7790625 34.9584375 29.7790625 34.9584375 30 36 C29.67 36.33 29.34 36.66 29 37 C29.61359375 37.23460937 30.2271875 37.46921875 30.859375 37.7109375 C34.85471854 40.11689255 35.77638039 44.69210208 37 49 C37.64735171 53.57093466 37.47053974 58.00007851 35 62 C31.2269148 63.95273708 28.49695814 64.16131995 24.3125 63.6875 C23.35988281 63.58824219 22.40726563 63.48898438 21.42578125 63.38671875 C19 63 19 63 17 62 C17.64517975 59.08318736 18.2911182 56.16654627 18.9375 53.25 C19.11990234 52.425 19.30230469 51.6 19.49023438 50.75 C19.66748047 49.95078125 19.84472656 49.1515625 20.02734375 48.328125 C20.18968506 47.5949707 20.35202637 46.86181641 20.51928711 46.10644531 C20.98553546 44.06338247 21.48420649 42.03106238 22 40 C22.66 40 23.32 40 24 40 C24 39.34 24 38.68 24 38 C23.34 38 22.68 38 22 38 C21.67 37.01 21.34 36.02 21 35 C20.67 36.32 20.34 37.64 20 39 C16.0186217 40.3271261 12.14954773 40.06915913 8 40 C9 38 10 36 11 34 C9.68712379 35.14540225 8.37470979 36.29133433 7.0625 37.4375 C6.33160156 38.07558594 5.60070312 38.71367188 4.84765625 39.37109375 C3.87860647 40.22541459 2.91348825 41.08651175 2 42 C-13.70197107 43.82396634 -13.70197107 43.82396634 -20.4609375 40.0859375 C-23.26522813 37.54872216 -25.63686913 34.94981093 -28 32 C-29.11375 30.74896484 -29.11375 30.74896484 -30.25 29.47265625 C-35.0037503 23.89257045 -35.0037503 23.89257045 -34.9921875 21.140625 C-32.59018778 15.95835789 -28.1221953 11.71324137 -24.32470703 7.49560547 C-23.2688474 6.303531 -22.26365805 5.06663231 -21.27734375 3.81640625 C-16.05965953 -1.98565861 -7.1489712 -1.14920831 0 0 Z " fill="#0A3BA6" transform="translate(103,72)"/>
<path d="M0 0 C18.44355734 14.24052778 30.17665298 33.13481766 34.1875 56.1875 C34.59183984 60.65650203 34.66534481 65.07712526 34.625 69.5625 C34.61815186 70.74207275 34.61130371 71.92164551 34.60424805 73.13696289 C34.4398278 82.08277913 33.38546273 89.77455882 30.1875 98.1875 C29.81367188 99.23550781 29.43984375 100.28351563 29.0546875 101.36328125 C24.60683853 112.95419893 17.84702299 122.37027046 9.1875 131.1875 C8.45015625 131.94933594 7.7128125 132.71117187 6.953125 133.49609375 C-11.13205616 151.0047339 -33.66780905 155.72088542 -58.02734375 155.46875 C-65.82501289 155.2547341 -72.48889433 153.97137992 -79.8125 151.1875 C-80.86050781 150.81367188 -81.90851563 150.43984375 -82.98828125 150.0546875 C-94.57919893 145.60683853 -103.99527046 138.84702299 -112.8125 130.1875 C-113.57433594 129.45015625 -114.33617188 128.7128125 -115.12109375 127.953125 C-132.6297339 109.86794384 -137.34588542 87.33219095 -137.09375 62.97265625 C-136.8797341 55.17498711 -135.59637992 48.51110567 -132.8125 41.1875 C-132.43867188 40.13949219 -132.06484375 39.09148437 -131.6796875 38.01171875 C-127.23373737 26.42574938 -120.47702197 16.99500088 -111.8125 8.1875 C-111.05195312 7.4140625 -110.29140625 6.640625 -109.5078125 5.84375 C-79.64958459 -22.74183213 -32.97104333 -22.8080939 0 0 Z M-113.24609375 14.1796875 C-128.88373411 32.5069068 -135.27054537 54.34728228 -133.8125 78.1875 C-132.19420858 95.78641922 -124.37664687 112.04156594 -112.8125 125.1875 C-111.81283203 126.33025391 -111.81283203 126.33025391 -110.79296875 127.49609375 C-97.34691713 141.89010449 -77.34745607 151.50157114 -57.703125 152.50390625 C-31.91878294 153.30528088 -10.61750756 145.33115741 8.3125 127.5625 C23.98765243 111.3141703 31.92076181 89.45439092 31.65551758 67.04833984 C30.85486998 43.97035565 20.58664713 23.59193029 4.015625 7.60546875 C-30.98789188 -22.32157124 -81.75353698 -18.73393078 -113.24609375 14.1796875 Z " fill="#D5B13B" transform="translate(146.8125,25.8125)"/>
<path d="M0 0 C6.08256171 2.84523134 11.3044359 7.3769456 15 13 C15 13.66 15 14.32 15 15 C15.99 15.495 15.99 15.495 17 16 C15.85660156 16.56589844 14.71320313 17.13179687 13.53515625 17.71484375 C12.04421862 18.45562408 10.55333604 19.19651522 9.0625 19.9375 C7.93038086 20.49727539 7.93038086 20.49727539 6.77539062 21.06835938 C5.69741211 21.60493164 5.69741211 21.60493164 4.59765625 22.15234375 C3.93258057 22.48226318 3.26750488 22.81218262 2.58227539 23.15209961 C1.00380637 23.89977008 1.00380637 23.89977008 0 25 C4.17166849 24.18277109 7.28866003 22.15262238 10.87890625 19.9609375 C13 19 13 19 16 20 C17.38671875 22.58203125 17.38671875 22.58203125 18.6875 25.8125 C19.12449219 26.87082031 19.56148438 27.92914063 20.01171875 29.01953125 C21 32 21 32 21 36 C18.22829605 35.88613541 15.45821954 35.75939222 12.6875 35.625 C11.50897461 35.57859375 11.50897461 35.57859375 10.30664062 35.53125 C9.54931641 35.49257812 8.79199219 35.45390625 8.01171875 35.4140625 C7.31522217 35.3826416 6.61872559 35.3512207 5.90112305 35.31884766 C4 35 4 35 1 33 C0.505 33.99 0.505 33.99 0 35 C-2.97 35 -5.94 35 -9 35 C-8.505 34.01 -8.505 34.01 -8 33 C-11.24983135 34.08784968 -11.24983135 34.08784968 -14 36 C-16.52596259 36.23653523 -19.03107207 36.42173692 -21.5625 36.5625 C-22.62887695 36.62727539 -22.62887695 36.62727539 -23.71679688 36.69335938 C-25.47761912 36.79971777 -27.2387832 36.90038846 -29 37 C-28.9278125 36.39671875 -28.855625 35.7934375 -28.78125 35.171875 C-28.64203125 33.97304687 -28.64203125 33.97304687 -28.5 32.75 C-28.36078125 31.56664062 -28.36078125 31.56664062 -28.21875 30.359375 C-27.93845381 27.73109603 -27.93845381 27.73109603 -28 24 C-28.1959375 24.97582031 -28.391875 25.95164062 -28.59375 26.95703125 C-30.98974243 37.15032663 -30.98974243 37.15032663 -33.94140625 39.6328125 C-37.34659136 40.92465068 -39.54121568 41.15292811 -43 40 C-43.33 39.34 -43.66 38.68 -44 38 C-44.99 37.67 -45.98 37.34 -47 37 C-49.26712824 32.22709844 -49.78631762 27.19736767 -49 22 C-46.93354779 18.53131237 -44.89808091 16.19108028 -41 15 C-35.21118064 14.61407871 -30.5621623 15.41081077 -25 17 C-24.814375 16.34 -24.62875 15.68 -24.4375 15 C-19.88852415 5.50648517 -11.07120007 -2.42935881 0 0 Z " fill="#E6EBF6" transform="translate(99,35)"/>
<path d="M0 0 C3.63 0.33 7.26 0.66 11 1 C11.33773437 2.18078125 11.67546875 3.3615625 12.0234375 4.578125 C12.47375566 6.13547529 12.92428771 7.69276373 13.375 9.25 C13.59671875 10.02730469 13.8184375 10.80460937 14.046875 11.60546875 C14.26601562 12.35957031 14.48515625 13.11367187 14.7109375 13.890625 C14.90993652 14.58188477 15.10893555 15.27314453 15.31396484 15.98535156 C16.03570436 18.10485138 16.95647462 20.02156897 18 22 C23.5004956 21.55083893 26.76316975 20.2435476 31.25 17.0625 C32.26578125 16.35222656 33.2815625 15.64195312 34.328125 14.91015625 C35.20984375 14.27980469 36.0915625 13.64945313 37 13 C40 11 40 11 43 11 C43.0928125 10.13375 43.0928125 10.13375 43.1875 9.25 C44.38367633 5.93751169 46.05974405 4.92954296 49 3 C51.90028755 2.12761613 54.81796673 1.67671472 57.8125 1.25 C58.60076172 1.12496094 59.38902344 0.99992187 60.20117188 0.87109375 C62.13197796 0.56684552 64.06574659 0.28150105 66 0 C65.67580986 8.23442944 63.88996879 15.29789712 61 23 C61.66 23.33 62.32 23.66 63 24 C58.71530579 32.06626144 53.71407381 39.35930378 45 43 C39.76218997 44.04155305 35.81412442 43.28903574 31.3125 40.4375 C25.78576856 36.34076201 21.03826617 31.72627835 19 25 C17.906875 25.495 16.81375 25.99 15.6875 26.5 C10.52006046 28.41250431 5.44610728 28.93751456 0 28 C-2.89683868 25.7984026 -4.39297231 24.21405538 -6 21 C-6.93907445 11.43991416 -6.93907445 11.43991416 -4.125 7.125 C-3.42375 6.42375 -2.7225 5.7225 -2 5 C-1.34 3.35 -0.68 1.7 0 0 Z " fill="#E4EAF5" transform="translate(56,113)"/>
<path d="M0 0 C5.17460492 -0.31242898 7.96945213 0.78678652 12.0703125 4.1875 C14.57360412 9.19408324 13.83342294 17.37020273 12.3984375 22.66796875 C11.5703125 24.5625 11.5703125 24.5625 10.0703125 27.1875 C10.8540625 27.22875 11.6378125 27.27 12.4453125 27.3125 C18.8901228 28.86814386 24.19228591 32.22212334 28.7578125 37 C30.57058203 41.40244029 30.66965176 44.68739836 29.0703125 49.1875 C25.42258465 54.53330805 20.08319478 57.96204242 14.0703125 60.1875 C13.4103125 60.1875 12.7503125 60.1875 12.0703125 60.1875 C12.48603516 61.09242187 12.48603516 61.09242187 12.91015625 62.015625 C13.45349609 63.21445313 13.45349609 63.21445313 14.0078125 64.4375 C14.36746094 65.22640625 14.72710937 66.0153125 15.09765625 66.828125 C17.31716543 72.21199466 17.60416971 77.40872981 17.0703125 83.1875 C15.45758683 86.87373011 14.4399875 87.94105 11.0703125 90.1875 C4.47009067 90.91256476 -1.61609164 90.0934912 -7.9296875 88.1875 C-6.96367816 83.74796772 -5.97758374 79.32748306 -4.8046875 74.9375 C-4.06712664 71.77652489 -3.85257912 69.38198999 -3.9296875 66.1875 C-6.49632186 66.58561485 -9.05629626 67.00511279 -11.6171875 67.4375 C-12.6990332 67.60185547 -12.6990332 67.60185547 -13.80273438 67.76953125 C-18.49170751 68.58314303 -21.48460684 69.68313497 -24.9296875 73.1875 C-25.4246875 74.6725 -25.4246875 74.6725 -25.9296875 76.1875 C-28.9921875 77.375 -28.9921875 77.375 -31.9296875 78.1875 C-31.9296875 75.8775 -31.9296875 73.5675 -31.9296875 71.1875 C-31.3315625 71.414375 -30.7334375 71.64125 -30.1171875 71.875 C-29.3953125 71.978125 -28.6734375 72.08125 -27.9296875 72.1875 C-26.9396875 71.1975 -25.9496875 70.2075 -24.9296875 69.1875 C-28.2296875 68.8575 -31.5296875 68.5275 -34.9296875 68.1875 C-31.03472682 66.24001966 -29.74150718 66.02916775 -25.6171875 66 C-21.17554446 65.69204608 -19.07853673 64.98331824 -15.9921875 61.75 C-15.48816406 61.13253906 -14.98414062 60.51507813 -14.46484375 59.87890625 C-12.77328349 58.01517701 -11.22527599 57.17415682 -8.9296875 56.1875 C-10.35400237 59.25525511 -11.83748824 61.39790099 -13.9296875 64.1875 C-7.9896875 63.6925 -7.9896875 63.6925 -1.9296875 63.1875 C-1.5996875 58.2375 -1.2696875 53.2875 -0.9296875 48.1875 C-0.5996875 48.1875 -0.2696875 48.1875 0.0703125 48.1875 C0.0703125 52.8075 0.0703125 57.4275 0.0703125 62.1875 C0.7303125 62.1875 1.3903125 62.1875 2.0703125 62.1875 C2.0703125 62.8475 2.0703125 63.5075 2.0703125 64.1875 C1.4103125 64.1875 0.7503125 64.1875 0.0703125 64.1875 C-0.0121875 65.404375 -0.0946875 66.62125 -0.1796875 67.875 C-0.85919222 74.22380525 -2.92427194 80.1525983 -4.9296875 86.1875 C-2.86799765 86.38370767 -0.80527752 86.56910753 1.2578125 86.75 C2.40636719 86.85441406 3.55492187 86.95882812 4.73828125 87.06640625 C7.75662449 87.17609985 10.15955186 86.92752389 13.0703125 86.1875 C15.02337505 78.3752498 14.20924223 72.65475636 11.3359375 65.2890625 C9.86920628 62.85356437 8.68890926 62.18872817 6.0703125 61.1875 C6.4003125 59.5375 6.7303125 57.8875 7.0703125 56.1875 C8.2459375 56.620625 8.2459375 56.620625 9.4453125 57.0625 C14.95047622 57.25233323 18.77757602 54.47539627 23.0703125 51.1875 C25.50268997 48.45509359 26.03350743 47.47668269 26.5078125 43.75 C25.97259173 39.39177375 25.32337758 38.13074936 22.0703125 35.1875 C15.94720748 31.45056857 15.94720748 31.45056857 9.0703125 30.1875 C8.04017973 31.83571244 7.03916622 33.50253702 6.0703125 35.1875 C5.4103125 35.1875 4.7503125 35.1875 4.0703125 35.1875 C4.4003125 32.8775 4.7303125 30.5675 5.0703125 28.1875 C2.1003125 27.8575 -0.8696875 27.5275 -3.9296875 27.1875 C-3.9296875 26.5275 -3.9296875 25.8675 -3.9296875 25.1875 C-8.2196875 25.1875 -12.5096875 25.1875 -16.9296875 25.1875 C-16.4346875 27.1675 -16.4346875 27.1675 -15.9296875 29.1875 C-16.75726563 28.54167969 -17.58484375 27.89585938 -18.4375 27.23046875 C-22.05656764 24.83084648 -25.53081073 24.45651799 -29.8046875 24.5 C-30.86586792 24.50652588 -30.86586792 24.50652588 -31.94848633 24.51318359 C-37.57803063 24.75848247 -40.6198086 26.13796998 -44.37890625 30.23046875 C-45.14654297 31.19919922 -45.14654297 31.19919922 -45.9296875 32.1875 C-46.45175781 32.78175781 -46.97382812 33.37601563 -47.51171875 33.98828125 C-48.69349394 35.35236886 -49.81924247 36.76474231 -50.9296875 38.1875 C-51.9196875 37.6925 -51.9196875 37.6925 -52.9296875 37.1875 C-50.87513563 32.49731088 -47.586282 29.70866507 -43.9296875 26.1875 C-47.8896875 26.5175 -51.8496875 26.8475 -55.9296875 27.1875 C-56.5896875 32.1375 -57.2496875 37.0875 -57.9296875 42.1875 C-58.2596875 42.1875 -58.5896875 42.1875 -58.9296875 42.1875 C-58.9296875 37.5675 -58.9296875 32.9475 -58.9296875 28.1875 C-61.5696875 28.8475 -64.2096875 29.5075 -66.9296875 30.1875 C-66.5996875 31.8375 -66.2696875 33.4875 -65.9296875 35.1875 C-66.5896875 35.1875 -67.2496875 35.1875 -67.9296875 35.1875 C-68.2596875 34.5275 -68.5896875 33.8675 -68.9296875 33.1875 C-73.60679288 33.68666476 -76.40548341 34.84065619 -80.1796875 37.625 C-81.45585938 38.55119141 -81.45585938 38.55119141 -82.7578125 39.49609375 C-84.9771912 41.15272554 -84.9771912 41.15272554 -86.9296875 43.1875 C-86.9296875 39.1875 -86.9296875 39.1875 -85.6796875 37.625 C-81.33305766 34.05455406 -77.05177422 31.52389043 -71.9296875 29.1875 C-71.9296875 27.5375 -71.9296875 25.8875 -71.9296875 24.1875 C-68.9296875 25.1875 -68.9296875 25.1875 -67.9296875 27.1875 C-64.9596875 26.5275 -61.9896875 25.8675 -58.9296875 25.1875 C-58.67574219 24.20007813 -58.42179687 23.21265625 -58.16015625 22.1953125 C-57.81309854 20.90088104 -57.46540929 19.60661879 -57.1171875 18.3125 C-56.78074219 17.03632812 -56.44429687 15.76015625 -56.09765625 14.4453125 C-54.9296875 11.1875 -54.9296875 11.1875 -51.9296875 9.1875 C-52.9296875 14.1875 -53.9296875 19.1875 -54.9296875 24.1875 C-52.51055622 23.93174607 -50.09558211 23.65856619 -47.6796875 23.375 C-46.99777344 23.30474609 -46.31585938 23.23449219 -45.61328125 23.16210938 C-41.458375 22.65787318 -39.15700124 21.77083141 -35.9296875 19.1875 C-34.9396875 19.5175 -33.9496875 19.8475 -32.9296875 20.1875 C-33.4246875 20.6825 -33.4246875 20.6825 -33.9296875 21.1875 C-31.2896875 21.5175 -28.6496875 21.8475 -25.9296875 22.1875 C-25.4346875 20.7025 -25.4346875 20.7025 -24.9296875 19.1875 C-23.9396875 19.8475 -22.9496875 20.5075 -21.9296875 21.1875 C-20.00520859 21.63888911 -20.00520859 21.63888911 -17.91796875 21.8203125 C-17.16064453 21.90410156 -16.40332031 21.98789063 -15.62304688 22.07421875 C-14.83736328 22.15285156 -14.05167969 22.23148438 -13.2421875 22.3125 C-12.44490234 22.39886719 -11.64761719 22.48523438 -10.82617188 22.57421875 C-8.86145424 22.78598472 -6.89565954 22.98771473 -4.9296875 23.1875 C-5.55089396 21.26960046 -6.17680641 19.35322478 -6.8046875 17.4375 C-7.15273437 16.37015625 -7.50078125 15.3028125 -7.859375 14.203125 C-8.7364297 11.73200739 -9.68894955 9.4901308 -10.9296875 7.1875 C-14.46935205 8.19883273 -17.01563468 9.24766303 -20.0546875 11.375 C-22.9296875 13.1875 -22.9296875 13.1875 -25.109375 12.80078125 C-25.71007812 12.59839844 -26.31078125 12.39601563 -26.9296875 12.1875 C-18.45992745 6.23411794 -10.44677607 1.01507136 0 0 Z " fill="#EEF2F9" transform="translate(124.9296875,47.8125)"/>
<path d="M0 0 C6.93 0.495 6.93 0.495 14 1 C14 1.66 14 2.32 14 3 C14.721875 2.79375 15.44375 2.5875 16.1875 2.375 C19.44641585 1.94047789 21.08304504 2.58319331 24 4 C23.125 8.75 23.125 8.75 22 11 C24.0245738 9.06745228 25.42105792 7.36841312 27 5 C33.06590859 5.75823857 38.78794836 8.33719513 43 12.8125 C45.43049521 16.68610174 45.80233306 18.50693485 45 23 C41.697233 28.32704356 36.9275033 31.86864372 31 34 C28.67781668 33.66705539 27.09568185 33.04784093 25 32 C25.185625 32.639375 25.37125 33.27875 25.5625 33.9375 C25.706875 34.618125 25.85125 35.29875 26 36 C25.67 36.33 25.34 36.66 25 37 C25.61359375 37.23460937 26.2271875 37.46921875 26.859375 37.7109375 C30.85471854 40.11689255 31.77638039 44.69210208 33 49 C33.64735171 53.57093466 33.47053974 58.00007851 31 62 C27.2269148 63.95273708 24.49695814 64.16131995 20.3125 63.6875 C19.35988281 63.58824219 18.40726563 63.48898438 17.42578125 63.38671875 C15 63 15 63 13 62 C13.64517975 59.08318736 14.2911182 56.16654627 14.9375 53.25 C15.21110352 52.0125 15.21110352 52.0125 15.49023438 50.75 C15.66748047 49.95078125 15.84472656 49.1515625 16.02734375 48.328125 C16.18968506 47.5949707 16.35202637 46.86181641 16.51928711 46.10644531 C16.98553546 44.06338247 17.48420649 42.03106238 18 40 C18.66 40 19.32 40 20 40 C20 39.34 20 38.68 20 38 C19.34 38 18.68 38 18 38 C17.67 37.01 17.34 36.02 17 35 C16.67 36.32 16.34 37.64 16 39 C12.0186217 40.3271261 8.14954773 40.06915913 4 40 C5.20381448 37.50638429 6.45428722 35.31856917 8 33 C8 32.01 8 31.02 8 30 C9.48451727 27.90446403 11.12273295 25.99161361 12.78515625 24.03515625 C14.19296929 22.10723735 14.19296929 22.10723735 13.890625 19.99609375 C12.81288682 17.58063669 11.46947429 15.95368487 9.6875 14 C8.74390625 12.95199219 8.74390625 12.95199219 7.78125 11.8828125 C6.46884706 10.49557957 5.09363817 9.16712697 3.6875 7.875 C2 6 2 6 0 0 Z " fill="#E2E8F5" transform="translate(107,72)"/>
<path d="M0 0 C12.57346308 10.68744362 22.02338663 26.53016216 23.59082031 43.16552734 C24.14778297 53.04860926 23.67954305 62.46771214 20.375 71.875 C20.0346875 72.86757812 19.694375 73.86015625 19.34375 74.8828125 C12.70891009 92.41134225 -0.20137721 104.78841907 -17.10546875 112.453125 C-33.87557747 119.16888775 -52.13760256 118.49568847 -68.90234375 112.05859375 C-85.78049339 104.72132066 -97.34156882 91.50070461 -104.625 74.875 C-110.5482737 59.59433672 -110.84073398 42.12009901 -104.625 26.875 C-100.63273721 17.8872374 -95.59775977 10.77648795 -88.625 3.875 C-87.62919922 2.82892578 -87.62919922 2.82892578 -86.61328125 1.76171875 C-62.63336385 -21.76143832 -25.42043215 -19.39796062 0 0 Z M-90.26953125 9.07421875 C-103.51457468 24.82330024 -106.67444102 40.97726507 -105.625 60.875 C-105.13854674 64.85418769 -104.17081702 68.18279516 -102.625 71.875 C-102.3775 72.47231934 -102.13 73.06963867 -101.875 73.68505859 C-94.99097298 89.86331885 -84.50335015 102.13854114 -68.1171875 109.4375 C-51.92519224 115.81287174 -33.54385212 116.7115872 -17.33203125 109.7109375 C-0.29146711 101.57544236 10.16919745 89.25143892 17.33203125 71.9921875 C22.69536713 55.96244206 21.81365193 39.37232785 15.08984375 23.921875 C11.58136182 16.92445701 6.87121266 11.39969044 1.375 5.875 C0.78332031 5.24851562 0.19164062 4.62203125 -0.41796875 3.9765625 C-11.62831669 -6.96156949 -27.87450276 -12.09538828 -43.1875 -12.5 C-61.38322024 -12.08773857 -77.76469119 -4.02703658 -90.26953125 9.07421875 Z " fill="#CFAD3F" transform="translate(137.625,44.125)"/>
<path d="M0 0 C5.53402791 0.92029289 8.52909751 4.85961631 12 9 C17.10124105 16.27399187 20.29303883 23.89447196 23.0546875 32.26171875 C23.73551683 34.88140125 23.73551683 34.88140125 25 36 C26.17558633 54.3853994 23.54922102 71.79697511 11.2421875 86.37109375 C5.47885992 92.88570023 0.18760364 97.78142478 -8 101 C-9.05703125 101.41765625 -10.1140625 101.8353125 -11.203125 102.265625 C-18.55540905 105.13400487 -24.06871923 107.15252463 -32 107 C-31.12988281 106.35224609 -31.12988281 106.35224609 -30.2421875 105.69140625 C-23.03179596 100.25220845 -18.26982961 95.03827772 -14 87 C-13.236875 87.165 -12.47375 87.33 -11.6875 87.5 C-8.54059659 87.92669877 -5.54429265 88.16514611 -2.375 88.25 C-1.45460937 88.27578125 -0.53421875 88.3015625 0.4140625 88.328125 C3.48291951 87.9387232 4.79282692 87.13726262 7 85 C9.56194429 77.31416713 7.86407693 70.5566325 4.875 63.25 C4 61 4 61 4 59 C4.65226562 58.70867187 5.30453125 58.41734375 5.9765625 58.1171875 C14.07588098 54.41111076 14.07588098 54.41111076 20 48 C21.32144168 43.75787187 21.70121475 40.50260303 19.796875 36.421875 C15.72207968 30.92975957 8.49746502 27.70985921 2 26 C2.33 25.13375 2.66 24.2675 3 23.375 C4.66324445 17.49338196 4.84018563 11.02370375 4 5 C2.11523435 2.10699692 2.11523435 2.10699692 0 0 Z " fill="#093489" transform="translate(133,49)"/>
<path d="M0 0 C6.66666667 3.33333333 13.33333333 6.66666667 20 10 C19.83504162 16.43337671 16.24532655 20.51645873 12 25 C7.71778374 28.76072856 3.07414028 29.76667048 -2.51171875 29.50390625 C-9.02296644 28.18530193 -12.86819358 23.50254247 -16.5 18.25 C-19 14.34042553 -19 14.34042553 -19 12 C-17.19217025 10.82149686 -15.32570852 9.73238594 -13.4375 8.6875 C-8.7263607 6.02250049 -4.32683164 3.24512373 0 0 Z " fill="#043BA9" transform="translate(96,124)"/>
<path d="M0 0 C-0.3125 2.375 -0.3125 2.375 -1 5 C-1.99 5.66 -2.98 6.32 -4 7 C-3.505 7.45375 -3.01 7.9075 -2.5 8.375 C-1 10 -1 10 -1 12 C0.65 11.67 2.3 11.34 4 11 C3.67 12.98 3.34 14.96 3 17 C2.34 17 1.68 17 1 17 C0.855625 18.0725 0.71125 19.145 0.5625 20.25 C-0.16526884 22.76131499 -0.76140386 23.80850867 -2.8203125 25.4609375 C-6.16182102 27.19572764 -8.70502597 28.18702922 -12.48828125 27.640625 C-16.06891928 26.49200789 -18.86152253 25.09231831 -22 23 C-22.6875 19.875 -22.6875 19.875 -23 17 C-23.66 17 -24.32 17 -25 17 C-25.33 15.02 -25.66 13.04 -26 11 C-24.8553125 11.0928125 -24.8553125 11.0928125 -23.6875 11.1875 C-20.46983093 10.96301146 -20.10037469 10.28301597 -18 8 C-15.8125 7.3125 -15.8125 7.3125 -14 7 C-16.31 6.34 -18.62 5.68 -21 5 C-21.375 2.8125 -21.375 2.8125 -21 0 C-13.43785898 -7.56214102 -7.9567639 -7.02067403 0 0 Z " fill="#CA9C3A" transform="translate(106,82)"/>
<path d="M0 0 C5.78781211 2.63656963 10.19839402 6.26944232 13 12 C11.65535114 16.03394658 9.86122899 16.47434049 6.1875 18.5 C1.8424193 20.86695122 1.8424193 20.86695122 -2.07421875 23.84375 C-2.70972656 24.2253125 -3.34523438 24.606875 -4 25 C-6.29296875 24.4140625 -6.29296875 24.4140625 -9 23 C-10.17175781 22.43023437 -11.34351562 21.86046875 -12.55078125 21.2734375 C-13.80572317 20.64268135 -15.05961397 20.00983 -16.3125 19.375 C-16.95767578 19.05015625 -17.60285156 18.7253125 -18.26757812 18.390625 C-19.84597541 17.59558044 -21.42311694 16.79804366 -23 16 C-21.8488111 9.93255732 -17.70793288 5.55266626 -13.25 1.5 C-8.68155967 -0.60851092 -4.94060491 -0.9806915 0 0 Z " fill="#053CA9" transform="translate(99,38)"/>
<path d="M0 0 C5.17460492 -0.31242898 7.96945213 0.78678652 12.0703125 4.1875 C13.45257266 6.95202033 13.16556637 9.2336363 13.1328125 12.3125 C13.12378906 13.40820312 13.11476563 14.50390625 13.10546875 15.6328125 C13.09386719 16.47585937 13.08226562 17.31890625 13.0703125 18.1875 C12.4103125 18.1875 11.7503125 18.1875 11.0703125 18.1875 C11.01423828 17.04861328 11.01423828 17.04861328 10.95703125 15.88671875 C10.89128906 14.89285156 10.82554687 13.89898437 10.7578125 12.875 C10.69980469 11.88886719 10.64179688 10.90273438 10.58203125 9.88671875 C10.01469436 6.89412492 9.49222155 5.9651007 7.0703125 4.1875 C1.98018011 2.4907892 -2.76765956 3.06994756 -7.9296875 4.1875 C-7.4965625 5.37988281 -7.0634375 6.57226562 -6.6171875 7.80078125 C-6.05443889 9.3670982 -5.49195252 10.93350939 -4.9296875 12.5 C-4.64351563 13.28568359 -4.35734375 14.07136719 -4.0625 14.88085938 C-3.65644531 16.0168457 -3.65644531 16.0168457 -3.2421875 17.17578125 C-2.99082031 17.87227783 -2.73945312 18.56877441 -2.48046875 19.28637695 C-1.9296875 21.1875 -1.9296875 21.1875 -1.9296875 24.1875 C0.0503125 24.6825 0.0503125 24.6825 2.0703125 25.1875 C-1.6796875 27.1875 -1.6796875 27.1875 -3.9296875 27.1875 C-3.9296875 26.5275 -3.9296875 25.8675 -3.9296875 25.1875 C-8.2196875 25.1875 -12.5096875 25.1875 -16.9296875 25.1875 C-16.4346875 27.1675 -16.4346875 27.1675 -15.9296875 29.1875 C-16.75726563 28.54167969 -17.58484375 27.89585938 -18.4375 27.23046875 C-22.05656764 24.83084648 -25.53081073 24.45651799 -29.8046875 24.5 C-30.86586792 24.50652588 -30.86586792 24.50652588 -31.94848633 24.51318359 C-37.57803063 24.75848247 -40.6198086 26.13796998 -44.37890625 30.23046875 C-45.14654297 31.19919922 -45.14654297 31.19919922 -45.9296875 32.1875 C-46.45175781 32.78175781 -46.97382812 33.37601563 -47.51171875 33.98828125 C-48.69349394 35.35236886 -49.81924247 36.76474231 -50.9296875 38.1875 C-51.9196875 37.6925 -51.9196875 37.6925 -52.9296875 37.1875 C-50.87513563 32.49731088 -47.586282 29.70866507 -43.9296875 26.1875 C-47.8896875 26.5175 -51.8496875 26.8475 -55.9296875 27.1875 C-56.5896875 32.1375 -57.2496875 37.0875 -57.9296875 42.1875 C-58.2596875 42.1875 -58.5896875 42.1875 -58.9296875 42.1875 C-58.9296875 37.5675 -58.9296875 32.9475 -58.9296875 28.1875 C-61.5696875 28.8475 -64.2096875 29.5075 -66.9296875 30.1875 C-66.5996875 31.8375 -66.2696875 33.4875 -65.9296875 35.1875 C-66.5896875 35.1875 -67.2496875 35.1875 -67.9296875 35.1875 C-68.2596875 34.5275 -68.5896875 33.8675 -68.9296875 33.1875 C-73.60679288 33.68666476 -76.40548341 34.84065619 -80.1796875 37.625 C-81.45585938 38.55119141 -81.45585938 38.55119141 -82.7578125 39.49609375 C-84.9771912 41.15272554 -84.9771912 41.15272554 -86.9296875 43.1875 C-86.9296875 39.1875 -86.9296875 39.1875 -85.6796875 37.625 C-81.33305766 34.05455406 -77.05177422 31.52389043 -71.9296875 29.1875 C-71.9296875 27.5375 -71.9296875 25.8875 -71.9296875 24.1875 C-68.9296875 25.1875 -68.9296875 25.1875 -67.9296875 27.1875 C-64.9596875 26.5275 -61.9896875 25.8675 -58.9296875 25.1875 C-58.67574219 24.20007813 -58.42179687 23.21265625 -58.16015625 22.1953125 C-57.81309854 20.90088104 -57.46540929 19.60661879 -57.1171875 18.3125 C-56.78074219 17.03632812 -56.44429687 15.76015625 -56.09765625 14.4453125 C-54.9296875 11.1875 -54.9296875 11.1875 -51.9296875 9.1875 C-52.9296875 14.1875 -53.9296875 19.1875 -54.9296875 24.1875 C-52.51055622 23.93174607 -50.09558211 23.65856619 -47.6796875 23.375 C-46.99777344 23.30474609 -46.31585938 23.23449219 -45.61328125 23.16210938 C-41.458375 22.65787318 -39.15700124 21.77083141 -35.9296875 19.1875 C-34.9396875 19.5175 -33.9496875 19.8475 -32.9296875 20.1875 C-33.4246875 20.6825 -33.4246875 20.6825 -33.9296875 21.1875 C-31.2896875 21.5175 -28.6496875 21.8475 -25.9296875 22.1875 C-25.4346875 20.7025 -25.4346875 20.7025 -24.9296875 19.1875 C-23.9396875 19.8475 -22.9496875 20.5075 -21.9296875 21.1875 C-20.00520859 21.63888911 -20.00520859 21.63888911 -17.91796875 21.8203125 C-17.16064453 21.90410156 -16.40332031 21.98789063 -15.62304688 22.07421875 C-14.83736328 22.15285156 -14.05167969 22.23148438 -13.2421875 22.3125 C-12.44490234 22.39886719 -11.64761719 22.48523438 -10.82617188 22.57421875 C-8.86145424 22.78598472 -6.89565954 22.98771473 -4.9296875 23.1875 C-5.55089396 21.26960046 -6.17680641 19.35322478 -6.8046875 17.4375 C-7.15273437 16.37015625 -7.50078125 15.3028125 -7.859375 14.203125 C-8.7364297 11.73200739 -9.68894955 9.4901308 -10.9296875 7.1875 C-14.46935205 8.19883273 -17.01563468 9.24766303 -20.0546875 11.375 C-22.9296875 13.1875 -22.9296875 13.1875 -25.109375 12.80078125 C-25.71007812 12.59839844 -26.31078125 12.39601563 -26.9296875 12.1875 C-18.45992745 6.23411794 -10.44677607 1.01507136 0 0 Z " fill="#EDF1F9" transform="translate(124.9296875,47.8125)"/>
<path d="M0 0 C1.765625 2.14453125 1.765625 2.14453125 3.25 4.8125 C4.00023437 6.12154297 4.00023437 6.12154297 4.765625 7.45703125 C5.87765793 9.74795986 6.61160615 11.50021529 7 14 C5.77808788 16.55359413 4.53634417 18.85287162 3.0625 21.25 C2.67642578 21.8996875 2.29035156 22.549375 1.89257812 23.21875 C0.93941582 24.81912129 -0.02885924 26.4104742 -1 28 C-7.87262429 27.10910426 -12.009261 24.16828577 -17.5 20.1875 C-19.36511051 17.46754717 -19.5725325 15.21662007 -19.3671875 11.94921875 C-18.56447599 7.68801613 -16.07428605 5.77537003 -12.68359375 3.328125 C-4.66150612 -1.88443865 -4.66150612 -1.88443865 0 0 Z " fill="#043BA9" transform="translate(57,81)"/>
<path d="M0 0 C0.66 0.33 1.32 0.66 2 1 C1.67 1.66 1.34 2.32 1 3 C3.11578704 7.97824589 3.11578704 7.97824589 7.25 10.9375 C7.8275 10.958125 8.405 10.97875 9 11 C8.1875 13.4375 8.1875 13.4375 7 16 C6.01 16.33 5.02 16.66 4 17 C4 16.34 4 15.68 4 15 C1.525 14.505 1.525 14.505 -1 14 C-1.33 15.65 -1.66 17.3 -2 19 C-3.65 19.33 -5.3 19.66 -7 20 C-7 20.99 -7 21.98 -7 23 C-10.81684226 21.44499019 -13.19195732 18.96404505 -16 16 C-16.66 16.66 -17.32 17.32 -18 18 C-17.236875 18.433125 -16.47375 18.86625 -15.6875 19.3125 C-11.46689304 21.96264856 -11.46689304 21.96264856 -10 24 C-10.0625 26.0625 -10.0625 26.0625 -11 28 C-13.0625 29.25 -13.0625 29.25 -15 30 C-15 30.99 -15 31.98 -15 33 C-15.66 33 -16.32 33 -17 33 C-17.495 35.475 -17.495 35.475 -18 38 C-19.32 38 -20.64 38 -22 38 C-20.515 37.505 -20.515 37.505 -19 37 C-19 36.34 -19 35.68 -19 35 C-22.465 35.495 -22.465 35.495 -26 36 C-26.33 34.68 -26.66 33.36 -27 32 C-28.485 32.495 -28.485 32.495 -30 33 C-24.92895529 18.87714048 -12.28889455 7.89626842 0 0 Z " fill="#F2EFE8" transform="translate(53,24)"/>
<path d="M0 0 C6.15486477 1.07923844 11.64117834 3.18125198 16 7.8125 C18.43049521 11.68610174 18.80233306 13.50693485 18 18 C14.697233 23.32704356 9.9275033 26.86864372 4 29 C1.953125 28.96484375 1.953125 28.96484375 0 28 C-1.88671875 25.6015625 -1.88671875 25.6015625 -3.6875 22.625 C-4.28949219 21.64789063 -4.89148438 20.67078125 -5.51171875 19.6640625 C-7 17 -7 17 -8 14 C-6.7689092 11.49998346 -5.50257845 9.18565407 -4.0625 6.8125 C-3.48338867 5.83120117 -3.48338867 5.83120117 -2.89257812 4.83007812 C-1.93746912 3.21464684 -0.96989934 1.60659475 0 0 Z " fill="#043BA9" transform="translate(134,77)"/>
<path d="M0 0 C2.19933508 2.82215563 4.03788824 5.70815161 5.8125 8.8125 C10.0671098 16.55440479 10.0671098 16.55440479 16.8515625 21.671875 C24.13463176 22.78419831 30.99086512 22.11596525 38 20 C38.4125 20.65226562 38.825 21.30453125 39.25 21.9765625 C43.55088069 28.48548461 47.95078377 33.47539188 55 37 C66.99022833 38.0349149 78.34136305 36.73190539 88.80078125 30.26953125 C89.88939453 29.64111328 89.88939453 29.64111328 91 29 C91.66 29.33 92.32 29.66 93 30 C78.61702315 40.27355489 63.2129184 41.61839026 46 40 C41.65127009 39.17167049 37.97073173 37.92846048 34 36 C32.72382812 35.45666016 32.72382812 35.45666016 31.421875 34.90234375 C17.44490959 28.57841001 6.08989149 17.07134018 0 3 C0 2.01 0 1.02 0 0 Z " fill="#0D3178" transform="translate(37,118)"/>
<path d="M0 0 C-0.63808594 0.58007812 -1.27617188 1.16015625 -1.93359375 1.7578125 C-2.75988281 2.53898437 -3.58617188 3.32015625 -4.4375 4.125 C-5.26121094 4.89070313 -6.08492187 5.65640625 -6.93359375 6.4453125 C-9.31367356 9.38779302 -9.58147561 11.30045105 -10 15 C-11 16 -12 17 -13 18 C-12.86965506 19.87053397 -12.86965506 19.87053397 -12 22 C-11.855625 23.03125 -11.71125 24.0625 -11.5625 25.125 C-10.17185729 30.24256518 -5.85809925 33.45317039 -2.1171875 36.9609375 C-1.41851562 37.63382813 -0.71984375 38.30671875 0 39 C0 39.33 0 39.66 0 40 C-1.216875 40.020625 -2.43375 40.04125 -3.6875 40.0625 C-4.37199219 40.07410156 -5.05648437 40.08570313 -5.76171875 40.09765625 C-8 40 -8 40 -13 39 C-13.66 35.7 -14.32 32.4 -15 29 C-15 31.97 -15 34.94 -15 38 C-17.97 37.67 -20.94 37.34 -24 37 C-22.94124926 33.59687262 -21.99097846 30.98646769 -20 28 C-18.94327555 23.99704379 -18.03082361 19.80553973 -20.0546875 16.03515625 C-20.96743286 14.89809211 -21.89962349 13.77633463 -22.8515625 12.671875 C-24.75058242 9.90731539 -24.32782487 7.21268374 -24 4 C-21.36 3.34 -18.72 2.68 -16 2 C-15.67 4.31 -15.34 6.62 -15 9 C-14.34 6.36 -13.68 3.72 -13 1 C-11.58622218 0.63447197 -10.16879424 0.28304505 -8.75 -0.0625 C-7.96109375 -0.25972656 -7.1721875 -0.45695312 -6.359375 -0.66015625 C-3.89605178 -1.01497267 -2.34395868 -0.76877544 0 0 Z " fill="#E0E6F4" transform="translate(82,74)"/>
<path d="M0 0 C3.63 0.33 7.26 0.66 11 1 C11.81520635 3.72838435 12.62724843 6.45764417 13.4375 9.1875 C13.66759766 9.95642578 13.89769531 10.72535156 14.13476562 11.51757812 C15.26235986 15.32525141 16.3168177 19.08151762 17 23 C11.3794217 25.40881927 7.12500623 26.90368944 1 26 C-2.84025154 22.79979038 -3.79832135 21.29970687 -4.5625 16.375 C-4.2189663 10.67898955 -1.97827489 5.29895061 0 0 Z " fill="#043BA9" transform="translate(56,113)"/>
<path d="M0 0 C2.475 0.495 2.475 0.495 5 1 C5 4 5 4 3.53125 5.5078125 C2.8609375 6.04148437 2.190625 6.57515625 1.5 7.125 C-6.68652674 14.03870986 -12.2581276 21.39052373 -17 31 C-17.99 31 -18.98 31 -20 31 C-20 29.35 -20 27.7 -20 26 C-23.96 26.495 -23.96 26.495 -28 27 C-27.34 26.67 -26.68 26.34 -26 26 C-26 25.34 -26 24.68 -26 24 C-26.99 24.33 -27.98 24.66 -29 25 C-29.33 26.32 -29.66 27.64 -30 29 C-27.03 28.67 -24.06 28.34 -21 28 C-21 28.66 -21 29.32 -21 30 C-21.99 30 -22.98 30 -24 30 C-24 31.98 -24 33.96 -24 36 C-24.99 36 -25.98 36 -27 36 C-27.33 35.34 -27.66 34.68 -28 34 C-29.485 34.495 -29.485 34.495 -31 35 C-31.33 33.68 -31.66 32.36 -32 31 C-32.495 33.475 -32.495 33.475 -33 36 C-32.34 36.33 -31.68 36.66 -31 37 C-32.485 37.495 -32.485 37.495 -34 38 C-34.33 39.98 -34.66 41.96 -35 44 C-33.68 44.33 -32.36 44.66 -31 45 C-31.66 45.4125 -32.32 45.825 -33 46.25 C-33.66 46.8275 -34.32 47.405 -35 48 C-35 49.32 -35 50.64 -35 52 C-34.34 52.33 -33.68 52.66 -33 53 C-33 53.66 -33 54.32 -33 55 C-33.99 55.66 -34.98 56.32 -36 57 C-36.72382467 59.05925139 -36.72382467 59.05925139 -37 61 C-37.66 61 -38.32 61 -39 61 C-39.65523709 46.60905211 -37.60268271 31.52862628 -30 19 C-27.80859375 18.1171875 -27.80859375 18.1171875 -26 18 C-25.67 18.99 -25.34 19.98 -25 21 C-22.69 21 -20.38 21 -18 21 C-18 21.66 -18 22.32 -18 23 C-17.67 23 -17.34 23 -17 23 C-16.87625 22.38125 -16.7525 21.7625 -16.625 21.125 C-16 19 -16 19 -14 17 C-14.33 16.34 -14.66 15.68 -15 15 C-13.35 14.34 -11.7 13.68 -10 13 C-10.56583839 9.71813734 -11.41272404 8.10815078 -14 6 C-16.09989652 4.82425289 -16.09989652 4.82425289 -18 4 C-16.68 3.01 -15.36 2.02 -14 1 C-13.59007813 1.49371094 -13.18015625 1.98742188 -12.7578125 2.49609375 C-12.21898438 3.13675781 -11.68015625 3.77742188 -11.125 4.4375 C-10.32449219 5.39462891 -10.32449219 5.39462891 -9.5078125 6.37109375 C-8.0777243 8.10805004 -8.0777243 8.10805004 -6 9 C-6.66 7.68 -7.32 6.36 -8 5 C-6.02 5 -4.04 5 -2 5 C-1.34 3.35 -0.68 1.7 0 0 Z " fill="#E7E7E5" transform="translate(52,38)"/>
<path d="M0 0 C3.68043126 5.40991758 4.64871611 11.62095827 4 18 C3.3125 20.875 3.3125 20.875 2 23 C-1.7730852 24.95273708 -4.50304186 25.16131995 -8.6875 24.6875 C-9.64011719 24.58824219 -10.59273438 24.48898438 -11.57421875 24.38671875 C-14 24 -14 24 -16 23 C-15.35482025 20.08318736 -14.7088818 17.16654627 -14.0625 14.25 C-13.88009766 13.425 -13.69769531 12.6 -13.50976562 11.75 C-13.33251953 10.95078125 -13.15527344 10.1515625 -12.97265625 9.328125 C-12.72914429 8.22839355 -12.72914429 8.22839355 -12.48071289 7.10644531 C-12.32207764 6.41131836 -12.16344238 5.71619141 -12 5 C-11.87165771 4.27780273 -11.74331543 3.55560547 -11.61108398 2.81152344 C-11.40942627 2.2137207 -11.20776855 1.61591797 -11 1 C-7.01377428 -0.90251682 -4.19221558 -1.42199953 0 0 Z " fill="#063CAA" transform="translate(136,111)"/>
<path d="M0 0 C0.33 0 0.66 0 1 0 C1.09796875 0.66386719 1.1959375 1.32773438 1.296875 2.01171875 C2.49929589 9.3209391 2.49929589 9.3209391 7 15 C11.18415201 17.41155559 15.41670515 19.47223505 20 21 C19.48825889 23.8145761 18.86061662 26.4099511 17.9375 29.125 C16.38853745 35.52737855 15.99369005 41.52615471 18.5 47.6875 C18.995 48.450625 19.49 49.21375 20 50 C11.29530839 46.38271704 6.68788121 36.2583637 3.1875 28.078125 C-0.41783668 18.73271281 -0.21845556 9.89118231 0 0 Z " fill="#043BA8" transform="translate(34,90)"/>
<path d="M0 0 C5.52642194 0.91902804 8.54397146 4.85405532 12 9 C20.0933548 20.99550801 23.26101612 31.58610965 23 46 C22.01 46.495 22.01 46.495 21 47 C21.09765625 45.07942708 21.1953125 43.15885417 21.29296875 41.23828125 C20.89445163 38.19361045 19.81588086 36.46610894 18 34 C13.21553727 30.35195011 7.82878202 27.53389001 2 26 C2.33 25.13375 2.66 24.2675 3 23.375 C4.66324445 17.49338196 4.84018563 11.02370375 4 5 C2.11523435 2.10699692 2.11523435 2.10699692 0 0 Z " fill="#073CA8" transform="translate(133,49)"/>
<path d="M0 0 C2.625 1.625 2.625 1.625 3.625 3.625 C4.35194504 10.23740389 2.97017569 15.46891381 0.625 21.625 C-2.675 21.295 -5.975 20.965 -9.375 20.625 C-10.38077013 17.85613877 -11.37980147 15.08515896 -12.375 12.3125 C-12.66117187 11.52681641 -12.94734375 10.74113281 -13.2421875 9.93164062 C-13.51289062 9.17431641 -13.78359375 8.41699219 -14.0625 7.63671875 C-14.31386719 6.94022217 -14.56523438 6.24372559 -14.82421875 5.52612305 C-15.375 3.625 -15.375 3.625 -15.375 0.625 C-10.01793479 -1.97236495 -5.54185851 -2.25779421 0 0 Z " fill="#063CAA" transform="translate(132.375,51.375)"/>
<path d="M0 0 C-0.6191639 2.584859 -1.24507682 5.16776172 -1.875 7.75 C-2.13603516 8.84441406 -2.13603516 8.84441406 -2.40234375 9.9609375 C-4.30388327 17.70795037 -4.30388327 17.70795037 -6 20 C-8.1640625 20.828125 -8.1640625 20.828125 -10.625 21.25 C-11.44226562 21.39953125 -12.25953125 21.5490625 -13.1015625 21.703125 C-14.04128906 21.85007812 -14.04128906 21.85007812 -15 22 C-18.35118553 15.58903638 -19.87833611 10.25292701 -19 3 C-15.67342486 -3.49474194 -6.04170905 -1.7526656 0 0 Z " fill="#033BA9" transform="translate(72,54)"/>
<path d="M0 0 C1.24136719 0.24556641 1.24136719 0.24556641 2.5078125 0.49609375 C6.32194189 1.0464547 10.03353501 1.11089055 13.875 1.0625 C14.56335938 1.05798828 15.25171875 1.05347656 15.9609375 1.04882812 C17.64066335 1.03716336 19.32034375 1.01923271 21 1 C12.96073161 11.64659868 1.76422016 16.97616182 -11 20 C-14.953125 20.12890625 -14.953125 20.12890625 -18 20 C-17.41992188 19.56816406 -16.83984375 19.13632813 -16.2421875 18.69140625 C-9.03179596 13.25220845 -4.26982961 8.03827772 0 0 Z " fill="#053BA7" transform="translate(119,136)"/>
<path d="M0 0 C0.33 0.66 0.66 1.32 1 2 C-0.32 2.33 -1.64 2.66 -3 3 C-3.07427838 6.34252724 -3.06546953 8.8035914 -2 12 C-3.98 12 -5.96 12 -8 12 C-8 11.01 -8 10.02 -8 9 C-8.33 8.67 -8.66 8.34 -9 8 C-9 7.01 -9 6.02 -9 5 C-9.99 4.67 -10.98 4.34 -12 4 C-11.67 5.32 -11.34 6.64 -11 8 C-13.97 7.67 -16.94 7.34 -20 7 C-19.01 10.3 -18.02 13.6 -17 17 C-16.34 17 -15.68 17 -15 17 C-15.33 15.35 -15.66 13.7 -16 12 C-15.01 12.33 -14.02 12.66 -13 13 C-13 13.99 -13 14.98 -13 16 C-11.02 15.67 -9.04 15.34 -7 15 C-7 15.66 -7 16.32 -7 17 C-9.45404224 18.19716659 -11.91251679 19.3829346 -14.375 20.5625 C-15.42300781 21.07586914 -15.42300781 21.07586914 -16.4921875 21.59960938 C-18.30052216 22.46030712 -20.14851956 23.23652436 -22 24 C-22.66 23.67 -23.32 23.34 -24 23 C-23.34 22.01 -22.68 21.02 -22 20 C-22.61359375 19.91878906 -23.2271875 19.83757813 -23.859375 19.75390625 C-26 19 -26 19 -27.265625 17.15234375 C-27.59046875 16.42144531 -27.9153125 15.69054687 -28.25 14.9375 C-28.58515625 14.20402344 -28.9203125 13.47054688 -29.265625 12.71484375 C-29.50796875 12.14894531 -29.7503125 11.58304688 -30 11 C-24.3146223 4.49840471 -8.75462613 -3.12137514 0 0 Z " fill="#F6F5F4" transform="translate(83,15)"/>
<path d="M0 0 C16.60871756 0.04031242 16.60871756 0.04031242 22.8125 5.72265625 C23.204375 6.14417969 23.59625 6.56570312 24 7 C19.51108213 12.10807896 13.976302 15.7898192 8 19 C7.01 19 6.02 19 5 19 C2.12059087 12.5849443 0.4535179 7.02952752 0 0 Z " fill="#073EAA" transform="translate(70,115)"/>
<path d="M0 0 C-0.36823999 6.90767437 -1.23918163 12.6381142 -4 19 C-8.7871428 18.42334609 -12.25128824 16.35917004 -16.3125 13.9375 C-16.95767578 13.56044922 -17.60285156 13.18339844 -18.26757812 12.79492188 C-19.84878152 11.86962507 -21.4249146 10.93567319 -23 10 C-21.71614563 6.1484369 -20.39165246 5.20726589 -17 3 C-14.28654479 2.14031915 -11.55997358 1.67958229 -8.75 1.25 C-8.0178125 1.12496094 -7.285625 0.99992187 -6.53125 0.87109375 C-1.36212225 0 -1.36212225 0 0 0 Z " fill="#053CA9" transform="translate(122,113)"/>
<path d="M0 0 C1.38671875 2.58203125 1.38671875 2.58203125 2.6875 5.8125 C3.34298828 7.39998047 3.34298828 7.39998047 4.01171875 9.01953125 C5 12 5 12 5 16 C2.28847193 15.96678529 -0.41509346 15.89941312 -3.125 15.8125 C-4.26582031 15.80379883 -4.26582031 15.80379883 -5.4296875 15.79492188 C-11.267389 15.56845932 -13.8735968 14.1329949 -18 10 C-13.82321176 5.26630666 -6.50940061 -2.1698002 0 0 Z " fill="#083EAA" transform="translate(115,55)"/>
<path d="M0 0 C4.50727647 0.60266785 7.8587963 2.36599794 11.8125 4.5625 C12.7087207 5.0565332 12.7087207 5.0565332 13.62304688 5.56054688 C15.08533998 6.36773267 16.5431399 7.18304917 18 8 C10.69932432 15.30067568 10.69932432 15.30067568 3.375 15.625 C2.31539063 15.68300781 2.31539063 15.68300781 1.234375 15.7421875 C-0.50998524 15.83647724 -2.25495691 15.91932891 -4 16 C-3.6083965 10.04492601 -2.62875405 5.37180176 0 0 Z " fill="#073DAA" transform="translate(74,56)"/>
<path d="M0 0 C-0.50103311 3.70764502 -1.03312549 5.66021488 -4 8 C-10.12137273 9.23151877 -15.43720245 7.42740257 -21 5 C-21.375 2.8125 -21.375 2.8125 -21 0 C-13.43785898 -7.56214102 -7.9567639 -7.02067403 0 0 Z " fill="#E2661E" transform="translate(106,82)"/>
<path d="M0 0 C1.11375 1.175625 1.11375 1.175625 2.25 2.375 C4.54433318 4.56504531 6.12158858 5.82731386 9 7 C8.01 7.33 7.02 7.66 6 8 C5.57074219 9.19689453 5.57074219 9.19689453 5.1328125 10.41796875 C4 13 4 13 1.6171875 14.36328125 C0.71226562 14.67652344 -0.19265625 14.98976562 -1.125 15.3125 C-2.03507812 15.63863281 -2.94515625 15.96476563 -3.8828125 16.30078125 C-4.58148438 16.53152344 -5.28015625 16.76226562 -6 17 C-6 16.34 -6 15.68 -6 15 C-6.66 15 -7.32 15 -8 15 C-8.99 11.7 -9.98 8.4 -11 5 C-9 5 -9 5 -7.375 6.5 C-6.92125 6.995 -6.4675 7.49 -6 8 C-6.33 6.35 -6.66 4.7 -7 3 C-6.01 3 -5.02 3 -4 3 C-3.34 2.34 -2.68 1.68 -2 1 C-1.01 2.32 -0.02 3.64 1 5 C0.67 3.35 0.34 1.7 0 0 Z " fill="#C1C0BE" transform="translate(130,156)"/>
<path d="M0 0 C0.33 0 0.66 0 1 0 C0.95359375 0.88042969 0.9071875 1.76085937 0.859375 2.66796875 C0.82328125 3.82941406 0.7871875 4.99085937 0.75 6.1875 C0.70359375 7.33605469 0.6571875 8.48460937 0.609375 9.66796875 C1.07779834 13.6636198 2.1122444 15.24513227 5 18 C11.68269229 18.93792172 17.63353569 16.96611398 24 15 C24.59167969 15.89203125 25.18335937 16.7840625 25.79296875 17.703125 C26.59073397 18.88569462 27.38893425 20.06797082 28.1875 21.25 C28.57486328 21.83652344 28.96222656 22.42304688 29.36132812 23.02734375 C31.85590183 26.69704722 34.34777636 29.3792214 38 32 C37.34 32.66 36.68 33.32 36 34 C26.1045875 25.66924674 26.1045875 25.66924674 23 20 C23 19.34 23 18.68 23 18 C21.906875 18.495 20.81375 18.99 19.6875 19.5 C14.52006046 21.41250431 9.44610728 21.93751456 4 21 C1.10316132 18.7984026 -0.39297231 17.21405538 -2 14 C-2.12176503 12.19051505 -2.17545792 10.37603729 -2.1875 8.5625 C-2.20167969 7.59441406 -2.21585938 6.62632813 -2.23046875 5.62890625 C-2 3 -2 3 0 0 Z " fill="#E2E8F5" transform="translate(52,120)"/>
<path d="M0 0 C0.33 0.66 0.66 1.32 1 2 C1.66 2 2.32 2 3 2 C2.01 4.97 1.02 7.94 0 11 C0.78375 11.04125 1.5675 11.0825 2.375 11.125 C8.8198103 12.68064386 14.12197341 16.03462334 18.6875 20.8125 C20.46865961 25.13817333 19.92052591 28.4974276 19 33 C17.68 32.67 16.36 32.34 15 32 C15.33 31.67 15.66 31.34 16 31 C16.36236789 27.23137389 16.39910092 24.76191994 14.625 21.375 C10.37013946 17.52536427 4.85705495 14 -1 14 C-2.03013277 15.64821244 -3.03114628 17.31503702 -4 19 C-4.66 19 -5.32 19 -6 19 C-5.67 16.69 -5.34 14.38 -5 12 C-6.32 11.34 -7.64 10.68 -9 10 C-9 9.34 -9 8.68 -9 8 C-6.69 8 -4.38 8 -2 8 C-1.34 5.36 -0.68 2.72 0 0 Z " fill="#DFE6F4" transform="translate(135,64)"/>
<path d="M0 0 C2.0625 0.4375 2.0625 0.4375 4 1 C4 3 4 5 4 7 C4.66 7.33 5.32 7.66 6 8 C5.39873418 13.41139241 5.39873418 13.41139241 3.6875 15.9375 C2 17 2 17 0.09765625 16.78125 C-2.46780707 15.82577018 -3.5194277 14.66453352 -5.25 12.5625 C-5.77078125 11.94503906 -6.2915625 11.32757813 -6.828125 10.69140625 C-8 9 -8 9 -8 7 C-5 5 -5 5 -2 5 C-1.855625 4.360625 -1.71125 3.72125 -1.5625 3.0625 C-1 1 -1 1 0 0 Z " fill="#E2E1DF" transform="translate(146,143)"/>
<path d="M0 0 C5.17460492 -0.31242898 7.96945213 0.78678652 12.0703125 4.1875 C13.45257266 6.95202033 13.16556637 9.2336363 13.1328125 12.3125 C13.12378906 13.40820312 13.11476562 14.50390625 13.10546875 15.6328125 C13.09386719 16.47585937 13.08226562 17.31890625 13.0703125 18.1875 C12.4103125 18.1875 11.7503125 18.1875 11.0703125 18.1875 C11.01423828 17.04861328 11.01423828 17.04861328 10.95703125 15.88671875 C10.89128906 14.89285156 10.82554687 13.89898437 10.7578125 12.875 C10.69980469 11.88886719 10.64179688 10.90273438 10.58203125 9.88671875 C10.01469436 6.89412492 9.49222155 5.9651007 7.0703125 4.1875 C2.04591865 2.51270205 -2.83054308 2.95134378 -7.9296875 4.1875 C-7.2696875 6.4975 -6.6096875 8.8075 -5.9296875 11.1875 C-6.9196875 11.1875 -7.9096875 11.1875 -8.9296875 11.1875 C-9.5896875 9.8675 -10.2496875 8.5475 -10.9296875 7.1875 C-14.46935205 8.19883273 -17.01563468 9.24766303 -20.0546875 11.375 C-22.9296875 13.1875 -22.9296875 13.1875 -25.109375 12.80078125 C-25.71007812 12.59839844 -26.31078125 12.39601563 -26.9296875 12.1875 C-18.45992745 6.23411794 -10.44677607 1.01507136 0 0 Z " fill="#E3E9F5" transform="translate(124.9296875,47.8125)"/>
<path d="M0 0 C2.475 0.495 2.475 0.495 5 1 C5 4 5 4 3.53125 5.5078125 C2.8609375 6.04148437 2.190625 6.57515625 1.5 7.125 C-2.48084154 10.44826025 -5.85664483 14.06085363 -9.23828125 17.984375 C-12.33041539 21.5221604 -12.33041539 21.5221604 -14 23 C-14.66 23 -15.32 23 -16 23 C-16 19 -16 19 -14 17 C-14.33 16.34 -14.66 15.68 -15 15 C-13.35 14.34 -11.7 13.68 -10 13 C-10.56583839 9.71813734 -11.41272404 8.10815078 -14 6 C-16.09989652 4.82425289 -16.09989652 4.82425289 -18 4 C-16.68 3.01 -15.36 2.02 -14 1 C-13.59007812 1.49371094 -13.18015625 1.98742188 -12.7578125 2.49609375 C-12.21898437 3.13675781 -11.68015625 3.77742188 -11.125 4.4375 C-10.32449219 5.39462891 -10.32449219 5.39462891 -9.5078125 6.37109375 C-8.0777243 8.10805004 -8.0777243 8.10805004 -6 9 C-6.66 7.68 -7.32 6.36 -8 5 C-6.02 5 -4.04 5 -2 5 C-1.34 3.35 -0.68 1.7 0 0 Z " fill="#F5F4EF" transform="translate(52,38)"/>
<path d="M0 0 C3.33646536 1.4163551 5.15544293 3.08171998 7.4375 5.875 C12.7424493 12.1816897 12.7424493 12.1816897 20.3125 14.75 C21.529375 14.8325 22.74625 14.915 24 15 C24 15.33 24 15.66 24 16 C26.31 16.33 28.62 16.66 31 17 C28.6875 19.5 28.6875 19.5 26 22 C23 22 23 22 20.1875 20.0625 C14.7433082 16.72763792 8.2028164 17.17206148 2 17 C2 16.67 2 16.34 2 16 C6.455 15.01 6.455 15.01 11 14 C10.28972656 13.32453125 9.57945313 12.6490625 8.84765625 11.953125 C7.46900391 10.61507812 7.46900391 10.61507812 6.0625 9.25 C5.14597656 8.36828125 4.22945313 7.4865625 3.28515625 6.578125 C1.17570657 4.19823305 0.33932929 3.0900625 0 0 Z " fill="#EAEFF8" transform="translate(70,99)"/>
<path d="M0 0 C0.66 0.33 1.32 0.66 2 1 C1.67 1.66 1.34 2.32 1 3 C3.11578704 7.97824589 3.11578704 7.97824589 7.25 10.9375 C7.8275 10.958125 8.405 10.97875 9 11 C8.1875 13.4375 8.1875 13.4375 7 16 C6.01 16.33 5.02 16.66 4 17 C4 16.34 4 15.68 4 15 C2.35 14.67 0.7 14.34 -1 14 C-1 15.32 -1 16.64 -1 18 C-1.66 18 -2.32 18 -3 18 C-6.81818182 9.88636364 -6.81818182 9.88636364 -6 6 C-3.5625 3.25 -3.5625 3.25 -1 1 C-0.67 0.67 -0.34 0.34 0 0 Z " fill="#F0EFEC" transform="translate(53,24)"/>
<path d="M0 0 C2.31 0.33 4.62 0.66 7 1 C6.07545032 8.50359158 0.13387459 14.4188995 -5.5 19.125 C-6.325 19.74375 -7.15 20.3625 -8 21 C-7.67 19.35 -7.34 17.7 -7 16 C-7.99 15.67 -8.98 15.34 -10 15 C-9.773125 14.236875 -9.54625 13.47375 -9.3125 12.6875 C-9.209375 11.800625 -9.10625 10.91375 -9 10 C-10.33378575 8.1645201 -10.33378575 8.1645201 -12 7 C-11.34 6.34 -10.68 5.68 -10 5 C-8.88625 6.175625 -8.88625 6.175625 -7.75 7.375 C-5.45566682 9.56504531 -3.87841142 10.82731386 -1 12 C-1 11.01 -1 10.02 -1 9 C-0.34 9 0.32 9 1 9 C1 8.34 1 7.68 1 7 C-1.475 6.01 -1.475 6.01 -4 5 C-0.86650268 3.95550089 -0.01031744 4.06576355 3 5 C2.505 4.54625 2.01 4.0925 1.5 3.625 C0 2 0 2 0 0 Z " fill="#EBEAE8" transform="translate(159,135)"/>
<path d="M0 0 C0.99 0.33 1.98 0.66 3 1 C2.34 1 1.68 1 1 1 C1 1.66 1 2.32 1 3 C1.5775 2.649375 2.155 2.29875 2.75 1.9375 C5.35801776 0.85082593 6.39417629 1.06934867 9 2 C9.1875 4.375 9.1875 4.375 9 7 C8.01 7.66 7.02 8.32 6 9 C6.33 9.66 6.66 10.32 7 11 C6.01 12.485 6.01 12.485 5 14 C1.04179141 13.43454163 -1.6659053 12.19097652 -5 10 C-3.25 5.125 -3.25 5.125 -1 4 C-0.34786708 1.97536745 -0.34786708 1.97536745 0 0 Z " fill="#CFCFCF" transform="translate(160,122)"/>
<path d="M0 0 C0.99 0.66 1.98 1.32 3 2 C1.71086513 2.67154933 0.41859796 3.33708859 -0.875 4 C-1.59429687 4.37125 -2.31359375 4.7425 -3.0546875 5.125 C-5 6 -5 6 -7 6 C-6.21869929 8.49552484 -6.21869929 8.49552484 -5 11 C-4.01 11.33 -3.02 11.66 -2 12 C-2.33 12.66 -2.66 13.32 -3 14 C-2.278125 13.649375 -1.55625 13.29875 -0.8125 12.9375 C2.98532077 11.67155974 5.47128682 12.23564341 9 14 C8.154375 14.495 7.30875 14.99 6.4375 15.5 C3.79255784 17.66350139 3.79255784 17.66350139 3.890625 20.046875 C4.16019001 22.04733113 4.57256812 24.02723747 5 26 C0.28289543 22.41089869 -2.7835999 18.84391138 -5.875 13.8125 C-6.2771875 13.18408203 -6.679375 12.55566406 -7.09375 11.90820312 C-10 7.28687022 -10 7.28687022 -10 5 C-6.7 3.35 -3.4 1.7 0 0 Z " fill="#EFEEEA" transform="translate(32,127)"/>
<path d="M0 0 C6.93 0.495 6.93 0.495 14 1 C15.46670113 6.22512279 16.22577402 10.5814234 16 16 C13.13528681 13.87192735 10.84969565 11.81886398 8.5625 9.0625 C6.62521503 6.74720821 4.98588955 5.0542671 2.6875 3.1875 C1.800625 2.465625 0.91375 1.74375 0 1 C0 0.67 0 0.34 0 0 Z " fill="#1347AE" transform="translate(107,72)"/>
<path d="M0 0 C2.875 2.125 2.875 2.125 5 4 C4.50061251 7.69546741 3.99584888 9.69961604 1 12 C-1.26171875 12.29296875 -1.26171875 12.29296875 -3.6875 12.1875 C-4.89986328 12.14689453 -4.89986328 12.14689453 -6.13671875 12.10546875 C-6.75160156 12.07066406 -7.36648437 12.03585938 -8 12 C-8 11.01 -8 10.02 -8 9 C-7.34 9 -6.68 9 -6 9 C-5.67 8.34 -5.34 7.68 -5 7 C-4.01 6.67 -3.02 6.34 -2 6 C-2 4.35 -2 2.7 -2 1 C-3.65 1 -5.3 1 -7 1 C-7 2.98 -7 4.96 -7 7 C-7.99 6.34 -8.98 5.68 -10 5 C-9.34 3.35 -8.68 1.7 -8 0 C-8.66 -0.33 -9.32 -0.66 -10 -1 C-6.15377548 -2.47931712 -3.70821193 -1.58923368 0 0 Z " fill="#C82A29" transform="translate(101,78)"/>
<path d="M0 0 C0.33 0.66 0.66 1.32 1 2 C-0.32 2.33 -1.64 2.66 -3 3 C-3.07427838 6.34252724 -3.06546953 8.8035914 -2 12 C-3.98 12 -5.96 12 -8 12 C-8 11.01 -8 10.02 -8 9 C-8.33 8.67 -8.66 8.34 -9 8 C-9 7.01 -9 6.02 -9 5 C-9.99 4.67 -10.98 4.34 -12 4 C-11.67 5.32 -11.34 6.64 -11 8 C-13.31 7.67 -15.62 7.34 -18 7 C-17.89453125 5.14453125 -17.89453125 5.14453125 -17 3 C-14.19921875 1.69921875 -14.19921875 1.69921875 -10.6875 0.6875 C-8.96080078 0.16736328 -8.96080078 0.16736328 -7.19921875 -0.36328125 C-4.23873884 -0.95248543 -2.72654454 -1.21107798 0 0 Z " fill="#EEEDE9" transform="translate(83,15)"/>
<path d="M0 0 C0.12375 0.639375 0.2475 1.27875 0.375 1.9375 C0.684375 2.9584375 0.684375 2.9584375 1 4 C1.66 4.33 2.32 4.66 3 5 C2.01 5.33 1.02 5.66 0 6 C-0.33 7.98 -0.66 9.96 -1 12 C0.32 12.33 1.64 12.66 3 13 C2.01 13.61875 2.01 13.61875 1 14.25 C0.34 14.8275 -0.32 15.405 -1 16 C-1 17.32 -1 18.64 -1 20 C-0.34 20.33 0.32 20.66 1 21 C1 21.66 1 22.32 1 23 C0.01 23.66 -0.98 24.32 -2 25 C-2.72382467 27.05925139 -2.72382467 27.05925139 -3 29 C-3.66 29 -4.32 29 -5 29 C-5.43814452 19.37704817 -4.70051125 10.26597438 -2 1 C-1.34 0.67 -0.68 0.34 0 0 Z " fill="#F6F3ED" transform="translate(18,70)"/>
<path d="M0 0 C1.0970054 1.0970054 2.19364122 2.19438151 3.2890625 3.29296875 C4.63305957 4.63389733 5.98333393 5.96853459 7.3359375 7.30078125 C8.56183594 8.51314453 8.56183594 8.51314453 9.8125 9.75 C10.60269531 10.52859375 11.39289063 11.3071875 12.20703125 12.109375 C14 14 14 14 14 15 C9.48382401 15.07654536 5.40914783 15.10228696 1 14 C0.04738513 9.23692563 -0.08333357 4.8333472 0 0 Z " fill="#0F44AD" transform="translate(68,99)"/>
<path d="M0 0 C-4.66666667 4.66666667 -9.33333333 9.33333333 -14 14 C-14.02708567 12.39592672 -14.04643483 10.7917215 -14.0625 9.1875 C-14.07410156 8.29417969 -14.08570312 7.40085937 -14.09765625 6.48046875 C-14 4 -14 4 -13 1 C-11.07421875 0.234375 -11.07421875 0.234375 -8.6875 -0.25 C-7.90761719 -0.42015625 -7.12773438 -0.5903125 -6.32421875 -0.765625 C-3.92348133 -1.00771617 -2.28190412 -0.7310448 0 0 Z " fill="#1044AD" transform="translate(82,74)"/>
<path d="M0 0 C0.33 0 0.66 0 1 0 C1 4.62 1 9.24 1 14 C-2.12889199 14.782223 -4.1400091 15.11433318 -7.25 15.0625 C-9.10625 15.0315625 -9.10625 15.0315625 -11 15 C-9.49767891 11.55488672 -7.47594341 9.12997125 -4.9375 6.375 C-2.14219542 3.41210833 -2.14219542 3.41210833 0 0 Z " fill="#0B41AC" transform="translate(122,97)"/>
<path d="M0 0 C0.12375 0.61875 0.2475 1.2375 0.375 1.875 C0.87197356 4.19120832 0.87197356 4.19120832 3 6 C2.625 8.125 2.625 8.125 2 10 C1.34 10 0.68 10 0 10 C0.33 8.68 0.66 7.36 1 6 C0.34 6 -0.32 6 -1 6 C-1.66 7.98 -2.32 9.96 -3 12 C-4.65 11.67 -6.3 11.34 -8 11 C-7.67 9.35 -7.34 7.7 -7 6 C-7.99 5.67 -8.98 5.34 -10 5 C-10 4.34 -10 3.68 -10 3 C-3.375 0 -3.375 0 0 0 Z " fill="#DDDDDD" transform="translate(169,67)"/>
<path d="M0 0 C2.73213134 1.01479164 4.98817329 1.99159681 7.375 3.6875 C10.90386915 5.45193457 13.22227384 4.81480368 17 4 C16.4740625 4.8353125 16.4740625 4.8353125 15.9375 5.6875 C14.78154007 8.53886783 15.19032562 10.08517222 16 13 C13.03 13 10.06 13 7 13 C7 11 7 9 7 7 C5.23267901 5.5305191 5.23267901 5.5305191 3 4.3125 C2.2575 3.87550781 1.515 3.43851563 0.75 2.98828125 C0.1725 2.66214844 -0.405 2.33601563 -1 2 C-0.67 1.34 -0.34 0.68 0 0 Z " fill="#E7ECF6" transform="translate(83,57)"/>
<path d="M0 0 C0.33 0.66 0.66 1.32 1 2 C2.175625 2.4640625 2.175625 2.4640625 3.375 2.9375 C5.95982105 3.98373709 7.2046169 4.92113535 9 7 C8.34 8.65 7.68 10.3 7 12 C5.68 12 4.36 12 3 12 C3.99 11.67 4.98 11.34 6 11 C6 10.34 6 9.68 6 9 C3.69 9.33 1.38 9.66 -1 10 C-1.33 8.68 -1.66 7.36 -2 6 C-2.99 6.33 -3.98 6.66 -5 7 C-3.75023244 3.34683329 -3.32901247 2.21934164 0 0 Z " fill="#E6E6E3" transform="translate(28,50)"/>
<path d="M0 0 C1.485 0.99 1.485 0.99 3 2 C9.90380593 3.49662926 15.64955949 3.17522026 22 0 C22.0625 2.25 22.0625 2.25 21 5 C18.19795467 7.12181606 15.43863308 8.29544827 12 9 C7.38927816 8.34958469 3.84404929 6.56269953 0 4 C0 2.68 0 1.36 0 0 Z " fill="#CA7034" transform="translate(84,101)"/>
<path d="M0 0 C0.66 0 1.32 0 2 0 C2 2.97 2 5.94 2 9 C3.65 9 5.3 9 7 9 C7.66 6.69 8.32 4.38 9 2 C10.32 1.67 11.64 1.34 13 1 C13 4.63 13 8.26 13 12 C12.34 12 11.68 12 11 12 C11 11.01 11 10.02 11 9 C10.01 9 9.02 9 8 9 C8 9.66 8 10.32 8 11 C5.36 11 2.72 11 0 11 C0 7.37 0 3.74 0 0 Z " fill="#3B3B3B" transform="translate(97,16)"/>
<path d="M0 0 C0.66 0 1.32 0 2 0 C3.4783226 2.95664519 3.06032783 5.74229737 3 9 C3.66 9 4.32 9 5 9 C5 7.35 5 5.7 5 4 C5.99 4 6.98 4 8 4 C8 5.65 8 7.3 8 9 C11.465 8.505 11.465 8.505 15 8 C14.67 8.66 14.34 9.32 14 10 C11.07345473 10.97551509 9.05345004 11.16478088 6 11.1875 C4.700625 11.20876953 4.700625 11.20876953 3.375 11.23046875 C1 11 1 11 -2 9 C-1.34 9 -0.68 9 0 9 C0 6.03 0 3.06 0 0 Z " fill="#F6F6F5" transform="translate(91,167)"/>
<path d="M0 0 C-0.66 1.32 -1.32 2.64 -2 4 C-0.68 4 0.64 4 2 4 C2.33 4.99 2.66 5.98 3 7 C-3.625 11 -3.625 11 -7 11 C-7.625 8.625 -7.625 8.625 -8 6 C-7.34 5.34 -6.68 4.68 -6 4 C-7.32 4.33 -8.64 4.66 -10 5 C-10 4.34 -10 3.68 -10 3 C-6.27034861 0.96564469 -4.33094958 0 0 0 Z " fill="#202020" transform="translate(165,57)"/>
<path d="M0 0 C6.78377219 -0.64607354 10.41750734 0.1472949 15.9140625 4.20703125 C18.96655063 6.83079913 21.78160981 9.62456709 24 13 C24 13.66 24 14.32 24 15 C24.66 15.33 25.32 15.66 26 16 C24.68 16.33 23.36 16.66 22 17 C21.64808594 16.39671875 21.29617187 15.7934375 20.93359375 15.171875 C17.53773709 9.67466578 14.99497384 6.52419951 9 4 C6.66822025 3.65596692 4.33512959 3.32050798 2 3 C1.34 2.01 0.68 1.02 0 0 Z " fill="#D1DBEF" transform="translate(90,35)"/>
<path d="M0 0 C0.33 0 0.66 0 1 0 C0.95359375 0.88042969 0.9071875 1.76085937 0.859375 2.66796875 C0.82328125 3.82941406 0.7871875 4.99085937 0.75 6.1875 C0.70359375 7.33605469 0.6571875 8.48460937 0.609375 9.66796875 C1.0826869 13.70531928 2.02242504 15.26385004 5 18 C7.56270919 18.80732404 7.56270919 18.80732404 10.25 18.8125 C11.14203125 18.86019531 12.0340625 18.90789062 12.953125 18.95703125 C13.62859375 18.97121094 14.3040625 18.98539063 15 19 C15 19.66 15 20.32 15 21 C5.03348923 21.78545181 5.03348923 21.78545181 0.875 18.625 C-1.76527962 14.92860854 -2.15756728 13.0703672 -2.1875 8.5625 C-2.20167969 7.59441406 -2.21585938 6.62632813 -2.23046875 5.62890625 C-2 3 -2 3 0 0 Z " fill="#EDF1F9" transform="translate(52,120)"/>
<path d="M0 0 C0.98484375 0.01804687 1.9696875 0.03609375 2.984375 0.0546875 C4.10585937 0.08949219 4.10585937 0.08949219 5.25 0.125 C4.49610023 3.9494707 3.3971856 4.86296035 0.25 7.125 C-0.08 8.115 -0.41 9.105 -0.75 10.125 C-3.8125 11.3125 -3.8125 11.3125 -6.75 12.125 C-6.75 9.815 -6.75 7.505 -6.75 5.125 C-6.151875 5.351875 -5.55375 5.57875 -4.9375 5.8125 C-4.215625 5.915625 -3.49375 6.01875 -2.75 6.125 C-1.76 5.135 -0.77 4.145 0.25 3.125 C-3.05 2.795 -6.35 2.465 -9.75 2.125 C-5.76219998 0.13109999 -4.27852428 -0.10186963 0 0 Z " fill="#F2F4FA" transform="translate(99.75,113.875)"/>
<path d="M0 0 C-3 2 -3 2 -5 2 C-5 2.66 -5 3.32 -5 4 C-3.68 4.33 -2.36 4.66 -1 5 C-1.33 6.65 -1.66 8.3 -2 10 C-0.68 10.66 0.64 11.32 2 12 C1.01 12.66 0.02 13.32 -1 14 C-1.33 14.99 -1.66 15.98 -2 17 C-2.66 17 -3.32 17 -4 17 C-4.67155349 14.73050898 -5.3373963 12.4596039 -6 10.1875 C-6.556875 8.29064453 -6.556875 8.29064453 -7.125 6.35546875 C-8 3 -8 3 -8 0 C-4.71303767 -0.79953138 -3.28976808 -1.09658936 0 0 Z " fill="#F2F0E9" transform="translate(164,68)"/>
<path d="M0 0 C0.66 0 1.32 0 2 0 C1.99097656 0.58007812 1.98195312 1.16015625 1.97265625 1.7578125 C2.10777215 5.31782263 2.21172844 8.01051176 4.484375 10.86328125 C7.45839965 13.42424692 10.45495567 15.31747344 14 17 C14 17.99 14 18.98 14 20 C8.54814227 18.6702786 4.7737453 16.06552973 1 12 C-1.25080953 8.28800921 -1.24458033 5.32091912 -1 1 C-0.67 0.67 -0.34 0.34 0 0 Z " fill="#D7E0F1" transform="translate(36,90)"/>
<path d="M0 0 C1.91015625 0.23046875 1.91015625 0.23046875 3.91015625 2.23046875 C3.37444196 5.76618304 3.37444196 5.76618304 1.91015625 7.23046875 C0.09765625 7.36328125 0.09765625 7.36328125 -2.08984375 7.35546875 C-2.81171875 7.35804687 -3.53359375 7.360625 -4.27734375 7.36328125 C-6.08984375 7.23046875 -6.08984375 7.23046875 -7.08984375 6.23046875 C-7.21484375 3.73046875 -7.21484375 3.73046875 -7.08984375 1.23046875 C-5.19495423 -0.66442077 -2.51845229 0.05027763 0 0 Z " fill="#262626" transform="translate(171.08984375,91.76953125)"/>
<path d="M0 0 C0 3.90838866 -1.50567876 5.11594107 -4 8 C-0.7 7.67 2.6 7.34 6 7 C6 7.99 6 8.98 6 10 C0.72 10.66 -4.56 11.32 -10 12 C-8.87103355 7.48413418 -7.88597888 6.6642075 -4.4375 3.75 C-3.61121094 3.04359375 -2.78492187 2.3371875 -1.93359375 1.609375 C-1.29550781 1.07828125 -0.65742187 0.5471875 0 0 Z " fill="#E1E7F4" transform="translate(115,104)"/>
<path d="M0 0 C1.32 0.33 2.64 0.66 4 1 C4.6875 2.625 4.6875 2.625 5 5 C3.5625 8.25 3.5625 8.25 2 11 C0.35 10.67 -1.3 10.34 -3 10 C-3.36923077 4.58461538 -3.36923077 4.58461538 -1.5 1.625 C-1.005 1.08875 -0.51 0.5525 0 0 Z " fill="#2E2E2E" transform="translate(71,161)"/>
<path d="M0 0 C0.33 0.66 0.66 1.32 1 2 C0.67 2.99 0.34 3.98 0 5 C0.78375 5.28875 1.5675 5.5775 2.375 5.875 C5 7 5 7 7 9 C7.66 9 8.32 9 9 9 C9.99 10.485 9.99 10.485 11 12 C10.67 12.99 10.34 13.98 10 15 C-2.42307129 7.32952716 -2.42307129 7.32952716 -7 3 C-7 2.34 -7 1.68 -7 1 C-5.5459375 1.0309375 -5.5459375 1.0309375 -4.0625 1.0625 C-1.12534105 1.35618499 -1.12534105 1.35618499 0 0 Z " fill="#F5F3ED" transform="translate(47,154)"/>
<path d="M0 0 C2.42333886 4.29502335 2.57055483 8.1329547 3 13 C0.03 12.67 -2.94 12.34 -6 12 C-4.68139111 7.38486888 -2.78644563 3.90102388 0 0 Z " fill="#1649AF" transform="translate(64,99)"/>
<path d="M0 0 C0.721875 0.268125 1.44375 0.53625 2.1875 0.8125 C1.83697365 3.96723719 1.32230924 5.6358534 -0.625 8.1875 C-2.8125 9.8125 -2.8125 9.8125 -5.0625 9.5625 C-6.8125 8.8125 -6.8125 8.8125 -7.625 7.125 C-7.8125 4.8125 -7.8125 4.8125 -5.6875 2 C-2.8125 -0.1875 -2.8125 -0.1875 0 0 Z " fill="#292929" transform="translate(151.8125,40.1875)"/>
<path d="M0 0 C2.79394497 0.28902879 4.07919192 1.06206934 6.3125 2.8125 C8 5 8 5 7.75 7.25 C7 9 7 9 5.3125 9.8125 C3 10 3 10 0.1875 7.8125 C-2 5 -2 5 -1.875 2.75 C-1 1 -1 1 0 0 Z " fill="#1B1B1B" transform="translate(35,43)"/>
<path d="M0 0 C1.32 0.33 2.64 0.66 4 1 C4.36923077 6.41538462 4.36923077 6.41538462 2.5 9.375 C2.005 9.91125 1.51 10.4475 1 11 C-0.65 10.67 -2.3 10.34 -4 10 C-3.5205537 5.78087253 -2.83374881 3.20336822 0 0 Z " fill="#282828" transform="translate(125,22)"/>
<path d="M0 0 C5.5 3 5.5 3 7 6 C7.07065617 8.04055005 7.08421976 10.08334257 7.0625 12.125 C7.05347656 13.22070312 7.04445312 14.31640625 7.03515625 15.4453125 C7.02355469 16.28835937 7.01195312 17.13140625 7 18 C6.34 18 5.68 18 5 18 C4.96261719 17.24074219 4.92523438 16.48148438 4.88671875 15.69921875 C4.82097656 14.70535156 4.75523437 13.71148437 4.6875 12.6875 C4.62949219 11.70136719 4.57148438 10.71523438 4.51171875 9.69921875 C3.94438186 6.70662492 3.42190905 5.7776007 1 4 C-2.01490557 2.99503148 -4.04181692 2.89664697 -7.1875 2.9375 C-8.08855469 2.94652344 -8.98960938 2.95554688 -9.91796875 2.96484375 C-10.94857422 2.98224609 -10.94857422 2.98224609 -12 3 C-9.88227931 -1.23544139 -4.18106171 -0.59165968 0 0 Z " fill="#F2F4FA" transform="translate(131,48)"/>
<path d="M0 0 C1.91015625 0.1328125 1.91015625 0.1328125 3.91015625 1.1328125 C3.58015625 2.7828125 3.25015625 4.4328125 2.91015625 6.1328125 C-0.05984375 6.1328125 -3.02984375 6.1328125 -6.08984375 6.1328125 C-6.47203142 4.47666593 -6.80379477 2.80824226 -7.08984375 1.1328125 C-5.19099279 -0.76603846 -2.51736472 0.00913744 0 0 Z " fill="#5D5D5D" transform="translate(23.08984375,84.8671875)"/>
<path d="M0 0 C1.32 0.66 2.64 1.32 4 2 C3.67 3.32 3.34 4.64 3 6 C2.34 6 1.68 6 1 6 C0.67 7.32 0.34 8.64 0 10 C-1.65 9.67 -3.3 9.34 -5 9 C-5 5 -5 5 -2.5 2.25 C-1.675 1.5075 -0.85 0.765 0 0 Z " fill="#444444" transform="translate(46,146)"/>
<path d="M0 0 C-0.33 4.62 -0.66 9.24 -1 14 C-8 5.25 -8 5.25 -8 2 C-2.25 0 -2.25 0 0 0 Z " fill="#1145AD" transform="translate(66,76)"/>
<path d="M0 0 C2.97903734 2.97903734 4 5.80285329 4 10 C4.66 10 5.32 10 6 10 C5.67 10.99 5.34 11.98 5 13 C2.36 13.33 -0.28 13.66 -3 14 C-3.33 13.34 -3.66 12.68 -4 12 C-3.34 12 -2.68 12 -2 12 C-2 10.35 -2 8.7 -2 7 C-1.34 6.67 -0.68 6.34 0 6 C0 4.02 0 2.04 0 0 Z " fill="#F2F1EF" transform="translate(118,161)"/>
<path d="M0 0 C3.63 0 7.26 0 11 0 C11 0.99 11 1.98 11 3 C10.01 3.495 10.01 3.495 9 4 C9.33 4.99 9.66 5.98 10 7 C3.375 7.125 3.375 7.125 0 6 C0 4 0 2 0 0 Z " fill="#383838" transform="translate(163,101)"/>
<path d="M0 0 C2.31 0.66 4.62 1.32 7 2 C6.42365861 6.75481646 4.44931479 9.97048212 2 14 C1.67 14 1.34 14 1 14 C0.67 9.38 0.34 4.76 0 0 Z " fill="#1447AE" transform="translate(124,74)"/>
<path d="M0 0 C1.23556641 0.01740234 1.23556641 0.01740234 2.49609375 0.03515625 C3.32238281 0.04417969 4.14867187 0.05320312 5 0.0625 C5.63808594 0.07410156 6.27617187 0.08570312 6.93359375 0.09765625 C6.93359375 0.75765625 6.93359375 1.41765625 6.93359375 2.09765625 C5.61359375 2.09765625 4.29359375 2.09765625 2.93359375 2.09765625 C2.93359375 3.08765625 2.93359375 4.07765625 2.93359375 5.09765625 C4.25359375 5.09765625 5.57359375 5.09765625 6.93359375 5.09765625 C6.93359375 5.75765625 6.93359375 6.41765625 6.93359375 7.09765625 C3.63359375 7.09765625 0.33359375 7.09765625 -3.06640625 7.09765625 C-3.10894981 5.09810879 -3.10721408 3.09723989 -3.06640625 1.09765625 C-2.06640625 0.09765625 -2.06640625 0.09765625 0 0 Z " fill="#1E1E1E" transform="translate(19.06640625,92.90234375)"/>
<path d="M0 0 C0.53625 0.226875 1.0725 0.45375 1.625 0.6875 C1.955 2.0075 2.285 3.3275 2.625 4.6875 C-0.3215385 6.48816242 -3.26301935 8.18913895 -6.375 9.6875 C-6.375 6.6875 -6.375 6.6875 -4.875 5 C-4.38 4.566875 -3.885 4.13375 -3.375 3.6875 C-5.025 4.0175 -6.675 4.3475 -8.375 4.6875 C-8.375 4.0275 -8.375 3.3675 -8.375 2.6875 C-2.95961538 -0.38942308 -2.95961538 -0.38942308 0 0 Z " fill="#202020" transform="translate(30.375,122.3125)"/>
<path d="M0 0 C0.0825 0.61875 0.165 1.2375 0.25 1.875 C0.78810733 4.18346804 0.78810733 4.18346804 3 5 C5 6 5 6 5.75 8.125 C5.87375 9.053125 5.87375 9.053125 6 10 C1.9673165 10 0.08721618 8.22752844 -3.16015625 5.99609375 C-4.07087891 5.50302734 -4.07087891 5.50302734 -5 5 C-5.99 5.495 -5.99 5.495 -7 6 C-5.81636731 2.44910192 -3.99368042 0 0 0 Z " fill="#E3E3E1" transform="translate(33,46)"/>
<path d="M0 0 C2.5486397 1.80871204 3.0699903 3.41100853 3.9375 6.375 C3.9375 7.365 3.9375 8.355 3.9375 9.375 C3.2775 9.375 2.6175 9.375 1.9375 9.375 C1.6075 8.385 1.2775 7.395 0.9375 6.375 C0.2775 6.045 -0.3825 5.715 -1.0625 5.375 C-0.7325 7.025 -0.4025 8.675 -0.0625 10.375 C-0.7225 10.375 -1.3825 10.375 -2.0625 10.375 C-5.0625 3.75 -5.0625 3.75 -5.0625 0.375 C-2.0625 -0.625 -2.0625 -0.625 0 0 Z " fill="#3C3C3C" transform="translate(68.0625,21.625)"/>
<path d="M0 0 C3.35620271 1.38877354 5.07298728 2.91677965 7 6 C7 6.66 7 7.32 7 8 C5.68 8 4.36 8 3 8 C3.33 8.99 3.66 9.98 4 11 C0.63820226 9.55922954 -1.59156268 7.75249979 -4 5 C-4 4.34 -4 3.68 -4 3 C-1.03 3.495 -1.03 3.495 2 4 C1.34 2.68 0.68 1.36 0 0 Z " fill="#393939" transform="translate(42,36)"/>
<path d="M0 0 C0.66 0 1.32 0 2 0 C2 1.32 2 2.64 2 4 C2.99 4 3.98 4 5 4 C5 2.68 5 1.36 5 0 C5.66 0 6.32 0 7 0 C7 3.63 7 7.26 7 11 C6.34 11 5.68 11 5 11 C5 9.35 5 7.7 5 6 C4.01 6 3.02 6 2 6 C2 7.65 2 9.3 2 11 C1.34 11 0.68 11 0 11 C0 7.37 0 3.74 0 0 Z " fill="#2E2E2E" transform="translate(94,165)"/>
<path d="M0 0 C7 7 7 7 7 11 C4.69 11.33 2.38 11.66 0 12 C0 8.04 0 4.08 0 0 Z " fill="#0B40AB" transform="translate(126,97)"/>
<path d="M0 0 C0.66 0 1.32 0 2 0 C2 1.65 2 3.3 2 5 C2.99 4.01 3.98 3.02 5 2 C4.4739075 5.78786597 3.61896089 8.17152224 1 11 C0.34 11 -0.32 11 -1 11 C-1.33 9.68 -1.66 8.36 -2 7 C-2.33 7.66 -2.66 8.32 -3 9 C-3.66 9 -4.32 9 -5 9 C-3.7580393 5.56072421 -2.44259716 2.74792181 0 0 Z " fill="#313131" transform="translate(133,26)"/>
<path d="M0 0 C1.2065625 0.0309375 1.2065625 0.0309375 2.4375 0.0625 C2.1075 1.0525 1.7775 2.0425 1.4375 3.0625 C0.7775 2.7325 0.1175 2.4025 -0.5625 2.0625 C-0.5625 4.3725 -0.5625 6.6825 -0.5625 9.0625 C0.0975 9.0625 0.7575 9.0625 1.4375 9.0625 C1.1075 7.4125 0.7775 5.7625 0.4375 4.0625 C1.4275 4.0625 2.4175 4.0625 3.4375 4.0625 C3.7675 6.0425 4.0975 8.0225 4.4375 10.0625 C2.4575 10.3925 0.4775 10.7225 -1.5625 11.0625 C-3.65247373 7.66629269 -3.8257246 5.01086905 -3.5625 1.0625 C-2.5625 0.0625 -2.5625 0.0625 0 0 Z " fill="#242424" transform="translate(82.5625,16.9375)"/>
<path d="M0 0 C6.875 3.625 6.875 3.625 8 7 C6.35 7 4.7 7 3 7 C3.99 7.66 4.98 8.32 6 9 C6 9.66 6 10.32 6 11 C2.56072421 9.7580393 -0.25207819 8.44259716 -3 6 C-3 5.34 -3 4.68 -3 4 C-1.68 3.67 -0.36 3.34 1 3 C0.67 2.01 0.34 1.02 0 0 Z " fill="#252525" transform="translate(154,133)"/>
<path d="M0 0 C3.57416264 0.49641148 6.69252492 1.58251068 10 3 C10 3.66 10 4.32 10 5 C6.78548731 6.60725635 3.56387464 6.05748185 0 6 C-0.38218767 4.34385343 -0.71395102 2.67542976 -1 1 C-0.67 0.67 -0.34 0.34 0 0 Z " fill="#484848" transform="translate(17,102)"/>
<path d="M0 0 C0.66 0.33 1.32 0.66 2 1 C1.67 1.33 1.34 1.66 1 2 C1.44948822 6.58477988 2.4191193 10.6789261 4 15 C3.01 15.495 3.01 15.495 2 16 C-0.31 13.03 -2.62 10.06 -5 7 C-3.35 4.69 -1.7 2.38 0 0 Z " fill="#E5E4E2" transform="translate(47,28)"/>
<path d="M0 0 C2.31 0.33 4.62 0.66 7 1 C6.5206753 5.31392226 5.2542015 7.16569547 2 10 C1.67 9.01 1.34 8.02 1 7 C-1.50447516 5.78130071 -1.50447516 5.78130071 -4 5 C-0.86650268 3.95550089 -0.01031744 4.06576355 3 5 C2.2575 4.319375 2.2575 4.319375 1.5 3.625 C0 2 0 2 0 0 Z " fill="#E1E0DD" transform="translate(159,135)"/>
<path d="M0 0 C0.66 0.33 1.32 0.66 2 1 C-2.32893185 6.18419194 -6.76564995 10.72706118 -12 15 C-12 11.11566834 -10.82920314 10.32394504 -8.25 7.5 C-7.55390625 6.7265625 -6.8578125 5.953125 -6.140625 5.15625 C-4.19891408 3.20036601 -2.25069252 1.58156772 0 0 Z " fill="#D3B140" transform="translate(146,134)"/>
<path d="M0 0 C0.33 1.65 0.66 3.3 1 5 C0.01 5.33 -0.98 5.66 -2 6 C-2 7.65 -2 9.3 -2 11 C-2.66 11 -3.32 11 -4 11 C-4.66 7.7 -5.32 4.4 -6 1 C-4 0 -4 0 0 0 Z " fill="#656565" transform="translate(118,162)"/>
<path d="M0 0 C0.66 0 1.32 0 2 0 C5 6.625 5 6.625 5 10 C4.34 10 3.68 10 3 10 C2.67 9.01 2.34 8.02 2 7 C1.34 6.67 0.68 6.34 0 6 C0.33 7.98 0.66 9.96 1 12 C0.34 12 -0.32 12 -1 12 C-1.99 8.7 -2.98 5.4 -4 2 C-2 2 -2 2 -0.375 3.5 C0.07875 3.995 0.5325 4.49 1 5 C0.67 3.35 0.34 1.7 0 0 Z " fill="#1D1D1D" transform="translate(123,159)"/>
<path d="M0 0 C1.51953125 1.36328125 1.51953125 1.36328125 3 3 C2.6875 5.1875 2.6875 5.1875 2 7 C1.0925 6.814375 0.185 6.62875 -0.75 6.4375 C-3.68314324 6.04265379 -5.2644657 6.05308428 -8 7 C-8 6.34 -8 5.68 -8 5 C-6.25 3.7109375 -6.25 3.7109375 -4 2.375 C-3.2575 1.92898437 -2.515 1.48296875 -1.75 1.0234375 C-1.1725 0.68570313 -0.595 0.34796875 0 0 Z " fill="#1E1E1E" transform="translate(37,134)"/>
<path d="M0 0 C1.33897583 0.95043374 2.67105427 1.91059147 4 2.875 C5.11375 3.67550781 5.11375 3.67550781 6.25 4.4921875 C6.8275 4.98976563 7.405 5.48734375 8 6 C8 6.66 8 7.32 8 8 C6.68 7.67 5.36 7.34 4 7 C4 8.32 4 9.64 4 11 C3.34 11 2.68 11 2 11 C-1.34821429 4.03571429 -1.34821429 4.03571429 0 0 Z " fill="#424242" transform="translate(48,31)"/>
<path d="M0 0 C0.598125 0.20625 1.19625 0.4125 1.8125 0.625 C1.60625 1.553125 1.4 2.48125 1.1875 3.4375 C0.44557034 6.77673402 0.44557034 6.77673402 2.8125 9.625 C1.8225 9.625 0.8325 9.625 -0.1875 9.625 C-5.1875 4.27616279 -5.1875 4.27616279 -5.1875 1.625 C-2.1875 -0.375 -2.1875 -0.375 0 0 Z " fill="#1E1E1E" transform="translate(143.1875,148.375)"/>
<path d="M0 0 C0 0.66 0 1.32 0 2 C-1.4609375 3.2890625 -1.4609375 3.2890625 -3.375 4.625 C-4.00148437 5.07101563 -4.62796875 5.51703125 -5.2734375 5.9765625 C-7 7 -7 7 -9 7 C-9 6.34 -9 5.68 -9 5 C-9.66 4.67 -10.32 4.34 -11 4 C-11 3.34 -11 2.68 -11 2 C-6.99642627 -0.14477164 -4.43233175 -1.47744392 0 0 Z " fill="#1D1D1D" transform="translate(162,52)"/>
<path d="M0 0 C4.95 0 9.9 0 15 0 C14 3 14 3 12 4 C9.94140625 4.16796875 9.94140625 4.16796875 7.5625 4.1875 C6.38880859 4.20876953 6.38880859 4.20876953 5.19140625 4.23046875 C3 4 3 4 0 2 C0 1.34 0 0.68 0 0 Z " fill="#D2DBEF" transform="translate(89,152)"/>
<path d="M0 0 C0 3.90838866 -1.50567876 5.11594107 -4 8 C-1.28775382 6.38731308 1.37352812 4.75098126 4 3 C4 6 4 6 1.8125 8.25 C-1 10 -1 10 -3.8125 9.75 C-4.8953125 9.37875 -4.8953125 9.37875 -6 9 C-5.69381595 5.32579134 -5.24228216 4.21864487 -2.4375 1.6875 C-1.633125 1.130625 -0.82875 0.57375 0 0 Z " fill="#232323" transform="translate(41,140)"/>
<path d="M0 0 C1.32 0.66 2.64 1.32 4 2 C3.67 3.32 3.34 4.64 3 6 C2.34 6 1.68 6 1 6 C1.33 4.68 1.66 3.36 2 2 C1.34 2 0.68 2 0 2 C-0.66 3.98 -1.32 5.96 -2 8 C-3.65 7.67 -5.3 7.34 -7 7 C-6.67 5.35 -6.34 3.7 -6 2 C-5.34 2 -4.68 2 -4 2 C-4.33 3.32 -4.66 4.64 -5 6 C-4.34 6 -3.68 6 -3 6 C-2.690625 5.195625 -2.38125 4.39125 -2.0625 3.5625 C-1 1 -1 1 0 0 Z " fill="#252525" transform="translate(168,71)"/>
<path d="M0 0 C3.76706644 0.52320367 6.27388801 1.27388801 9 4 C9 5.32 9 6.64 9 8 C5.12793601 7.42636089 2.81534937 5.65894107 0 3 C0 2.01 0 1.02 0 0 Z " fill="#D6D6D6" transform="translate(149,139)"/>
<path d="M0 0 C0.99 0 1.98 0 3 0 C3.33 0.66 3.66 1.32 4 2 C5.65 2 7.3 2 9 2 C9 3.65 9 5.3 9 7 C7.68 7.33 6.36 7.66 5 8 C5 7.34 5 6.68 5 6 C5.99 6 6.98 6 8 6 C8 5.34 8 4.68 8 4 C6.88625 4.350625 5.7725 4.70125 4.625 5.0625 C1 6 1 6 -1 5 C-0.67 3.35 -0.34 1.7 0 0 Z " fill="#1A1A1A" transform="translate(23,62)"/>
<path d="M0 0 C1.32 0.33 2.64 0.66 4 1 C4 2.32 4 3.64 4 5 C3.67 4.01 3.34 3.02 3 2 C0.9600281 3.36323743 0.9600281 3.36323743 -1 5 C-1 5.66 -1 6.32 -1 7 C-0.34 7 0.32 7 1 7 C0.67 7.99 0.34 8.98 0 10 C-1.9375 9.6875 -1.9375 9.6875 -4 9 C-4.33 8.01 -4.66 7.02 -5 6 C-3.59554165 3.7363436 -1.8032087 1.9791315 0 0 Z " fill="#2B2B2B" transform="translate(143,34)"/>
<path d="M0 0 C0.66 0 1.32 0 2 0 C1.67 1.32 1.34 2.64 1 4 C1.5775 3.34 2.155 2.68 2.75 2 C5 0 5 0 9 0 C9.33 1.32 9.66 2.64 10 4 C8.68 4.33 7.36 4.66 6 5 C6 4.34 6 3.68 6 3 C5.01 4.485 5.01 4.485 4 6 C1.375 6.1875 1.375 6.1875 -1 6 C-1.042721 4.33388095 -1.04063832 2.66617115 -1 1 C-0.67 0.67 -0.34 0.34 0 0 Z " fill="#1E1E1E" transform="translate(164,80)"/>
<path d="M0 0 C1.65 0.33 3.3 0.66 5 1 C5 1.99 5 2.98 5 4 C4.34 4 3.68 4 3 4 C3 3.34 3 2.68 3 2 C0.7522025 4.05233685 -0.0022242 5.00667261 -1 8 C0.32 7.67 1.64 7.34 3 7 C2.67 7.99 2.34 8.98 2 10 C0.35 9.67 -1.3 9.34 -3 9 C-2.5020163 5.26512223 -2.12508244 3.18762365 0 0 Z " fill="#232323" transform="translate(60,157)"/>
<path d="M0 0 C0.33 1.32 0.66 2.64 1 4 C0.34 4 -0.32 4 -1 4 C-1 3.34 -1 2.68 -1 2 C-1.66 2 -2.32 2 -3 2 C-2.67 3.32 -2.34 4.64 -2 6 C-3.32 5.67 -4.64 5.34 -6 5 C-6 6.32 -6 7.64 -6 9 C-6.66 9 -7.32 9 -8 9 C-8.66 7.35 -9.32 5.7 -10 4 C-3.375 0 -3.375 0 0 0 Z " fill="#1F1F1F" transform="translate(35,129)"/>
<path d="M0 0 C0.66 0.33 1.32 0.66 2 1 C1.67 1.99 1.34 2.98 1 4 C2.32 3.01 3.64 2.02 5 1 C5 2.32 5 3.64 5 5 C5.99 5 6.98 5 8 5 C8 4.01 8 3.02 8 2 C8.66 2 9.32 2 10 2 C9.67 3.98 9.34 5.96 9 8 C5.7 7.01 2.4 6.02 -1 5 C-0.67 3.35 -0.34 1.7 0 0 Z " fill="#222222" transform="translate(20,69)"/>
<path d="M0 0 C1.65 0 3.3 0 5 0 C4.01 0.495 4.01 0.495 3 1 C3 1.99 3 2.98 3 4 C3.99 3.67 4.98 3.34 6 3 C6 3.66 6 4.32 6 5 C5.34 5 4.68 5 4 5 C4 5.99 4 6.98 4 8 C5.32 8 6.64 8 8 8 C8 8.66 8 9.32 8 10 C6.35 10 4.7 10 3 10 C0 3.375 0 3.375 0 0 Z " fill="#2A2A2A" transform="translate(71,19)"/>
<path d="M0 0 C0 0.66 0 1.32 0 2 C-0.99 2 -1.98 2 -3 2 C-3 2.99 -3 3.98 -3 5 C-2.01 5.33 -1.02 5.66 0 6 C-0.66 6 -1.32 6 -2 6 C-2 6.99 -2 7.98 -2 9 C-1.01 9 -0.02 9 1 9 C1 9.66 1 10.32 1 11 C-0.65 11 -2.3 11 -4 11 C-5.1577506 7.52674819 -5.06866652 4.63932552 -5 1 C-3 0 -3 0 0 0 Z " fill="#232323" transform="translate(107,164)"/>
<path d="M0 0 C1.32 0.33 2.64 0.66 4 1 C4 2.32 4 3.64 4 5 C4.30404678 6.67225729 4.63128912 8.34080104 5 10 C2.69 8.02 0.38 6.04 -2 4 C-1.34 2.68 -0.68 1.36 0 0 Z " fill="#383838" transform="translate(146,143)"/>
<path d="M0 0 C0.66 0 1.32 0 2 0 C1.67 1.65 1.34 3.3 1 5 C2.32 4.34 3.64 3.68 5 3 C5 3.99 5 4.98 5 6 C5.66 6 6.32 6 7 6 C7.66 5.34 8.32 4.68 9 4 C9.33 4.66 9.66 5.32 10 6 C9.01 7.485 9.01 7.485 8 9 C4.04179141 8.43454163 1.3340947 7.19097652 -2 5 C-1.34 3.35 -0.68 1.7 0 0 Z " fill="#242424" transform="translate(157,127)"/>
<path d="M0 0 C0.99 0.33 1.98 0.66 3 1 C2.34 1 1.68 1 1 1 C1 1.66 1 2.32 1 3 C1.5775 2.649375 2.155 2.29875 2.75 1.9375 C5.35801776 0.85082593 6.39417629 1.06934867 9 2 C9 3.65 9 5.3 9 7 C7.68 7 6.36 7 5 7 C5.33 6.34 5.66 5.68 6 5 C5.34 5 4.68 5 4 5 C2.33034549 4.68197057 0.66321482 4.35015049 -1 4 C-0.67 2.68 -0.34 1.36 0 0 Z " fill="#202020" transform="translate(160,122)"/>
<path d="M0 0 C0.99 0 1.98 0 3 0 C3 0.66 3 1.32 3 2 C2.01 2 1.02 2 0 2 C0 2.66 0 3.32 0 4 C2.64 3.67 5.28 3.34 8 3 C8.33 4.32 8.66 5.64 9 7 C7.02 7.99 7.02 7.99 5 9 C4.67 8.34 4.34 7.68 4 7 C4.99 7 5.98 7 7 7 C7 6.34 7 5.68 7 5 C4.69 5.33 2.38 5.66 0 6 C-0.38218767 4.34385343 -0.71395102 2.67542976 -1 1 C-0.67 0.67 -0.34 0.34 0 0 Z " fill="#181818" transform="translate(27,54)"/>
<path d="M0 0 C3.00767886 -0.33957665 5.09747814 -0.54493987 8 0 C10.5 2 10.5 2 12 4 C11.01 4.495 11.01 4.495 10 5 C9.67 4.34 9.34 3.68 9 3 C7.68 3 6.36 3 5 3 C4.67 3.66 4.34 4.32 4 5 C2.02 4.34 0.04 3.68 -2 3 C-1.34 2.01 -0.68 1.02 0 0 Z " fill="#CA7135" transform="translate(88,90)"/>
<path d="M0 0 C1.7074998 1.28062485 3.37373596 2.61767557 5 4 C5 4.66 5 5.32 5 6 C4.01 6.66 3.02 7.32 2 8 C1.27617533 10.05925139 1.27617533 10.05925139 1 12 C0.34 12 -0.32 12 -1 12 C-1.02712066 10.56260487 -1.04645067 9.12506137 -1.0625 7.6875 C-1.07410156 6.88699219 -1.08570313 6.08648437 -1.09765625 5.26171875 C-1 3 -1 3 0 0 Z " fill="#FCFCFA" transform="translate(14,87)"/>
<path d="M0 0 C0.33 0.99 0.66 1.98 1 3 C-5.625 7 -5.625 7 -9 7 C-8.42655063 4.13275314 -8.1385485 3.1385485 -6 1 C-3.90200436 0.34437636 -2.19959601 0 0 0 Z " fill="#434343" transform="translate(167,61)"/>
<path d="M0 0 C3 2 3 2 3.73046875 5.0390625 C3.88128906 6.22242188 4.03210937 7.40578125 4.1875 8.625 C4.34605469 9.81351563 4.50460938 11.00203125 4.66796875 12.2265625 C4.77753906 13.14179687 4.88710938 14.05703125 5 15 C4.01 15 3.02 15 2 15 C-0.10428384 9.87080814 -0.21755666 5.4389165 0 0 Z " fill="#BCCAE8" transform="translate(50,57)"/>
<path d="M0 0 C0.33 0 0.66 0 1 0 C1 4.62 1 9.24 1 14 C1.66 14 2.32 14 3 14 C3 14.66 3 15.32 3 16 C2.34 16 1.68 16 1 16 C1 16.66 1 17.32 1 18 C-0.65 17.67 -2.3 17.34 -4 17 C-3.67 16.34 -3.34 15.68 -3 15 C-2.34 15 -1.68 15 -1 15 C-0.67 10.05 -0.34 5.1 0 0 Z " fill="#FCFDFE" transform="translate(124,96)"/>
<path d="M0 0 C1.30048841 2.60097682 1.56471422 5.13955062 2 8 C0.35 7.67 -1.3 7.34 -3 7 C-3.33 7.99 -3.66 8.98 -4 10 C-5 9 -5 9 -5.375 6.6875 C-5 4 -5 4 -2.5 1.6875 C-1.2625 0.8521875 -1.2625 0.8521875 0 0 Z " fill="#BC1E2F" transform="translate(90,78)"/>
<path d="M0 0 C1 3 1 3 -0.4375 6.1875 C-1.2109375 7.5796875 -1.2109375 7.5796875 -2 9 C-2.99 9 -3.98 9 -5 9 C-5.33 7.02 -5.66 5.04 -6 3 C-4.02 2.01 -2.04 1.02 0 0 Z " fill="#EEECE7" transform="translate(37,60)"/>
<path d="M0 0 C0.66 0.33 1.32 0.66 2 1 C1.45660208 5.56454251 0.20536179 8.9728176 -2 13 C-2.66 12.01 -3.32 11.02 -4 10 C-3.67 9.01 -3.34 8.02 -3 7 C-3.33 6.34 -3.66 5.68 -4 5 C-3.01 4.67 -2.02 4.34 -1 4 C-0.26676204 1.98491642 -0.26676204 1.98491642 0 0 Z " fill="#F2F0E9" transform="translate(169,125)"/>
<path d="M0 0 C0 3 0 3 -1.6796875 4.82421875 C-2.40414062 5.43910156 -3.12859375 6.05398437 -3.875 6.6875 C-4.59429687 7.31011719 -5.31359375 7.93273437 -6.0546875 8.57421875 C-8 10 -8 10 -10 10 C-10 9.01 -10 8.02 -10 7 C-7.8125 5.17578125 -7.8125 5.17578125 -5 3.3125 C-3.6078125 2.37857422 -3.6078125 2.37857422 -2.1875 1.42578125 C-1.1046875 0.72001953 -1.1046875 0.72001953 0 0 Z " fill="#E5EBF6" transform="translate(152,96)"/>
<path d="M0 0 C0.66 0 1.32 0 2 0 C1.67 1.32 1.34 2.64 1 4 C1.66 4.33 2.32 4.66 3 5 C3.33 5.66 3.66 6.32 4 7 C3.01 7.33 2.02 7.66 1 8 C-0.37195574 9.29355827 -1.71182656 10.62298702 -3 12 C-3 8.59593918 -2.13144317 6.19466306 -1 3 C-0.67 2.01 -0.34 1.02 0 0 Z " fill="#D4D4D4" transform="translate(168,73)"/>
<path d="M0 0 C2.97 0.495 2.97 0.495 6 1 C4.68 1.33 3.36 1.66 2 2 C2 2.99 2 3.98 2 5 C2.99 5.33 3.98 5.66 5 6 C3.68 6 2.36 6 1 6 C1 7.32 1 8.64 1 10 C0.34 10 -0.32 10 -1 10 C-0.67 6.7 -0.34 3.4 0 0 Z " fill="#1F1F1F" transform="translate(77,163)"/>
<path d="M0 0 C0.99 0.33 1.98 0.66 3 1 C-0.38168431 4.68006822 -3.42521756 6.9785845 -8 9 C-7.67 7.68 -7.34 6.36 -7 5 C-5.68 4.67 -4.36 4.34 -3 4 C-3 3.34 -3 2.68 -3 2 C-2.01 2 -1.02 2 0 2 C0 1.34 0 0.68 0 0 Z " fill="#F6F3EB" transform="translate(143,159)"/>
<path d="M0 0 C3.3 0 6.6 0 10 0 C8.35 1.65 6.7 3.3 5 5 C2.5 3.625 2.5 3.625 0 2 C0 1.34 0 0.68 0 0 Z " fill="#315EB8" transform="translate(91,116)"/>
<path d="M0 0 C-0.33 1.32 -0.66 2.64 -1 4 C-1.33 3.01 -1.66 2.02 -2 1 C-3.65 1 -5.3 1 -7 1 C-7 2.98 -7 4.96 -7 7 C-7.99 6.34 -8.98 5.68 -10 5 C-9.34 3.35 -8.68 1.7 -8 0 C-8.66 -0.33 -9.32 -0.66 -10 -1 C-6.18510326 -2.46726798 -3.70988378 -1.43336419 0 0 Z " fill="#CB1927" transform="translate(101,78)"/>
<path d="M0 0 C0.99 0 1.98 0 3 0 C3 3.63 3 7.26 3 11 C2.34 11 1.68 11 1 11 C0.7834375 9.63875 0.7834375 9.63875 0.5625 8.25 C0.07533901 5.13728293 0.07533901 5.13728293 -0.625 2.6875 C-0.74875 2.130625 -0.8725 1.57375 -1 1 C-0.67 0.67 -0.34 0.34 0 0 Z " fill="#1E1E1E" transform="translate(107,17)"/>
<path d="M0 0 C0.33 1.32 0.66 2.64 1 4 C1.99 4 2.98 4 4 4 C4.33 3.01 4.66 2.02 5 1 C5 2.32 5 3.64 5 5 C6.32 5 7.64 5 9 5 C9 5.66 9 6.32 9 7 C5.7 6.67 2.4 6.34 -1 6 C-0.67 4.02 -0.34 2.04 0 0 Z " fill="#1D1D1D" transform="translate(18,76)"/>
<path d="M0 0 C2.31 0.66 4.62 1.32 7 2 C6.2884375 2.6496875 6.2884375 2.6496875 5.5625 3.3125 C3.76313043 5.02309613 3.76313043 5.02309613 3 8 C2.34 8 1.68 8 1 8 C0.67 5.36 0.34 2.72 0 0 Z " fill="#FCFCFB" transform="translate(159,77)"/>
<path d="M0 0 C0.33 1.32 0.66 2.64 1 4 C-1.25 5.625 -1.25 5.625 -4 7 C-6.3125 6.1875 -6.3125 6.1875 -8 5 C-8 4.34 -8 3.68 -8 3 C-6.865625 2.690625 -5.73125 2.38125 -4.5625 2.0625 C-1.21224901 1.37075469 -1.21224901 1.37075469 0 0 Z " fill="#C26C38" transform="translate(105,101)"/>
<path d="M0 0 C0.66 0 1.32 0 2 0 C2.33 0.99 2.66 1.98 3 3 C-0.75 6 -0.75 6 -3 6 C-4.33783393 6.31478446 -5.67203709 6.64587656 -7 7 C-7 6.34 -7 5.68 -7 5 C-5.03277992 3.61876037 -3.03131672 2.28511874 -1 1 C-0.67 0.67 -0.34 0.34 0 0 Z " fill="#2B2B2B" transform="translate(156,46)"/>
<path d="M0 0 C3.7102866 1.2367622 4.60016234 3.00020293 7 6 C7.99 6.33 8.98 6.66 10 7 C8.35 7.66 6.7 8.32 5 9 C4.16094435 7.87926138 3.32892169 6.75325453 2.5 5.625 C2.0359375 4.99851562 1.571875 4.37203125 1.09375 3.7265625 C0 2 0 2 0 0 Z " fill="#242424" transform="translate(52,28)"/>
<path d="M0 0 C2.97 0.495 2.97 0.495 6 1 C6 1.66 6 2.32 6 3 C5.01 3.495 5.01 3.495 4 4 C3.26924352 6.3140622 2.59861742 8.64828869 2 11 C1.34 11 0.68 11 0 11 C0.66 8.03 1.32 5.06 2 2 C1.34 2 0.68 2 0 2 C0 1.34 0 0.68 0 0 Z " fill="#1D1D1D" transform="translate(112,18)"/>
<path d="M0 0 C0.66 0.66 1.32 1.32 2 2 C1.319375 2.7425 0.63875 3.485 -0.0625 4.25 C-2.28353676 6.75949064 -2.28353676 6.75949064 -1.75 9.3125 C-1.5025 9.869375 -1.255 10.42625 -1 11 C-3.475 10.01 -3.475 10.01 -6 9 C-4.16172132 5.84866512 -2.24027294 2.88035092 0 0 Z " fill="#242424" transform="translate(52,150)"/>
<path d="M0 0 C-2 3 -2 3 -5.5 3.8125 C-6.655 3.874375 -7.81 3.93625 -9 4 C-9.66 3.34 -10.32 2.68 -11 2 C-9.54494642 1.47007308 -8.08581873 0.9513211 -6.625 0.4375 C-5.81289062 0.14746094 -5.00078125 -0.14257812 -4.1640625 -0.44140625 C-2 -1 -2 -1 0 0 Z " fill="#C3A135" transform="translate(124,153)"/>
<path d="M0 0 C3.63 0 7.26 0 11 0 C9.68 1.32 8.36 2.64 7 4 C4.69 3.34 2.38 2.68 0 2 C0 1.34 0 0.68 0 0 Z " fill="#C8933A" transform="translate(89,106)"/>
<path d="M0 0 C1.23556641 0.01740234 1.23556641 0.01740234 2.49609375 0.03515625 C3.32238281 0.04417969 4.14867187 0.05320312 5 0.0625 C5.63808594 0.07410156 6.27617187 0.08570312 6.93359375 0.09765625 C6.93359375 0.75765625 6.93359375 1.41765625 6.93359375 2.09765625 C4.95359375 2.09765625 2.97359375 2.09765625 0.93359375 2.09765625 C0.93359375 3.08765625 0.93359375 4.07765625 0.93359375 5.09765625 C-0.05640625 5.09765625 -1.04640625 5.09765625 -2.06640625 5.09765625 C-2.62890625 3.16015625 -2.62890625 3.16015625 -3.06640625 1.09765625 C-2.06640625 0.09765625 -2.06640625 0.09765625 0 0 Z " fill="#5F5F5F" transform="translate(19.06640625,92.90234375)"/>
<path d="M0 0 C-0.33 0.99 -0.66 1.98 -1 3 C-3.64 2.01 -6.28 1.02 -9 0 C-9.33 0.66 -9.66 1.32 -10 2 C-10.66 2 -11.32 2 -12 2 C-12 1.34 -12 0.68 -12 0 C-7.44729118 -2.48329572 -4.775353 -1.68541871 0 0 Z " fill="#DCE4F3" transform="translate(83,56)"/>
<path d="M0 0 C1.11375 1.175625 1.11375 1.175625 2.25 2.375 C4.54433318 4.56504531 6.12158858 5.82731386 9 7 C7.35 7.66 5.7 8.32 4 9 C0 3.375 0 3.375 0 0 Z " fill="#1F1F1F" transform="translate(130,156)"/>
<path d="M0 0 C0.66 0.66 1.32 1.32 2 2 C1.9375 3.9375 1.9375 3.9375 1 6 C-1.5625 7.75 -1.5625 7.75 -4 9 C-4 8.34 -4 7.68 -4 7 C-4.66 6.67 -5.32 6.34 -6 6 C-4.35 5.67 -2.7 5.34 -1 5 C-0.67 3.35 -0.34 1.7 0 0 Z " fill="#CFD9EE" transform="translate(139,129)"/>
<path d="M0 0 C3.35620271 1.38877354 5.07298728 2.91677965 7 6 C7 6.66 7 7.32 7 8 C4.13275314 7.42655063 3.1385485 7.1385485 1 5 C1 4.34 1 3.68 1 3 C0.67 2.01 0.34 1.02 0 0 Z " fill="#232323" transform="translate(42,36)"/>
<path d="M0 0 C0.96516243 3.00272755 1.22393475 5.04215769 0 8 C-0.99 8.33 -1.98 8.66 -3 9 C-2.4140625 2.84765625 -2.4140625 2.84765625 -2 1 C-1.34 0.67 -0.68 0.34 0 0 Z " fill="#D7B64A" transform="translate(33,76)"/>
<path d="M0 0 C1.32 0.33 2.64 0.66 4 1 C3.34 1 2.68 1 2 1 C2.33 1.556875 2.66 2.11375 3 2.6875 C4.1309601 5.30284522 4.15662974 7.1806646 4 10 C3.34 10 2.68 10 2 10 C1.34 6.7 0.68 3.4 0 0 Z " fill="#1C1C1C" transform="translate(112,163)"/>
<path d="M0 0 C1.98 0 3.96 0 6 0 C6 0.66 6 1.32 6 2 C5.34 2 4.68 2 4 2 C3.67 4.64 3.34 7.28 3 10 C2.67 10 2.34 10 2 10 C2 7.36 2 4.72 2 2 C1.34 2 0.68 2 0 2 C0 1.34 0 0.68 0 0 Z " fill="#151515" transform="translate(87,165)"/>
<path d="M0 0 C0.66 0 1.32 0 2 0 C0.79157144 4.43090471 -0.51668565 6.98112756 -4 10 C-4 5.75354935 -2.18249194 3.61475228 0 0 Z " fill="#2E2E2E" transform="translate(57,154)"/>
<path d="M0 0 C4.02550319 1.3418344 4.88285636 3.4227573 7 7 C7 7.66 7 8.32 7 9 C2.97449681 7.6581656 2.11714364 5.5772427 0 2 C0 1.34 0 0.68 0 0 Z " fill="#2C2C2C" transform="translate(135,152)"/>
<path d="M0 0 C2.31 0 4.62 0 7 0 C7 0.99 7 1.98 7 3 C4.69 3 2.38 3 0 3 C0 2.01 0 1.02 0 0 Z " fill="#D4D4D4" transform="translate(166,94)"/>
<path d="M0 0 C4.875 1.75 4.875 1.75 6 4 C3.03 4 0.06 4 -3 4 C-2.01 2.68 -1.02 1.36 0 0 Z " fill="#2756B5" transform="translate(93,66)"/>
<path d="M0 0 C-0.928125 0.4021875 -0.928125 0.4021875 -1.875 0.8125 C-4.2995233 1.95556848 -4.2995233 1.95556848 -6 5 C-7.32 4.67 -8.64 4.34 -10 4 C-7.39928297 0.98864344 -3.94054294 -1.97027147 0 0 Z " fill="#D5B54C" transform="translate(76,33)"/>
<path d="M0 0 C1.5625 1.25 1.5625 1.25 3 3 C2.6875 5.1875 2.6875 5.1875 2 7 C0.68 6.34 -0.64 5.68 -2 5 C-1.34 3.35 -0.68 1.7 0 0 Z " fill="#646464" transform="translate(37,134)"/>
<path d="M0 0 C1.65 0 3.3 0 5 0 C5 0.99 5 1.98 5 3 C3.02 3.66 1.04 4.32 -1 5 C-0.67 3.35 -0.34 1.7 0 0 Z " fill="#DCDCDC" transform="translate(159,127)"/>
<path d="M0 0 C2.91517292 1.07401108 4.77810176 1.77810176 7 4 C6.34 4.66 5.68 5.32 5 6 C1.535 4.02 1.535 4.02 -2 2 C-1.34 1.34 -0.68 0.68 0 0 Z " fill="#D5DEF0" transform="translate(99,123)"/>
<path d="M0 0 C0 0.66 0 1.32 0 2 C-4.95 3.485 -4.95 3.485 -10 5 C-10 4.34 -10 3.68 -10 3 C-3.375 0 -3.375 0 0 0 Z " fill="#272727" transform="translate(169,67)"/>
<path d="M0 0 C1.32 1.32 2.64 2.64 4 4 C3.01 4.495 3.01 4.495 2 5 C2.33 6.65 2.66 8.3 3 10 C1 9 1 9 -0.1875 6.6875 C-1.03624754 3.88010429 -0.99928333 2.698065 0 0 Z " fill="#141414" transform="translate(48,31)"/>
<path d="M0 0 C0.66 1.32 1.32 2.64 2 4 C3.32 3.34 4.64 2.68 6 2 C5.34 3.65 4.68 5.3 4 7 C2.68 7 1.36 7 0 7 C0 4.69 0 2.38 0 0 Z " fill="#D0DAEF" transform="translate(67,83)"/>
<path d="M0 0 C0.763125 0.20625 1.52625 0.4125 2.3125 0.625 C0.5625 2.6875 0.5625 2.6875 -1.6875 4.625 C-3.9375 4.375 -3.9375 4.375 -5.6875 3.625 C-5.6875 2.965 -5.6875 2.305 -5.6875 1.625 C-2.6875 -0.375 -2.6875 -0.375 0 0 Z " fill="#585858" transform="translate(156.6875,52.375)"/>
<path d="M0 0 C3.93673644 1.31224548 6.22719294 2.91910327 9 6 C4.9666466 6 3.16482462 4.39120082 0 2 C0 1.34 0 0.68 0 0 Z " fill="#232323" transform="translate(30,50)"/>
<path d="M0 0 C2 1 4 2 6 3 C6 3.99 6 4.98 6 6 C3.5625 5.25 3.5625 5.25 1 4 C0.1875 1.875 0.1875 1.875 0 0 Z " fill="#DEDEDE" transform="translate(35,45)"/>
<path d="M0 0 C0.66 0 1.32 0 2 0 C1.42655063 2.86724686 1.1385485 3.8614515 -1 6 C-1.99 6 -2.98 6 -4 6 C-2.84826645 3.53199953 -1.95216435 1.95216435 0 0 Z " fill="#D8D8D8" transform="translate(150,42)"/>
<path d="M0 0 C0.66 1.32 1.32 2.64 2 4 C0.02 4 -1.96 4 -4 4 C-4.33 3.01 -4.66 2.02 -5 1 C-2 0 -2 0 0 0 Z " fill="#FCFAF5" transform="translate(75,171)"/>
<path d="M0 0 C0.66 0.33 1.32 0.66 2 1 C1.34 3.64 0.68 6.28 0 9 C-0.66 9 -1.32 9 -2 9 C-2.25 3.375 -2.25 3.375 0 0 Z " fill="#1C1C1C" transform="translate(70,162)"/>
<path d="M0 0 C4.17799643 2.08899822 4.92391901 3.05544612 7 7 C6.34 7.66 5.68 8.32 5 9 C3.35 6.03 1.7 3.06 0 0 Z " fill="#E3E3E3" transform="translate(137,152)"/>
<path d="M0 0 C1.32 0.33 2.64 0.66 4 1 C4.33 2.32 4.66 3.64 5 5 C3.35 5 1.7 5 0 5 C0 3.35 0 1.7 0 0 Z " fill="#6F6F6F" transform="translate(28,122)"/>
<path d="M0 0 C0.33 0 0.66 0 1 0 C1 1.65 1 3.3 1 5 C2.98 4.67 4.96 4.34 7 4 C6.67 4.99 6.34 5.98 6 7 C3.9375 7.6875 3.9375 7.6875 2 8 C2 7.34 2 6.68 2 6 C1.34 6 0.68 6 0 6 C0 4.02 0 2.04 0 0 Z " fill="#C2CFEA" transform="translate(125,104)"/>
<path d="M0 0 C2.31 0 4.62 0 7 0 C7.33 1.32 7.66 2.64 8 4 C7.67 3.34 7.34 2.68 7 2 C5.02 2.33 3.04 2.66 1 3 C0.67 2.01 0.34 1.02 0 0 Z " fill="#D5D5D5" transform="translate(19,91)"/>
<path d="M0 0 C3.73487777 0.4979837 5.81237635 0.87491756 9 3 C6.03 3 3.06 3 0 3 C0 2.01 0 1.02 0 0 Z " fill="#AD1638" transform="translate(93,87)"/>
<path d="M0 0 C0.99 0 1.98 0 3 0 C3 1.98 3 3.96 3 6 C1.68 5.67 0.36 5.34 -1 5 C-0.67 3.35 -0.34 1.7 0 0 Z " fill="#323232" transform="translate(23,62)"/>
<path d="M0 0 C0.33 0.99 0.66 1.98 1 3 C-0.8125 6.1875 -0.8125 6.1875 -3 9 C-3.66 9 -4.32 9 -5 9 C-5 6 -5 6 -3.625 4.5 C-3.08875 4.005 -2.5525 3.51 -2 3 C-1.34 2.01 -0.68 1.02 0 0 Z " fill="#181818" transform="translate(137,28)"/>
<path d="M0 0 C0.99 0 1.98 0 3 0 C2.34 2.31 1.68 4.62 1 7 C0.34 7 -0.32 7 -1 7 C-0.67 4.69 -0.34 2.38 0 0 Z " fill="#EAEAEA" transform="translate(71,163)"/>
<path d="M0 0 C1.98 0.495 1.98 0.495 4 1 C3.34 2.32 2.68 3.64 2 5 C1.01 4.67 0.02 4.34 -1 4 C-0.67 2.68 -0.34 1.36 0 0 Z " fill="#686868" transform="translate(141,148)"/>
<path d="M0 0 C2.94956528 1.36944102 5.52468811 2.87830409 8 5 C8 5.66 8 6.32 8 7 C5.05043472 5.63055898 2.47531189 4.12169591 0 2 C0 1.34 0 0.68 0 0 Z " fill="#1A1A1A" transform="translate(149,140)"/>
<path d="M0 0 C-0.33 2.31 -0.66 4.62 -1 7 C-1.66 7 -2.32 7 -3 7 C-3.66 5.35 -4.32 3.7 -5 2 C-2 0 -2 0 0 0 Z " fill="#2B2B2B" transform="translate(30,131)"/>
<path d="M0 0 C1.32 0 2.64 0 4 0 C4.33 1.32 4.66 2.64 5 4 C3.68 4.33 2.36 4.66 1 5 C1 4.34 1 3.68 1 3 C0.34 2.34 -0.32 1.68 -1 1 C-0.67 0.67 -0.34 0.34 0 0 Z " fill="#2C2C2C" transform="translate(169,80)"/>
<path d="M0 0 C1.42944945 2.35438733 2.08661261 3.48032433 1.625 6.25 C1.41875 6.8275 1.2125 7.405 1 8 C0.34 7.67 -0.32 7.34 -1 7 C-1.625 3.9375 -1.625 3.9375 -2 1 C-1.34 0.67 -0.68 0.34 0 0 Z " fill="#D1DBEF" transform="translate(123,74)"/>
<path d="M0 0 C0.33 0.99 0.66 1.98 1 3 C0.01 4.485 0.01 4.485 -1 6 C-1.66 6 -2.32 6 -3 6 C-3 5.01 -3 4.02 -3 3 C-3.66 2.67 -4.32 2.34 -5 2 C-3.35 1.34 -1.7 0.68 0 0 Z " fill="#FAF9F5" transform="translate(33,68)"/>
<path d="M0 0 C1.9375 0.25 1.9375 0.25 4 1 C4.66 1.99 5.32 2.98 6 4 C3 4 3 4 0 2 C-0.33 2.66 -0.66 3.32 -1 4 C-1 1 -1 1 0 0 Z " fill="#323232" transform="translate(35,43)"/>
<path d="M0 0 C0.33 0 0.66 0 1 0 C1 1.65 1 3.3 1 5 C-0.98 5.99 -0.98 5.99 -3 7 C-2.25 2.25 -2.25 2.25 0 0 Z " fill="#E6E6E6" transform="translate(126,24)"/>
<path d="M0 0 C0.66 0 1.32 0 2 0 C1.01 2.97 0.02 5.94 -1 9 C-1.66 7.68 -2.32 6.36 -3 5 C-1.75 2.25 -1.75 2.25 0 0 Z " fill="#D8D8D8" transform="translate(58,156)"/>
<path d="M0 0 C1.98 0.495 1.98 0.495 4 1 C3.34 2.32 2.68 3.64 2 5 C1.01 5 0.02 5 -1 5 C-0.67 3.35 -0.34 1.7 0 0 Z " fill="#DCDCDC" transform="translate(20,75)"/>
<path d="M0 0 C2.31 0.33 4.62 0.66 7 1 C6.34 2.32 5.68 3.64 5 5 C2.525 4.01 2.525 4.01 0 3 C0 2.01 0 1.02 0 0 Z " fill="#D0DAEF" transform="translate(126,72)"/>
<path d="M0 0 C0.99 0 1.98 0 3 0 C3.33 1.98 3.66 3.96 4 6 C3.01 5.67 2.02 5.34 1 5 C0.67 3.35 0.34 1.7 0 0 Z " fill="#454545" transform="translate(83,21)"/>
</svg>
