<?xml version="1.0" encoding="UTF-8"?>
<svg version="1.1" xmlns="http://www.w3.org/2000/svg" width="228" height="239">
<path d="M0 0 C1.16269409 -0.00870117 1.16269409 -0.00870117 2.34887695 -0.01757812 C8.05584694 0.10380803 12.88608764 1.44292423 18.1875 3.5 C19.198125 3.891875 20.20875 4.28375 21.25 4.6875 C22.2090625 5.0896875 22.2090625 5.0896875 23.1875 5.5 C23.1875 6.16 23.1875 6.82 23.1875 7.5 C24.2703125 7.87125 24.2703125 7.87125 25.375 8.25 C28.46356582 9.62269592 30.69761418 11.22353296 33.1875 13.5 C33.1875 14.16 33.1875 14.82 33.1875 15.5 C32.5275 15.5 31.8675 15.5 31.1875 15.5 C30.77904343 16.39643219 30.77904343 16.39643219 30.36233521 17.31097412 C29.21425875 19.45014143 28.10403595 20.82595536 26.39013672 22.52441406 C25.82970673 23.08469299 25.26927673 23.64497192 24.69186401 24.222229 C24.08972076 24.81404968 23.48757751 25.40587036 22.8671875 26.015625 C22.24852814 26.63145447 21.62986877 27.24728394 20.99246216 27.8817749 C19.02046186 29.84260336 17.04161263 31.79635301 15.0625 33.75 C13.72219836 35.08026799 12.38234917 36.410992 11.04296875 37.7421875 C7.76303411 41.0001015 4.47694058 44.25168533 1.1875 47.5 C-1.25 46.6875 -1.25 46.6875 -3.8125 45.5 C-4.1425 44.51 -4.4725 43.52 -4.8125 42.5 C-6.81266466 41.29117904 -6.81266466 41.29117904 -8.8125 40.5 C-8.8125 39.84 -8.8125 39.18 -8.8125 38.5 C-10.1325 37.84 -11.4525 37.18 -12.8125 36.5 C-14.36136674 47.47954407 -14.36136674 47.47954407 -10.28125 57.3359375 C-7.37195521 60.49568936 -4.43494689 63.18200937 -0.8125 65.5 C1.48390564 65.61102246 1.48390564 65.61102246 3.1875 64.5 C4.47186734 62.5162233 4.47186734 62.5162233 5.1875 60.5 C5.8475 60.5 6.5075 60.5 7.1875 60.5 C7.8475 59.18 8.5075 57.86 9.1875 56.5 C9.8475 56.5 10.5075 56.5 11.1875 56.5 C11.8475 55.18 12.5075 53.86 13.1875 52.5 C13.8475 52.5 14.5075 52.5 15.1875 52.5 C15.39375 51.943125 15.6 51.38625 15.8125 50.8125 C17.34561063 48.23408667 19.21047109 46.76240121 21.54296875 44.91796875 C23.88113716 42.9019233 25.76554906 40.58108683 27.73828125 38.21484375 C29.76950007 35.81132606 31.8665396 33.62754703 34.1875 31.5 C34.8475 31.5 35.5075 31.5 36.1875 31.5 C36.55875 30.5409375 36.55875 30.5409375 36.9375 29.5625 C38.1875 27.5 38.1875 27.5 40.265625 26.87109375 C40.89984375 26.74863281 41.5340625 26.62617187 42.1875 26.5 C47.27939709 38.09315855 48.27076341 50.96621185 44.5 63.125 C42.66169374 67.82216689 40.51423776 72.65275225 37.1875 76.5 C36.5275 76.5 35.8675 76.5 35.1875 76.5 C34.1975 78.48 34.1975 78.48 33.1875 80.5 C32.5275 80.5 31.8675 80.5 31.1875 80.5 C30.6925 81.985 30.6925 81.985 30.1875 83.5 C18.80470505 92.44873817 5.2825454 95.1039783 -8.8125 93.5 C-16.73559628 91.88081385 -24.39461307 88.46960271 -30.8125 83.5 C-30.8125 82.84 -30.8125 82.18 -30.8125 81.5 C-31.4725 81.5 -32.1325 81.5 -32.8125 81.5 C-32.8125 80.84 -32.8125 80.18 -32.8125 79.5 C-33.8025 79.17 -34.7925 78.84 -35.8125 78.5 C-43.94558725 68.97886586 -48.38181252 55.94724197 -47.8125 43.5 C-47.28910145 40.64599021 -46.570694 37.86218259 -45.8125 35.0625 C-45.62171875 34.33095703 -45.4309375 33.59941406 -45.234375 32.84570312 C-44.76799597 31.06180334 -44.29131722 29.28060155 -43.8125 27.5 C-43.1525 27.5 -42.4925 27.5 -41.8125 27.5 C-41.750625 26.819375 -41.68875 26.13875 -41.625 25.4375 C-40.54848615 21.54548838 -38.55584968 18.46555246 -35.8125 15.5 C-35.1525 15.5 -34.4925 15.5 -33.8125 15.5 C-33.503125 14.63375 -33.503125 14.63375 -33.1875 13.75 C-31.29624778 10.65522364 -28.91214063 9.3081237 -25.8125 7.5 C-25.1525 7.5 -24.4925 7.5 -23.8125 7.5 C-23.8125 6.84 -23.8125 6.18 -23.8125 5.5 C-15.8239624 1.85107581 -8.79442452 0.00694868 0 0 Z " fill="#EF7B03" transform="translate(114.8125,63.5)"/>
<path d="M0 0 C0.89460938 -0.00386719 1.78921875 -0.00773437 2.7109375 -0.01171875 C11.06421182 0.00042264 18.70080363 0.58131487 26.6875 3.1875 C27.81285156 3.54972656 28.93820313 3.91195313 30.09765625 4.28515625 C30.93167969 4.56230469 31.76570313 4.83945312 32.625 5.125 C32.625 5.785 32.625 6.445 32.625 7.125 C33.40875 7.16625 34.1925 7.2075 35 7.25 C50.48947108 10.98883785 64.33499249 25.79493039 72.51806641 38.81933594 C75.69905458 44.0564493 78.36491463 49.42565429 80.625 55.125 C80.92019531 55.82367188 81.21539062 56.52234375 81.51953125 57.2421875 C86.74556448 70.88651072 85.91794355 86.57837031 85.83081055 100.93041992 C85.81222645 104.10929152 85.81030371 107.28787592 85.81054688 110.46679688 C85.80564208 112.48698171 85.79981836 114.50716457 85.79296875 116.52734375 C85.79185593 117.47818344 85.7907431 118.42902313 85.78959656 119.40867615 C85.78321671 120.27791214 85.77683685 121.14714813 85.77026367 122.04272461 C85.76645187 122.80942978 85.76264008 123.57613495 85.75871277 124.36607361 C85.625 126.125 85.625 126.125 84.625 127.125 C83.28232587 127.21131874 81.93525678 127.23206473 80.58984375 127.22265625 C79.78095703 127.21943359 78.97207031 127.21621094 78.13867188 127.21289062 C77.28853516 127.20451172 76.43839844 127.19613281 75.5625 127.1875 C74.70849609 127.18298828 73.85449219 127.17847656 72.97460938 127.17382812 C70.85804337 127.16200373 68.74151315 127.14406769 66.625 127.125 C66.61953156 126.21989685 66.61953156 126.21989685 66.61395264 125.29650879 C66.5716808 118.93541879 66.50203365 112.57502072 66.41748047 106.21435547 C66.38950002 103.85016855 66.36817329 101.48589206 66.35400391 99.12158203 C66.24613627 82.12883319 66.07547046 66.39973767 56.9921875 51.45703125 C55.5974758 49.07805158 54.58745634 46.70529962 53.625 44.125 C52.965 44.125 52.305 44.125 51.625 44.125 C47.625 39.65441176 47.625 39.65441176 47.625 37.125 C46.78775391 36.74794922 46.78775391 36.74794922 45.93359375 36.36328125 C43.26521549 34.93201914 41.06743562 33.18423884 38.6875 31.3125 C23.70084386 20.28760343 5.66428414 18.54961356 -12.375 20.125 C-21.55739513 21.69179958 -29.74106743 25.90545561 -37.375 31.125 C-38.00792969 31.52460937 -38.64085937 31.92421875 -39.29296875 32.3359375 C-44.16512122 35.54101793 -47.74041348 39.59924082 -51.375 44.125 C-51.82875 44.66898438 -52.2825 45.21296875 -52.75 45.7734375 C-60.26314314 55.39965215 -63.39401824 67.59760277 -64.12890625 79.55078125 C-64.375 82.125 -64.375 82.125 -65.375 84.125 C-71.315 84.125 -77.255 84.125 -83.375 84.125 C-84.35683749 63.89914777 -78.11246922 44.38593617 -64.375 29.125 C-63.54613281 28.18011719 -62.71726562 27.23523438 -61.86328125 26.26171875 C-51.06637587 14.45561549 -37.51625684 7.11950542 -22.3125 2.5 C-21.53777344 2.26023437 -20.76304688 2.02046875 -19.96484375 1.7734375 C-13.31298068 0.10796349 -6.80999438 -0.02918569 0 0 Z " fill="#7F7F7D" transform="translate(113.375,26.875)"/>
<path d="M0 0 C0.99 0 1.98 0 3 0 C3 11.55 3 23.1 3 35 C6.3 35 9.6 35 13 35 C13 35.99 13 36.98 13 38 C6.375 39 6.375 39 3 39 C3 40.32 3 41.64 3 43 C1.68 43 0.36 43 -1 43 C-1 41.68 -1 40.36 -1 39 C-26.08 39 -51.16 39 -77 39 C-77.33 37.68 -77.66 36.36 -78 35 C-71.73 34.67 -65.46 34.34 -59 34 C-59.33 31.69 -59.66 29.38 -60 27 C-59 26 -59 26 -55.4375 25.9375 C-54.303125 25.958125 -53.16875 25.97875 -52 26 C-51.67 27.32 -51.34 28.64 -51 30 C-50.01 29.67 -49.02 29.34 -48 29 C-50.2692426 26.55620028 -52.36995082 24.76062006 -55.1875 22.9375 C-58 21 -58 21 -59 18 C-59.44988523 11.81407804 -59.44988523 11.81407804 -57.6875 8.625 C-54.58833333 5.64061728 -51.14923972 5.72763271 -47.00390625 5.7734375 C-44.11190664 6.10040822 -42.26097552 7.21862535 -40 9 C-39.505 9.99 -39.505 9.99 -39 11 C-38.566875 10.360625 -38.13375 9.72125 -37.6875 9.0625 C-36 7 -36 7 -33 6 C-27.59091325 5.65102666 -24.45029511 5.59683315 -20 9 C-19.34 9.66 -18.68 10.32 -18 11 C-17.360625 10.175 -16.72125 9.35 -16.0625 8.5 C-12.37723522 5.49162059 -10.65524081 5.52382891 -6.0859375 5.7265625 C-4 6 -4 6 -1 7 C-1.020625 6.030625 -1.04125 5.06125 -1.0625 4.0625 C-1 1 -1 1 0 0 Z M-50 12 C-50.33 13.32 -50.66 14.64 -51 16 C-47.37 18.31 -43.74 20.62 -40 23 C-40 20.69 -40 18.38 -40 16 C-42.31 15.67 -44.62 15.34 -47 15 C-47.33 14.01 -47.66 13.02 -48 12 C-48.66 12 -49.32 12 -50 12 Z M-30 12 C-32.16205669 16.31586125 -32.06986614 19.55243225 -31.625 24.3125 C-31.51414063 25.56675781 -31.40328125 26.82101563 -31.2890625 28.11328125 C-31.19367188 29.06589844 -31.09828125 30.01851562 -31 31 C-29.35 31 -27.7 31 -26 31 C-26 29.35 -26 27.7 -26 26 C-26.99 25.67 -27.98 25.34 -29 25 C-29 23.35 -29 21.7 -29 20 C-25.7 20 -22.4 20 -19 20 C-18.67 21.98 -18.34 23.96 -18 26 C-17.05125 26.0825 -16.1025 26.165 -15.125 26.25 C-12 27 -12 27 -10.625 29.0625 C-10.315625 30.0215625 -10.315625 30.0215625 -10 31 C-9.01 31 -8.02 31 -7 31 C-6.87786106 28.65851769 -6.87786106 28.65851769 -8 26 C-9.95180042 24.5672498 -11.9465584 23.43274886 -14.08984375 22.30859375 C-16.31032032 20.78740837 -17.00446517 19.46538205 -18 17 C-20.64 17 -23.28 17 -26 17 C-26.66 15.35 -27.32 13.7 -28 12 C-28.66 12 -29.32 12 -30 12 Z M-9 12 C-9.33 13.32 -9.66 14.64 -10 16 C-8.87926138 16.83905565 -7.75325453 17.67107831 -6.625 18.5 C-5.99851562 18.9640625 -5.37203125 19.428125 -4.7265625 19.90625 C-3.05905387 21.17838101 -3.05905387 21.17838101 -1 21 C-1 19.35 -1 17.7 -1 16 C-2.65 16 -4.3 16 -6 16 C-6.33 14.68 -6.66 13.36 -7 12 C-7.66 12 -8.32 12 -9 12 Z M-40 32 C-40.33 32.99 -40.66 33.98 -41 35 C-39.68 34.67 -38.36 34.34 -37 34 C-37.99 33.34 -38.98 32.68 -40 32 Z " fill="#7A7A77" transform="translate(196,158)"/>
<path d="M0 0 C2.3125 1.1875 2.3125 1.1875 3.3125 2.1875 C3.23 2.97125 3.1475 3.755 3.0625 4.5625 C3.18625 5.861875 3.18625 5.861875 3.3125 7.1875 C5.68862865 8.79657108 5.68862865 8.79657108 8.3125 10.1875 C9.01187532 11.50397119 9.67979133 12.83772151 10.3125 14.1875 C11.01375 14.661875 11.715 15.13625 12.4375 15.625 C14.3125 17.1875 14.3125 17.1875 14.5625 19.875 C14.43875 21.0196875 14.43875 21.0196875 14.3125 22.1875 C15.09625 22.125625 15.88 22.06375 16.6875 22 C17.986875 22.0928125 17.986875 22.0928125 19.3125 22.1875 C19.9725 23.1775 20.6325 24.1675 21.3125 25.1875 C20.07488177 26.84266419 18.82192545 28.48636798 17.5625 30.125 C16.86640625 31.04152344 16.1703125 31.95804688 15.453125 32.90234375 C13.30220965 35.19848513 12.37632739 35.86317593 9.3125 36.1875 C8.5625 34.5625 8.5625 34.5625 8.3125 32.1875 C10.25 28.9375 10.25 28.9375 12.3125 26.1875 C11.260625 26.93 11.260625 26.93 10.1875 27.6875 C6.90167682 29.40184253 4.96796065 29.59366229 1.3125 29.1875 C-0.6875 27.1875 -0.6875 27.1875 -0.8125 24.5625 C-0.77125 23.77875 -0.73 22.995 -0.6875 22.1875 C-1.47125 22.125625 -2.255 22.06375 -3.0625 22 C-5.6875 21.1875 -5.6875 21.1875 -7.0625 18.75 C-7.6875 16.1875 -7.6875 16.1875 -6.6875 14.1875 C-7.8940625 13.878125 -7.8940625 13.878125 -9.125 13.5625 C-11.6875 12.1875 -11.6875 12.1875 -12.625 9.25 C-12.6875 6.1875 -12.6875 6.1875 -10.6875 3.1875 C-8.8125 2.125 -8.8125 2.125 -6.6875 1.1875 C-6.048125 0.775 -5.40875 0.3625 -4.75 -0.0625 C-2.6875 -0.8125 -2.6875 -0.8125 0 0 Z " fill="#EE7F10" transform="translate(52.6875,141.8125)"/>
<path d="M0 0 C0.66 0.556875 1.32 1.11375 2 1.6875 C2 2.6775 2 3.6675 2 4.6875 C2.66 4.6875 3.32 4.6875 4 4.6875 C4 5.6775 4 6.6675 4 7.6875 C1.04335481 9.1658226 -1.74229737 8.74782783 -5 8.6875 C-5.33 7.3675 -5.66 6.0475 -6 4.6875 C-6.99 5.1825 -6.99 5.1825 -8 5.6875 C-8 6.6775 -8 7.6675 -8 8.6875 C-6.09178516 10.13373605 -6.09178516 10.13373605 -3.6875 11.4375 C0.94600203 14.38277022 2.73177235 16.32192147 4 21.6875 C3.12815886 25.61078514 2.39648304 26.42317797 -1 28.6875 C-3.99609375 29.0234375 -3.99609375 29.0234375 -7.4375 29.0625 C-8.57058594 29.09085938 -9.70367187 29.11921875 -10.87109375 29.1484375 C-14.60812668 28.5979133 -15.75975383 27.6726824 -18 24.6875 C-18.3125 22 -18.3125 22 -18 19.6875 C-17 18.6875 -17 18.6875 -13.4375 18.625 C-12.303125 18.645625 -11.16875 18.66625 -10 18.6875 C-9.67 20.0075 -9.34 21.3275 -9 22.6875 C-8.01 22.3575 -7.02 22.0275 -6 21.6875 C-8.2692426 19.24370028 -10.36995082 17.44812006 -13.1875 15.625 C-16 13.6875 -16 13.6875 -17 10.6875 C-17.44988523 4.50157804 -17.44988523 4.50157804 -15.6875 1.3125 C-11.47959141 -2.73956013 -4.99343048 -2.18462584 0 0 Z " fill="#7B7B79" transform="translate(154,165.3125)"/>
<path d="M0 0 C0.99 0 1.98 0 3 0 C3 11.55 3 23.1 3 35 C6.3 35 9.6 35 13 35 C13 35.99 13 36.98 13 38 C6.375 39 6.375 39 3 39 C3 40.32 3 41.64 3 43 C1.68 43 0.36 43 -1 43 C-1 41.68 -1 40.36 -1 39 C-26.08 39 -51.16 39 -77 39 C-77.33 37.68 -77.66 36.36 -78 35 C-72.16911112 34.9749466 -66.33825479 34.95697599 -60.50732422 34.94506836 C-58.53108167 34.94009486 -56.5548427 34.93331369 -54.57861328 34.92456055 C-42.67213411 34.87321348 -30.87309948 35.05087966 -19 36 C-18.505 35.01 -18.505 35.01 -18 34 C-17.01 34.33 -16.02 34.66 -15 35 C-12.42734182 35.07029121 -9.88358569 35.09370832 -7.3125 35.0625 C-6.61060547 35.05798828 -5.90871094 35.05347656 -5.18554688 35.04882812 C-3.45699462 35.03706927 -1.72848635 35.01913454 0 35 C-0.14076315 33.0412957 -0.2877676 31.08303907 -0.4375 29.125 C-0.51871094 28.03445312 -0.59992188 26.94390625 -0.68359375 25.8203125 C-0.83001703 23.05271029 -0.83001703 23.05271029 -2 21 C-1.66666667 19.33333333 -1.33333333 17.66666667 -1 16 C-0.69407876 11.34058991 -0.69407876 11.34058991 -2 7 C-1.39239518 4.6505947 -0.72870472 2.31470912 0 0 Z " fill="#EA8722" transform="translate(196,158)"/>
<path d="M0 0 C0.12375 0.7425 0.2475 1.485 0.375 2.25 C0.84674002 4.95765032 0.84674002 4.95765032 2.125 6.9375 C3 9 3 9 2.4375 12.0625 C2.293125 13.031875 2.14875 14.00125 2 15 C2.97850195 16.02104551 3.97980427 17.0206121 5 18 C5.1875 21.1875 5.1875 21.1875 5 24 C-2.3697851 28.46015566 -2.3697851 28.46015566 -7 27.75 C-7.99 27.5025 -8.98 27.255 -10 27 C-11.125 24.1875 -11.125 24.1875 -12 21 C-11.34 20.01 -10.68 19.02 -10 18 C-10.639375 17.608125 -11.27875 17.21625 -11.9375 16.8125 C-14 15 -14 15 -14.875 12.5625 C-15.01411453 9.71065206 -14.50303217 8.38716874 -13 6 C-13.66 5.67 -14.32 5.34 -15 5 C-15 3.68 -15 2.36 -15 1 C-10.03926578 -0.32286246 -5.08888488 -0.08893197 0 0 Z M-7 5 C-7.33 5.66 -7.66 6.32 -8 7 C-6.68 6.34 -5.36 5.68 -4 5 C-4.99 5 -5.98 5 -7 5 Z M-2 20 C-2.99 20.33 -3.98 20.66 -5 21 C-4.67 21.66 -4.34 22.32 -4 23 C-2.68 22.34 -1.36 21.68 0 21 C-0.66 20.67 -1.32 20.34 -2 20 Z " fill="#EE7C0B" transform="translate(45,114)"/>
<path d="M0 0 C6.08722746 -0.04934154 12.1743392 -0.08569167 18.26171875 -0.10986328 C20.33367947 -0.11993712 22.40562593 -0.13359666 24.47753906 -0.15087891 C27.45120764 -0.17506664 30.4246887 -0.18646908 33.3984375 -0.1953125 C34.32868744 -0.20563507 35.25893738 -0.21595764 36.21737671 -0.22659302 C37.07811798 -0.22674408 37.93885925 -0.22689514 38.82568359 -0.22705078 C39.58513275 -0.231492 40.34458191 -0.23593323 41.12704468 -0.24050903 C43 0 43 0 45 2 C47.43176397 2.24501495 49.75864884 2.37324921 52.1953125 2.4140625 C53.25647781 2.44311172 53.25647781 2.44311172 54.33908081 2.4727478 C56.60093085 2.53257652 58.8628317 2.57894101 61.125 2.625 C62.6575744 2.66317686 64.19012728 2.70222842 65.72265625 2.7421875 C69.48159624 2.83828039 73.24063668 2.92229849 77 3 C77 3.33 77 3.66 77 4 C51.92 4 26.84 4 1 4 C0.67 2.68 0.34 1.36 0 0 Z " fill="#F2490B" transform="translate(118,193)"/>
<path d="M0 0 C-0.99 0.66 -1.98 1.32 -3 2 C-2.67 2.99 -2.34 3.98 -2 5 C-2.66 5 -3.32 5 -4 5 C-4.12375 5.61875 -4.2475 6.2375 -4.375 6.875 C-5 9 -5 9 -7 11 C-6.01 11.66 -5.02 12.32 -4 13 C-6.75 13.75 -6.75 13.75 -10 14 C-12.4375 12.5 -12.4375 12.5 -14 10 C-14.25 6.5 -14.25 6.5 -13 3 C-9.03214247 -0.2330691 -4.97258131 -1.86471799 0 0 Z " fill="#EE8414" transform="translate(59,150)"/>
<path d="M0 0 C-0.33 0.99 -0.66 1.98 -1 3 C-1.03874921 4.66621616 -1.0450286 6.33394172 -1 8 C-4.28696233 8.79953138 -5.71023192 9.09658936 -9 8 C-9 8.99 -9 9.98 -9 11 C-10.32 11.33 -11.64 11.66 -13 12 C-13 11.01 -13 10.02 -13 9 C-12.34 9 -11.68 9 -11 9 C-11 6.69 -11 4.38 -11 2 C-9.73392393 1.46770674 -8.46189588 0.94955456 -7.1875 0.4375 C-6.47980469 0.14746094 -5.77210937 -0.14257812 -5.04296875 -0.44140625 C-3 -1 -3 -1 0 0 Z " fill="#878785" transform="translate(98,35)"/>
<path d="M0 0 C0.33 0.99 0.66 1.98 1 3 C1.66 3.33 2.32 3.66 3 4 C3 4.66 3 5.32 3 6 C4.65 5.34 6.3 4.68 8 4 C7.34 5.65 6.68 7.3 6 9 C5.34 9 4.68 9 4 9 C4 9.99 4 10.98 4 12 C1.1875 12.625 1.1875 12.625 -2 13 C-2.99 12.34 -3.98 11.68 -5 11 C-5.1875 8.375 -5.1875 8.375 -5 6 C-3.68 5.67 -2.36 5.34 -1 5 C-0.67 3.35 -0.34 1.7 0 0 Z " fill="#ABABAA" transform="translate(54,59)"/>
<path d="M0 0 C2.80736541 1.4036827 2.96708362 3.10783413 4 6 C4.33 6.99 4.66 7.98 5 9 C4.34 9 3.68 9 3 9 C3 9.66 3 10.32 3 11 C1.35 10.67 -0.3 10.34 -2 10 C-1.34 11.32 -0.68 12.64 0 14 C-2.88437779 12.70700306 -4.87219421 11.34058637 -7 9 C-6.34 7.68 -5.68 6.36 -5 5 C-4.34 5 -3.68 5 -3 5 C-2.690625 4.360625 -2.38125 3.72125 -2.0625 3.0625 C-1 1 -1 1 0 0 Z " fill="#A4A4A2" transform="translate(64,49)"/>
<path d="M0 0 C0.99 0 1.98 0 3 0 C3 11.55 3 23.1 3 35 C2.67 35 2.34 35 2 35 C1.67 28.73 1.34 22.46 1 16 C0.67 16 0.34 16 0 16 C-0.144375 14.88625 -0.28875 13.7725 -0.4375 12.625 C-0.78372035 9.17857953 -0.78372035 9.17857953 -2 7 C-1.39239518 4.6505947 -0.72870472 2.31470912 0 0 Z " fill="#EC963D" transform="translate(196,158)"/>
<path d="M0 0 C1.1446875 0.2475 1.1446875 0.2475 2.3125 0.5 C5.00856207 1.00159294 6.44020291 0.8532657 9 0 C9.83927091 2.34995854 10.06091226 3.73350886 9.5 6.1875 C8 8 8 8 4.5 8.875 C3.345 8.91625 2.19 8.9575 1 9 C-1 7 -1 7 -1.1875 3.9375 C-1 1 -1 1 0 0 Z " fill="#C2C2C1" transform="translate(104,33)"/>
<path d="M0 0 C0.66 0 1.32 0 2 0 C1.979375 0.7425 1.95875 1.485 1.9375 2.25 C1.99328688 4.70462279 2.3069904 6.66109261 3 9 C1.68 8.01 0.36 7.02 -1 6 C-0.79375 6.598125 -0.5875 7.19625 -0.375 7.8125 C0 10 0 10 -2 13 C-2.66 12.67 -3.32 12.34 -4 12 C-3.67 11.01 -3.34 10.02 -3 9 C-3.61875 9.495 -4.2375 9.99 -4.875 10.5 C-7 12 -7 12 -9 12 C-9 11.01 -9 10.02 -9 9 C-8.34 9 -7.68 9 -7 9 C-6.62875 8.0409375 -6.62875 8.0409375 -6.25 7.0625 C-5 5 -5 5 -2.875 4.25 C-2.25625 4.1675 -1.6375 4.085 -1 4 C-0.67 2.68 -0.34 1.36 0 0 Z " fill="#EF8A24" transform="translate(44,115)"/>
<path d="M0 0 C1.67542976 0.28604898 3.34385343 0.61781233 5 1 C4.67 2.65 4.34 4.3 4 6 C3.34 6 2.68 6 2 6 C1.773125 6.639375 1.54625 7.27875 1.3125 7.9375 C0 10 0 10 -2.625 10.75 C-3.40875 10.8325 -4.1925 10.915 -5 11 C-3.68 8.69 -2.36 6.38 -1 4 C-0.34 4 0.32 4 1 4 C1 3.34 1 2.68 1 2 C0.34 1.67 -0.32 1.34 -1 1 C-0.67 0.67 -0.34 0.34 0 0 Z " fill="#EE7B06" transform="translate(56,151)"/>
<path d="M0 0 C2.475 0.495 2.475 0.495 5 1 C5.625 3.3125 5.625 3.3125 6 6 C5.01 7.485 5.01 7.485 4 9 C2.68 9 1.36 9 0 9 C0 6.03 0 3.06 0 0 Z " fill="#B4B4B3" transform="translate(122,33)"/>
<path d="M0 0 C1.65 0.33 3.3 0.66 5 1 C4.01 1.495 4.01 1.495 3 2 C2.34 1.67 1.68 1.34 1 1 C2.26974972 5.41522109 2.26974972 5.41522109 5 9 C3.68 9 2.36 9 1 9 C1 9.66 1 10.32 1 11 C0.34 11 -0.32 11 -1 11 C-1.33 9.68 -1.66 8.36 -2 7 C-2.66 7 -3.32 7 -4 7 C-3.67 5.68 -3.34 4.36 -3 3 C-3 3.66 -3 4.32 -3 5 C-2.34 5 -1.68 5 -1 5 C-0.67 3.35 -0.34 1.7 0 0 Z " fill="#B9B9B8" transform="translate(80,39)"/>
<path d="M0 0 C3.82946843 1.45255699 5.12050295 3.42895561 7 7 C5.35 6.67 3.7 6.34 2 6 C2 6.99 2 7.98 2 9 C0.68 9.33 -0.64 9.66 -2 10 C-2 9.01 -2 8.02 -2 7 C-1.34 7 -0.68 7 0 7 C0 4.69 0 2.38 0 0 Z " fill="#BDBDBB" transform="translate(87,37)"/>
<path d="M0 0 C1.32 0.33 2.64 0.66 4 1 C4 1.99 4 2.98 4 4 C4.99 4.33 5.98 4.66 7 5 C6.01 5.495 6.01 5.495 5 6 C4.34 5.67 3.68 5.34 3 5 C3.66 6.32 4.32 7.64 5 9 C2.11562221 7.70700306 0.12780579 6.34058637 -2 4 C-1.34 2.68 -0.68 1.36 0 0 Z " fill="#C2C2C1" transform="translate(59,54)"/>
<path d="M0 0 C2.5 2.3125 2.5 2.3125 5 5 C5 5.99 5 6.98 5 8 C3.68 8.33 2.36 8.66 1 9 C1 8.34 1 7.68 1 7 C0.01 6.67 -0.98 6.34 -2 6 C-1.34 4.02 -0.68 2.04 0 0 Z " fill="#878785" transform="translate(56,56)"/>
<path d="M0 0 C0.33 0.99 0.66 1.98 1 3 C-2.63 6.63 -6.26 10.26 -10 14 C-10.99 13.67 -11.98 13.34 -13 13 C-12.38125 12.7525 -11.7625 12.505 -11.125 12.25 C-8.88950792 11.19995835 -8.88950792 11.19995835 -8.125 9.1875 C-6.93968667 6.88272409 -5.92823763 5.97799301 -3.9375 4.375 C-0.99175287 2.32880603 -0.99175287 2.32880603 0 0 Z " fill="#F27A1D" transform="translate(139,105)"/>
<path d="M0 0 C0.66 0 1.32 0 2 0 C2 1.65 2 3.3 2 5 C0.68 4.67 -0.64 4.34 -2 4 C-1.67 5.32 -1.34 6.64 -1 8 C-1.99 7.67 -2.98 7.34 -4 7 C-3.67 8.32 -3.34 9.64 -3 11 C-4.32 10.34 -5.64 9.68 -7 9 C-5.71480435 6.13302508 -4.42870746 4.02392288 -2 2 C-1.34 2 -0.68 2 0 2 C0 1.34 0 0.68 0 0 Z " fill="#C4C4C3" transform="translate(166,49)"/>
<path d="M0 0 C1.65 0.33 3.3 0.66 5 1 C4.67 1.99 4.34 2.98 4 4 C1.9375 4.6875 1.9375 4.6875 0 5 C-0.33 6.32 -0.66 7.64 -1 9 C-2.1875 7.3125 -2.1875 7.3125 -3 5 C-1.625 2.25 -1.625 2.25 0 0 Z " fill="#F07711" transform="translate(33,120)"/>
<path d="M0 0 C-0.556875 0.268125 -1.11375 0.53625 -1.6875 0.8125 C-5.71835758 2.88239984 -9.4233536 5.21816391 -13 8 C-13 6.35 -13 4.7 -13 3 C-4.738041 -1.77676538 -4.738041 -1.77676538 0 0 Z " fill="#EF8A25" transform="translate(59,150)"/>
<path d="M0 0 C1.65 0.33 3.3 0.66 5 1 C3.68 1.33 2.36 1.66 1 2 C1 2.66 1 3.32 1 4 C1.99 4.33 2.98 4.66 4 5 C2.68 5.33 1.36 5.66 0 6 C0 6.66 0 7.32 0 8 C0.99 8.33 1.98 8.66 3 9 C2.01 9.33 1.02 9.66 0 10 C-0.33 9.67 -0.66 9.34 -1 9 C-0.91062197 7.47480724 -0.75462854 5.95318071 -0.5625 4.4375 C-0.46066406 3.61121094 -0.35882813 2.78492188 -0.25390625 1.93359375 C-0.17011719 1.29550781 -0.08632812 0.65742187 0 0 Z " fill="#C9C9C8" transform="translate(130,34)"/>
<path d="M0 0 C0 0.66 0 1.32 0 2 C-1.53125 3.2890625 -1.53125 3.2890625 -3.5 4.625 C-4.1496875 5.07101563 -4.799375 5.51703125 -5.46875 5.9765625 C-5.9740625 6.31429687 -6.479375 6.65203125 -7 7 C-7 6.01 -7 5.02 -7 4 C-7.66 4 -8.32 4 -9 4 C-8.67 3.01 -8.34 2.02 -8 1 C-5.23735711 0.40267181 -2.83967231 0 0 0 Z " fill="#D1D1D0" transform="translate(175,60)"/>
<path d="M0 0 C3.875 1.75 3.875 1.75 5 4 C4.38125 4.268125 3.7625 4.53625 3.125 4.8125 C0.7004767 5.95556848 0.7004767 5.95556848 -1 9 C-1.66 8.67 -2.32 8.34 -3 8 C-2.505 7.4225 -2.01 6.845 -1.5 6.25 C0.36980013 3.89599371 0.36980013 3.89599371 0 0 Z " fill="#C5C5C4" transform="translate(158,46)"/>
<path d="M0 0 C0.99 0.33 1.98 0.66 3 1 C3 2.65 3 4.3 3 6 C1.68 5.67 0.36 5.34 -1 5 C-0.67 3.35 -0.34 1.7 0 0 Z " fill="#848482" transform="translate(105,34)"/>
<path d="M0 0 C0.33 1.32 0.66 2.64 1 4 C1.66 4 2.32 4 3 4 C3 4.66 3 5.32 3 6 C1.02 6 -0.96 6 -3 6 C-3 5.01 -3 4.02 -3 3 C-2.34 3 -1.68 3 -1 3 C-0.67 2.01 -0.34 1.02 0 0 Z " fill="#878784" transform="translate(75,42)"/>
<path d="M0 0 C-0.33 0.99 -0.66 1.98 -1 3 C-1.03874921 4.66621616 -1.0450286 6.33394172 -1 8 C-3.19191368 5.80808632 -3.27869352 4.88522592 -4 2 C-4.66 1.34 -5.32 0.68 -6 0 C-3 -1 -3 -1 0 0 Z " fill="#C8C8C7" transform="translate(98,35)"/>
<path d="M0 0 C1.32 1.32 2.64 2.64 4 4 C2.68 3.67 1.36 3.34 0 3 C-0.33 3.99 -0.66 4.98 -1 6 C-1.99 5.01 -2.98 4.02 -4 3 C-2.68 2.01 -1.36 1.02 0 0 Z " fill="#CCCCCB" transform="translate(176,63)"/>
</svg>
