<?xml version="1.0" encoding="UTF-8"?>
<svg version="1.1" xmlns="http://www.w3.org/2000/svg" width="87" height="82">
<path d="M0 0 C0.9024646 -0.00095673 1.8049292 -0.00191345 2.73474121 -0.00289917 C4.64461334 -0.00358029 6.55448778 -0.00173071 8.46435547 0.00244141 C11.39425843 0.00779061 14.32400808 0.00249413 17.25390625 -0.00390625 C19.10677117 -0.00324546 20.959636 -0.00196427 22.8125 0 C24.13284241 -0.00303635 24.13284241 -0.00303635 25.4798584 -0.00613403 C31.6763334 0.0178542 31.6763334 0.0178542 33.90625 1.1328125 C33.90625 1.7928125 33.90625 2.4528125 33.90625 3.1328125 C34.586875 3.3390625 35.2675 3.5453125 35.96875 3.7578125 C39.82161774 5.56128251 43.06978968 7.94560708 45.90625 11.1328125 C46.609375 13.328125 46.609375 13.328125 46.90625 15.1328125 C47.56625 15.1328125 48.22625 15.1328125 48.90625 15.1328125 C49.72462442 16.54609379 50.53571219 17.96359596 51.34375 19.3828125 C51.79621094 20.17171875 52.24867187 20.960625 52.71484375 21.7734375 C55.76842228 27.82052416 55.12717539 34.31993587 55.15625 40.9453125 C55.176875 42.10869141 55.1975 43.27207031 55.21875 44.47070312 C55.247838 50.85915448 55.0259839 55.52167518 51.90625 61.1328125 C51.42285156 62.03386719 50.93945312 62.93492188 50.44140625 63.86328125 C49.95542969 64.67410156 49.46945313 65.48492187 48.96875 66.3203125 C48.24365234 67.54814453 48.24365234 67.54814453 47.50390625 68.80078125 C45.82611747 71.24977856 44.16766194 73.2077358 41.90625 75.1328125 C40.91625 75.1328125 39.92625 75.1328125 38.90625 75.1328125 C38.41125 76.6178125 38.41125 76.6178125 37.90625 78.1328125 C32.96189138 82.40305039 29.04203453 82.72538484 22.81640625 82.6640625 C21.95365585 82.6678894 21.09090546 82.67171631 20.20201111 82.67565918 C18.38409249 82.6783714 16.56613438 82.67105862 14.74829102 82.65429688 C11.98038795 82.63290246 9.21508789 82.65410734 6.44726562 82.6796875 C4.67447349 82.67704359 2.90168296 82.6719173 1.12890625 82.6640625 C0.3089064 82.67215942 -0.51109344 82.68025635 -1.35594177 82.68859863 C-7.03249543 82.59694745 -10.46072217 81.47528961 -15.09375 78.1328125 C-15.42375 77.1428125 -15.75375 76.1528125 -16.09375 75.1328125 C-17.42171291 74.77868906 -18.75591607 74.44759696 -20.09375 74.1328125 C-26.71070645 68.14437962 -31.41704608 59.89040138 -32.4621582 50.99829102 C-32.59281941 47.6383243 -32.59097255 44.30711423 -32.53125 40.9453125 C-32.53833984 39.80900391 -32.54542969 38.67269531 -32.55273438 37.50195312 C-32.50536506 31.25284757 -32.07922352 26.64559282 -29.09375 21.1328125 C-28.2584375 19.43125 -28.2584375 19.43125 -27.40625 17.6953125 C-26.973125 16.8496875 -26.54 16.0040625 -26.09375 15.1328125 C-25.43375 15.1328125 -24.77375 15.1328125 -24.09375 15.1328125 C-23.8565625 14.38644531 -23.619375 13.64007813 -23.375 12.87109375 C-21.88968729 9.69669066 -20.38510721 8.40023613 -17.59375 6.3203125 C-16.7996875 5.71574219 -16.005625 5.11117188 -15.1875 4.48828125 C-13.09375 3.1328125 -13.09375 3.1328125 -11.09375 3.1328125 C-11.09375 2.4728125 -11.09375 1.8128125 -11.09375 1.1328125 C-7.67463664 -0.57674418 -3.76139905 -0.00864996 0 0 Z M15.90625 13.1328125 C15.57625 13.7928125 15.24625 14.4528125 14.90625 15.1328125 C15.79788577 17.24965091 15.79788577 17.24965091 16.90625 19.1328125 C17.56625 19.1328125 18.22625 19.1328125 18.90625 19.1328125 C18.99261719 19.81859375 19.07898437 20.504375 19.16796875 21.2109375 C20.08220532 24.82918594 21.80605343 27.72289276 23.71875 30.8828125 C26.8406875 36.17477531 29.55255914 41.44472625 31.90625 47.1328125 C32.56625 47.1328125 33.22625 47.1328125 33.90625 47.1328125 C34.56625 49.1128125 35.22625 51.0928125 35.90625 53.1328125 C38.90636836 50.13269414 39.81056692 46.96574149 40.03125 42.73828125 C40.03125 40.53280483 39.99439358 38.33640191 39.90625 36.1328125 C39.24625 36.1328125 38.58625 36.1328125 37.90625 36.1328125 C37.67838542 34.11458333 37.45052083 32.09635417 37.22265625 30.078125 C36.99332039 28.05876934 36.99332039 28.05876934 35.90625 26.1328125 C35.24625 26.1328125 34.58625 26.1328125 33.90625 26.1328125 C33.7825 25.2665625 33.7825 25.2665625 33.65625 24.3828125 C32.4484662 20.7594611 30.05335787 18.82802939 26.84375 16.8828125 C24.786232 15.95231545 24.786232 15.95231545 21.90625 16.1328125 C21.57625 15.4728125 21.24625 14.8128125 20.90625 14.1328125 C18.37891765 13.47726131 18.37891765 13.47726131 15.90625 13.1328125 Z M0.90625 14.1328125 C0.90625 14.7928125 0.90625 15.4528125 0.90625 16.1328125 C0.308125 16.2771875 -0.29 16.4215625 -0.90625 16.5703125 C-6.06692893 17.89734423 -7.87828349 19.87449199 -11.09375 24.1328125 C-11.09375 24.7928125 -11.09375 25.4528125 -11.09375 26.1328125 C-11.75375 26.1328125 -12.41375 26.1328125 -13.09375 26.1328125 C-14.69730101 29.64058034 -15.31411864 32.27636129 -15.09375 36.1328125 C-15.75375 36.1328125 -16.41375 36.1328125 -17.09375 36.1328125 C-17.47327295 42.33168735 -16.9289613 46.5805237 -14.09375 52.1328125 C-11.73423914 49.77330164 -10.72459081 47.5163593 -9.28125 44.5078125 C-7.50734525 40.89111349 -5.72098788 37.38943303 -3.53125 34.0078125 C1.80528927 26.10390706 1.80528927 26.10390706 3.90625 17.1328125 C4.89625 16.8028125 5.88625 16.4728125 6.90625 16.1328125 C6.90625 15.4728125 6.90625 14.8128125 6.90625 14.1328125 C4.92625 14.1328125 2.94625 14.1328125 0.90625 14.1328125 Z M-9.09375 59.1328125 C-5.45164109 65.20299402 -2.22932386 66.86032824 4.34375 68.8828125 C10.29925359 69.46383724 16.02910509 69.33838069 21.90625 68.1328125 C21.90625 67.4728125 21.90625 66.8128125 21.90625 66.1328125 C22.504375 65.9884375 23.1025 65.8440625 23.71875 65.6953125 C28.90849839 64.36080577 28.76501559 64.36820318 31.90625 59.1328125 C18.37625 59.1328125 4.84625 59.1328125 -9.09375 59.1328125 Z " fill="#628420" transform="translate(32.09375,-0.1328125)"/>
<path d="M0 0 C3.79151583 -0.08829061 7.58276165 -0.14081946 11.375 -0.1875 C12.96634766 -0.22520508 12.96634766 -0.22520508 14.58984375 -0.26367188 C22.99486296 -0.34101868 30.59946942 0.80531544 38 5 C39.33895632 6.66215268 40.67130142 8.32963607 42 10 C43.14061909 10.84045617 44.28694675 11.6731955 45.4375 12.5 C50.4990356 16.6561316 52.22722529 22.88106793 54 29 C54 29.99 54 30.98 54 32 C54.66 32 55.32 32 56 32 C56.0270491 35.06255961 56.04686298 38.1248786 56.0625 41.1875 C56.07087891 42.05181641 56.07925781 42.91613281 56.08789062 43.80664062 C56.10396812 48.00286769 56.07559038 51.90936886 55 56 C54.34 56 53.68 56 53 56 C52.87431641 57.07314453 52.87431641 57.07314453 52.74609375 58.16796875 C51.83513413 61.62579976 50.32114565 63.55556363 48.0625 66.3125 C47.35222656 67.19550781 46.64195313 68.07851562 45.91015625 68.98828125 C45.27980469 69.65214844 44.64945312 70.31601563 44 71 C43.34 71 42.68 71 42 71 C41.773125 71.639375 41.54625 72.27875 41.3125 72.9375 C40 75 40 75 37.375 75.75 C36.59125 75.8325 35.8075 75.915 35 76 C35 76.66 35 77.32 35 78 C32.6875 78.625 32.6875 78.625 30 79 C29.01 78.34 28.02 77.68 27 77 C26.67 77.66 26.34 78.32 26 79 C25.01 78.505 25.01 78.505 24 78 C24 77.34 24 76.68 24 76 C23.34773438 76.08378906 22.69546875 76.16757813 22.0234375 76.25390625 C17.11750856 76.82554104 12.86872815 77.15311982 8 76 C7.67 76.66 7.34 77.32 7 78 C7 77.34 7 76.68 7 76 C5.68 75.67 4.36 75.34 3 75 C3 76.98 3 78.96 3 81 C1.35 80.67 -0.3 80.34 -2 80 C-1.34 77.69 -0.68 75.38 0 73 C1.27617188 73.23783203 1.27617188 73.23783203 2.578125 73.48046875 C12.22728076 74.94546614 21.34583151 74.89926067 30 70 C30.66 69.34 31.32 68.68 32 68 C31.48050781 68.28875 30.96101563 68.5775 30.42578125 68.875 C23.49912127 72.56239016 23.49912127 72.56239016 19 72 C20.33333333 71.33333333 21.66666667 70.66666667 23 70 C24.03125 69.46375 25.0625 68.9275 26.125 68.375 C29 67 29 67 31 67 C31 66.34 31 65.68 31 65 C33.375 62.375 33.375 62.375 36 60 C36.66 60 37.32 60 38 60 C38.33 58.68 38.66 57.36 39 56 C39.66 56 40.32 56 41 56 C42.26213563 42.55369911 42.26213563 42.55369911 41.4375 29.125 C41.03979958 26.28428272 40.80322153 24.59302002 42 22 C42.99 21.67 43.98 21.34 45 21 C45 20.01 45 19.02 45 18 C43.68 18 42.36 18 41 18 C40.505 19.485 40.505 19.485 40 21 C39.35933594 20.36191406 38.71867187 19.72382813 38.05859375 19.06640625 C37.19363281 18.24011719 36.32867187 17.41382812 35.4375 16.5625 C34.59058594 15.73878906 33.74367187 14.91507813 32.87109375 14.06640625 C27.12616867 9.93162344 19.87935089 10.87010908 13.0625 10.9375 C12.18787109 10.94201172 11.31324219 10.94652344 10.41210938 10.95117188 C8.27470953 10.96285166 6.13734537 10.98078311 4 11 C4 11.66 4 12.32 4 13 C3.15115234 13.16435547 3.15115234 13.16435547 2.28515625 13.33203125 C1.55167969 13.49058594 0.81820313 13.64914062 0.0625 13.8125 C-0.66839844 13.96332031 -1.39929688 14.11414062 -2.15234375 14.26953125 C-3.06693359 14.63111328 -3.06693359 14.63111328 -4 15 C-4.33 15.99 -4.66 16.98 -5 18 C-5.804375 18.639375 -6.60875 19.27875 -7.4375 19.9375 C-9.89305131 21.91391935 -10.87039721 23.12464744 -12 26 C-12.66 26 -13.32 26 -14 26 C-14.96386419 30.84991979 -15.15125798 35.45600417 -15.125 40.375 C-15.12886719 41.09171875 -15.13273438 41.8084375 -15.13671875 42.546875 C-15.12787771 47.44480971 -14.68962559 52.15072798 -14 57 C-14.66 56.34 -15.32 55.68 -16 55 C-16 54.01 -16 53.02 -16 52 C-16.66 52 -17.32 52 -18 52 C-18 53.32 -18 54.64 -18 56 C-17.34 56 -16.68 56 -16 56 C-15.06773933 57.52902626 -14.20448018 59.10036614 -13.375 60.6875 C-10.4210942 65.84221185 -7.30246544 68.44297352 -2 71 C-2.99 71.99 -2.99 71.99 -4 73 C-6.625 72.625 -6.625 72.625 -9 72 C-9 70.68 -9 69.36 -9 68 C-11.475 68.495 -11.475 68.495 -14 69 C-14.33 69.99 -14.66 70.98 -15 72 C-20.16474017 68.39669291 -22.3739723 64.85064909 -24.921875 59.109375 C-25.81647105 56.844724 -25.81647105 56.844724 -28 56 C-28.9602959 53.1191123 -29.12875585 51.28228827 -29.1328125 48.2890625 C-29.13410156 47.37382813 -29.13539062 46.45859375 -29.13671875 45.515625 C-29.13285156 44.56171875 -29.12898438 43.6078125 -29.125 42.625 C-29.12886719 41.67882813 -29.13273437 40.73265625 -29.13671875 39.7578125 C-29.13542969 38.84 -29.13414063 37.9221875 -29.1328125 36.9765625 C-29.13168457 36.14205566 -29.13055664 35.30754883 -29.12939453 34.44775391 C-28.99383628 31.88340104 -28.56215884 29.5026396 -28 27 C-27.34 27 -26.68 27 -26 27 C-25.67 25.35 -25.34 23.7 -25 22 C-24.34 22 -23.68 22 -23 22 C-22.88140625 21.41476563 -22.7628125 20.82953125 -22.640625 20.2265625 C-21.59592074 16.59557819 -19.52697201 13.77896922 -17 11 C-14.1875 9.5625 -14.1875 9.5625 -12 9 C-12 8.34 -12 7.68 -12 7 C-11.360625 6.896875 -10.72125 6.79375 -10.0625 6.6875 C-9.0415625 6.3471875 -9.0415625 6.3471875 -8 6 C-7.67 5.01 -7.34 4.02 -7 3 C-3.535 2.505 -3.535 2.505 0 2 C0 1.34 0 0.68 0 0 Z " fill="#377C2A" transform="translate(30,0)"/>
<path d="M0 0 C1.65 0 3.3 0 5 0 C5.33 1.32 5.66 2.64 6 4 C6.66 4 7.32 4 8 4 C8.50615298 5.26839526 9.00469099 6.53983102 9.5 7.8125 C9.7784375 8.52019531 10.056875 9.22789063 10.34375 9.95703125 C11 12 11 12 11 15 C12.32 15 13.64 15 15 15 C15.1546875 16.670625 15.1546875 16.670625 15.3125 18.375 C15.539375 19.57125 15.76625 20.7675 16 22 C16.99 22.66 17.98 23.32 19 24 C19.6875 27.125 19.6875 27.125 20 30 C20.99 30 21.98 30 23 30 C23.99 33.63 24.98 37.26 26 41 C10.82 41 -4.36 41 -20 41 C-18.74908525 37.24725576 -17.49934109 33.64125692 -16 30 C-15.34 30 -14.68 30 -14 30 C-13.71125 29.0925 -13.4225 28.185 -13.125 27.25 C-12.23468224 24.67797092 -11.28505587 22.38653234 -10 20 C-9.34 20 -8.68 20 -8 20 C-7.62875 18.7934375 -7.62875 18.7934375 -7.25 17.5625 C-5.9931277 13.98041395 -4.51722869 10.58003502 -2.953125 7.125 C-1.89942718 4.77577206 -0.92941422 2.40098673 0 0 Z " fill="#928F17" transform="translate(40,15)"/>
<path d="M0 0 C0.86496094 0.82628906 1.72992188 1.65257812 2.62109375 2.50390625 C3.26175781 3.14199219 3.90242188 3.78007812 4.5625 4.4375 C5.5525 3.4475 6.5425 2.4575 7.5625 1.4375 C8.5525 1.7675 9.5425 2.0975 10.5625 2.4375 C9.5625 5.4375 9.5625 5.4375 7.5625 6.4375 C7.583125 7.406875 7.60375 8.37625 7.625 9.375 C7.5625 12.4375 7.5625 12.4375 6.5625 13.4375 C6.706875 13.97375 6.85125 14.51 7 15.0625 C7.74608559 18.21263914 7.62451471 21.21273516 7.5625 24.4375 C7.0675 22.4575 7.0675 22.4575 6.5625 20.4375 C5.9025 20.4375 5.2425 20.4375 4.5625 20.4375 C3.9025 17.1375 3.2425 13.8375 2.5625 10.4375 C1.9025 10.4375 1.2425 10.4375 0.5625 10.4375 C0.48 9.81875 0.3975 9.2 0.3125 8.5625 C-0.25008459 6.25312433 -0.25008459 6.25312433 -2.5 5.1875 C-3.4590625 4.81625 -3.4590625 4.81625 -4.4375 4.4375 C-4.4375 3.7775 -4.4375 3.1175 -4.4375 2.4375 C-4.99953125 2.30472656 -5.5615625 2.17195313 -6.140625 2.03515625 C-8.53116153 1.41312889 -10.84785775 0.66634959 -13.1875 -0.125 C-13.98671875 -0.39441406 -14.7859375 -0.66382813 -15.609375 -0.94140625 C-16.21265625 -1.14636719 -16.8159375 -1.35132813 -17.4375 -1.5625 C-16.9425 0.9125 -16.9425 0.9125 -16.4375 3.4375 C-15.7775 3.4375 -15.1175 3.4375 -14.4375 3.4375 C-14.07398438 4.17613281 -13.71046875 4.91476563 -13.3359375 5.67578125 C-10.26424896 11.8742912 -7.08390396 17.96619861 -3.63671875 23.96484375 C-2.41824504 26.47720159 -1.85567633 28.6873757 -1.4375 31.4375 C-0.7775 31.4375 -0.1175 31.4375 0.5625 31.4375 C2.1875 33.4375 2.1875 33.4375 3.5625 35.4375 C3.85125 34.48875 4.14 33.54 4.4375 32.5625 C5.5625 29.4375 5.5625 29.4375 7.5625 27.4375 C7.42165204 29.22956547 7.27466299 31.02114917 7.125 32.8125 C7.04378906 33.81023438 6.96257812 34.80796875 6.87890625 35.8359375 C6.5625 38.4375 6.5625 38.4375 5.5625 40.4375 C4.9025 40.4375 4.2425 40.4375 3.5625 40.4375 C3.500625 40.994375 3.43875 41.55125 3.375 42.125 C2.2144231 45.42818042 0.16036554 47.15644733 -2.4375 49.4375 C-3.0975 49.4375 -3.7575 49.4375 -4.4375 49.4375 C-4.4375 50.0975 -4.4375 50.7575 -4.4375 51.4375 C-10.0200192 54.76325612 -13.93436791 55.90200943 -20.4375 55.4375 C-20.4375 54.7775 -20.4375 54.1175 -20.4375 53.4375 C-15.9825 52.9425 -15.9825 52.9425 -11.4375 52.4375 C-11.4375 51.7775 -11.4375 51.1175 -11.4375 50.4375 C-8.79011084 48.9768715 -7.54301666 48.4375 -4.4375 48.4375 C-3.7775 47.1175 -3.1175 45.7975 -2.4375 44.4375 C-15.3075 44.4375 -28.1775 44.4375 -41.4375 44.4375 C-40.00111473 48.46917669 -40.00111473 48.46917669 -37.671875 49.05859375 C-36.56585938 49.24615234 -36.56585938 49.24615234 -35.4375 49.4375 C-33.51424299 50.10634217 -31.59780185 50.79500765 -29.6875 51.5 C-28.70265625 51.86222656 -27.7178125 52.22445312 -26.703125 52.59765625 C-25.95546875 52.87480469 -25.2078125 53.15195313 -24.4375 53.4375 C-24.4375 54.0975 -24.4375 54.7575 -24.4375 55.4375 C-25.77083333 55.10416667 -27.10416667 54.77083333 -28.4375 54.4375 C-29.3140625 54.22351563 -30.190625 54.00953125 -31.09375 53.7890625 C-32.0321875 53.54929688 -32.970625 53.30953125 -33.9375 53.0625 C-34.8759375 52.82789063 -35.814375 52.59328125 -36.78125 52.3515625 C-39.54179627 51.40160981 -41.29770576 50.4119465 -43.4375 48.4375 C-43.9325 46.9525 -43.9325 46.9525 -44.4375 45.4375 C-44.9325 44.98375 -45.4275 44.53 -45.9375 44.0625 C-47.87059736 41.96831119 -48.06202796 40.21599308 -48.4375 37.4375 C-49.0975 37.4375 -49.7575 37.4375 -50.4375 37.4375 C-51.5862135 33.31588159 -51.62134676 29.31487225 -51.625 25.0625 C-51.63724609 24.32 -51.64949219 23.5775 -51.66210938 22.8125 C-51.67409288 18.29072517 -51.1480285 14.69691878 -49.4375 10.4375 C-48.7775 10.4375 -48.1175 10.4375 -47.4375 10.4375 C-47.210625 9.695 -46.98375 8.9525 -46.75 8.1875 C-45.1751598 4.88783483 -43.36246664 3.57771949 -40.4375 1.4375 C-39.7259375 0.6021875 -39.7259375 0.6021875 -39 -0.25 C-36.69605805 -2.18531124 -34.36454689 -2.23727257 -31.4375 -2.5625 C-31.4375 -3.2225 -31.4375 -3.8825 -31.4375 -4.5625 C-28.41700658 -4.75863594 -25.39644342 -4.94464855 -22.375 -5.125 C-21.52744141 -5.18107422 -20.67988281 -5.23714844 -19.80664062 -5.29492188 C-11.73237647 -5.76254335 -6.10437737 -5.93713415 0 0 Z M-32.4375 -1.5625 C-32.4375 -0.9025 -32.4375 -0.2425 -32.4375 0.4375 C-33.035625 0.581875 -33.63375 0.72625 -34.25 0.875 C-39.41067893 2.20203173 -41.22203349 4.17917949 -44.4375 8.4375 C-44.4375 9.0975 -44.4375 9.7575 -44.4375 10.4375 C-45.0975 10.4375 -45.7575 10.4375 -46.4375 10.4375 C-48.04105101 13.94526784 -48.65786864 16.58104879 -48.4375 20.4375 C-49.0975 20.4375 -49.7575 20.4375 -50.4375 20.4375 C-50.81702295 26.63637485 -50.2727113 30.8852112 -47.4375 36.4375 C-45.07798914 34.07798914 -44.06834081 31.8210468 -42.625 28.8125 C-40.85109525 25.19580099 -39.06473788 21.69412053 -36.875 18.3125 C-31.53846073 10.40859456 -31.53846073 10.40859456 -29.4375 1.4375 C-28.4475 1.1075 -27.4575 0.7775 -26.4375 0.4375 C-26.4375 -0.2225 -26.4375 -0.8825 -26.4375 -1.5625 C-28.4175 -1.5625 -30.3975 -1.5625 -32.4375 -1.5625 Z M-25.4375 -0.5625 C-25.76363281 0.31792969 -26.08976562 1.19835937 -26.42578125 2.10546875 C-26.86277344 3.26691406 -27.29976562 4.42835937 -27.75 5.625 C-28.17925781 6.77355469 -28.60851562 7.92210937 -29.05078125 9.10546875 C-30.29571463 12.09681571 -31.76486856 14.67594135 -33.4375 17.4375 C-33.4375 18.0975 -33.4375 18.7575 -33.4375 19.4375 C-34.0975 19.4375 -34.7575 19.4375 -35.4375 19.4375 C-36.10904933 20.72663487 -36.77458859 22.01890204 -37.4375 23.3125 C-37.80875 24.03179687 -38.18 24.75109375 -38.5625 25.4921875 C-39.57423746 27.38598977 -39.57423746 27.38598977 -39.4375 29.4375 C-40.0975 29.4375 -40.7575 29.4375 -41.4375 29.4375 C-42.10869549 30.8937545 -42.77431807 32.35257867 -43.4375 33.8125 C-43.994375 35.03066406 -43.994375 35.03066406 -44.5625 36.2734375 C-45.56245013 38.35748433 -45.56245013 38.35748433 -45.4375 40.4375 C-30.2575 40.4375 -15.0775 40.4375 0.5625 40.4375 C-0.4275 36.8075 -1.4175 33.1775 -2.4375 29.4375 C-3.4275 29.4375 -4.4175 29.4375 -5.4375 29.4375 C-5.5921875 28.014375 -5.5921875 28.014375 -5.75 26.5625 C-6.12289295 23.14642499 -6.12289295 23.14642499 -9.4375 21.4375 C-10.125 17.8125 -10.125 17.8125 -10.4375 14.4375 C-11.7575 14.4375 -13.0775 14.4375 -14.4375 14.4375 C-14.56125 13.73625 -14.685 13.035 -14.8125 12.3125 C-15.47588345 9.26093613 -16.40961955 6.38409062 -17.4375 3.4375 C-18.0975 3.4375 -18.7575 3.4375 -19.4375 3.4375 C-19.7675 2.1175 -20.0975 0.7975 -20.4375 -0.5625 C-22.0875 -0.5625 -23.7375 -0.5625 -25.4375 -0.5625 Z " fill="#E39918" transform="translate(65.4375,15.5625)"/>
<path d="M0 0 C-0.16242187 0.98097656 -0.32484375 1.96195313 -0.4921875 2.97265625 C-1.08516572 7.13921873 -1.14769614 11.23493223 -1.125 15.4375 C-1.12886719 16.14970703 -1.13273438 16.86191406 -1.13671875 17.59570312 C-1.12785204 22.47682485 -0.68649945 27.1672618 0 32 C-0.66 31.34 -1.32 30.68 -2 30 C-2 29.01 -2 28.02 -2 27 C-2.66 27 -3.32 27 -4 27 C-4 28.32 -4 29.64 -4 31 C-3.34 31 -2.68 31 -2 31 C-1.06773933 32.52902626 -0.20448018 34.10036614 0.625 35.6875 C3.5789058 40.84221185 6.69753456 43.44297352 12 46 C11.34 46.66 10.68 47.32 10 48 C7.375 47.625 7.375 47.625 5 47 C5 45.68 5 44.36 5 43 C2.525 43.495 2.525 43.495 0 44 C-0.33 44.99 -0.66 45.98 -1 47 C-6.16474017 43.39669291 -8.3739723 39.85064909 -10.921875 34.109375 C-11.81647105 31.844724 -11.81647105 31.844724 -14 31 C-14.9602959 28.1191123 -15.12875585 26.28228827 -15.1328125 23.2890625 C-15.13410156 22.37382813 -15.13539062 21.45859375 -15.13671875 20.515625 C-15.13285156 19.56171875 -15.12898437 18.6078125 -15.125 17.625 C-15.12886719 16.67882812 -15.13273438 15.73265625 -15.13671875 14.7578125 C-15.13542969 13.84 -15.13414063 12.9221875 -15.1328125 11.9765625 C-15.13168457 11.14205566 -15.13055664 10.30754883 -15.12939453 9.44775391 C-14.99383628 6.88340104 -14.56215884 4.5026396 -14 2 C-13.34 2.33 -12.68 2.66 -12 3 C-12.33 5.97 -12.66 8.94 -13 12 C-11.35 12 -9.7 12 -8 12 C-7.67 11.34 -7.34 10.68 -7 10 C-8.32 9.67 -9.64 9.34 -11 9 C-11 8.01 -11 7.02 -11 6 C-9.35 6 -7.7 6 -6 6 C-7.05270463 4.84188612 -7.05270463 4.84188612 -9 4 C-9 3.01 -9 2.02 -9 1 C-2.25 0 -2.25 0 0 0 Z " fill="#6A8721" transform="translate(16,25)"/>
<path d="M0 0 C0.99 0.33 1.98 0.66 3 1 C3 2.32 3 3.64 3 5 C4.98 5.33 6.96 5.66 9 6 C9.20413361 11.73842251 9.27141454 16.60539047 7 22 C6.01 22 5.02 22 4 22 C4.495 24.97 4.495 24.97 5 28 C4.505 26.515 4.505 26.515 4 25 C2.35 24.67 0.7 24.34 -1 24 C-1 25.32 -1 26.64 -1 28 C-1.99 28.495 -1.99 28.495 -3 29 C-3.495 30.485 -3.495 30.485 -4 32 C-4.66 32 -5.32 32 -6 32 C-6 32.66 -6 33.32 -6 34 C-6.66 34 -7.32 34 -8 34 C-8 34.66 -8 35.32 -8 36 C-7.34 36 -6.68 36 -6 36 C-6 36.66 -6 37.32 -6 38 C-5.01 37.67 -4.02 37.34 -3 37 C-4.24976756 40.65316671 -4.67098753 41.78065836 -8 44 C-8.99 44 -9.98 44 -11 44 C-11 44.66 -11 45.32 -11 46 C-13.3125 46.625 -13.3125 46.625 -16 47 C-16.99 46.34 -17.98 45.68 -19 45 C-19.33 45.66 -19.66 46.32 -20 47 C-20.66 46.67 -21.32 46.34 -22 46 C-22 45.34 -22 44.68 -22 44 C-22.65226562 44.08378906 -23.30453125 44.16757813 -23.9765625 44.25390625 C-28.88249144 44.82554104 -33.13127185 45.15311982 -38 44 C-38.33 44.66 -38.66 45.32 -39 46 C-39 45.34 -39 44.68 -39 44 C-40.32 43.67 -41.64 43.34 -43 43 C-43 44.98 -43 46.96 -43 49 C-44.65 48.67 -46.3 48.34 -48 48 C-47.34 45.69 -46.68 43.38 -46 41 C-44.72382812 41.23783203 -44.72382812 41.23783203 -43.421875 41.48046875 C-31.68712058 43.26211525 -22.04070922 42.18694844 -12.125 35.5625 C-5.82199575 30.69132576 -1.71081452 23.75914866 0 16 C0.66 16 1.32 16 2 16 C2.495 17.485 2.495 17.485 3 19 C5.01508358 19.73323796 5.01508358 19.73323796 7 20 C6.7215625 18.824375 6.7215625 18.824375 6.4375 17.625 C6 15 6 15 7 13 C6.34 12.67 5.68 12.34 5 12 C5.66 12 6.32 12 7 12 C7 11.34 7 10.68 7 10 C6.01 10 5.02 10 4 10 C4 9.34 4 8.68 4 8 C3.01 7.67 2.02 7.34 1 7 C0.505 3.535 0.505 3.535 0 0 Z " fill="#26782D" transform="translate(76,32)"/>
<path d="M0 0 C4.48304547 3.65285187 6.85385947 8.73140091 9 14 C9 14.99 9 15.98 9 17 C9.66 17 10.32 17 11 17 C12.625 19 12.625 19 14 21 C14.28875 20.05125 14.5775 19.1025 14.875 18.125 C16 15 16 15 18 13 C17.85915204 14.79206547 17.71216299 16.58364917 17.5625 18.375 C17.48128906 19.37273438 17.40007812 20.37046875 17.31640625 21.3984375 C17 24 17 24 16 26 C15.34 26 14.68 26 14 26 C13.9071875 26.8353125 13.9071875 26.8353125 13.8125 27.6875 C12.6519231 30.99068042 10.59786554 32.71894733 8 35 C7.34 35 6.68 35 6 35 C6 35.66 6 36.32 6 37 C0.4174808 40.32575612 -3.49686791 41.46450943 -10 41 C-10 40.34 -10 39.68 -10 39 C-5.545 38.505 -5.545 38.505 -1 38 C-1 37.34 -1 36.68 -1 36 C1.64738916 34.5393715 2.89448334 34 6 34 C6.66 32.68 7.32 31.36 8 30 C-4.87 30 -17.74 30 -31 30 C-29.56361473 34.03167669 -29.56361473 34.03167669 -27.234375 34.62109375 C-26.12835937 34.80865234 -26.12835937 34.80865234 -25 35 C-23.07674299 35.66884217 -21.16030185 36.35750765 -19.25 37.0625 C-18.26515625 37.42472656 -17.2803125 37.78695312 -16.265625 38.16015625 C-15.51796875 38.43730469 -14.7703125 38.71445313 -14 39 C-14 39.66 -14 40.32 -14 41 C-15.33333333 40.66666667 -16.66666667 40.33333333 -18 40 C-18.8765625 39.78601563 -19.753125 39.57203125 -20.65625 39.3515625 C-21.5946875 39.11179688 -22.533125 38.87203125 -23.5 38.625 C-24.4384375 38.39039063 -25.376875 38.15578125 -26.34375 37.9140625 C-29.10429627 36.96410981 -30.86020576 35.9744465 -33 34 C-33.495 32.515 -33.495 32.515 -34 31 C-34.66 30.67 -35.32 30.34 -36 30 C-36 29.34 -36 28.68 -36 28 C-20.49 27.67 -4.98 27.34 11 27 C11.33 25.68 11.66 24.36 12 23 C11.01 22.67 10.02 22.34 9 22 C8.505 18.535 8.505 18.535 8 15 C7.01 15 6.02 15 5 15 C4.505 12.03 4.505 12.03 4 9 C-1.28 8.67 -6.56 8.34 -12 8 C-12 7.67 -12 7.34 -12 7 C-7.71 7 -3.42 7 1 7 C0.505 3.535 0.505 3.535 0 0 Z " fill="#F2A937" transform="translate(55,30)"/>
<path d="M0 0 C0.99 0.33 1.98 0.66 3 1 C3 1.66 3 2.32 3 3 C1.68 3.33 0.36 3.66 -1 4 C-0.67 5.32 -0.34 6.64 0 8 C0.33 7.34 0.66 6.68 1 6 C0.34 5.67 -0.32 5.34 -1 5 C0.65 4.67 2.3 4.34 4 4 C4.66 5.98 5.32 7.96 6 10 C5.34 10 4.68 10 4 10 C3.34 10.66 2.68 11.32 2 12 C1.34 11.67 0.68 11.34 0 11 C0.59861742 13.35171131 1.26924352 15.6859378 2 18 C2.66 18.33 3.32 18.66 4 19 C4 19.66 4 20.32 4 21 C4.99 21 5.98 21 7 21 C7 24.3 7 27.6 7 31 C5.35 30.67 3.7 30.34 2 30 C2 29.01 2 28.02 2 27 C1.34 27 0.68 27 0 27 C0 27.928125 0 28.85625 0 29.8125 C-0.94559965 35.93401355 -4.72843049 40.70910213 -9 45 C-14.62097898 48.53086766 -20.23371212 51.46447616 -27 51 C-25.66666667 50.33333333 -24.33333333 49.66666667 -23 49 C-21.96875 48.46375 -20.9375 47.9275 -19.875 47.375 C-17 46 -17 46 -15 46 C-15 45.34 -15 44.68 -15 44 C-12.625 41.375 -12.625 41.375 -10 39 C-9.34 39 -8.68 39 -8 39 C-7.67 37.68 -7.34 36.36 -7 35 C-6.34 35 -5.68 35 -5 35 C-3.67952735 21.49121401 -3.67952735 21.49121401 -4.5625 8 C-5 5 -5 5 -4 3 C-3.34 3 -2.68 3 -2 3 C-2 2.34 -2 1.68 -2 1 C-1.34 0.67 -0.68 0.34 0 0 Z " fill="#7D8A1C" transform="translate(76,21)"/>
<path d="M0 0 C0.33 0 0.66 0 1 0 C1 2.64 1 5.28 1 8 C4.63 8 8.26 8 12 8 C12 11.96 12 15.92 12 20 C4.74 20 -2.52 20 -10 20 C-8.74908525 16.24725576 -7.49934109 12.64125692 -6 9 C-5.34 9 -4.68 9 -4 9 C-3.71125 8.071875 -3.4225 7.14375 -3.125 6.1875 C-2 3 -2 3 0 0 Z " fill="#087433" transform="translate(30,36)"/>
<path d="M0 0 C1.62490954 -0.02698189 3.24994633 -0.04638757 4.875 -0.0625 C5.77992187 -0.07410156 6.68484375 -0.08570313 7.6171875 -0.09765625 C10 -0 10 -0 12 1 C12 1.66 12 2.32 12 3 C12.680625 3.20625 13.36125 3.4125 14.0625 3.625 C17.91536774 5.42847001 21.16353968 7.81279458 24 11 C24.703125 13.1953125 24.703125 13.1953125 25 15 C25.66 15 26.32 15 27 15 C27.81837442 16.41328129 28.62946219 17.83078346 29.4375 19.25 C30.11619141 20.43335938 30.11619141 20.43335938 30.80859375 21.640625 C33.86217228 27.68771166 33.22092539 34.18712337 33.25 40.8125 C33.270625 41.97587891 33.29125 43.13925781 33.3125 44.33789062 C33.341588 50.72634198 33.1197339 55.38886268 30 61 C29.51660156 61.90105469 29.03320312 62.80210938 28.53515625 63.73046875 C28.04917969 64.54128906 27.56320313 65.35210937 27.0625 66.1875 C26.33740234 67.41533203 26.33740234 67.41533203 25.59765625 68.66796875 C23.91986747 71.11696606 22.26141194 73.0749233 20 75 C19.01 75 18.02 75 17 75 C16.67 75.99 16.34 76.98 16 78 C12.9948448 80.39046436 10.99327665 81.91362812 7.125 82.25 C6.42375 82.1675 5.7225 82.085 5 82 C6.28965176 80.62437146 7.62689293 79.29233607 9 78 C9.66 78 10.32 78 11 78 C11 77.34 11 76.68 11 76 C11.89332031 75.61457031 12.78664063 75.22914062 13.70703125 74.83203125 C17.29624077 72.83518752 19.14924282 70.89022242 21.6875 67.6875 C22.43386719 66.76324219 23.18023437 65.83898437 23.94921875 64.88671875 C25.97996752 62.0281981 27.52290683 59.17457801 29 56 C29.66 56 30.32 56 31 56 C31.33 48.08 31.66 40.16 32 32 C31.34 32 30.68 32 30 32 C29.3503125 30.2675 29.3503125 30.2675 28.6875 28.5 C28.40648438 27.76910156 28.12546875 27.03820312 27.8359375 26.28515625 C27 24 27 24 26.4140625 21.93359375 C24.81114039 16.61480675 22.22408279 14.00432422 17.83984375 10.640625 C16 9 16 9 15.00390625 6.859375 C14.17967307 4.8398302 14.17967307 4.8398302 12.203125 4.34765625 C11.47609375 4.23292969 10.7490625 4.11820312 10 4 C8.247531 3.48753558 6.49758654 2.96637488 4.75 2.4375 C3.85796875 2.16808594 2.9659375 1.89867188 2.046875 1.62109375 C1.37140625 1.41613281 0.6959375 1.21117188 0 1 C0 0.67 0 0.34 0 0 Z " fill="#E79E0E" transform="translate(54,0)"/>
<path d="M0 0 C0 0.66 0 1.32 0 2 C-1.6396875 2.4021875 -1.6396875 2.4021875 -3.3125 2.8125 C-6.73166327 3.91358648 -7.77591981 4.42474926 -10 7 C-10.66 7 -11.32 7 -12 7 C-12 7.66 -12 8.32 -12 9 C-12.721875 9.391875 -13.44375 9.78375 -14.1875 10.1875 C-18.6269902 13.0485048 -21.33698451 17.01095353 -23 22 C-23.66 22.33 -24.32 22.66 -25 23 C-25.65213292 25.02463255 -25.65213292 25.02463255 -26 27 C-26.66 27 -27.32 27 -28 27 C-28 36.57 -28 46.14 -28 56 C-26.68 56.66 -25.36 57.32 -24 58 C-23.05859375 60.12890625 -23.05859375 60.12890625 -22.4375 62.5625 C-21.87681285 64.96205587 -21.87681285 64.96205587 -21 67 C-20.01 67.33 -19.02 67.66 -18 68 C-15.3125 70.4375 -15.3125 70.4375 -13 73 C-13 73.66 -13 74.32 -13 75 C-11.8553125 75.4021875 -11.8553125 75.4021875 -10.6875 75.8125 C-8.05635874 76.9750973 -6.94262348 77.97291463 -5 80 C-2.90010348 81.17574711 -2.90010348 81.17574711 -1 82 C-6.62431073 81.6186908 -9.90482403 81.22315022 -14 77 C-14 76.34 -14 75.68 -14 75 C-14.598125 74.896875 -15.19625 74.79375 -15.8125 74.6875 C-21.23079338 72.98460779 -24.58166232 66.69440479 -27.10986328 61.89160156 C-30.24066921 54.81104857 -30.5738061 48.48521431 -30.4375 40.8125 C-30.44458984 39.67619141 -30.45167969 38.53988281 -30.45898438 37.36914062 C-30.41161506 31.12003507 -29.98547352 26.51278032 -27 21 C-26.1646875 19.2984375 -26.1646875 19.2984375 -25.3125 17.5625 C-24.879375 16.716875 -24.44625 15.87125 -24 15 C-23.34 15 -22.68 15 -22 15 C-21.7628125 14.25363281 -21.525625 13.50726563 -21.28125 12.73828125 C-19.79593729 9.56387816 -18.29135721 8.26742363 -15.5 6.1875 C-14.7059375 5.58292969 -13.911875 4.97835938 -13.09375 4.35546875 C-11 3 -11 3 -9 3 C-9 2.34 -9 1.68 -9 1 C-6.04335481 -0.4783226 -3.25770263 -0.06032783 0 0 Z " fill="#EDAE21" transform="translate(30,0)"/>
<path d="M0 0 C0 0.66 0 1.32 0 2 C-4.38461538 5 -4.38461538 5 -7 5 C-7 5.66 -7 6.32 -7 7 C-7.66 7 -8.32 7 -9 7 C-9 7.66 -9 8.32 -9 9 C-6.36 8.67 -3.72 8.34 -1 8 C-2.32 9.65 -3.64 11.3 -5 13 C-3.68 12.67 -2.36 12.34 -1 12 C-2.61236273 15.42882201 -4.26684062 18.34950707 -7 21 C-10.77672004 21.79264495 -14.19799339 21.54797604 -18 21 C-18 21.99 -18 22.98 -18 24 C-16.68 24.33 -15.36 24.66 -14 25 C-14.33 25.99 -14.66 26.98 -15 28 C-15 27.34 -15 26.68 -15 26 C-16.65 26 -18.3 26 -20 26 C-19.67 26.99 -19.34 27.98 -19 29 C-18.01 29.33 -17.02 29.66 -16 30 C-16 32.97 -16 35.94 -16 39 C-16.33 39 -16.66 39 -17 39 C-17 36.69 -17 34.38 -17 32 C-18.65 32 -20.3 32 -22 32 C-22.21755666 26.5610835 -22.10428384 22.12919186 -20 17 C-19.34 17 -18.68 17 -18 17 C-17.88140625 16.41476563 -17.7628125 15.82953125 -17.640625 15.2265625 C-16.59592074 11.59557819 -14.52697201 8.77896922 -12 6 C-9.1875 4.5625 -9.1875 4.5625 -7 4 C-7 3.34 -7 2.68 -7 2 C-2.25 0 -2.25 0 0 0 Z " fill="#7A8A1C" transform="translate(25,5)"/>
<path d="M0 0 C1.0546875 1.828125 1.0546875 1.828125 2 4 C1.125 6.75 1.125 6.75 0 9 C-0.66 9 -1.32 9 -2 9 C-2.1546875 9.804375 -2.1546875 9.804375 -2.3125 10.625 C-3.18092697 13.62502044 -4.55620296 16.2379535 -6 19 C-6.66 19 -7.32 19 -8 19 C-8.1546875 20.051875 -8.1546875 20.051875 -8.3125 21.125 C-9 24 -9 24 -12 30 C3.18 30 18.36 30 34 30 C33.505 28.515 33.505 28.515 33 27 C33.66 27 34.32 27 35 27 C34.505 29.475 34.505 29.475 34 32 C18.16 32 2.32 32 -14 32 C-15.36313799 27.91058604 -14.07921876 26.36309916 -12.3046875 22.59375 C-9.99114545 17.994373 -7.51309363 13.49271725 -5 9 C-4.04159747 7.27087168 -3.08325827 5.54170827 -2.125 3.8125 C-1.4171122 2.54141844 -0.70896103 1.27048327 0 0 Z " fill="#D4A114" transform="translate(32,26)"/>
<path d="M0 0 C2.64 0 5.28 0 8 0 C8.33 1.65 8.66 3.3 9 5 C9.99 5.33 10.98 5.66 12 6 C12 4.02 12 2.04 12 0 C12.65355469 0.16371094 13.30710937 0.32742187 13.98046875 0.49609375 C17.76991774 1.12848563 21.48490951 1.10696709 25.3125 1.0625 C26.42334961 1.05573242 26.42334961 1.05573242 27.55664062 1.04882812 C29.37112899 1.03712175 31.18557534 1.01918898 33 1 C33 1.66 33 2.32 33 3 C35.16666667 2.16666667 35.16666667 2.16666667 36 0 C38.475 2.475 38.475 2.475 41 5 C37.37161896 7.41892069 35.63763556 7.25757137 31.3203125 7.265625 C30.67053436 7.26753845 30.02075623 7.2694519 29.35128784 7.27142334 C27.9778403 7.2727828 26.6043798 7.26910299 25.23095703 7.26074219 C23.13935081 7.2500732 21.0486102 7.26062689 18.95703125 7.2734375 C17.61978978 7.27211518 16.28254885 7.2695513 14.9453125 7.265625 C13.73375488 7.26336914 12.52219727 7.26111328 11.27392578 7.25878906 C7.23333245 6.93939839 4.31998892 6.09240463 1.1875 3.5 C0 2 0 2 0 0 Z " fill="#5F8422" transform="translate(21,75)"/>
<path d="M0 0 C3.57146445 2.76450091 6.80208702 5.81495589 10 9 C10.99 8.01 11.98 7.02 13 6 C13.99 6.33 14.98 6.66 16 7 C15 10 15 10 13 11 C13.020625 11.969375 13.04125 12.93875 13.0625 13.9375 C13 17 13 17 12 18 C12.144375 18.53625 12.28875 19.0725 12.4375 19.625 C13.18358559 22.77513914 13.06201471 25.77523516 13 29 C12.67 27.68 12.34 26.36 12 25 C11.34 25 10.68 25 10 25 C9.34 21.7 8.68 18.4 8 15 C7.34 15 6.68 15 6 15 C5.9175 14.38125 5.835 13.7625 5.75 13.125 C5.18741541 10.81562433 5.18741541 10.81562433 2.9375 9.75 C2.298125 9.5025 1.65875 9.255 1 9 C1 8.34 1 7.68 1 7 C0.46375 6.896875 -0.0725 6.79375 -0.625 6.6875 C-3.6711608 5.80571661 -6.25527994 4.58583826 -9 3 C-9.33 2.01 -9.66 1.02 -10 0 C-6.26656483 -1.24447839 -3.62794017 -1.46590202 0 0 Z " fill="#8B8D1A" transform="translate(60,11)"/>
<path d="M0 0 C1.32 0 2.64 0 4 0 C3.67 1.98 3.34 3.96 3 6 C4.65 6 6.3 6 8 6 C8 6.99 8 7.98 8 9 C1.73 9 -4.54 9 -11 9 C-11 9.66 -11 10.32 -11 11 C-11.56589844 11.10957031 -12.13179687 11.21914062 -12.71484375 11.33203125 C-13.44832031 11.49058594 -14.18179687 11.64914062 -14.9375 11.8125 C-15.66839844 11.96332031 -16.39929688 12.11414062 -17.15234375 12.26953125 C-18.06693359 12.63111328 -18.06693359 12.63111328 -19 13 C-19.33 13.99 -19.66 14.98 -20 16 C-21.98 16.33 -23.96 16.66 -26 17 C-24.125 13.125 -24.125 13.125 -23 12 C-23.61875 12.185625 -24.2375 12.37125 -24.875 12.5625 C-27 13 -27 13 -29 12 C-29 11.34 -29 10.68 -29 10 C-28.34 10 -27.68 10 -27 10 C-27 9.34 -27 8.68 -27 8 C-25.25 6.3125 -25.25 6.3125 -23 5 C-20.8125 5.125 -20.8125 5.125 -19 6 C-18.67 6.99 -18.34 7.98 -18 9 C-17.2575 8.525625 -16.515 8.05125 -15.75 7.5625 C-10.89539916 5.07656914 -5.34522062 5.2508275 0 5 C0 3.35 0 1.7 0 0 Z " fill="#808B1B" transform="translate(45,2)"/>
<path d="M0 0 C0.0270491 3.06255961 0.04686298 6.1248786 0.0625 9.1875 C0.07087891 10.05181641 0.07925781 10.91613281 0.08789062 11.80664062 C0.10396812 16.00286769 0.07559038 19.90936886 -1 24 C-1.66 24 -2.32 24 -3 24 C-3.12181641 25.07314453 -3.12181641 25.07314453 -3.24609375 26.16796875 C-4.1751191 29.6578308 -5.74858634 31.55784089 -8.0625 34.3125 C-8.79597656 35.19550781 -9.52945313 36.07851562 -10.28515625 36.98828125 C-10.85105469 37.65214844 -11.41695313 38.31601563 -12 39 C-13.32 38.67 -14.64 38.34 -16 38 C-16 37.34 -16 36.68 -16 36 C-16.66 36 -17.32 36 -18 36 C-18 35.34 -18 34.68 -18 34 C-17.34 34 -16.68 34 -16 34 C-16 33.34 -16 32.68 -16 32 C-15.34 32 -14.68 32 -14 32 C-13.67 30.68 -13.34 29.36 -13 28 C-12.34 28 -11.68 28 -11 28 C-11 26.68 -11 25.36 -11 24 C-9.35 24.33 -7.7 24.66 -6 25 C-6 24.01 -6 23.02 -6 22 C-5.01 21.67 -4.02 21.34 -3 21 C-2.34 16.05 -1.68 11.1 -1 6 C-3.97 5.505 -3.97 5.505 -7 5 C-7 3.68 -7 2.36 -7 1 C-2.25 0 -2.25 0 0 0 Z " fill="#2F7A2B" transform="translate(86,32)"/>
<path d="M0 0 C3.63 0 7.26 0 11 0 C11.33 1.98 11.66 3.96 12 6 C8.67526354 8.21649098 5.84395157 8.95757246 2 10 C-0.00361307 10.65572791 -2.00491933 11.31875294 -4 12 C-4.33 9.69 -4.66 7.38 -5 5 C-5.99 5.33 -6.98 5.66 -8 6 C-7.67 5.01 -7.34 4.02 -7 3 C-3.535 2.505 -3.535 2.505 0 2 C0 1.34 0 0.68 0 0 Z " fill="#3C7D28" transform="translate(30,0)"/>
<path d="M0 0 C1.62490954 -0.02698189 3.24994633 -0.04638757 4.875 -0.0625 C5.77992187 -0.07410156 6.68484375 -0.08570313 7.6171875 -0.09765625 C10 -0 10 -0 12 1 C12 1.66 12 2.32 12 3 C12.680625 3.20625 13.36125 3.4125 14.0625 3.625 C17.91536774 5.42847001 21.16353968 7.81279458 24 11 C24.703125 13.1953125 24.703125 13.1953125 25 15 C25.66 15 26.32 15 27 15 C30.82735898 20.90506815 32.64317031 24.92512658 32 32 C31.34 32 30.68 32 30 32 C29.3503125 30.2675 29.3503125 30.2675 28.6875 28.5 C28.40648438 27.76910156 28.12546875 27.03820312 27.8359375 26.28515625 C27 24 27 24 26.4140625 21.93359375 C24.81114039 16.61480675 22.22408279 14.00432422 17.83984375 10.640625 C16 9 16 9 15.00390625 6.859375 C14.17967307 4.8398302 14.17967307 4.8398302 12.203125 4.34765625 C11.47609375 4.23292969 10.7490625 4.11820312 10 4 C8.247531 3.48753558 6.49758654 2.96637488 4.75 2.4375 C3.85796875 2.16808594 2.9659375 1.89867188 2.046875 1.62109375 C1.37140625 1.41613281 0.6959375 1.21117188 0 1 C0 0.67 0 0.34 0 0 Z " fill="#E0AC12" transform="translate(54,0)"/>
<path d="M0 0 C4.48304547 3.65285187 6.85385947 8.73140091 9 14 C9 14.99 9 15.98 9 17 C9.66 17 10.32 17 11 17 C12.625 19 12.625 19 14 21 C14.28875 20.05125 14.5775 19.1025 14.875 18.125 C16 15 16 15 18 13 C17.85915204 14.79206547 17.71216299 16.58364917 17.5625 18.375 C17.48128906 19.37273438 17.40007812 20.37046875 17.31640625 21.3984375 C17 24 17 24 16 26 C15.34 26 14.68 26 14 26 C13.67 27.32 13.34 28.64 13 30 C12.34 29.67 11.68 29.34 11 29 C11.33 27.02 11.66 25.04 12 23 C11.01 22.67 10.02 22.34 9 22 C8.67 19.69 8.34 17.38 8 15 C7.01 15 6.02 15 5 15 C4.67 13.02 4.34 11.04 4 9 C-1.28 8.67 -6.56 8.34 -12 8 C-12 7.67 -12 7.34 -12 7 C-7.71 7 -3.42 7 1 7 C0.67 4.69 0.34 2.38 0 0 Z " fill="#F2AB31" transform="translate(55,30)"/>
<path d="M0 0 C2.12493141 -0.02693575 4.24995912 -0.04636628 6.375 -0.0625 C7.55835938 -0.07410156 8.74171875 -0.08570313 9.9609375 -0.09765625 C13 0 13 0 15 1 C15.66 3.31 16.32 5.62 17 8 C11.39 8 5.78 8 0 8 C0 5.36 0 2.72 0 0 Z " fill="#3B7E29" transform="translate(44,38)"/>
<path d="M0 0 C0 0.66 0 1.32 0 2 C-2.64738916 3.4606285 -3.89448334 4 -7 4 C-7.66 5.32 -8.32 6.64 -9 8 C-9.66 8 -10.32 8 -11 8 C-11.33 9.32 -11.66 10.64 -12 12 C-12.66 12 -13.32 12 -14 12 C-14.66 15.3 -15.32 18.6 -16 22 C-16.66 22 -17.32 22 -18 22 C-17.63844628 26.28155726 -17.26306114 30.22543108 -15.875 34.3125 C-14.96265893 37.11469044 -14.95969703 38.29521227 -16 41 C-16 40.34 -16 39.68 -16 39 C-16.66 39 -17.32 39 -18 39 C-19.1487135 34.87838159 -19.18384676 30.87737225 -19.1875 26.625 C-19.19974609 25.8825 -19.21199219 25.14 -19.22460938 24.375 C-19.23659288 19.85322517 -18.7105285 16.25941878 -17 12 C-16.34 12 -15.68 12 -15 12 C-14.773125 11.2575 -14.54625 10.515 -14.3125 9.75 C-12.7376598 6.45033483 -10.92496664 5.14021949 -8 3 C-7.505 2.4225 -7.01 1.845 -6.5 1.25 C-4.3636347 -0.53030442 -2.69013111 -0.21811874 0 0 Z " fill="#E6A219" transform="translate(33,14)"/>
<path d="M0 0 C0.99 0.33 1.98 0.66 3 1 C3 2.32 3 3.64 3 5 C5.97 5.495 5.97 5.495 9 6 C9.20413361 11.73842251 9.27141454 16.60539047 7 22 C6.01 22 5.02 22 4 22 C4.33 23.98 4.66 25.96 5 28 C4.67 27.01 4.34 26.02 4 25 C2.35 24.67 0.7 24.34 -1 24 C-0.67 21.36 -0.34 18.72 0 16 C0.66 16 1.32 16 2 16 C2.33 16.99 2.66 17.98 3 19 C5.01508358 19.73323796 5.01508358 19.73323796 7 20 C6.814375 19.21625 6.62875 18.4325 6.4375 17.625 C6 15 6 15 7 13 C6.34 12.67 5.68 12.34 5 12 C5.66 12 6.32 12 7 12 C7 11.34 7 10.68 7 10 C6.01 10 5.02 10 4 10 C4 9.34 4 8.68 4 8 C3.01 7.67 2.02 7.34 1 7 C0.67 4.69 0.34 2.38 0 0 Z " fill="#1D772F" transform="translate(76,32)"/>
<path d="M0 0 C-0.24924414 3.58517787 -0.52813512 7.16745032 -0.8125 10.75 C-0.88275391 11.76578125 -0.95300781 12.7815625 -1.02539062 13.828125 C-1.10595703 14.8078125 -1.18652344 15.7875 -1.26953125 16.796875 C-1.33760986 17.69760742 -1.40568848 18.59833984 -1.47583008 19.52636719 C-2.07361704 22.34740933 -3.12629783 23.84227012 -5 26 C-6.9718625 19.33322678 -6.45497499 11.72925934 -5 5 C-6.32 4.67 -7.64 4.34 -9 4 C-9 3.01 -9 2.02 -9 1 C-2.25 0 -2.25 0 0 0 Z " fill="#938F19" transform="translate(16,25)"/>
<path d="M0 0 C13.6332574 -0.55353075 13.6332574 -0.55353075 20 3 C19.67 3.66 19.34 4.32 19 5 C18.34 5 17.68 5 17 5 C16.67 5.66 16.34 6.32 16 7 C16 5.68 16 4.36 16 3 C12.9254644 3.7763932 12.9254644 3.7763932 11 6 C11 4.68 11 3.36 11 2 C10.34 2 9.68 2 9 2 C9 3.65 9 5.3 9 7 C10.423125 6.9690625 10.423125 6.9690625 11.875 6.9375 C15 7 15 7 17 8 C17 8.66 17 9.32 17 10 C17.66 10.33 18.32 10.66 19 11 C16.69 10.67 14.38 10.34 12 10 C12 9.34 12 8.68 12 8 C10.35 8 8.7 8 7 8 C7.33 6.02 7.66 4.04 8 2 C6.68 2 5.36 2 4 2 C4 3.65 4 5.3 4 7 C2.68 6.67 1.36 6.34 0 6 C0 4.02 0 2.04 0 0 Z " fill="#21772E" transform="translate(41,0)"/>
<path d="M0 0 C0.66 1.32 1.32 2.64 2 4 C2.66 4 3.32 4 4 4 C4.50615298 5.26839526 5.00469099 6.53983102 5.5 7.8125 C5.91765625 8.87404297 5.91765625 8.87404297 6.34375 9.95703125 C7 12 7 12 7 15 C7.66 15 8.32 15 9 15 C9 15.66 9 16.32 9 17 C6.03 17 3.06 17 0 17 C0 11.39 0 5.78 0 0 Z " fill="#21782E" transform="translate(44,15)"/>
<path d="M0 0 C2.66313628 2.05787803 3.07337849 3.26599702 4 6.625 C4.33 7.73875 4.66 8.8525 5 10 C5.99 10.33 6.98 10.66 8 11 C10.6875 13.4375 10.6875 13.4375 13 16 C13 16.66 13 17.32 13 18 C13.763125 18.268125 14.52625 18.53625 15.3125 18.8125 C17.94364126 19.9750973 19.05737652 20.97291463 21 23 C23.09989652 24.17574711 23.09989652 24.17574711 25 25 C19.37568927 24.6186908 16.09517597 24.22315022 12 20 C12 19.34 12 18.68 12 18 C11.401875 17.896875 10.80375 17.79375 10.1875 17.6875 C6.92229914 16.66129402 5.48459142 14.89231661 3.8671875 11.9140625 C0.54972875 4.26039783 0.54972875 4.26039783 0 0 Z " fill="#D9AD1E" transform="translate(4,57)"/>
<path d="M0 0 C0.66 0 1.32 0 2 0 C2.33 0.66 2.66 1.32 3 2 C4.32 1.67 5.64 1.34 7 1 C7.33 1.66 7.66 2.32 8 3 C8.99 2.34 9.98 1.68 11 1 C13 1.3125 13 1.3125 15 2 C15.99 2.33 16.98 2.66 18 3 C17.67 3.66 17.34 4.32 17 5 C16.01 4.67 15.02 4.34 14 4 C15.06546953 6.13093906 16.29159719 7.36587557 18 9 C17.01 9.66 16.02 10.32 15 11 C15 10.34 15 9.68 15 9 C12.69 8.67 10.38 8.34 8 8 C8 7.34 8 6.68 8 6 C5.36 5.67 2.72 5.34 0 5 C0 3.35 0 1.7 0 0 Z " fill="#648520" transform="translate(50,2)"/>
<path d="M0 0 C0 0.66 0 1.32 0 2 C-1.6396875 2.4021875 -1.6396875 2.4021875 -3.3125 2.8125 C-6.73166327 3.91358648 -7.77591981 4.42474926 -10 7 C-10.66 7 -11.32 7 -12 7 C-12 7.66 -12 8.32 -12 9 C-12.7425 9.4125 -13.485 9.825 -14.25 10.25 C-17.55040926 12.35026044 -19.00621348 14.67702246 -21 18 C-22 16 -22 16 -21.625 13.3125 C-19.2730897 8.51822131 -15.47252268 5.82035945 -11 3 C-10.34 3 -9.68 3 -9 3 C-9 2.34 -9 1.68 -9 1 C-6.04335481 -0.4783226 -3.25770263 -0.06032783 0 0 Z " fill="#DDB12D" transform="translate(30,0)"/>
<path d="M0 0 C0.33 0.99 0.66 1.98 1 3 C2.65 3.33 4.3 3.66 6 4 C6 4.33 6 4.66 6 5 C4.02 5 2.04 5 0 5 C0 5.99 0 6.98 0 8 C1.32 8.33 2.64 8.66 4 9 C3.67 9.99 3.34 10.98 3 12 C3 11.34 3 10.68 3 10 C1.35 10 -0.3 10 -2 10 C-1.67 10.99 -1.34 11.98 -1 13 C-0.01 13.33 0.98 13.66 2 14 C2 16.97 2 19.94 2 23 C1.67 23 1.34 23 1 23 C1 20.69 1 18.38 1 16 C-0.65 16 -2.3 16 -4 16 C-4.21502018 10.62449542 -4.25603962 6.01342137 -2 1 C-1.34 0.67 -0.68 0.34 0 0 Z " fill="#387C2A" transform="translate(7,21)"/>
<path d="M0 0 C2.61859676 1.00122817 3.79889378 1.66606437 5.265625 4.1015625 C7.4459818 9.69088984 8.44434656 14.0013214 8 20 C7.67 18.68 7.34 17.36 7 16 C5.68 16 4.36 16 3 16 C3.33 14.68 3.66 13.36 4 12 C4 12.66 4 13.32 4 14 C4.66 14 5.32 14 6 14 C4.35 12.35 2.7 10.7 1 9 C0.67 10.32 0.34 11.64 0 13 C-0.66 12.34 -1.32 11.68 -2 11 C-1.625 8.875 -1.625 8.875 -1 7 C0.32 7 1.64 7 3 7 C2.67 6.34 2.34 5.68 2 5 C0.68 5 -0.64 5 -2 5 C-2 5.66 -2 6.32 -2 7 C-2.66 7 -3.32 7 -4 7 C-3.67 6.01 -3.34 5.02 -3 4 C-2.34 4 -1.68 4 -1 4 C-0.67 2.68 -0.34 1.36 0 0 Z " fill="#1E762F" transform="translate(76,17)"/>
<path d="M0 0 C0.93226067 1.52902626 1.79551982 3.10036614 2.625 4.6875 C5.5789058 9.84221185 8.69753456 12.44297352 14 15 C13.34 15.66 12.68 16.32 12 17 C9.375 16.625 9.375 16.625 7 16 C7 14.68 7 13.36 7 12 C5.35 12.33 3.7 12.66 2 13 C1.67 13.99 1.34 14.98 1 16 C0.03929566 13.11788698 -0.10581883 11.30149956 -0.0625 8.3125 C-0.05347656 7.50425781 -0.04445313 6.69601563 -0.03515625 5.86328125 C-0.01775391 4.94095703 -0.01775391 4.94095703 0 4 C-2.97 3.505 -2.97 3.505 -6 3 C-6 2.34 -6 1.68 -6 1 C-3.92446352 0.4465236 -2.15634036 0 0 0 Z " fill="#0B7432" transform="translate(14,56)"/>
<path d="M0 0 C6.2191582 1.21944278 8.26429418 2.91528931 12 8 C12.53625 8.515625 13.0725 9.03125 13.625 9.5625 C18.70591624 14.87436698 19.13558202 19.94973484 19 27 C18.67 25.68 18.34 24.36 18 23 C17.34 23 16.68 23 16 23 C15.34 19.7 14.68 16.4 14 13 C13.34 13 12.68 13 12 13 C11.9175 12.38125 11.835 11.7625 11.75 11.125 C11.18741541 8.81562433 11.18741541 8.81562433 8.9375 7.75 C8.298125 7.5025 7.65875 7.255 7 7 C7 6.34 7 5.68 7 5 C6.401875 4.855625 5.80375 4.71125 5.1875 4.5625 C3.43849596 4.1127561 1.71322977 3.57107659 0 3 C0 2.01 0 1.02 0 0 Z " fill="#F4B735" transform="translate(54,13)"/>
<path d="M0 0 C2.97 0 5.94 0 9 0 C9 2.64 9 5.28 9 8 C6.03 8 3.06 8 0 8 C0 5.36 0 2.72 0 0 Z " fill="#0D7432" transform="translate(33,33)"/>
<path d="M0 0 C0.33 0 0.66 0 1 0 C1 4.95 1 9.9 1 15 C-1.64 15 -4.28 15 -7 15 C-6.731875 14.34 -6.46375 13.68 -6.1875 13 C-4.74294953 9.35060933 -3.37128822 5.67754567 -2 2 C-1.34 2 -0.68 2 0 2 C0 1.34 0 0.68 0 0 Z " fill="#117531" transform="translate(41,16)"/>
<path d="M0 0 C0.66 0.33 1.32 0.66 2 1 C-6.55014347 7.19885401 -13.4272166 8.47577525 -24 8 C-23.01 7.34 -22.02 6.68 -21 6 C-21.66 5.34 -22.32 4.68 -23 4 C-22.34 4 -21.68 4 -21 4 C-21 3.34 -21 2.68 -21 2 C-19.68 2 -18.36 2 -17 2 C-17 2.66 -17 3.32 -17 4 C-10.92971675 4.50585694 -6.88834687 3.93300812 -1.62890625 0.77734375 C-1.09136719 0.52082031 -0.55382812 0.26429687 0 0 Z " fill="#A28B15" transform="translate(62,67)"/>
<path d="M0 0 C6.93 0 13.86 0 21 0 C21.33 0.99 21.66 1.98 22 3 C14.74 3 7.48 3 0 3 C0 2.01 0 1.02 0 0 Z " fill="#117531" transform="translate(44,53)"/>
<path d="M0 0 C0.33 0.66 0.66 1.32 1 2 C-2.61328125 6.6875 -2.61328125 6.6875 -4 8 C-4.99 8 -5.98 8 -7 8 C-7.33 8.99 -7.66 9.98 -8 11 C-11.0051552 13.39046436 -13.00672335 14.91362812 -16.875 15.25 C-17.57625 15.1675 -18.2775 15.085 -19 15 C-17.71034824 13.62437146 -16.37310707 12.29233607 -15 11 C-14.34 11 -13.68 11 -13 11 C-13 10.34 -13 9.68 -13 9 C-12.0925 8.608125 -11.185 8.21625 -10.25 7.8125 C-6.83286666 5.90679102 -5.33964261 4.06573859 -3 1 C-2.01 0.67 -1.02 0.34 0 0 Z " fill="#E4AA10" transform="translate(78,67)"/>
<path d="M0 0 C0.99 0.33 1.98 0.66 3 1 C3 1.66 3 2.32 3 3 C3.99 3 4.98 3 6 3 C6 6.3 6 9.6 6 13 C4.35 12.67 2.7 12.34 1 12 C1 11.01 1 10.02 1 9 C0.34 9 -0.32 9 -1 9 C-0.67 6.03 -0.34 3.06 0 0 Z " fill="#447E26" transform="translate(77,39)"/>
<path d="M0 0 C0.99 0 1.98 0 3 0 C3.33 2.31 3.66 4.62 4 7 C4.66 7 5.32 7 6 7 C6.67408308 8.26691507 7.33900497 9.53870749 8 10.8125 C8.556875 11.87404297 8.556875 11.87404297 9.125 12.95703125 C10 15 10 15 10 18 C8.68 18 7.36 18 6 18 C5.49384702 16.73160474 4.99530901 15.46016898 4.5 14.1875 C4.2215625 13.47980469 3.943125 12.77210937 3.65625 12.04296875 C3 10 3 10 3 7 C2.34 7 1.68 7 1 7 C0.67 4.69 0.34 2.38 0 0 Z " fill="#DEB024" transform="translate(45,12)"/>
<path d="M0 0 C3.24271506 0.5590888 4.93057424 1.4132178 7 4 C7 4.66 7 5.32 7 6 C7.54140625 6.12246094 8.0828125 6.24492188 8.640625 6.37109375 C11.41285397 7.11004882 14.05864417 8.06926154 16.75 9.0625 C18.22726563 9.60583984 18.22726563 9.60583984 19.734375 10.16015625 C20.48203125 10.43730469 21.2296875 10.71445313 22 11 C22 11.66 22 12.32 22 13 C20.66666667 12.66666667 19.33333333 12.33333333 18 12 C17.1234375 11.78601563 16.246875 11.57203125 15.34375 11.3515625 C13.93609375 10.99191406 13.93609375 10.99191406 12.5 10.625 C11.5615625 10.39039062 10.623125 10.15578125 9.65625 9.9140625 C6.89570373 8.96410981 5.13979424 7.9744465 3 6 C2.67 5.01 2.34 4.02 2 3 C1.34 2.67 0.68 2.34 0 2 C0 1.34 0 0.68 0 0 Z " fill="#EBBA3C" transform="translate(19,58)"/>
<path d="M0 0 C6.27 0 12.54 0 19 0 C19 0.99 19 1.98 19 3 C12.73 3 6.46 3 0 3 C0 2.01 0 1.02 0 0 Z " fill="#2C7A2C" transform="translate(44,48)"/>
<path d="M0 0 C7.57142857 2.85714286 7.57142857 2.85714286 10 7 C8.35 7 6.7 7 5 7 C4.67 8.32 4.34 9.64 4 11 C0.34683329 9.75023244 -0.78065836 9.32901247 -3 6 C-2.34 5.67 -1.68 5.34 -1 5 C1.125 5.9375 1.125 5.9375 3 7 C3 6.34 3 5.68 3 5 C2.01 4.67 1.02 4.34 0 4 C0 2.68 0 1.36 0 0 Z " fill="#1C762F" transform="translate(63,5)"/>
<path d="M0 0 C0.0270491 3.06255961 0.04686298 6.1248786 0.0625 9.1875 C0.07087891 10.05181641 0.07925781 10.91613281 0.08789062 11.80664062 C0.10396812 16.00286769 0.07559038 19.90936886 -1 24 C-1.66 23.67 -2.32 23.34 -3 23 C-2.34 17.39 -1.68 11.78 -1 6 C-3.97 5.505 -3.97 5.505 -7 5 C-7 3.68 -7 2.36 -7 1 C-2.25 0 -2.25 0 0 0 Z " fill="#7F8C1C" transform="translate(86,32)"/>
<path d="M0 0 C0 0.66 0 1.32 0 2 C-4.38461538 5 -4.38461538 5 -7 5 C-7 5.66 -7 6.32 -7 7 C-7.66 7 -8.32 7 -9 7 C-9 7.66 -9 8.32 -9 9 C-6.36 8.67 -3.72 8.34 -1 8 C-2.65 9.65 -4.3 11.3 -6 13 C-7.9375 12.3125 -7.9375 12.3125 -10 11 C-10.75 8.375 -10.75 8.375 -11 6 C-9.68 5.34 -8.36 4.68 -7 4 C-7 3.34 -7 2.68 -7 2 C-2.25 0 -2.25 0 0 0 Z " fill="#20772E" transform="translate(25,5)"/>
<path d="M0 0 C6.75 0.75 6.75 0.75 9 3 C11.32275177 3.40047444 13.65739357 3.7397104 16 4 C16 4.33 16 4.66 16 5 C7.14223195 7.43326039 7.14223195 7.43326039 2.375 5.625 C1.59125 5.08875 0.8075 4.5525 0 4 C0 2.66666667 0 1.33333333 0 0 Z " fill="#858D1D" transform="translate(30,68)"/>
<path d="M0 0 C6.27 0.66 12.54 1.32 19 2 C14.46780033 4.26609984 12.82227075 3.92735976 8 3 C7.67 3.66 7.34 4.32 7 5 C7 4.34 7 3.68 7 3 C5.68 2.67 4.36 2.34 3 2 C3 3.98 3 5.96 3 8 C1.35 7.67 -0.3 7.34 -2 7 C-1.34 4.69 -0.68 2.38 0 0 Z " fill="#19762F" transform="translate(30,73)"/>
<path d="M0 0 C0 0.99 0 1.98 0 3 C-3.8503105 5.56687367 -5.58569763 4.83288724 -10 4 C-9.6875 2.0625 -9.6875 2.0625 -9 0 C-5.52176885 -1.15941038 -3.54104422 -0.70820884 0 0 Z " fill="#588223" transform="translate(71,71)"/>
<path d="M0 0 C2.37706418 3.66539668 2.05094317 6.49056835 1.625 10.75 C1.51414062 11.92046875 1.40328125 13.0909375 1.2890625 14.296875 C1.19367188 15.18890625 1.09828125 16.0809375 1 17 C-1.41401463 14.8339112 -1.99083357 14.03404674 -2.875 10.75 C-3.02709888 6.18703367 -2.04900173 4.01604339 0 0 Z " fill="#9A8F19" transform="translate(75,33)"/>
<path d="M0 0 C-0.66 3.3 -1.32 6.6 -2 10 C-2.66 10 -3.32 10 -4 10 C-4.12375 9.071875 -4.12375 9.071875 -4.25 8.125 C-4.81258459 5.81562433 -4.81258459 5.81562433 -7.0625 4.75 C-7.701875 4.5025 -8.34125 4.255 -9 4 C-9 3.01 -9 2.02 -9 1 C-2.25 0 -2.25 0 0 0 Z " fill="#75881D" transform="translate(16,25)"/>
<path d="M0 0 C0.66 0 1.32 0 2 0 C2.33 0.99 2.66 1.98 3 3 C5.01508358 3.73323796 5.01508358 3.73323796 7 4 C7.33 2.68 7.66 1.36 8 0 C8 1.65 8 3.3 8 5 C6.68 5.33 5.36 5.66 4 6 C4.33 7.98 4.66 9.96 5 12 C4.67 11.01 4.34 10.02 4 9 C2.35 8.67 0.7 8.34 -1 8 C-0.67 5.36 -0.34 2.72 0 0 Z " fill="#107432" transform="translate(76,48)"/>
<path d="M0 0 C1.62490954 -0.02698189 3.24994633 -0.04638757 4.875 -0.0625 C5.77992187 -0.07410156 6.68484375 -0.08570313 7.6171875 -0.09765625 C10 0 10 0 12 1 C12 1.99 12 2.98 12 4 C8.04 4 4.08 4 0 4 C0 2.68 0 1.36 0 0 Z " fill="#327B2A" transform="translate(44,33)"/>
<path d="M0 0 C0.66 0.33 1.32 0.66 2 1 C1.67 1.66 1.34 2.32 1 3 C2.65 3.33 4.3 3.66 6 4 C5.49396008 6.16874252 5.00016187 7.99967627 4 10 C2.68 9.34 1.36 8.68 0 8 C0 7.34 0 6.68 0 6 C-0.99 6 -1.98 6 -3 6 C-1.125 1.125 -1.125 1.125 0 0 Z " fill="#167530" transform="translate(11,14)"/>
<path d="M0 0 C1.98 1.32 3.96 2.64 6 4 C4.9375 5.5 4.9375 5.5 3 7 C-0.6875 7.1875 -0.6875 7.1875 -4 7 C-4 5.35 -4 3.7 -4 2 C-3.34 1.67 -2.68 1.34 -2 1 C-2 1.66 -2 2.32 -2 3 C-1.34 2.67 -0.68 2.34 0 2 C0 1.34 0 0.68 0 0 Z " fill="#77891D" transform="translate(56,75)"/>
<path d="M0 0 C1.32 0.33 2.64 0.66 4 1 C3.75 3.375 3.75 3.375 3 6 C0.9375 7.3125 0.9375 7.3125 -1 8 C-1 8.66 -1 9.32 -1 10 C-1.66 10 -2.32 10 -3 10 C-3 9.34 -3 8.68 -3 8 C-3.66 8 -4.32 8 -5 8 C-5 7.34 -5 6.68 -5 6 C-4.34 6 -3.68 6 -3 6 C-3 5.34 -3 4.68 -3 4 C-2.34 4 -1.68 4 -1 4 C-0.67 2.68 -0.34 1.36 0 0 Z " fill="#73881D" transform="translate(73,60)"/>
<path d="M0 0 C1.98 0.99 1.98 0.99 4 2 C4 2.66 4 3.32 4 4 C4.763125 4.268125 5.52625 4.53625 6.3125 4.8125 C8.94364126 5.9750973 10.05737652 6.97291463 12 9 C14.09989652 10.17574711 14.09989652 10.17574711 16 11 C10.36663644 10.61807705 7.09760182 10.22177157 3 6 C2.67 5.01 2.34 4.02 2 3 C1.34 2.67 0.68 2.34 0 2 C0 1.34 0 0.68 0 0 Z " fill="#CDA01F" transform="translate(13,71)"/>
<path d="M0 0 C0.66 0 1.32 0 2 0 C2.33 1.32 2.66 2.64 3 4 C3.99 4 4.98 4 6 4 C7.60725635 7.21451269 7.05748185 10.43612536 7 14 C6.34 14 5.68 14 5 14 C3.23945126 9.35855331 1.53472968 4.72224516 0 0 Z " fill="#C29713" transform="translate(79,18)"/>
<path d="M0 0 C0.33 0.99 0.66 1.98 1 3 C-4.41538462 6.07692308 -4.41538462 6.07692308 -7.375 5.6875 C-7.91125 5.460625 -8.4475 5.23375 -9 5 C-9 4.01 -9 3.02 -9 2 C-3.375 0 -3.375 0 0 0 Z " fill="#72881D" transform="translate(35,3)"/>
<path d="M0 0 C0.66 0 1.32 0 2 0 C2.33 0.33 2.66 0.66 3 1 C3.66 1 4.32 1 5 1 C7 6.75 7 6.75 7 9 C7.63474075 10.34882408 8.29848848 11.6846659 9 13 C4.97449681 11.6581656 4.11714364 9.5772427 2 6 C2 5.34 2 4.68 2 4 C1.34 4 0.68 4 0 4 C0 2.68 0 1.36 0 0 Z " fill="#979118" transform="translate(12,52)"/>
<path d="M0 0 C2 1.6875 2 1.6875 4 4 C4 5.65 4 7.3 4 9 C-1.28 8.67 -6.56 8.34 -12 8 C-12 7.67 -12 7.34 -12 7 C-7.71 7 -3.42 7 1 7 C0.67 4.69 0.34 2.38 0 0 Z " fill="#EAAB11" transform="translate(55,30)"/>
<path d="M0 0 C0.66 0.226875 1.32 0.45375 2 0.6875 C2.99 1.0175 3.98 1.3475 5 1.6875 C4.67 2.3475 4.34 3.0075 4 3.6875 C3.01 3.3575 2.02 3.0275 1 2.6875 C2.06546953 4.81843906 3.29159719 6.05337557 5 7.6875 C4.01 8.3475 3.02 9.0075 2 9.6875 C2 9.0275 2 8.3675 2 7.6875 C1.01 7.6875 0.02 7.6875 -1 7.6875 C-1 6.0375 -1 4.3875 -1 2.6875 C-2.32 2.3575 -3.64 2.0275 -5 1.6875 C-2 -0.3125 -2 -0.3125 0 0 Z " fill="#638521" transform="translate(63,3.3125)"/>
<path d="M0 0 C2.4375 0.6875 2.4375 0.6875 5 2 C5.144375 2.78375 5.28875 3.5675 5.4375 4.375 C5.77694285 7.35576578 5.77694285 7.35576578 9.0625 9.3125 C10.5165625 10.1478125 10.5165625 10.1478125 12 11 C9 12 9 12 7.17578125 11.109375 C6.25345703 10.43648437 6.25345703 10.43648437 5.3125 9.75 C4.68988281 9.31171875 4.06726563 8.8734375 3.42578125 8.421875 C2.95527344 7.95265625 2.48476563 7.4834375 2 7 C2 6.01 2 5.02 2 4 C1.05021103 1.84971696 1.05021103 1.84971696 0 0 Z " fill="#7A8A1D" transform="translate(17,59)"/>
<path d="M0 0 C0.33 0 0.66 0 1 0 C1.33 3.63 1.66 7.26 2 11 C2.66 11 3.32 11 4 11 C4.53229326 12.26607607 5.05044544 13.53810412 5.5625 14.8125 C5.85253906 15.52019531 6.14257812 16.22789063 6.44140625 16.95703125 C7 19 7 19 6 22 C5.18162558 20.58671871 4.37053781 19.16921654 3.5625 17.75 C3.11003906 16.96109375 2.65757812 16.1721875 2.19140625 15.359375 C0.27924776 11.57267426 -0.12450395 8.46626882 -0.0625 4.25 C-0.05347656 3.45078125 -0.04445312 2.6515625 -0.03515625 1.828125 C-0.02355469 1.22484375 -0.01195312 0.6215625 0 0 Z " fill="#F9B82B" transform="translate(0,45)"/>
<path d="M0 0 C1.70884005 1.62339805 3.37446717 3.29319053 5 5 C5 5.66 5 6.32 5 7 C5.66 7 6.32 7 7 7 C7.99 9.31 8.98 11.62 10 14 C9.34 14 8.68 14 8 14 C7.67 12.68 7.34 11.36 7 10 C6.34 10 5.68 10 5 10 C0 4.76190476 0 4.76190476 0 0 Z " fill="#EDB70F" transform="translate(74,8)"/>
<path d="M0 0 C3.77727089 1.81309003 7.37269822 3.9073259 11 6 C9.8125 8 9.8125 8 8 10 C5.3125 10.25 5.3125 10.25 3 10 C4 8 4 8 6 6 C5.01 5.38125 4.02 4.7625 3 4.125 C2.01 3.42375 1.02 2.7225 0 2 C0 1.34 0 0.68 0 0 Z " fill="#558223" transform="translate(22,64)"/>
<path d="M0 0 C2.1875 2.8125 2.1875 2.8125 4 6 C3.67 6.99 3.34 7.98 3 9 C2.01 8.67 1.02 8.34 0 8 C0 6.68 0 5.36 0 4 C-2.97 3.505 -2.97 3.505 -6 3 C-6 2.34 -6 1.68 -6 1 C-3.92446352 0.4465236 -2.15634036 0 0 0 Z " fill="#2F7A2B" transform="translate(14,56)"/>
<path d="M0 0 C1.65 0 3.3 0 5 0 C6.5111995 5.03733166 5.64599773 9.88171027 5 15 C4.67 15 4.34 15 4 15 C4 11.37 4 7.74 4 4 C2.68 3.67 1.36 3.34 0 3 C0 2.01 0 1.02 0 0 Z " fill="#6E881E" transform="translate(5,31)"/>
<path d="M0 0 C1.32 0 2.64 0 4 0 C4 2.64 4 5.28 4 8 C3.01 8 2.02 8 1 8 C0 7 0 7 -0.0625 3.4375 C-0.041875 2.303125 -0.02125 1.16875 0 0 Z " fill="#908F17" transform="translate(4,37)"/>
<path d="M0 0 C0.8971875 0.309375 0.8971875 0.309375 1.8125 0.625 C1.8125 1.285 1.8125 1.945 1.8125 2.625 C0.36727766 4.07022234 -1.35738391 4.73767099 -3.1875 5.625 C-4.1775 6.12 -4.1775 6.12 -5.1875 6.625 C-5.8475 6.295 -6.5075 5.965 -7.1875 5.625 C-7.1875 4.965 -7.1875 4.305 -7.1875 3.625 C-6.5275 3.625 -5.8675 3.625 -5.1875 3.625 C-5.1875 2.965 -5.1875 2.305 -5.1875 1.625 C-2.1875 -0.375 -2.1875 -0.375 0 0 Z " fill="#608521" transform="translate(23.1875,8.375)"/>
<path d="M0 0 C0.33 0 0.66 0 1 0 C1 1.65 1 3.3 1 5 C2.98 5.495 2.98 5.495 5 6 C4.34 6 3.68 6 3 6 C3 6.66 3 7.32 3 8 C3.66 8.33 4.32 8.66 5 9 C5.625 12.0625 5.625 12.0625 6 15 C5.34 15 4.68 15 4 15 C0.29642815 10.55571378 0.31177792 5.53674585 0 0 Z " fill="#26782D" transform="translate(3,47)"/>
<path d="M0 0 C4.85077588 1.11940982 7.777893 2.1334716 11 6 C10.67 6.66 10.34 7.32 10 8 C9.01 7.67 8.02 7.34 7 7 C7 6.34 7 5.68 7 5 C6.401875 4.855625 5.80375 4.71125 5.1875 4.5625 C3.43849596 4.1127561 1.71322977 3.57107659 0 3 C0 2.01 0 1.02 0 0 Z " fill="#E4A51F" transform="translate(54,13)"/>
<path d="M0 0 C0 0.66 0 1.32 0 2 C-2.64738916 3.4606285 -3.89448334 4 -7 4 C-7.66 5.32 -8.32 6.64 -9 8 C-9.66 7.67 -10.32 7.34 -11 7 C-9.21020584 1.63061752 -5.59163302 -0.63904377 0 0 Z " fill="#F0AC31" transform="translate(33,14)"/>
<path d="M0 0 C0.99 0.33 1.98 0.66 3 1 C4.1875 3.5625 4.1875 3.5625 5 6 C4.34 6 3.68 6 3 6 C2.34 6.66 1.68 7.32 1 8 C0.01 7.67 -0.98 7.34 -2 7 C-1.34 5.35 -0.68 3.7 0 2 C-0.66 1.67 -1.32 1.34 -2 1 C-1.34 0.67 -0.68 0.34 0 0 Z " fill="#658520" transform="translate(77,25)"/>
<path d="M0 0 C2.97 0.495 2.97 0.495 6 1 C6 3.64 6 6.28 6 9 C5.01 8.67 4.02 8.34 3 8 C3.33 7.34 3.66 6.68 4 6 C3.34 5.67 2.68 5.34 2 5 C2.66 5 3.32 5 4 5 C4 4.34 4 3.68 4 3 C3.01 3 2.02 3 1 3 C0.67 2.01 0.34 1.02 0 0 Z " fill="#307A2A" transform="translate(79,39)"/>
<path d="M0 0 C3.49027588 3.49027588 4.90534532 5.87026967 5.125 10.8125 C5.08375 11.534375 5.0425 12.25625 5 13 C4.67 11.68 4.34 10.36 4 9 C3.01 9 2.02 9 1 9 C0.67 6.03 0.34 3.06 0 0 Z " fill="#EFB625" transform="translate(59,36)"/>
<path d="M0 0 C2.64 0 5.28 0 8 0 C7.67 1.65 7.34 3.3 7 5 C4.0625 4.1875 4.0625 4.1875 1 3 C0.67 2.01 0.34 1.02 0 0 Z " fill="#548123" transform="translate(21,75)"/>
<path d="M0 0 C3.74525799 3.74525799 3.68909949 7.98270909 4 13 C3.67 12.34 3.34 11.68 3 11 C2.34 11 1.68 11 1 11 C-0.17571451 7.32589215 -0.07366746 3.83070817 0 0 Z " fill="#F8B237" transform="translate(14,42)"/>
<path d="M0 0 C0.33 0.66 0.66 1.32 1 2 C1.99 2 2.98 2 4 2 C4 4.31 4 6.62 4 9 C2.68 8.67 1.36 8.34 0 8 C0 5.36 0 2.72 0 0 Z " fill="#838C1A" transform="translate(79,40)"/>
<path d="M0 0 C0.33 1.32 0.66 2.64 1 4 C2.65 4.33 4.3 4.66 6 5 C6 7.97 6 10.94 6 14 C5.67 14 5.34 14 5 14 C5 11.69 5 9.38 5 7 C3.35 7 1.7 7 0 7 C0 4.69 0 2.38 0 0 Z " fill="#1A762F" transform="translate(3,30)"/>
<path d="M0 0 C1.8871875 0.0309375 1.8871875 0.0309375 3.8125 0.0625 C2.8125 1.5625 2.8125 1.5625 0.8125 3.0625 C-1.90596235 3.33595479 -4.44427199 3.19741285 -7.1875 3.0625 C-7.1875 2.4025 -7.1875 1.7425 -7.1875 1.0625 C-4.43671116 0.14557039 -2.82801087 -0.04636083 0 0 Z " fill="#E2AD2E" transform="translate(52.1875,67.9375)"/>
<path d="M0 0 C1.5 1.1875 1.5 1.1875 3 3 C3.1875 5.6875 3.1875 5.6875 3 8 C2.34 8 1.68 8 1 8 C1 6.68 1 5.36 1 4 C-0.65 4 -2.3 4 -4 4 C-4.33 3.34 -4.66 2.68 -5 2 C-3.35 1.34 -1.7 0.68 0 0 Z " fill="#397C29" transform="translate(8,44)"/>
<path d="M0 0 C1.32 0 2.64 0 4 0 C4 2.31 4 4.62 4 7 C2.68 6.67 1.36 6.34 0 6 C0 4.02 0 2.04 0 0 Z " fill="#0E7432" transform="translate(41,0)"/>
<path d="M0 0 C-1.55575978 0.84584998 -3.1199612 1.67618399 -4.6875 2.5 C-5.99267578 3.19609375 -5.99267578 3.19609375 -7.32421875 3.90625 C-10.11788829 5.04818792 -12.01629113 5.21504208 -15 5 C-14.42378906 4.71511719 -13.84757812 4.43023437 -13.25390625 4.13671875 C-11.81346797 3.41025854 -10.38246695 2.66456458 -8.96484375 1.89453125 C-8.29582031 1.53746094 -7.62679687 1.18039063 -6.9375 0.8125 C-6.26589844 0.44769531 -5.59429687 0.08289063 -4.90234375 -0.29296875 C-3 -1 -3 -1 0 0 Z " fill="#5E8322" transform="translate(64,67)"/>
<path d="M0 0 C2.64 0 5.28 0 8 0 C8.33 0.99 8.66 1.98 9 3 C7.02 2.34 5.04 1.68 3 1 C3 1.99 3 2.98 3 4 C1.68 3.67 0.36 3.34 -1 3 C-0.67 2.01 -0.34 1.02 0 0 Z " fill="#E8A417" transform="translate(42,11)"/>
<path d="M0 0 C0.99 0.33 1.98 0.66 3 1 C3 1.66 3 2.32 3 3 C4.65 3 6.3 3 8 3 C7.67 4.32 7.34 5.64 7 7 C7 6.01 7 5.02 7 4 C6.34 4 5.68 4 5 4 C4.67 4.99 4.34 5.98 4 7 C4 6.01 4 5.02 4 4 C3.01 4.33 2.02 4.66 1 5 C0.67 3.35 0.34 1.7 0 0 Z " fill="#958F16" transform="translate(22,71)"/>
<path d="M0 0 C3.25543229 0.34879632 4.01873107 1.02133261 6.25 3.5625 C6.8275 4.366875 7.405 5.17125 8 6 C6 7 6 7 3.4375 6.375 C1 5 1 5 0.1875 2.375 C0.125625 1.59125 0.06375 0.8075 0 0 Z " fill="#588323" transform="translate(7,19)"/>
<path d="M0 0 C0.66 0 1.32 0 2 0 C1.34 2.31 0.68 4.62 0 7 C-0.99 7 -1.98 7 -3 7 C-2.25 2.25 -2.25 2.25 0 0 Z " fill="#C3981E" transform="translate(36,21)"/>
<path d="M0 0 C0.66 0 1.32 0 2 0 C2.33 0.66 2.66 1.32 3 2 C3.99 1.67 4.98 1.34 6 1 C6 2.32 6 3.64 6 5 C4.02 5 2.04 5 0 5 C0 3.35 0 1.7 0 0 Z " fill="#7C8A1B" transform="translate(50,2)"/>
<path d="M0 0 C0.99 0.33 1.98 0.66 3 1 C2.34 1 1.68 1 1 1 C1 2.32 1 3.64 1 5 C-1.31 5.33 -3.62 5.66 -6 6 C-4.71034824 4.62437146 -3.37310707 3.29233607 -2 2 C-1.34 2 -0.68 2 0 2 C0 1.34 0 0.68 0 0 Z " fill="#D2A81C" transform="translate(65,76)"/>
<path d="M0 0 C2 3 2 3 2 5 C3.32 5.66 4.64 6.32 6 7 C5.34 7.66 4.68 8.32 4 9 C4 8.34 4 7.68 4 7 C2.35 6.67 0.7 6.34 -1 6 C-1.042721 4.33388095 -1.04063832 2.66617115 -1 1 C-0.67 0.67 -0.34 0.34 0 0 Z " fill="#5F8422" transform="translate(13,11)"/>
<path d="M0 0 C1.32 0 2.64 0 4 0 C4 1.32 4 2.64 4 4 C2.35 4.33 0.7 4.66 -1 5 C-1.33 4.34 -1.66 3.68 -2 3 C-1.34 2.01 -0.68 1.02 0 0 Z " fill="#638520" transform="translate(68,13)"/>
<path d="M0 0 C1.98 0.66 3.96 1.32 6 2 C6 3.32 6 4.64 6 6 C2.34683329 4.75023244 1.21934164 4.32901247 -1 1 C-0.67 0.67 -0.34 0.34 0 0 Z " fill="#3C7D28" transform="translate(61,10)"/>
<path d="M0 0 C1.32 0 2.64 0 4 0 C3.67 1.98 3.34 3.96 3 6 C2.01 5.67 1.02 5.34 0 5 C0 3.35 0 1.7 0 0 Z " fill="#6E871E" transform="translate(45,2)"/>
<path d="M0 0 C1.45903258 0.30921884 2.91720722 0.62248799 4.375 0.9375 C5.18710937 1.11152344 5.99921875 1.28554687 6.8359375 1.46484375 C9 2 9 2 11 3 C11 3.66 11 4.32 11 5 C7.30099992 4.11223998 3.65449539 3.05418136 0 2 C0 1.34 0 0.68 0 0 Z " fill="#F7C04D" transform="translate(30,66)"/>
<path d="M0 0 C0.66 0 1.32 0 2 0 C2 1.65 2 3.3 2 5 C1.34 5 0.68 5 0 5 C0 6.98 0 8.96 0 11 C-0.33 11 -0.66 11 -1 11 C-1.02688151 9.35425434 -1.04634123 7.70838587 -1.0625 6.0625 C-1.07410156 5.14597656 -1.08570313 4.22945312 -1.09765625 3.28515625 C-1 1 -1 1 0 0 Z " fill="#F2A11D" transform="translate(15,31)"/>
<path d="M0 0 C1.65 0 3.3 0 5 0 C2.03 3.96 2.03 3.96 -1 8 C-2 6 -2 6 -1.0625 2.875 C-0.5365625 1.451875 -0.5365625 1.451875 0 0 Z " fill="#D09C1A" transform="translate(10,10)"/>
<path d="M0 0 C0.99 0 1.98 0 3 0 C3 1.98 3 3.96 3 6 C2.01 6 1.02 6 0 6 C0 4.02 0 2.04 0 0 Z " fill="#6E871E" transform="translate(38,76)"/>
<path d="M0 0 C0.33 0.66 0.66 1.32 1 2 C0.06421005 4.35981813 -0.93347808 6.69631264 -2 9 C-3.35439668 6.29120665 -3.06501451 3.99066732 -3 1 C-2.01 0.67 -1.02 0.34 0 0 Z " fill="#548224" transform="translate(83,53)"/>
<path d="M0 0 C2.475 0.495 2.475 0.495 5 1 C5 1.99 5 2.98 5 4 C3.35 4 1.7 4 0 4 C0 2.68 0 1.36 0 0 Z " fill="#618521" transform="translate(75,56)"/>
<path d="M0 0 C0.33 0 0.66 0 1 0 C1 1.98 1 3.96 1 6 C-0.65 6.66 -2.3 7.32 -4 8 C-2.68 5.36 -1.36 2.72 0 0 Z " fill="#2F7A2B" transform="translate(30,36)"/>
<path d="M0 0 C0.33 0.99 0.66 1.98 1 3 C0.67 3.66 0.34 4.32 0 5 C-1.32 4.67 -2.64 4.34 -4 4 C-4 3.01 -4 2.02 -4 1 C-2 0 -2 0 0 0 Z " fill="#959016" transform="translate(30,4)"/>
<path d="M0 0 C2.64 0 5.28 0 8 0 C8.33 0.99 8.66 1.98 9 3 C4.545 2.01 4.545 2.01 0 1 C0 0.67 0 0.34 0 0 Z " fill="#B69B1B" transform="translate(54,0)"/>
<path d="M0 0 C3.55780196 0.60990891 6.6828589 1.5783681 10 3 C10 3.33 10 3.66 10 4 C8.72125 3.896875 7.4425 3.79375 6.125 3.6875 C5.04605469 3.60048828 5.04605469 3.60048828 3.9453125 3.51171875 C2 3 2 3 0 0 Z " fill="#F4AF2D" transform="translate(19,78)"/>
<path d="M0 0 C3.465 1.98 3.465 1.98 7 4 C6.34 4.66 5.68 5.32 5 6 C2.375 5.625 2.375 5.625 0 5 C0 3.35 0 1.7 0 0 Z " fill="#21782E" transform="translate(21,67)"/>
<path d="M0 0 C0.99 0.33 1.98 0.66 3 1 C3.33 2.65 3.66 4.3 4 6 C3.01 6 2.02 6 1 6 C0.34 4.35 -0.32 2.7 -1 1 C-0.67 0.67 -0.34 0.34 0 0 Z " fill="#9E9318" transform="translate(69,22)"/>
<path d="M0 0 C0.33 0.99 0.66 1.98 1 3 C2.65 3.33 4.3 3.66 6 4 C6 4.33 6 4.66 6 5 C3.69 5 1.38 5 -1 5 C-0.67 3.35 -0.34 1.7 0 0 Z " fill="#167530" transform="translate(7,21)"/>
</svg>
