<?xml version="1.0" encoding="UTF-8"?>
<svg version="1.1" xmlns="http://www.w3.org/2000/svg" width="185" height="176">
<path d="M0 0 C0.83015625 0.68835938 1.6603125 1.37671875 2.515625 2.0859375 C3.36640625 2.77429688 4.2171875 3.46265625 5.09375 4.171875 C21.42504126 18.04846297 31.44931132 37.69480944 34.265625 58.8359375 C34.37366017 60.25093478 34.45643941 61.6680567 34.515625 63.0859375 C34.55558594 63.90964844 34.59554687 64.73335938 34.63671875 65.58203125 C35.21100943 88.85769465 26.98427522 109.85640766 11.515625 127.0859375 C10.91363281 127.78203125 10.31164062 128.478125 9.69140625 129.1953125 C-0.08732227 139.80130872 -12.94774746 146.60331658 -26.484375 151.0859375 C-27.44730469 151.42496094 -28.41023438 151.76398438 -29.40234375 152.11328125 C-45.74714913 156.8998167 -65.52774088 155.69182733 -81.484375 150.0859375 C-82.55558594 149.71210938 -83.62679687 149.33828125 -84.73046875 148.953125 C-96.35563551 144.48076785 -105.53173156 137.62181995 -114.484375 129.0859375 C-115.08765625 128.56902344 -115.6909375 128.05210937 -116.3125 127.51953125 C-131.71258455 113.73861446 -138.29297545 92.19431218 -139.76953125 72.23046875 C-140.34854192 48.33998496 -131.59561534 26.6786712 -115.484375 9.0859375 C-85.39400407 -21.39458411 -34.31653619 -26.8162154 0 0 Z " fill="#F7F7FE" transform="translate(145.484375,20.9140625)"/>
<path d="M0 0 C0.83015625 0.68835938 1.6603125 1.37671875 2.515625 2.0859375 C3.36640625 2.77429688 4.2171875 3.46265625 5.09375 4.171875 C21.42504126 18.04846297 31.44931132 37.69480944 34.265625 58.8359375 C34.37366017 60.25093478 34.45643941 61.6680567 34.515625 63.0859375 C34.55558594 63.90964844 34.59554687 64.73335938 34.63671875 65.58203125 C35.21100943 88.85769465 26.98427522 109.85640766 11.515625 127.0859375 C10.91363281 127.78203125 10.31164062 128.478125 9.69140625 129.1953125 C-0.08732227 139.80130872 -12.94774746 146.60331658 -26.484375 151.0859375 C-27.44730469 151.42496094 -28.41023438 151.76398438 -29.40234375 152.11328125 C-45.74714913 156.8998167 -65.52774088 155.69182733 -81.484375 150.0859375 C-82.55558594 149.71210938 -83.62679687 149.33828125 -84.73046875 148.953125 C-96.35563551 144.48076785 -105.53173156 137.62181995 -114.484375 129.0859375 C-115.08765625 128.56902344 -115.6909375 128.05210937 -116.3125 127.51953125 C-131.71258455 113.73861446 -138.29297545 92.19431218 -139.76953125 72.23046875 C-140.34854192 48.33998496 -131.59561534 26.6786712 -115.484375 9.0859375 C-85.39400407 -21.39458411 -34.31653619 -26.8162154 0 0 Z M-98.484375 17.0859375 C-99.23460938 17.74207031 -99.98484375 18.39820312 -100.7578125 19.07421875 C-112.80293534 30.31770373 -120.7437021 46.10991801 -121.6875 62.64453125 C-121.93157426 82.84167626 -116.931698 100.28309873 -102.70849609 115.10864258 C-89.26021521 128.40108901 -72.43490026 136.27035161 -53.484375 136.4609375 C-33.77446606 136.28300224 -15.58733449 127.92405476 -1.77148438 113.984375 C11.772235 99.53299507 16.04219427 81.97656564 15.796875 62.69921875 C15.29734334 47.78570101 8.86665304 35.38145501 -0.484375 24.0859375 C-1.226875 23.0753125 -1.969375 22.0646875 -2.734375 21.0234375 C-13.28140656 8.62122775 -30.70188711 1.56819906 -46.60009766 -0.14160156 C-65.78674365 -1.54517953 -83.98491164 4.30004708 -98.484375 17.0859375 Z " fill="#1010FB" transform="translate(145.484375,20.9140625)"/>
<path d="M0 0 C5.99932374 1.8331267 11.44920563 4.07321751 17 7 C16.68289062 8.11375 16.36578125 9.2275 16.0390625 10.375 C12.69593528 23.89002229 13.85595761 36.74229314 20.859375 48.75 C28.84728778 60.877634 38.98014569 65.88447682 53 69 C52.67 75.27 52.34 81.54 52 88 C42.5 87.25 42.5 87.25 38 85 C38.66 82.03 39.32 79.06 40 76 C38.88625 75.814375 38.88625 75.814375 37.75 75.625 C35.19858515 75.04513299 33.2732427 74.26291261 31 73 C30.7525 73.78375 30.505 74.5675 30.25 75.375 C29 78 29 78 25 80 C20.545 76.535 20.545 76.535 16 73 C16.66 71.35 17.32 69.7 18 68 C18.89582173 66.00339546 18.89582173 66.00339546 19 64 C17.6483633 61.75244247 17.6483633 61.75244247 16 60 C12.63672037 60.56054661 10.00887781 61.41841038 7 63 C6.01364163 61.58833114 5.03618745 60.17043816 4.0625 58.75 C3.51722656 57.96109375 2.97195312 57.1721875 2.41015625 56.359375 C1.10377559 54.17363007 0.45019489 52.4846199 0 50 C1.98 49.01 3.96 48.02 6 47 C5.67 44.36 5.34 41.72 5 39 C2.03 39 -0.94 39 -4 39 C-5.21379503 34.29654425 -5.07202527 29.82569313 -5 25 C-2.03 24.67 0.94 24.34 4 24 C4 21.03 4 18.06 4 15 C3.05125 14.855625 2.1025 14.71125 1.125 14.5625 C-2 14 -2 14 -4 13 C-3.50269348 8.02693484 -2.44697666 4.36200187 0 0 Z " fill="#0707FD" transform="translate(35,64)"/>
<path d="M0 0 C2.14576637 -0.02685938 4.29162645 -0.04633088 6.4375 -0.0625 C7.63246094 -0.07410156 8.82742187 -0.08570312 10.05859375 -0.09765625 C13 0 13 0 14 1 C14.07179964 2.51928038 14.08392007 4.04167482 14.0625 5.5625 C14.05347656 6.38878906 14.04445312 7.21507812 14.03515625 8.06640625 C14.02355469 8.70449219 14.01195312 9.34257813 14 10 C16.64 10 19.28 10 22 10 C22.99 8.02 23.98 6.04 25 4 C29.97306516 4.49730652 33.63799813 5.55302334 38 8 C37.39009109 11.55780196 36.4216319 14.6828589 35 18 C36.175625 18.4640625 36.175625 18.4640625 37.375 18.9375 C40 20 40 20 42 21 C44.31 19.35 46.62 17.7 49 16 C50.15498897 17.07356677 51.29867867 18.15929788 52.4375 19.25 C53.07558594 19.85328125 53.71367187 20.4565625 54.37109375 21.078125 C56 23 56 23 57 27 C52.71 30.3 48.42 33.6 44 37 C40.46710547 35.23355274 39.39771827 34.52236174 37 31.75 C28.6447837 23.16169826 17.29940255 20.06630746 5.6875 19.625 C-6.04145457 19.85739187 -16.5237172 24.31904912 -24.73046875 32.78515625 C-25.87728939 34.14399416 -26.95001444 35.56501973 -28 37 C-32.18358477 36.44151174 -35.02629569 33.95553698 -38.25 31.4375 C-38.80429687 31.01275391 -39.35859375 30.58800781 -39.9296875 30.15039062 C-41.29089411 29.10601659 -42.64605833 28.05377536 -44 27 C-42.17495091 23.07699728 -39.81729174 20.26212728 -37 17 C-33.51460083 17.64544429 -30.97180943 19.10134397 -28 21 C-27.38125 20.505 -26.7625 20.01 -26.125 19.5 C-24 18 -24 18 -22 18 C-22.495 16.906875 -22.99 15.81375 -23.5 14.6875 C-25 11 -25 11 -25 8 C-23.21046815 7.16209211 -21.41830305 6.32980604 -19.625 5.5 C-18.12839844 4.80390625 -18.12839844 4.80390625 -16.6015625 4.09375 C-14 3 -14 3 -12 3 C-11.01 5.31 -10.02 7.62 -9 10 C-6.03 10 -3.06 10 0 10 C0 6.7 0 3.4 0 0 Z " fill="#0606FD" transform="translate(86,26)"/>
<path d="M0 0 C0.53394179 1.4117783 1.05165104 2.82970244 1.5625 4.25 C1.85253906 5.03890625 2.14257812 5.8278125 2.44140625 6.640625 C3.05654389 9.23882872 3.06999579 10.5604096 2 13 C-1.0625 14.25 -1.0625 14.25 -4 15 C-4 17.97 -4 20.94 -4 24 C-1.03 24.33 1.94 24.66 5 25 C5.07654536 29.51617599 5.10228696 33.59085217 4 38 C0.7 38 -2.6 38 -6 38 C-6.33 40.64 -6.66 43.28 -7 46 C-5.02 47.32 -3.04 48.64 -1 50 C-1.63065757 53.21852831 -2.78020695 55.50801069 -4.5625 58.25 C-5.01753906 58.95640625 -5.47257812 59.6628125 -5.94140625 60.390625 C-6.29074219 60.92171875 -6.64007813 61.4528125 -7 62 C-10.40312738 60.94124926 -13.01353231 59.99097846 -16 58 C-16.28875 58.598125 -16.5775 59.19625 -16.875 59.8125 C-18 62 -18 62 -20 65 C-18.02 68.465 -18.02 68.465 -16 72 C-17.07869393 72.96355244 -18.16318743 73.92061417 -19.25 74.875 C-19.85328125 75.40867187 -20.4565625 75.94234375 -21.078125 76.4921875 C-22.97418746 77.9797487 -24.81290005 79.00322436 -27 80 C-28.65 78.02 -30.3 76.04 -32 74 C-35.465 74.99 -35.465 74.99 -39 76 C-39 78.97 -39 81.94 -39 85 C-43.33420699 87.03165952 -47.28596212 87.52060632 -52 88 C-53.00926479 83.84373632 -53.10239579 79.95634906 -53.0625 75.6875 C-53.05347656 74.43324219 -53.04445313 73.17898437 -53.03515625 71.88671875 C-53.01775391 70.45779297 -53.01775391 70.45779297 -53 69 C-52.03320312 68.72027344 -51.06640625 68.44054687 -50.0703125 68.15234375 C-37.68597405 64.40898295 -28.03987763 59.33903955 -21 48 C-16.92330628 40.19604345 -14.82063082 33.99318116 -14.8125 25.1875 C-14.79413086 24.15786133 -14.79413086 24.15786133 -14.77539062 23.10742188 C-14.76203554 18.40197928 -15.61705062 14.53148237 -17 10 C-17 8.68 -17 7.36 -17 6 C-14.921188 4.99063464 -12.8367638 3.99282154 -10.75 3 C-9.58984375 2.443125 -8.4296875 1.88625 -7.234375 1.3125 C-4 0 -4 0 0 0 Z " fill="#0505FD" transform="translate(151,64)"/>
<path d="M0 0 C2.52454245 0.93350035 4.46104981 2.18887144 6.67089844 3.72680664 C7.51523438 4.31010742 8.35957031 4.8934082 9.22949219 5.49438477 C10.53853516 6.411875 10.53853516 6.411875 11.87402344 7.34790039 C12.7621875 7.96342773 13.65035156 8.57895508 14.56542969 9.21313477 C16.75536704 10.73196228 18.94133293 12.25618535 21.12402344 13.78540039 C27.8451795 10.24093814 33.46212879 6.30616556 39.32714844 1.48071289 C42.12402344 -0.21459961 42.12402344 -0.21459961 44.77636719 -0.16381836 C48.53415265 1.35555247 50.40620249 3.81475889 53.12402344 6.78540039 C52.01835281 10.10241228 51.54828183 10.45997251 48.77246094 12.30883789 C48.08539063 12.77290039 47.39832031 13.23696289 46.69042969 13.71508789 C45.96726563 14.19204102 45.24410156 14.66899414 44.49902344 15.16040039 C43.08975878 16.10510082 41.68090154 17.05040932 40.27246094 17.99633789 C39.33152588 18.61968018 39.33152588 18.61968018 38.37158203 19.25561523 C37.6298877 19.76044434 36.88819336 20.26527344 36.12402344 20.78540039 C35.53469528 21.09291733 34.94536713 21.40043427 34.33818054 21.7172699 C31.42615066 23.40394561 29.47729679 24.61709061 28.47570801 27.92944336 C28.2166874 30.60780411 28.18073032 33.20810145 28.22167969 35.89868164 C28.20938828 36.86823288 28.19709686 37.83778412 28.18443298 38.8367157 C28.15271352 41.92454823 28.16897715 45.00999341 28.18652344 48.09790039 C28.17341398 50.19492779 28.15717391 52.29193811 28.13769531 54.38891602 C28.09684903 59.52158664 28.09902266 64.65264515 28.12402344 69.78540039 C23.83402344 69.78540039 19.54402344 69.78540039 15.12402344 69.78540039 C15.18799316 68.52058838 15.25196289 67.25577637 15.31787109 65.95263672 C17.84481523 41.70208236 17.84481523 41.70208236 10.26074219 20.10961914 C6.60062986 17.19604207 2.67424457 15.22569274 -1.70947266 13.62524414 C-4.78635223 12.43249389 -7.21136134 10.71391028 -9.87597656 8.78540039 C-7.87345451 4.99114808 -4.93664262 -0.56472005 0 0 Z " fill="#0505FD" transform="translate(70.8759765625,58.214599609375)"/>
<path d="M0 0 C1.80010472 3.82522253 2.64870877 6.78066735 2 11 C-0.80859375 12.640625 -0.80859375 12.640625 -4.4375 14.25 C-7.26923401 15.78275641 -9.24198958 17.27568362 -11 20 C-12.13155523 25.55387711 -11.93933409 31.13560979 -11.60131836 36.77050781 C-11.24216146 45.15934345 -11.24216146 45.15934345 -13.72021484 47.90820312 C-16.44346688 49.65373587 -18.72166221 51 -22 51 C-24.38160594 18.76404754 -24.38160594 18.76404754 -20.60839844 11.21630859 C-17.33441813 7.49046489 -13.43194271 5.37153528 -8.81103516 3.68261719 C-5.67980813 2.50239196 -3.38414575 0 0 0 Z " fill="#0707FD" transform="translate(129,74)"/>
<path d="M0 0 C4.93514922 1.59722853 8.65723932 4.48307216 12.75 7.5625 C13.43449219 8.06974609 14.11898437 8.57699219 14.82421875 9.09960938 C19.79774976 12.79774976 19.79774976 12.79774976 21 14 C21.08858646 16.73894085 21.11523479 19.4525327 21.09765625 22.19140625 C21.0962413 23.01124496 21.09482635 23.83108368 21.09336853 24.67576599 C21.08775289 27.30471382 21.07519779 29.93357773 21.0625 32.5625 C21.05748701 34.34049357 21.05292376 36.11848846 21.04882812 37.89648438 C21.03777839 42.26435545 21.02050331 46.63216348 21 51 C13.68309191 48.83818625 13.68309191 48.83818625 11 46 C10.66040039 43.41552734 10.66040039 43.41552734 10.84765625 40.3359375 C11.82592849 28.71297721 11.82592849 28.71297721 8.69433594 17.8984375 C5.3167566 14.56712638 1.40439829 12.65394651 -3 11 C-2.25 3.375 -2.25 3.375 0 0 Z " fill="#0707FD" transform="translate(57,74)"/>
<path d="M0 0 C2.375 1.5625 2.375 1.5625 4 4 C4.80756449 8.01310109 4.66268536 10.96621084 2.4375 14.4375 C-0.83565762 16.53567796 -3.11417724 17 -7 17 C-9.80189446 15.23358828 -11.51524911 13.96950178 -13 11 C-13.42576871 7.16808162 -13.30321315 5.47050317 -11.1875 2.1875 C-7.53637316 -1.46362684 -4.79503135 -1.27215117 0 0 Z " fill="#0808FD" transform="translate(97,51)"/>
<path d="M0 0 C2.91517292 1.07401108 4.77810176 1.77810176 7 4 C6.8125 6.5 6.8125 6.5 6 9 C3 11 3 11 0.4375 10.6875 C-2 10 -2 10 -4 9 C-2.94124926 5.59687262 -1.99097846 2.98646769 0 0 Z " fill="#D6D6FB" transform="translate(126,15)"/>
<path d="M0 0 C0.66 0 1.32 0 2 0 C5 5.75 5 5.75 5 8 C2.03 7.505 2.03 7.505 -1 7 C-0.67 7.99 -0.34 8.98 0 10 C-4.625 12.125 -4.625 12.125 -8 11 C-8.33 12.32 -8.66 13.64 -9 15 C-9.66 12.03 -10.32 9.06 -11 6 C-7.17902761 6.53069061 -4.93828597 7.49701566 -2 10 C-2.99 7.69 -3.98 5.38 -5 3 C-3 3 -1 3 1 3 C0.67 2.01 0.34 1.02 0 0 Z " fill="#D2D2FA" transform="translate(60,15)"/>
<path d="M0 0 C2.97 0 5.94 0 9 0 C8.67 0.99 8.34 1.98 8 3 C7.01 3 6.02 3 5 3 C5.2475 4.0725 5.495 5.145 5.75 6.25 C6 10 6 10 4.3125 12.5 C2 14 2 14 -0.125 13.875 C-2 13 -2 13 -4 11 C-3.625 8.375 -3.625 8.375 -3 6 C-2.34 6 -1.68 6 -1 6 C-1 7.32 -1 8.64 -1 10 C0.32 10 1.64 10 3 10 C2.39009109 6.44219804 1.4216319 3.3171411 0 0 Z " fill="#9E9DF9" transform="translate(20,53)"/>
<path d="M0 0 C2.5 0.25 2.5 0.25 4.5 2.25 C4.125 5.375 4.125 5.375 3.5 8.25 C0.625 8.875 0.625 8.875 -2.5 9.25 C-4.5 7.25 -4.5 7.25 -4.75 4.75 C-4.40058445 1.25584452 -3.49415548 0.34941555 0 0 Z " fill="#D1D1FB" transform="translate(35.5,33.75)"/>
<path d="M0 0 C0.66 0 1.32 0 2 0 C2.33 0.66 2.66 1.32 3 2 C3.33 1.34 3.66 0.68 4 0 C4.66 0 5.32 0 6 0 C5.773125 0.598125 5.54625 1.19625 5.3125 1.8125 C5.209375 2.534375 5.10625 3.25625 5 4 C6.35444301 5.77190909 6.35444301 5.77190909 8 7 C8 4.69 8 2.38 8 0 C8.99 0 9.98 0 11 0 C11 2.97 11 5.94 11 9 C8.125 9.125 8.125 9.125 5 9 C4.34 8.34 3.68 7.68 3 7 C2.01 7.33 1.02 7.66 0 8 C0 5.36 0 2.72 0 0 Z " fill="#E3E2FC" transform="translate(87,9)"/>
<path d="M0 0 C2.5 0.25 2.5 0.25 4.5 2.25 C4.17028521 5.54714793 3.8773161 6.8726839 1.5 9.25 C-1.125 8.875 -1.125 8.875 -3.5 8.25 C-4.125 5.375 -4.125 5.375 -4.5 2.25 C-2.5 0.25 -2.5 0.25 0 0 Z " fill="#CBCBFA" transform="translate(154.5,128.75)"/>
<path d="M0 0 C-0.66 1.65 -1.32 3.3 -2 5 C-0.68 5.33 0.64 5.66 2 6 C2.9765625 12.0546875 2.9765625 12.0546875 3 14 C2.34 14.66 1.68 15.32 1 16 C-1.625 15.625 -1.625 15.625 -4 15 C-4.33 13.68 -4.66 12.36 -5 11 C-4.34 11.66 -3.68 12.32 -3 13 C-0.89179203 12.6814823 -0.89179203 12.6814823 1 12 C0.67 10.35 0.34 8.7 0 7 C-2.31 7 -4.62 7 -7 7 C-7 5.68 -7 4.36 -7 3 C-2.92857143 0 -2.92857143 0 0 0 Z " fill="#C2C2F9" transform="translate(22,104)"/>
<path d="M0 0 C3.0625 0.1875 3.0625 0.1875 5.0625 2.1875 C4.50694444 6.74305556 4.50694444 6.74305556 3.0625 8.1875 C0.625 8.375 0.625 8.375 -1.9375 8.1875 C-3.9375 6.1875 -3.9375 6.1875 -4.125 3.625 C-3.8509967 0.06295712 -3.62735131 0.23153306 0 0 Z " fill="#C9C9FA" transform="translate(155.9375,42.8125)"/>
<path d="M0 0 C0.33 1.65 0.66 3.3 1 5 C-2.625 8 -2.625 8 -6 8 C-6.66 5.36 -7.32 2.72 -8 0 C-4.71023192 -1.09658936 -3.28696233 -0.79953138 0 0 Z " fill="#8484FB" transform="translate(72,14)"/>
<path d="M0 0 C0 0.66 0 1.32 0 2 C-0.66 2 -1.32 2 -2 2 C-2 2.66 -2 3.32 -2 4 C-0.68 4.33 0.64 4.66 2 5 C2 5.66 2 6.32 2 7 C-0.64 7.99 -3.28 8.98 -6 10 C-6.38133299 8.0085944 -6.71325582 6.00720923 -7 4 C-6.67 3.67 -6.34 3.34 -6 3 C-6.99 2.34 -7.98 1.68 -9 1 C-2.25 -1.125 -2.25 -1.125 0 0 Z " fill="#C2C2F8" transform="translate(168,59)"/>
<path d="M0 0 C3.26954202 0.56371414 4.82575883 1.49962266 7 4 C6.34 5.32 5.68 6.64 5 8 C3.68 7.67 2.36 7.34 1 7 C1 6.34 1 5.68 1 5 C-0.32 5 -1.64 5 -3 5 C-2.67 4.01 -2.34 3.02 -2 2 C-1.34 2 -0.68 2 0 2 C0 1.34 0 0.68 0 0 Z " fill="#A5A6F8" transform="translate(146,136)"/>
<path d="M0 0 C3.40312738 1.05875074 6.01353231 2.00902154 9 4 C9 4.99 9 5.98 9 7 C5.7 7.66 2.4 8.32 -1 9 C-1 8.01 -1 7.02 -1 6 C-0.01 6 0.98 6 2 6 C2 4.68 2 3.36 2 2 C1.34 2 0.68 2 0 2 C0 1.34 0 0.68 0 0 Z " fill="#F0F0FD" transform="translate(165,95)"/>
<path d="M0 0 C2.9375 0.8125 2.9375 0.8125 6 2 C6.33 2.99 6.66 3.98 7 5 C6.01 5 5.02 5 4 5 C3.67 5.66 3.34 6.32 3 7 C3.66 7 4.32 7 5 7 C4.67 7.99 4.34 8.98 4 10 C0.535 8.02 0.535 8.02 -3 6 C-3 5.34 -3 4.68 -3 4 C-0.525 4.495 -0.525 4.495 2 5 C1.01 3.68 0.02 2.36 -1 1 C-0.67 0.67 -0.34 0.34 0 0 Z " fill="#DBDBFB" transform="translate(158,120)"/>
<path d="M0 0 C2.64 0 5.28 0 8 0 C7.67 1.32 7.34 2.64 7 4 C7.66 4.33 8.32 4.66 9 5 C9 5.66 9 6.32 9 7 C6.36 7 3.72 7 1 7 C1.66 5.68 2.32 4.36 3 3 C2.01 2.67 1.02 2.34 0 2 C0 1.34 0 0.68 0 0 Z " fill="#CACAFA" transform="translate(164,76)"/>
<path d="M0 0 C0.66 0 1.32 0 2 0 C2 0.99 2 1.98 2 3 C2.66 3 3.32 3 4 3 C4 2.34 4 1.68 4 1 C4.66 1 5.32 1 6 1 C6 1.66 6 2.32 6 3 C6.99 3 7.98 3 9 3 C9.33 2.01 9.66 1.02 10 0 C10 1.98 10 3.96 10 6 C6.7 6 3.4 6 0 6 C0 4.02 0 2.04 0 0 Z " fill="#CCCCFB" transform="translate(10,87)"/>
<path d="M0 0 C1.32 0 2.64 0 4 0 C4 0.66 4 1.32 4 2 C3.01 2.495 3.01 2.495 2 3 C3.32 3.66 4.64 4.32 6 5 C5.67 6.65 5.34 8.3 5 10 C3.35 10 1.7 10 0 10 C0.99 9.67 1.98 9.34 3 9 C1.35 7.35 -0.3 5.7 -2 4 C-1.34 2.68 -0.68 1.36 0 0 Z " fill="#DCDCFB" transform="translate(79,8)"/>
<path d="M0 0 C1.65 0.33 3.3 0.66 5 1 C5.1875 3.875 5.1875 3.875 5 7 C4.01 7.66 3.02 8.32 2 9 C1.01 8.67 0.02 8.34 -1 8 C-0.34 7.67 0.32 7.34 1 7 C0.34 6.34 -0.32 5.68 -1 5 C-0.625 2.375 -0.625 2.375 0 0 Z " fill="#BEBEFA" transform="translate(87,161)"/>
<path d="M0 0 C-0.66 1.65 -1.32 3.3 -2 5 C-0.35 4.67 1.3 4.34 3 4 C1.86280581 7.41158256 0.95657056 8.11854601 -2 10 C-2.66 10 -3.32 10 -4 10 C-3.67 8.68 -3.34 7.36 -3 6 C-4.32 6 -5.64 6 -7 6 C-5.52522876 2.59668175 -4.14385429 0 0 0 Z " fill="#D8D8FB" transform="translate(35,131)"/>
<path d="M0 0 C2.31 0.66 4.62 1.32 7 2 C7 2.66 7 3.32 7 4 C4.69 3.67 2.38 3.34 0 3 C0 3.66 0 4.32 0 5 C2.97 5.495 2.97 5.495 6 6 C6 6.99 6 7.98 6 9 C3.36 8.34 0.72 7.68 -2 7 C-2.125 4.625 -2.125 4.625 -2 2 C-1.34 1.34 -0.68 0.68 0 0 Z " fill="#D9D9FA" transform="translate(164,105)"/>
<path d="M0 0 C2.0625 0.4375 2.0625 0.4375 4 1 C4.6875 3.3125 4.6875 3.3125 5 6 C3.5625 7.8125 3.5625 7.8125 2 9 C1.34 8.67 0.68 8.34 0 8 C0.33 7.67 0.66 7.34 1 7 C0.01 6.34 -0.98 5.68 -2 5 C-1.125 1.125 -1.125 1.125 0 0 Z " fill="#C1C1FB" transform="translate(96,161)"/>
<path d="M0 0 C0.99 0 1.98 0 3 0 C3 1.65 3 3.3 3 5 C3.66 5 4.32 5 5 5 C4.67 6.32 4.34 7.64 4 9 C1.03 8.505 1.03 8.505 -2 8 C-1.125 2.25 -1.125 2.25 0 0 Z " fill="#B7B7FA" transform="translate(105,160)"/>
<path d="M0 0 C4.875 4.75 4.875 4.75 6 7 C4.02 7.33 2.04 7.66 0 8 C0 8.99 0 9.98 0 11 C-4 6.25 -4 6.25 -4 4 C-2.68 3.67 -1.36 3.34 0 3 C0 2.01 0 1.02 0 0 Z " fill="#D2D2FA" transform="translate(42,26)"/>
<path d="M0 0 C2.4375 0.75 2.4375 0.75 5 2 C5.8125 4.125 5.8125 4.125 6 6 C5.01 6.495 5.01 6.495 4 7 C4 5.68 4 4.36 4 3 C3.01 3 2.02 3 1 3 C0.34 5.31 -0.32 7.62 -1 10 C-1.99 9.67 -2.98 9.34 -4 9 C-2.94124926 5.59687262 -1.99097846 2.98646769 0 0 Z " fill="#E8E8FC" transform="translate(126,15)"/>
<path d="M0 0 C0 1.65 0 3.3 0 5 C0.99 4.67 1.98 4.34 3 4 C3 4.66 3 5.32 3 6 C-1.38461538 9 -1.38461538 9 -4 9 C-3.67 7.02 -3.34 5.04 -3 3 C-4.32 3.33 -5.64 3.66 -7 4 C-3.17391304 0 -3.17391304 0 0 0 Z " fill="#DEDEFB" transform="translate(29,124)"/>
<path d="M0 0 C0.66 0.33 1.32 0.66 2 1 C1.67 1.7425 1.34 2.485 1 3.25 C-0.22782871 6.13883312 -0.22782871 6.13883312 0 10 C-2.375 9.6875 -2.375 9.6875 -5 9 C-5.66 8.01 -6.32 7.02 -7 6 C-5.68 6 -4.36 6 -3 6 C-2.690625 5.195625 -2.38125 4.39125 -2.0625 3.5625 C-1 1 -1 1 0 0 Z " fill="#E2E2FC" transform="translate(52,148)"/>
<path d="M0 0 C2.0625 0.4375 2.0625 0.4375 4 1 C4 3.31 4 5.62 4 8 C1.36 7.67 -1.28 7.34 -4 7 C-4 6.34 -4 5.68 -4 5 C-1.69 5 0.62 5 3 5 C2.04134491 2.66924071 2.04134491 2.66924071 -1 1 C-0.67 0.67 -0.34 0.34 0 0 Z " fill="#DEDEFB" transform="translate(16,77)"/>
<path d="M0 0 C0.66 0 1.32 0 2 0 C2 1.32 2 2.64 2 4 C3.32 4 4.64 4 6 4 C6.66 3.34 7.32 2.68 8 2 C7.67 3.65 7.34 5.3 7 7 C4.6875 7.6875 4.6875 7.6875 2 8 C0.125 6.875 0.125 6.875 -1 5 C-0.6875 2.3125 -0.6875 2.3125 0 0 Z " fill="#C9C9FA" transform="translate(17,59)"/>
<path d="M0 0 C0.33 1.65 0.66 3.3 1 5 C-0.32 5.33 -1.64 5.66 -3 6 C-3 5.34 -3 4.68 -3 4 C-4.32 4.33 -5.64 4.66 -7 5 C-7.33 4.34 -7.66 3.68 -8 3 C-2.25 0 -2.25 0 0 0 Z " fill="#D4D4FB" transform="translate(164,51)"/>
<path d="M0 0 C0.99 0 1.98 0 3 0 C3 2.97 3 5.94 3 9 C1.02 9 -0.96 9 -3 9 C-2.34 8.34 -1.68 7.68 -1 7 C-0.59952556 4.67724823 -0.2602896 2.34260643 0 0 Z " fill="#A6A6F9" transform="translate(95,9)"/>
<path d="M0 0 C1.65 0 3.3 0 5 0 C4.01 0.495 4.01 0.495 3 1 C3.66 1.99 4.32 2.98 5 4 C4.625 6.1875 4.625 6.1875 4 8 C2.35 7.67 0.7 7.34 -1 7 C-0.67 6.34 -0.34 5.68 0 5 C0.66 5.33 1.32 5.66 2 6 C1.34 5.01 0.68 4.02 0 3 C0 2.01 0 1.02 0 0 Z " fill="#D0D0FA" transform="translate(113,13)"/>
<path d="M0 0 C1.32 0.66 2.64 1.32 4 2 C2.79618552 4.49361571 1.54571278 6.68143083 0 9 C-1.32 8.34 -2.64 7.68 -4 7 C-3.34 6.01 -2.68 5.02 -2 4 C-1.01 4 -0.02 4 1 4 C0.67 2.68 0.34 1.36 0 0 Z " fill="#D5D6FB" transform="translate(45,143)"/>
<path d="M0 0 C1.32 0.33 2.64 0.66 4 1 C3.67 1.66 3.34 2.32 3 3 C2.34 2.67 1.68 2.34 1 2 C1.33 2.99 1.66 3.98 2 5 C1.01 5 0.02 5 -1 5 C-1 5.66 -1 6.32 -1 7 C-0.34 7 0.32 7 1 7 C1 7.66 1 8.32 1 9 C-1.475 8.01 -1.475 8.01 -4 7 C-2.79618552 4.50638429 -1.54571278 2.31856917 0 0 Z " fill="#D1D1F9" transform="translate(135,22)"/>
<path d="M0 0 C0.33 1.32 0.66 2.64 1 4 C0.34 4 -0.32 4 -1 4 C-1 3.34 -1 2.68 -1 2 C-1.66 2 -2.32 2 -3 2 C-3.33 2.66 -3.66 3.32 -4 4 C-4.66 3.67 -5.32 3.34 -6 3 C-6.33 3.99 -6.66 4.98 -7 6 C-7.33 4.35 -7.66 2.7 -8 1 C-5.07175348 0.02391783 -3.04386724 -0.08226668 0 0 Z " fill="#DADBFC" transform="translate(171,69)"/>
<path d="M0 0 C0.99 0.33 1.98 0.66 3 1 C2 3 2 3 0 6 C-0.66 5.67 -1.32 5.34 -2 5 C-1.67 6.32 -1.34 7.64 -1 9 C-2.32 7.68 -3.64 6.36 -5 5 C-3.35 3.35 -1.7 1.7 0 0 Z " fill="#DBDBFA" transform="translate(147,31)"/>
<path d="M0 0 C2.43929746 1.92576115 4.80090595 3.80090595 7 6 C6.01 6.33 5.02 6.66 4 7 C3.34 6.67 2.68 6.34 2 6 C2.33 6.99 2.66 7.98 3 9 C2.34 9 1.68 9 1 9 C0.63877119 7.68942607 0.28619689 6.37646376 -0.0625 5.0625 C-0.35833984 3.96615234 -0.35833984 3.96615234 -0.66015625 2.84765625 C-0.77230469 2.23792969 -0.88445312 1.62820312 -1 1 C-0.67 0.67 -0.34 0.34 0 0 Z " fill="#DADAFB" transform="translate(132,148)"/>
<path d="M0 0 C0.99 0.33 1.98 0.66 3 1 C2.6875 3.375 2.6875 3.375 2 6 C-1 8 -1 8 -4 8 C-4 6.35 -4 4.7 -4 3 C-3.01 3.495 -3.01 3.495 -2 4 C-2 4.66 -2 5.32 -2 6 C-1.34 5.67 -0.68 5.34 0 5 C0 3.35 0 1.7 0 0 Z " fill="#DADBFB" transform="translate(70,14)"/>
<path d="M0 0 C4.75 0.875 4.75 0.875 7 2 C7.33 1.34 7.66 0.68 8 0 C7.67 1.98 7.34 3.96 7 6 C6.34 6 5.68 6 5 6 C4.67 5.34 4.34 4.68 4 4 C2.35636866 3.27840576 0.68949614 2.60648579 -1 2 C-0.67 1.34 -0.34 0.68 0 0 Z " fill="#D7D7FB" transform="translate(160,115)"/>
<path d="M0 0 C0.66 0 1.32 0 2 0 C2 1.65 2 3.3 2 5 C-0.64 5.33 -3.28 5.66 -6 6 C-6 5.01 -6 4.02 -6 3 C-4.02 3 -2.04 3 0 3 C0 2.01 0 1.02 0 0 Z " fill="#D0D0FA" transform="translate(19,98)"/>
<path d="M0 0 C1.32 0.66 2.64 1.32 4 2 C3.125 6.875 3.125 6.875 2 8 C0.33382885 8.04063832 -1.33388095 8.042721 -3 8 C-3 7.01 -3 6.02 -3 5 C-1.68 5 -0.36 5 1 5 C0.67 3.35 0.34 1.7 0 0 Z " fill="#E6E7FC" transform="translate(39,138)"/>
<path d="M0 0 C0.66 0.33 1.32 0.66 2 1 C2.125 3.375 2.125 3.375 2 6 C1.34 6.66 0.68 7.32 0 8 C-2.625 7.625 -2.625 7.625 -5 7 C-5.33 5.68 -5.66 4.36 -6 3 C-5.34 3.66 -4.68 4.32 -4 5 C-1.89179203 4.6814823 -1.89179203 4.6814823 0 4 C0 2.68 0 1.36 0 0 Z " fill="#E4E4FC" transform="translate(23,112)"/>
<path d="M0 0 C1.9375 0.8125 1.9375 0.8125 4 2 C4.33 2.99 4.66 3.98 5 5 C2.69 5 0.38 5 -2 5 C-1.125 1.125 -1.125 1.125 0 0 Z " fill="#6868FA" transform="translate(14,77)"/>
<path d="M0 0 C2.04119788 1.61594832 4.04072937 3.2856382 6 5 C6 5.66 6 6.32 6 7 C2.5625 6.1875 2.5625 6.1875 -1 5 C-1.33 4.01 -1.66 3.02 -2 2 C-1.34 1.34 -0.68 0.68 0 0 Z " fill="#E0E0FC" transform="translate(25,45)"/>
<path d="M0 0 C3 1 3 1 4 3 C4.99 3.33 5.98 3.66 7 4 C7 4.66 7 5.32 7 6 C5.35 6.66 3.7 7.32 2 8 C1.33333333 5.33333333 0.66666667 2.66666667 0 0 Z " fill="#E3E3FC" transform="translate(137,145)"/>
<path d="M0 0 C2.62187494 1.04874998 3.79371361 1.64931313 5.25 4.125 C5.4975 4.74375 5.745 5.3625 6 6 C5.34 6.66 4.68 7.32 4 8 C3.01 8 2.02 8 1 8 C1 7.34 1 6.68 1 6 C1.66 5.67 2.32 5.34 3 5 C2.2575 4.319375 2.2575 4.319375 1.5 3.625 C0 2 0 2 0 0 Z " fill="#EBEBFD" transform="translate(147,136)"/>
<path d="M0 0 C3.36720387 1.39332574 4.9859524 2.9789286 7 6 C5.68 6 4.36 6 3 6 C0 2.78571429 0 2.78571429 0 0 Z " fill="#CECEFA" transform="translate(141,141)"/>
<path d="M0 0 C0.78375 0.04125 1.5675 0.0825 2.375 0.125 C2.705 1.445 3.035 2.765 3.375 4.125 C1.395 3.465 -0.585 2.805 -2.625 2.125 C-2.955 3.445 -3.285 4.765 -3.625 6.125 C-4.25 4.25 -4.25 4.25 -4.625 2.125 C-2.625 0.125 -2.625 0.125 0 0 Z " fill="#D8D8FB" transform="translate(154.625,128.875)"/>
<path d="M0 0 C0.66 0 1.32 0 2 0 C1.67 2.31 1.34 4.62 1 7 C1.99 7.33 2.98 7.66 4 8 C2.35 8 0.7 8 -1 8 C-1.125 2.25 -1.125 2.25 0 0 Z " fill="#DEDEFC" transform="translate(107,11)"/>
<path d="M0 0 C0.66 0 1.32 0 2 0 C2 2.64 2 5.28 2 8 C0.68 7.67 -0.64 7.34 -2 7 C-1.34 4.69 -0.68 2.38 0 0 Z " fill="#DADAFC" transform="translate(80,161)"/>
<path d="M0 0 C0.66 0.33 1.32 0.66 2 1 C2 1.66 2 2.32 2 3 C-3.75 6 -3.75 6 -6 6 C-6 5.01 -6 4.02 -6 3 C-4.03533587 1.93224776 -2.03144641 0.93446535 0 0 Z " fill="#D2D2FA" transform="translate(26,119)"/>
<path d="M0 0 C0.99 0 1.98 0 3 0 C2.67 1.65 2.34 3.3 2 5 C0.68 5.33 -0.64 5.66 -2 6 C-1.34 4.02 -0.68 2.04 0 0 Z " fill="#2121FB" transform="translate(127,18)"/>
<path d="M0 0 C0.66 0 1.32 0 2 0 C2 2.31 2 4.62 2 7 C2.66 7.33 3.32 7.66 4 8 C2.35 8 0.7 8 -1 8 C-0.67 5.36 -0.34 2.72 0 0 Z " fill="#E5E6FC" transform="translate(100,10)"/>
<path d="M0 0 C0.99 0.33 1.98 0.66 3 1 C2.67 2.32 2.34 3.64 2 5 C-0.97 4.505 -0.97 4.505 -4 4 C-4 3.34 -4 2.68 -4 2 C-2.68 2 -1.36 2 0 2 C0 1.34 0 0.68 0 0 Z " fill="#C7C6F9" transform="translate(107,164)"/>
<path d="M0 0 C2.97 0 5.94 0 9 0 C8.67 0.99 8.34 1.98 8 3 C5.69 3 3.38 3 1 3 C0.67 2.01 0.34 1.02 0 0 Z " fill="#E4E4FC" transform="translate(20,53)"/>
<path d="M0 0 C0.66 0.66 1.32 1.32 2 2 C1.54625 2.433125 1.0925 2.86625 0.625 3.3125 C-1.20024334 5.10798342 -1.20024334 5.10798342 -3 8 C-3.66 6.68 -4.32 5.36 -5 4 C-3.35 2.68 -1.7 1.36 0 0 Z " fill="#E3E3FB" transform="translate(152,36)"/>
<path d="M0 0 C1.32 0.66 2.64 1.32 4 2 C4 2.99 4 3.98 4 5 C2.35 4.67 0.7 4.34 -1 4 C-0.67 2.68 -0.34 1.36 0 0 Z " fill="#1313FA" transform="translate(34,36)"/>
<path d="M0 0 C0.66 0 1.32 0 2 0 C2 2.64 2 5.28 2 8 C1.01 8.33 0.02 8.66 -1 9 C-0.67 6.03 -0.34 3.06 0 0 Z " fill="#DBDBFB" transform="translate(140,25)"/>
<path d="M0 0 C2.49361571 1.20381448 4.68143083 2.45428722 7 4 C7 4.66 7 5.32 7 6 C4.03824877 5.38722388 2.61941217 4.74627478 0 3 C0 2.01 0 1.02 0 0 Z " fill="#D8D8FB" transform="translate(27,41)"/>
<path d="M0 0 C2.475 0.495 2.475 0.495 5 1 C5 1.99 5 2.98 5 4 C3.35 3.67 1.7 3.34 0 3 C0 2.01 0 1.02 0 0 Z " fill="#0808FB" transform="translate(152,131)"/>
<path d="M0 0 C-1.13719419 3.41158256 -2.04342944 4.11854601 -5 6 C-5.66 6 -6.32 6 -7 6 C-5.52522876 2.59668175 -4.14385429 0 0 0 Z " fill="#E3E3FC" transform="translate(35,131)"/>
<path d="M0 0 C0 0.66 0 1.32 0 2 C-2.64 2.99 -5.28 3.98 -8 5 C-8 4.01 -8 3.02 -8 2 C-4.91190305 0.23537317 -3.76687864 0 0 0 Z " fill="#E2E3FB" transform="translate(170,64)"/>
<path d="M0 0 C1.32 0 2.64 0 4 0 C3.67 1.32 3.34 2.64 3 4 C1.68 4 0.36 4 -1 4 C-0.67 2.68 -0.34 1.36 0 0 Z " fill="#0A0AFB" transform="translate(155,45)"/>
<path d="M0 0 C1.98 0.66 3.96 1.32 6 2 C6 2.99 6 3.98 6 5 C4.68 5 3.36 5 2 5 C2 4.01 2 3.02 2 2 C1.34 2 0.68 2 0 2 C0 1.34 0 0.68 0 0 Z " fill="#B6B5F9" transform="translate(165,95)"/>
<path d="M0 0 C0.66 0 1.32 0 2 0 C1.125 4.875 1.125 4.875 0 6 C-1.66617115 6.04063832 -3.33388095 6.042721 -5 6 C-4.360625 5.566875 -3.72125 5.13375 -3.0625 4.6875 C-0.73253997 3.08760823 -0.73253997 3.08760823 0 0 Z " fill="#E6E6FC" transform="translate(159,45)"/>
</svg>
