<?xml version="1.0" encoding="UTF-8"?>
<svg version="1.1" xmlns="http://www.w3.org/2000/svg" width="127" height="154">
<path d="M0 0 C41.91 0 83.82 0 127 0 C127 50.82 127 101.64 127 154 C85.09 154 43.18 154 0 154 C0 103.18 0 52.36 0 0 Z " fill="#1D5CA1" transform="translate(0,0)"/>
<path d="M0 0 C0.33 0.66 0.66 1.32 1 2 C1.99 2 2.98 2 4 2 C4 2.66 4 3.32 4 4 C3.01 4 2.02 4 1 4 C1.33 5.32 1.66 6.64 2 8 C2.66 8 3.32 8 4 8 C4 9.32 4 10.64 4 12 C8.7897321 12.23428313 8.7897321 12.23428313 13 10 C16.51724138 10.51724138 16.51724138 10.51724138 18 12 C18.66 12 19.32 12 20 12 C19.67 13.32 19.34 14.64 19 16 C20.32 15.67 21.64 15.34 23 15 C24.54714392 22.86464825 23.01281259 27.69928934 20 35 C19.67 36.19625 19.34 37.3925 19 38.625 C18 41 18 41 16.125 41.9375 C14 42 14 42 12.15185547 41.51220703 C9.84279411 40.96258022 7.8167165 40.87062218 5.4453125 40.8671875 C4.58292969 40.86589844 3.72054687 40.86460938 2.83203125 40.86328125 C1.93871094 40.86714844 1.04539062 40.87101562 0.125 40.875 C-1.20337891 40.86919922 -1.20337891 40.86919922 -2.55859375 40.86328125 C-6.328642 40.8688998 -9.78659649 40.96150182 -13.5078125 41.6328125 C-14.33023438 41.75398438 -15.15265625 41.87515625 -16 42 C-18.78560915 39.21439085 -19.49171969 35.92657217 -20.625 32.25 C-20.85445312 31.54617187 -21.08390625 30.84234375 -21.3203125 30.1171875 C-22.9345207 24.94787791 -24.31300368 19.15977743 -22 14 C-18.53853644 11.32972811 -15.35200017 10.29013334 -11 10 C-10.34 10.66 -9.68 11.32 -9 12 C-8.34 12 -7.68 12 -7 12 C-7.33 12.99 -7.66 13.98 -8 15 C-9.093125 14.9175 -10.18625 14.835 -11.3125 14.75 C-15.03442858 14.58896039 -15.03442858 14.58896039 -16.9375 17 C-17.288125 17.66 -17.63875 18.32 -18 19 C-17.12988281 18.87431641 -17.12988281 18.87431641 -16.2421875 18.74609375 C-11.57684697 18.13790579 -7.64557883 17.92794335 -3 19 C-3.95865509 16.66924071 -3.95865509 16.66924071 -7 15 C-6.34 15 -5.68 15 -5 15 C-5 14.34 -5 13.68 -5 13 C-4.34 13.33 -3.68 13.66 -3 14 C-3 13.34 -3 12.68 -3 12 C-2.50161248 9.22326952 -1.89404661 6.68213983 -1 4 C-1.66 4 -2.32 4 -3 4 C-3 3.34 -3 2.68 -3 2 C-2.01 2 -1.02 2 0 2 C0 1.34 0 0.68 0 0 Z " fill="#BFB387" transform="translate(63,1)"/>
<path d="M0 0 C0.33 0.66 0.66 1.32 1 2 C1.99 2 2.98 2 4 2 C4 2.66 4 3.32 4 4 C3.01 4 2.02 4 1 4 C1.33 5.32 1.66 6.64 2 8 C2.66 8 3.32 8 4 8 C4 9.32 4 10.64 4 12 C8.7897321 12.23428313 8.7897321 12.23428313 13 10 C16.51724138 10.51724138 16.51724138 10.51724138 18 12 C18.66 12 19.32 12 20 12 C20 14.64 20 17.28 20 20 C19.27554688 19.9278125 18.55109375 19.855625 17.8046875 19.78125 C12.85334145 19.30592078 7.98093926 18.86538002 3 19 C3.33 20.65 3.66 22.3 4 24 C1.69 24.33 -0.62 24.66 -3 25 C-4 23 -4 23 -3.875 20 C-3.936875 18.515 -3.936875 18.515 -4 17 C-4.99 16.34 -5.98 15.68 -7 15 C-6.34 15 -5.68 15 -5 15 C-5 14.34 -5 13.68 -5 13 C-4.34 13.33 -3.68 13.66 -3 14 C-3 13.34 -3 12.68 -3 12 C-2.50161248 9.22326952 -1.89404661 6.68213983 -1 4 C-1.66 4 -2.32 4 -3 4 C-3 3.34 -3 2.68 -3 2 C-2.01 2 -1.02 2 0 2 C0 1.34 0 0.68 0 0 Z " fill="#938B75" transform="translate(63,1)"/>
<path d="M0 0 C0 1.65 0 3.3 0 5 C0.66 5.33 1.32 5.66 2 6 C2 6.99 2 7.98 2 9 C0.68 8.67 -0.64 8.34 -2 8 C-1.67 9.32 -1.34 10.64 -1 12 C-0.01 11.67 0.98 11.34 2 11 C1.67 12.32 1.34 13.64 1 15 C-0.98 15 -2.96 15 -5 15 C-5.33 13.35 -5.66 11.7 -6 10 C-7.98 10 -9.96 10 -12 10 C-10.68 10.33 -9.36 10.66 -8 11 C-8.33 12.65 -8.66 14.3 -9 16 C-10.32 16.33 -11.64 16.66 -13 17 C-13.309375 16.360625 -13.61875 15.72125 -13.9375 15.0625 C-14.8345163 13.06389179 -14.8345163 13.06389179 -16 12 C-16.07226502 10.14712498 -16.0838122 8.29166122 -16.0625 6.4375 C-16.05347656 5.42558594 -16.04445312 4.41367187 -16.03515625 3.37109375 C-16.02355469 2.58863281 -16.01195312 1.80617188 -16 1 C-10.44860651 -1.48351814 -5.83475015 -0.85330338 0 0 Z " fill="#E26240" transform="translate(60,20)"/>
<path d="M0 0 C0.86625 0.04125 1.7325 0.0825 2.625 0.125 C3.945 0.125 5.265 0.125 6.625 0.125 C10.625 0.125 14.625 0.125 18.625 0.125 C19.59501682 3.52005887 19.625 6.59564557 19.625 10.125 C18.635 9.795 17.645 9.465 16.625 9.125 C16.295 8.465 15.965 7.805 15.625 7.125 C15.295 8.115 14.965 9.105 14.625 10.125 C13.366875 10.145625 12.10875 10.16625 10.8125 10.1875 C10.10480469 10.19910156 9.39710937 10.21070313 8.66796875 10.22265625 C6.625 10.125 6.625 10.125 3.625 9.125 C3.295 9.455 2.965 9.785 2.625 10.125 C0.1875 10.3125 0.1875 10.3125 -2.375 10.125 C-4.375 8.125 -4.375 8.125 -4.625 5.125 C-4.32060765 1.47229174 -3.79688456 0.19983603 0 0 Z " fill="#9A9F8C" transform="translate(25.375,123.875)"/>
<path d="M0 0 C1.14947895 3.55293493 1.0868937 4.79976669 -0.4375 8.3125 C-1.2109375 9.6428125 -1.2109375 9.6428125 -2 11 C-3.32 10.67 -4.64 10.34 -6 10 C-6 8.68 -6 7.36 -6 6 C-6.66 6 -7.32 6 -8 6 C-8 6.99 -8 7.98 -8 9 C-9.32 9 -10.64 9 -12 9 C-12 9.66 -12 10.32 -12 11 C-11.01 11 -10.02 11 -9 11 C-9.33 12.32 -9.66 13.64 -10 15 C-12.3125 15.6875 -12.3125 15.6875 -15 16 C-16.8125 14.6875 -16.8125 14.6875 -18 13 C-18 12.34 -18 11.68 -18 11 C-16.68 11 -15.36 11 -14 11 C-14 10.34 -14 9.68 -14 9 C-15.32 9 -16.64 9 -18 9 C-17.67 8.2575 -17.34 7.515 -17 6.75 C-15.77217129 3.86116688 -15.77217129 3.86116688 -16 0 C-10.49983036 -1.30267176 -5.52967941 -0.71033431 0 0 Z " fill="#DE6342" transform="translate(82,20)"/>
<path d="M0 0 C1.32 0 2.64 0 4 0 C4.33 1.98 4.66 3.96 5 6 C6.65 4.02 8.3 2.04 10 0 C11.32 0.33 12.64 0.66 14 1 C11.03 3.97 11.03 3.97 8 7 C9.37626099 11.01409454 11.34304697 13.72309126 14 17 C14 17.66 14 18.32 14 19 C11.75 18.875 11.75 18.875 9 18 C6.6875 14.9375 6.6875 14.9375 5 12 C4.67 14.31 4.34 16.62 4 19 C2.68 19 1.36 19 0 19 C0 12.73 0 6.46 0 0 Z " fill="#B8B087" transform="translate(49,61)"/>
<path d="M0 0 C0.99 0 1.98 0 3 0 C4.17094005 2.7899439 5.33690927 5.58178597 6.5 8.375 C6.83386719 9.1690625 7.16773437 9.963125 7.51171875 10.78125 C7.82753906 11.54179688 8.14335938 12.30234375 8.46875 13.0859375 C8.76201172 13.7876709 9.05527344 14.4894043 9.35742188 15.21240234 C10 17 10 17 10 19 C8.35 19 6.7 19 5 19 C4.67 17.02 4.34 15.04 4 13 C1.69 13.33 -0.62 13.66 -3 14 C-3.66 15.65 -4.32 17.3 -5 19 C-5.66 19 -6.32 19 -7 19 C-6.4253379 14.21357393 -5.01754357 10.46211213 -2.9375 6.125 C-2.38964844 4.97257812 -1.84179688 3.82015625 -1.27734375 2.6328125 C-0.85582031 1.76398437 -0.43429688 0.89515625 0 0 Z " fill="#B1AC88" transform="translate(77,61)"/>
<path d="M0 0 C1.32 0 2.64 0 4 0 C4.06058594 1.07121094 4.12117188 2.14242187 4.18359375 3.24609375 C4.26798537 4.64324391 4.35263406 6.04037857 4.4375 7.4375 C4.47681641 8.14455078 4.51613281 8.85160156 4.55664062 9.58007812 C4.47624438 13.08690419 4.47624438 13.08690419 6 16 C8.45792029 16.33343551 8.45792029 16.33343551 11 16 C13.34770643 12.47844036 13.37669614 10.49228157 13.625 6.3125 C13.69976562 5.13300781 13.77453125 3.95351562 13.8515625 2.73828125 C13.90054688 1.83464844 13.94953125 0.93101563 14 0 C14.66 0 15.32 0 16 0 C16.77306542 12.69545211 16.77306542 12.69545211 14 17.375 C9.86956849 19.61231707 7.66318762 19.60170163 3 19 C1.26953125 17.98046875 1.26953125 17.98046875 0 16 C-0.21714241 13.18872957 -0.28284276 10.6116655 -0.1875 7.8125 C-0.17396484 7.06291016 -0.16042969 6.31332031 -0.14648438 5.54101562 C-0.11118539 3.69370233 -0.05737917 1.84675934 0 0 Z " fill="#AEAA89" transform="translate(23,61)"/>
<path d="M0 0 C3.96 0 7.92 0 12 0 C12.82810826 3.31243305 13.09278428 5.65976579 13 9 C9.98509443 10.00496852 7.95818308 10.10335303 4.8125 10.0625 C3.224375 10.041875 1.63625 10.02125 0 10 C0 6.7 0 3.4 0 0 Z " fill="#386A9D" transform="translate(46,138)"/>
<path d="M0 0 C1 2 1 2 0.3125 5.0625 C-1 8 -1 8 -2.875 8.9375 C-5 9 -5 9 -6.80761719 8.51000977 C-9.33860912 7.92123002 -11.60517482 7.88723939 -14.203125 7.90234375 C-15.1828125 7.90556641 -16.1625 7.90878906 -17.171875 7.91210938 C-18.18765625 7.92048828 -19.2034375 7.92886719 -20.25 7.9375 C-21.28125 7.94201172 -22.3125 7.94652344 -23.375 7.95117188 C-25.91672573 7.96293912 -28.45833319 7.97937989 -31 8 C-30.67 6.68 -30.34 5.36 -30 4 C-28.35 4 -26.7 4 -25 4 C-25 4.66 -25 5.32 -25 6 C-23.35 5.67 -21.7 5.34 -20 5 C-20 4.34 -20 3.68 -20 3 C-19.01 3 -18.02 3 -17 3 C-17 3.66 -17 4.32 -17 5 C-15.35 5.33 -13.7 5.66 -12 6 C-12 5.01 -12 4.02 -12 3 C-8.12498076 0.41665384 -6.46611074 1.35038389 -2 2 C-1.34 1.34 -0.68 0.68 0 0 Z " fill="#999C77" transform="translate(82,34)"/>
<path d="M0 0 C0.928125 0.20625 1.85625 0.4125 2.8125 0.625 C2.4825 1.615 2.1525 2.605 1.8125 3.625 C0.1625 3.295 -1.4875 2.965 -3.1875 2.625 C-3.13981597 4.50380872 -3.13981597 4.50380872 -2.1875 6.625 C-0.6715625 7.553125 -0.6715625 7.553125 0.875 8.5 C3.8125 10.625 3.8125 10.625 4.375 13.6875 C3.8125 16.625 3.8125 16.625 2.75 18.5 C-0.18977124 20.20696395 -2.86620803 19.81299766 -6.1875 19.625 C-6.5175 18.305 -6.8475 16.985 -7.1875 15.625 C-6.5275 15.625 -5.8675 15.625 -5.1875 15.625 C-5.1875 16.285 -5.1875 16.945 -5.1875 17.625 C-3.5375 17.295 -1.8875 16.965 -0.1875 16.625 C-0.23518403 14.74619128 -0.23518403 14.74619128 -1.1875 12.625 C-4.16513043 10.36174754 -4.16513043 10.36174754 -7.1875 8.625 C-6.875 5.25 -6.875 5.25 -6.1875 1.625 C-3.1875 -0.375 -3.1875 -0.375 0 0 Z " fill="#B6AF87" transform="translate(101.1875,60.375)"/>
<path d="M0 0 C1.17976414 6.756831 1.13345123 11.7844656 -2 18 C-3.9375 20.125 -3.9375 20.125 -6 21 C-8.25 20.6875 -8.25 20.6875 -10 20 C-10.33 18.35 -10.66 16.7 -11 15 C-9.68 15 -8.36 15 -7 15 C-3.99440348 9.99067246 -3.70658112 6.67276511 -4 1 C-2 0 -2 0 0 0 Z " fill="#B46F50" transform="translate(86,16)"/>
<path d="M0 0 C1.32 0.33 2.64 0.66 4 1 C5.67654729 0.72057545 7.34608154 0.39171753 9 0 C9.66 0 10.32 0 11 0 C11 2.97 11 5.94 11 9 C9.02 9.33 7.04 9.66 5 10 C4.67 9.34 4.34 8.68 4 8 C2.68 8.33 1.36 8.66 0 9 C0 6.03 0 3.06 0 0 Z " fill="#5B7E97" transform="translate(31,111)"/>
<path d="M0 0 C0.66 0 1.32 0 2 0 C1.67 0.99 1.34 1.98 1 3 C-0.6396875 2.9071875 -0.6396875 2.9071875 -2.3125 2.8125 C-5.81117403 2.68899642 -5.81117403 2.68899642 -7.6875 4.0625 C-9.67484619 6.99620152 -9.52695597 9.68764022 -9.6875 13.1875 C-9.75324219 14.45980469 -9.81898437 15.73210938 -9.88671875 17.04296875 C-9.92410156 18.01878906 -9.96148437 18.99460937 -10 20 C-13.09114382 16.90885618 -13.41689358 13.24140503 -14 9 C-13.9375 5.125 -13.9375 5.125 -13 2 C-8.77980191 -1.51683174 -4.69628951 -3.13085968 0 0 Z " fill="#B7B5A7" transform="translate(54,13)"/>
<path d="M0 0 C2.4375 0.75 2.4375 0.75 4.4375 2.75 C4.8125 5.1875 4.8125 5.1875 4.4375 7.75 C2.75 9.625 2.75 9.625 0.4375 10.75 C-3.97275641 10.33974359 -3.97275641 10.33974359 -5.5625 8.75 C-5.8125 5.3125 -5.8125 5.3125 -5.5625 1.75 C-2.5625 -0.25 -2.5625 -0.25 0 0 Z " fill="#33689D" transform="translate(81.5625,110.25)"/>
<path d="M0 0 C-0.66 0 -1.32 0 -2 0 C-1.67 1.32 -1.34 2.64 -1 4 C0.65 4.33 2.3 4.66 4 5 C2.8125 6.5 2.8125 6.5 1 8 C-1.6875 8.1875 -1.6875 8.1875 -4 8 C-4.33 9.32 -4.66 10.64 -5 12 C-6.875 12.625 -6.875 12.625 -9 13 C-11.95183101 10.04816899 -12.08663988 7.04488053 -13 3 C-12.01 2.67 -11.02 2.34 -10 2 C-9.67 1.34 -9.34 0.68 -9 0 C-9 0.99 -9 1.98 -9 3 C-9.66 3 -10.32 3 -11 3 C-10.01 4.485 -10.01 4.485 -9 6 C-7.68 5.67 -6.36 5.34 -5 5 C-4.67 3.68 -4.34 2.36 -4 1 C-5.32 1.33 -6.64 1.66 -8 2 C-8 1.34 -8 0.68 -8 0 C-4.94736336 -0.98120464 -3.05263664 -0.98120464 0 0 Z " fill="#B0A17B" transform="translate(56,30)"/>
<path d="M0 0 C0.33 0.66 0.66 1.32 1 2 C1.99 2 2.98 2 4 2 C4 2.66 4 3.32 4 4 C3.01 4 2.02 4 1 4 C1.33 4.556875 1.66 5.11375 2 5.6875 C3.1309601 8.30284522 3.15662974 10.1806646 3 13 C2.34 13 1.68 13 1 13 C1 16.3 1 19.6 1 23 C0.34 23 -0.32 23 -1 23 C-1.36590746 21.27327966 -1.71722195 19.54346345 -2.0625 17.8125 C-2.35833984 16.36810547 -2.35833984 16.36810547 -2.66015625 14.89453125 C-3.13648682 10.8375088 -2.27832356 7.83497069 -1 4 C-1.66 4 -2.32 4 -3 4 C-3 3.34 -3 2.68 -3 2 C-2.01 2 -1.02 2 0 2 C0 1.34 0 0.68 0 0 Z M-5 13 C-3 14 -3 14 -2 16 C-3.65 16 -5.3 16 -7 16 C-6.34 15.67 -5.68 15.34 -5 15 C-5 14.34 -5 13.68 -5 13 Z " fill="#BDB69C" transform="translate(63,1)"/>
<path d="M0 0 C2.5 0.25 2.5 0.25 4.5 2.25 C4.75 5.25 4.75 5.25 4.5 8.25 C2.5 10.25 2.5 10.25 -0.5 10.5625 C-1.49 10.459375 -2.48 10.35625 -3.5 10.25 C-5.5 7.25 -5.5 7.25 -5.25 4.6875 C-4.24098289 1.40819438 -3.4742892 0.34742892 0 0 Z " fill="#A9A88A" transform="translate(101.5,123.75)"/>
<path d="M0 0 C5.625 -0.25 5.625 -0.25 9 2 C9.3125 5 9.3125 5 9 8 C7 10 7 10 3.375 10.125 C2.26125 10.08375 1.1475 10.0425 0 10 C0 6.7 0 3.4 0 0 Z " fill="#88968F" transform="translate(53,124)"/>
<path d="M0 0 C3.375 -0.125 3.375 -0.125 7 0 C9 2 9 2 9.3125 4.4375 C9 7 9 7 7.875 8.8125 C5.22464043 10.49106106 3.06753576 10.20450238 0 10 C0 6.7 0 3.4 0 0 Z " fill="#969D8D" transform="translate(80,97)"/>
<path d="M0 0 C1.2375 0.1546875 1.2375 0.1546875 2.5 0.3125 C4.64915785 3.53623677 4.88286803 4.57953674 4.5 8.3125 C2.5 10.3125 2.5 10.3125 0 10.5625 C-2.5 10.3125 -2.5 10.3125 -4.5 8.3125 C-4.75 5.3125 -4.75 5.3125 -4.5 2.3125 C-2.5 0.3125 -2.5 0.3125 0 0 Z " fill="#537998" transform="translate(25.5,123.6875)"/>
<path d="M0 0 C2.33294775 -0.04241723 4.66702567 -0.04092937 7 0 C8 1 8 1 8.1875 3.9375 C8 7 8 7 6 9 C2.875 9.125 2.875 9.125 0 9 C0 6.03 0 3.06 0 0 Z " fill="#AAA88A" transform="translate(66,111)"/>
<path d="M0 0 C1.65 0 3.3 0 5 0 C5 0.99 5 1.98 5 3 C4.34 2.67 3.68 2.34 3 2 C2.89459074 4.21081851 2.89459074 4.21081851 4 7 C3.02160156 6.98259766 3.02160156 6.98259766 2.0234375 6.96484375 C-2.7761914 6.91529006 -7.27784685 7.00586249 -12 8 C-10.84826645 5.53199953 -9.95216435 3.95216435 -8 2 C-4.375 1.875 -4.375 1.875 -1 2 C-0.67 1.34 -0.34 0.68 0 0 Z " fill="#346193" transform="translate(56,13)"/>
<path d="M0 0 C0.66 0 1.32 0 2 0 C3.625 2 3.625 2 5 4 C5.66 2.68 6.32 1.36 7 0 C7.66 0 8.32 0 9 0 C10.4783226 2.95664519 10.06032783 5.74229737 10 9 C9.34 9 8.68 9 8 9 C8 7.68 8 6.36 8 5 C7.34 5 6.68 5 6 5 C5.67 6.32 5.34 7.64 5 9 C4.34 9 3.68 9 3 9 C2.34 8.01 1.68 7.02 1 6 C0.34 6.99 -0.32 7.98 -1 9 C-0.67 6.03 -0.34 3.06 0 0 Z " fill="#969E8D" transform="translate(88,111)"/>
<path d="M0 0 C0.99 0.33 1.98 0.66 3 1 C3 1.66 3 2.32 3 3 C4.32 3 5.64 3 7 3 C7 2.34 7 1.68 7 1 C7.66 1 8.32 1 9 1 C9 2.98 9 4.96 9 7 C9.99 6.67 10.98 6.34 12 6 C11.67 7.32 11.34 8.64 11 10 C9.02 10 7.04 10 5 10 C4.67 8.35 4.34 6.7 4 5 C2.02 5 0.04 5 -2 5 C-1.34 4.67 -0.68 4.34 0 4 C0 2.68 0 1.36 0 0 Z " fill="#B07759" transform="translate(50,25)"/>
<path d="M0 0 C1.32 0 2.64 0 4 0 C4.66 1.98 5.32 3.96 6 6 C4.576875 6.3403125 4.576875 6.3403125 3.125 6.6875 C-0.19323388 7.69083714 -0.19323388 7.69083714 -1.375 10.625 C-1.58125 11.40875 -1.7875 12.1925 -2 13 C-2.66 13 -3.32 13 -4 13 C-3.40895235 8.15340923 -2.02055843 4.39251833 0 0 Z " fill="#778D92" transform="translate(74,67)"/>
<path d="M0 0 C1.875 1.5625 1.875 1.5625 3 3 C2.67 3.66 2.34 4.32 2 5 C1.34773438 4.9278125 0.69546875 4.855625 0.0234375 4.78125 C-4.6737056 4.28243834 -9.26852656 3.87548754 -14 4 C-14 3.34 -14 2.68 -14 2 C-5.33227345 -1.73608903 -5.33227345 -1.73608903 0 0 Z " fill="#265A95" transform="translate(80,16)"/>
<path d="M0 0 C0.763125 0.20625 1.52625 0.4125 2.3125 0.625 C2.3125 0.955 2.3125 1.285 2.3125 1.625 C0.6625 1.955 -0.9875 2.285 -2.6875 2.625 C-2.6875 4.275 -2.6875 5.925 -2.6875 7.625 C-1.6975 7.955 -0.7075 8.285 0.3125 8.625 C0.3125 7.635 0.3125 6.645 0.3125 5.625 C1.3025 5.625 2.2925 5.625 3.3125 5.625 C3.3125 6.945 3.3125 8.265 3.3125 9.625 C0.5625 10.375 0.5625 10.375 -2.6875 10.625 C-5.125 9 -5.125 9 -6.6875 6.625 C-6.625 4 -6.625 4 -5.6875 1.625 C-2.6875 -0.375 -2.6875 -0.375 0 0 Z " fill="#939C8D" transform="translate(60.6875,110.375)"/>
<path d="M0 0 C4 2 4 2 6 4 C6.33 2.68 6.66 1.36 7 0 C7.66 0 8.32 0 9 0 C9 2.97 9 5.94 9 9 C5 7 5 7 3 5 C2.67 6.32 2.34 7.64 2 9 C1.34 9 0.68 9 0 9 C0 6.03 0 3.06 0 0 Z " fill="#939C8D" transform="translate(44,111)"/>
<path d="M0 0 C1.27947184 6.65941972 0.81115003 10.81546992 -2 17 C-2.33 17 -2.66 17 -3 17 C-3.33 11.72 -3.66 6.44 -4 1 C-2 0 -2 0 0 0 Z " fill="#B5B2A0" transform="translate(86,16)"/>
<path d="M0 0 C4.70588235 0.70588235 4.70588235 0.70588235 6 2 C6.66 2 7.32 2 8 2 C7.67 3.32 7.34 4.64 7 6 C5.80375 5.814375 4.6075 5.62875 3.375 5.4375 C-0.28283707 4.9688803 -3.37862166 5.18518987 -7 6 C-7.33 5.01 -7.66 4.02 -8 3 C-6.865625 2.690625 -5.73125 2.38125 -4.5625 2.0625 C-1.21224901 1.37075469 -1.21224901 1.37075469 0 0 Z " fill="#B9B8AC" transform="translate(75,11)"/>
<path d="M0 0 C1.32 0.33 2.64 0.66 4 1 C4.99 1 5.98 1 7 1 C6.62875 1.5775 6.2575 2.155 5.875 2.75 C4.70833333 5 4.70833333 5 5.875 7.25 C6.24625 7.8275 6.6175 8.405 7 9 C4.66666667 9 2.33333333 9 0 9 C0 6.03 0 3.06 0 0 Z " fill="#8C988F" transform="translate(31,111)"/>
<path d="M0 0 C1.98 0 3.96 0 6 0 C5.01 0.33 4.02 0.66 3 1 C3 1.99 3 2.98 3 4 C3.99 4.33 4.98 4.66 6 5 C5.01 5 4.02 5 3 5 C3 5.99 3 6.98 3 8 C3.99 8 4.98 8 6 8 C6 8.66 6 9.32 6 10 C4.02 10 2.04 10 0 10 C0 6.7 0 3.4 0 0 Z " fill="#88968F" transform="translate(73,97)"/>
<path d="M0 0 C0 1.98 0 3.96 0 6 C-1.65614657 6.38218767 -3.32457024 6.71395102 -5 7 C-6 6 -6 6 -6.0625 2.9375 C-6.041875 1.968125 -6.02125 0.99875 -6 0 C-3.50907189 -1.24546405 -2.58919267 -0.7767578 0 0 Z " fill="#1E5DA1" transform="translate(38,126)"/>
<path d="M0 0 C2.125 0.375 2.125 0.375 4 1 C3.67 3.31 3.34 5.62 3 8 C1.68 8 0.36 8 -1 8 C-1.625 5.125 -1.625 5.125 -2 2 C-1.34 1.34 -0.68 0.68 0 0 Z " fill="#29639F" transform="translate(100,125)"/>
<path d="M0 0 C2 1 2 1 2.8515625 3.06640625 C3.10679688 3.89011719 3.36203125 4.71382812 3.625 5.5625 C3.88539062 6.38878906 4.14578125 7.21507812 4.4140625 8.06640625 C4.60742188 8.70449219 4.80078125 9.34257812 5 10 C4.01 10 3.02 10 2 10 C2 9.01 2 8.02 2 7 C0.68 7 -0.64 7 -2 7 C-2.33 7.99 -2.66 8.98 -3 10 C-3.33 9.34 -3.66 8.68 -4 8 C-3.22265625 6.0546875 -3.22265625 6.0546875 -2.0625 3.875 C-1.49208984 2.78832031 -1.49208984 2.78832031 -0.91015625 1.6796875 C-0.60980469 1.12539062 -0.30945313 0.57109375 0 0 Z " fill="#949C8D" transform="translate(79,124)"/>
<path d="M0 0 C2.31 0 4.62 0 7 0 C7 0.66 7 1.32 7 2 C6.34 2 5.68 2 5 2 C5 4.64 5 7.28 5 10 C4.01 10 3.02 10 2 10 C2 7.36 2 4.72 2 2 C1.34 2 0.68 2 0 2 C0 1.34 0 0.68 0 0 Z " fill="#849490" transform="translate(84,124)"/>
<path d="M0 0 C1.98 1.65 3.96 3.3 6 5 C6.33 3.35 6.66 1.7 7 0 C7.33 0 7.66 0 8 0 C8 3.3 8 6.6 8 10 C6.02 8.35 4.04 6.7 2 5 C1.34 6.32 0.68 7.64 0 9 C0 6.03 0 3.06 0 0 Z " fill="#A8A88A" transform="translate(51,97)"/>
<path d="M0 0 C4 2 4 2 6 4 C6.66 2.68 7.32 1.36 8 0 C8 2.97 8 5.94 8 9 C6.02 7.35 4.04 5.7 2 4 C1.67 5.65 1.34 7.3 1 9 C0.67 9 0.34 9 0 9 C0 6.03 0 3.06 0 0 Z " fill="#AFAB89" transform="translate(108,125)"/>
<path d="M0 0 C0.99 0 1.98 0 3 0 C3 0.66 3 1.32 3 2 C3.99 2.66 4.98 3.32 6 4 C-2.415 4.495 -2.415 4.495 -11 5 C-10.67 3.68 -10.34 2.36 -10 1 C-8.35 1 -6.7 1 -5 1 C-5 1.66 -5 2.32 -5 3 C-3.35 2.67 -1.7 2.34 0 2 C0 1.34 0 0.68 0 0 Z " fill="#5B9671" transform="translate(62,37)"/>
<path d="M0 0 C1.65 0 3.3 0 5 0 C5.91058531 3.07322544 6.08886184 5.80097361 6 9 C5.01 8.67 4.02 8.34 3 8 C3.33 5.69 3.66 3.38 4 1 C3.34 1 2.68 1 2 1 C1.67 3.64 1.34 6.28 1 9 C0.67 9 0.34 9 0 9 C0 6.03 0 3.06 0 0 Z " fill="#AEAA89" transform="translate(53,138)"/>
<path d="M0 0 C1.32 0 2.64 0 4 0 C3.67 0.66 3.34 1.32 3 2 C2.34 1.67 1.68 1.34 1 1 C1.495 1.391875 1.99 1.78375 2.5 2.1875 C4.45593143 4.55091715 4.24207973 6.01435003 4 9 C2.35 9.33 0.7 9.66 -1 10 C-1 9.34 -1 8.68 -1 8 C-0.01 8 0.98 8 2 8 C2 7.34 2 6.68 2 6 C1.01 5.67 0.02 5.34 -1 5 C-0.67 3.35 -0.34 1.7 0 0 Z " fill="#929B8E" transform="translate(40,138)"/>
<path d="M0 0 C2 1 2 1 2.8515625 3.06640625 C3.10679688 3.89011719 3.36203125 4.71382812 3.625 5.5625 C3.88539062 6.38878906 4.14578125 7.21507812 4.4140625 8.06640625 C4.60742188 8.70449219 4.80078125 9.34257812 5 10 C4.01 10 3.02 10 2 10 C2 9.01 2 8.02 2 7 C0.68 7 -0.64 7 -2 7 C-2 7.99 -2 8.98 -2 10 C-2.66 10 -3.32 10 -4 10 C-3.34 8.35 -2.68 6.7 -2 5 C-1.01 5.33 -0.02 5.66 1 6 C1 5.34 1 4.68 1 4 C0.34 4 -0.32 4 -1 4 C-0.67 2.68 -0.34 1.36 0 0 Z " fill="#9EA28C" transform="translate(15,124)"/>
<path d="M0 0 C1.65 0 3.3 0 5 0 C4.01 0.33 3.02 0.66 2 1 C2 1.99 2 2.98 2 4 C2.99 4.33 3.98 4.66 5 5 C4.01 5 3.02 5 2 5 C2 5.99 2 6.98 2 8 C2.99 8 3.98 8 5 8 C5 8.66 5 9.32 5 10 C3.35 10 1.7 10 0 10 C0 6.7 0 3.4 0 0 Z " fill="#A0A38B" transform="translate(46,138)"/>
<path d="M0 0 C1.65 0 3.3 0 5 0 C4.01 0.33 3.02 0.66 2 1 C2 1.99 2 2.98 2 4 C2.99 4.33 3.98 4.66 5 5 C4.01 5 3.02 5 2 5 C2 5.99 2 6.98 2 8 C2.99 8 3.98 8 5 8 C5 8.66 5 9.32 5 10 C3.35 10 1.7 10 0 10 C0 6.7 0 3.4 0 0 Z " fill="#A5A68A" transform="translate(84,138)"/>
<path d="M0 0 C0.33 0 0.66 0 1 0 C1.12375 1.11375 1.2475 2.2275 1.375 3.375 C1.6465813 7.03103677 1.6465813 7.03103677 4 9 C1.6875 9.6875 1.6875 9.6875 -1 10 C-2.8125 8.6875 -2.8125 8.6875 -4 7 C-4 6.34 -4 5.68 -4 5 C-2.68 5 -1.36 5 0 5 C-0.33 4.01 -0.66 3.02 -1 2 C-0.67 1.34 -0.34 0.68 0 0 Z " fill="#B67555" transform="translate(68,26)"/>
<path d="M0 0 C1.65 0 3.3 0 5 0 C4.67 1.65 4.34 3.3 4 5 C2.68 5.33 1.36 5.66 0 6 C-0.66 4.68 -1.32 3.36 -2 2 C-1.34 2 -0.68 2 0 2 C0 1.34 0 0.68 0 0 Z " fill="#B86B4D" transform="translate(47,31)"/>
<path d="M0 0 C2.31 0 4.62 0 7 0 C7 0.66 7 1.32 7 2 C6.01 2 5.02 2 4 2 C4 4.64 4 7.28 4 10 C3.34 10 2.68 10 2 10 C2 7.36 2 4.72 2 2 C1.34 2 0.68 2 0 2 C0 1.34 0 0.68 0 0 Z " fill="#9AA08C" transform="translate(68,124)"/>
<path d="M0 0 C0.33 1.32 0.66 2.64 1 4 C1.66 3.67 2.32 3.34 3 3 C3 2.01 3 1.02 3 0 C3.99 0 4.98 0 6 0 C5.814375 0.928125 5.62875 1.85625 5.4375 2.8125 C4.75876119 6.01343771 4.75876119 6.01343771 6 9 C5.01 8.67 4.02 8.34 3 8 C2.67 7.34 2.34 6.68 2 6 C1.34 6.99 0.68 7.98 0 9 C0 6.03 0 3.06 0 0 Z " fill="#AEAA89" transform="translate(39,125)"/>
<path d="M0 0 C0.99 0 1.98 0 3 0 C3 3.3 3 6.6 3 10 C2.01 10 1.02 10 0 10 C0 6.7 0 3.4 0 0 Z " fill="#8B978F" transform="translate(92,124)"/>
<path d="M0 0 C0.99 0 1.98 0 3 0 C3 3.3 3 6.6 3 10 C2.01 10 1.02 10 0 10 C0 6.7 0 3.4 0 0 Z " fill="#859590" transform="translate(61,97)"/>
<path d="M0 0 C2 1 2 1 3 3 C1.35 3 -0.3 3 -2 3 C-1.34 2.67 -0.68 2.34 0 2 C0 1.34 0 0.68 0 0 Z M3 0 C3.99 0.33 4.98 0.66 6 1 C6 3.97 6 6.94 6 10 C5.34 10 4.68 10 4 10 C3.67 6.7 3.34 3.4 3 0 Z " fill="#B3AD98" transform="translate(58,14)"/>
<path d="M0 0 C1.4540625 0.0309375 1.4540625 0.0309375 2.9375 0.0625 C2.2775 1.7125 1.6175 3.3625 0.9375 5.0625 C0.2775 5.0625 -0.3825 5.0625 -1.0625 5.0625 C-1.3925 6.7125 -1.7225 8.3625 -2.0625 10.0625 C-3.0525 9.4025 -4.0425 8.7425 -5.0625 8.0625 C-4.4025 8.0625 -3.7425 8.0625 -3.0625 8.0625 C-3.3409375 6.3609375 -3.3409375 6.3609375 -3.625 4.625 C-3.8415625 2.8615625 -3.8415625 2.8615625 -4.0625 1.0625 C-3.0625 0.0625 -3.0625 0.0625 0 0 Z " fill="#638296" transform="translate(41.0625,123.9375)"/>
<path d="M0 0 C0.66 0 1.32 0 2 0 C2 1.32 2 2.64 2 4 C2.99 4 3.98 4 5 4 C5 4.66 5 5.32 5 6 C3.68 5.67 2.36 5.34 1 5 C0.67 5.99 0.34 6.98 0 8 C-0.33 7.01 -0.66 6.02 -1 5 C-1.99 5 -2.98 5 -4 5 C-4 4.34 -4 3.68 -4 3 C-2.68 3 -1.36 3 0 3 C0 2.01 0 1.02 0 0 Z " fill="#B2A382" transform="translate(74,26)"/>
<path d="M0 0 C-0.33 0.66 -0.66 1.32 -1 2 C-1.99 2 -2.98 2 -4 2 C-4 4.31 -4 6.62 -4 9 C-5.32 8.34 -6.64 7.68 -8 7 C-7.625 4.0625 -7.625 4.0625 -7 1 C-4.53721199 -0.231394 -2.7204945 -0.07159196 0 0 Z " fill="#9EA28C" transform="translate(82,138)"/>
<path d="M0 0 C1.32 0.33 2.64 0.66 4 1 C4 2.65 4 4.3 4 6 C2.02 6.99 2.02 6.99 0 8 C0 5.36 0 2.72 0 0 Z " fill="#28629F" transform="translate(56,125)"/>
<path d="M0 0 C1.32 0.33 2.64 0.66 4 1 C4 2.65 4 4.3 4 6 C2.68 6.33 1.36 6.66 0 7 C0 4.69 0 2.38 0 0 Z " fill="#225FA0" transform="translate(68,112)"/>
<path d="M0 0 C1.32 0.33 2.64 0.66 4 1 C4 2.65 4 4.3 4 6 C2.68 6.33 1.36 6.66 0 7 C0 4.69 0 2.38 0 0 Z " fill="#2560A0" transform="translate(83,98)"/>
<path d="M0 0 C0.33 0.66 0.66 1.32 1 2 C1.99 2 2.98 2 4 2 C4 2.66 4 3.32 4 4 C3.01 4 2.02 4 1 4 C1.33 4.99 1.66 5.98 2 7 C0.68 7.33 -0.64 7.66 -2 8 C-1.67 6.68 -1.34 5.36 -1 4 C-1.66 4 -2.32 4 -3 4 C-3 3.34 -3 2.68 -3 2 C-2.01 2 -1.02 2 0 2 C0 1.34 0 0.68 0 0 Z " fill="#888A7C" transform="translate(63,1)"/>
<path d="M0 0 C0.66 0 1.32 0 2 0 C2 0.99 2 1.98 2 3 C2.99 3.33 3.98 3.66 5 4 C4.01 4 3.02 4 2 4 C2 5.32 2 6.64 2 8 C2.99 8.33 3.98 8.66 5 9 C3.35 9 1.7 9 0 9 C0 6.03 0 3.06 0 0 Z " fill="#A4A58B" transform="translate(47,125)"/>
<path d="M0 0 C0.5625 1.9375 0.5625 1.9375 1 4 C0 5 0 5 -3.5625 5.0625 C-4.696875 5.041875 -5.83125 5.02125 -7 5 C-7.33 3.68 -7.66 2.36 -8 1 C-7.34 1 -6.68 1 -6 1 C-6 1.66 -6 2.32 -6 3 C-3.52733235 2.65555119 -3.52733235 2.65555119 -1 2 C-0.67 1.34 -0.34 0.68 0 0 Z " fill="#A1A38B" transform="translate(102,75)"/>
<path d="M0 0 C0.99 0.33 1.98 0.66 3 1 C2.67 1.33 2.34 1.66 2 2 C1.80850919 5.63194641 1.80850919 5.63194641 3 9 C1.68 8.67 0.36 8.34 -1 8 C-1.04241723 5.66705225 -1.04092937 3.33297433 -1 1 C-0.67 0.67 -0.34 0.34 0 0 Z " fill="#A5A58A" transform="translate(77,111)"/>
<path d="M0 0 C1.32 0.33 2.64 0.66 4 1 C2.02 2.98 0.04 4.96 -2 7 C-2.99 6.67 -3.98 6.34 -5 6 C-3.35 4.02 -1.7 2.04 0 0 Z " fill="#A1A38B" transform="translate(59,61)"/>
<path d="M0 0 C-0.33 1.32 -0.66 2.64 -1 4 C-2.98 4 -4.96 4 -7 4 C-7 3.01 -7 2.02 -7 1 C-4.57333205 -0.21333397 -2.66500278 0 0 0 Z " fill="#CE6243" transform="translate(62,31)"/>
<path d="M0 0 C0.66 0 1.32 0 2 0 C2 2.64 2 5.28 2 8 C1.67 7.34 1.34 6.68 1 6 C-0.98 6.99 -0.98 6.99 -3 8 C-3 6.35 -3 4.7 -3 3 C-1.68 3.33 -0.36 3.66 1 4 C0.67 2.68 0.34 1.36 0 0 Z " fill="#AFA17C" transform="translate(61,25)"/>
<path d="M0 0 C-0.33 0.99 -0.66 1.98 -1 3 C-2.98 3.33 -4.96 3.66 -7 4 C-7.33 3.01 -7.66 2.02 -8 1 C-5.07175348 0.02391783 -3.04386724 -0.08226668 0 0 Z " fill="#9EA29C" transform="translate(75,13)"/>
<path d="M0 0 C0.66 0 1.32 0 2 0 C1.67 0.99 1.34 1.98 1 3 C-1.31 2.67 -3.62 2.34 -6 2 C-6.33 1.01 -6.66 0.02 -7 -1 C-3.51418144 -2.2020064 -3.32007656 -2.21338437 0 0 Z " fill="#B9B8AE" transform="translate(54,13)"/>
<path d="M0 0 C0.66 0 1.32 0 2 0 C5 5.625 5 5.625 5 9 C4.01 8.67 3.02 8.34 2 8 C0.5522078 5.10441559 0 3.25811062 0 0 Z " fill="#ABA989" transform="translate(61,138)"/>
<path d="M0 0 C0.33 0 0.66 0 1 0 C0.85892253 1.45880109 0.71197585 2.91703551 0.5625 4.375 C0.48128906 5.18710938 0.40007812 5.99921875 0.31640625 6.8359375 C0 9 0 9 -1 11 C-1.66 11 -2.32 11 -3 11 C-2.44894091 7.0507432 -1.61064629 3.65079826 0 0 Z " fill="#A7A78A" transform="translate(73,69)"/>
<path d="M0 0 C0.66 1.32 1.32 2.64 2 4 C1.01 4.66 0.02 5.32 -1 6 C-2.32 5.01 -3.64 4.02 -5 3 C-3.35 2.01 -1.7 1.02 0 0 Z " fill="#879399" transform="translate(46,12)"/>
<path d="M0 0 C0.33 0.66 0.66 1.32 1 2 C3.02463255 2.65213292 3.02463255 2.65213292 5 3 C3.68 3 2.36 3 1 3 C1 3.66 1 4.32 1 5 C1.99 5 2.98 5 4 5 C4 5.99 4 6.98 4 8 C2.68 7.67 1.36 7.34 0 7 C0 4.69 0 2.38 0 0 Z " fill="#CA6545" transform="translate(69,26)"/>
<path d="M0 0 C0.99 0 1.98 0 3 0 C3 2.97 3 5.94 3 9 C0.23776722 6.23776722 0.42143709 3.79293383 0 0 Z " fill="#B3AE95" transform="translate(41,24)"/>
<path d="M0 0 C0.66 0 1.32 0 2 0 C3.4783226 2.95664519 3.06032783 5.74229737 3 9 C2.34 9 1.68 9 1 9 C0.67 6.03 0.34 3.06 0 0 Z " fill="#A7A68A" transform="translate(95,111)"/>
<path d="M0 0 C1.98 0.99 1.98 0.99 4 2 C4 3.65 4 5.3 4 7 C2.02 7.99 2.02 7.99 0 9 C0.185625 7.88625 0.37125 6.7725 0.5625 5.625 C1.31680657 2.17431139 1.31680657 2.17431139 0 0 Z " fill="#ADAA89" transform="translate(82,111)"/>
<path d="M0 0 C0.66 0 1.32 0 2 0 C2.84454356 3.37817425 3.10844919 5.67465243 2 9 C1.34 9 0.68 9 0 9 C0 6.03 0 3.06 0 0 Z " fill="#B2AD88" transform="translate(31,111)"/>
<path d="M0 0 C0.99 0 1.98 0 3 0 C3 1.32 3 2.64 3 4 C1.02 4.33 -0.96 4.66 -3 5 C-2.67 4.34 -2.34 3.68 -2 3 C-1.34 3 -0.68 3 0 3 C0 2.01 0 1.02 0 0 Z " fill="#829290" transform="translate(61,116)"/>
<path d="M0 0 C0.99 0.33 1.98 0.66 3 1 C3 2.98 3 4.96 3 7 C2.01 7.33 1.02 7.66 0 8 C0 5.36 0 2.72 0 0 Z " fill="#AEAB89" transform="translate(59,125)"/>
<path d="M0 0 C0.99 0 1.98 0 3 0 C3 0.66 3 1.32 3 2 C3.99 2.66 4.98 3.32 6 4 C2.7 4 -0.6 4 -4 4 C-2.68 3.34 -1.36 2.68 0 2 C0 1.34 0 0.68 0 0 Z " fill="#506A7E" transform="translate(62,37)"/>
</svg>
